<?xml version="1.0" encoding="UTF-8" standalone="no"?>
<!DOCTYPE svg PUBLIC "-//W3C//DTD SVG 1.1//EN"
 "http://www.w3.org/Graphics/SVG/1.1/DTD/svg11.dtd">
<!-- Generated by graphviz version 2.38.0 (20140413.2041)
 -->
<!-- Title: dot_FromArray Pages: 1 -->
<svg width="1856pt" height="254pt"
 viewBox="0.00 0.00 1856.00 254.00" xmlns="http://www.w3.org/2000/svg" xmlns:xlink="http://www.w3.org/1999/xlink">
<g id="graph0" class="graph" transform="scale(1 1) rotate(0) translate(4 250)">
<title>dot_FromArray</title>
<polygon fill="white" stroke="none" points="-4,4 -4,-250 1852,-250 1852,4 -4,4"/>
<g id="clust5" class="cluster"><title>cluster1</title>
<polygon fill="orange" stroke="red" points="1412,-90 1412,-164 1840,-164 1840,-90 1412,-90"/>
<text text-anchor="middle" x="1626" y="-148.8" font-family="Times,serif" font-size="14.00">Missing</text>
</g>
<g id="clust6" class="cluster"><title>cluster2</title>
<polygon fill="#999999" stroke="#999999" points="8,-8 8,-82 224,-82 224,-8 8,-8"/>
<text text-anchor="middle" x="116" y="-66.8" font-family="Times,serif" font-size="14.00">stack &quot;lib_Geometry&quot;</text>
</g>
<g id="clust7" class="cluster"><title>cluster3</title>
<polygon fill="#999999" stroke="#999999" points="32,-90 32,-238 1404,-238 1404,-90 32,-90"/>
<text text-anchor="middle" x="718" y="-222.8" font-family="Times,serif" font-size="14.00">stack &quot;lib_GeometryBezier&quot;</text>
</g>
<!-- n17 -->
<g id="node1" class="node"><title>n17</title>
<g id="a_node1"><a xlink:href="loc%2Cg%2CMissing%2C1" xlink:title="loc">
<ellipse fill="#7f7f7f" stroke="white" cx="1805" cy="-116" rx="27" ry="18"/>
<text text-anchor="middle" x="1805" y="-111.8" font-family="Times,serif" font-size="14.00">loc</text>
</a>
</g>
</g>
<!-- n12 -->
<g id="node2" class="node"><title>n12</title>
<g id="a_node2"><a xlink:href="graphic_BezierPoints%2Cg%2Cstack+%22lib_GeometryBezier%22%2C1" xlink:title="graphic_BezierPoints">
<ellipse fill="#7f7f7f" stroke="white" cx="594" cy="-190" rx="86.4791" ry="18"/>
<text text-anchor="middle" x="594" y="-185.8" font-family="Times,serif" font-size="14.00">graphic_BezierPoints</text>
</a>
</g>
</g>
<!-- n1 -->
<g id="node7" class="node"><title>n1</title>
<g id="a_node7"><a xlink:href="graph_BezierLine%2Cf%2Cstack+%22lib_GeometryBezier%22%2C1" xlink:title="graph_BezierLine">
<ellipse fill="GreenYellow" stroke="#008b00" cx="594" cy="-116" rx="73.8912" ry="18"/>
<text text-anchor="middle" x="594" y="-111.8" font-family="Times,serif" font-size="14.00">graph_BezierLine</text>
</a>
</g>
</g>
<!-- n12&#45;&gt;n1 -->
<g id="edge7" class="edge"><title>n12&#45;&gt;n1</title>
<path fill="none" stroke="black" d="M594,-171.937C594,-163.807 594,-153.876 594,-144.705"/>
<polygon fill="black" stroke="black" points="597.5,-144.441 594,-134.441 590.5,-144.441 597.5,-144.441"/>
</g>
<!-- n2 -->
<g id="node3" class="node"><title>n2</title>
<g id="a_node3"><a xlink:href="hexagon_GetPoint%2Cf%2Cstack+%22lib_GeometryBezier%22%2C1" xlink:title="hexagon_GetPoint">
<ellipse fill="GreenYellow" stroke="#008b00" cx="116" cy="-116" rx="75.8639" ry="18"/>
<text text-anchor="middle" x="116" y="-111.8" font-family="Times,serif" font-size="14.00">hexagon_GetPoint</text>
</a>
</g>
</g>
<!-- n3 -->
<g id="node9" class="node"><title>n3</title>
<g id="a_node9"><a xlink:href="angle_DegreesToRadians%2Cc%2Cstack+%22lib_Geometry%22%2C1" xlink:title="angle_DegreesToRadians">
<ellipse fill="LightBlue" stroke="Blue" cx="116" cy="-34" rx="100.193" ry="18"/>
<text text-anchor="middle" x="116" y="-29.8" font-family="Times,serif" font-size="14.00">angle_DegreesToRadians</text>
</a>
</g>
</g>
<!-- n2&#45;&gt;n3 -->
<g id="edge4" class="edge"><title>n2&#45;&gt;n3</title>
<path fill="none" stroke="black" d="M116,-97.6412C116,-87.2971 116,-73.941 116,-62.2206"/>
<polygon fill="black" stroke="black" points="119.5,-62.0501 116,-52.0501 112.5,-62.0501 119.5,-62.0501"/>
</g>
<!-- n14 -->
<g id="node4" class="node"><title>n14</title>
<g id="a_node4"><a xlink:href="CMYKtoRGB%2Cf%2Cstack+%22lib_GeometryBezier%22%2C1" xlink:title="CMYKtoRGB">
<ellipse fill="GreenYellow" stroke="#008b00" cx="1260" cy="-190" rx="61.9082" ry="18"/>
<text text-anchor="middle" x="1260" y="-185.8" font-family="Times,serif" font-size="14.00">CMYKtoRGB</text>
</a>
</g>
</g>
<!-- n13 -->
<g id="node5" class="node"><title>n13</title>
<g id="a_node5"><a xlink:href="DecimaltoRGB%2Cf%2Cstack+%22lib_GeometryBezier%22%2C1" xlink:title="DecimaltoRGB">
<ellipse fill="GreenYellow" stroke="#008b00" cx="1115" cy="-190" rx="65.2477" ry="18"/>
<text text-anchor="middle" x="1115" y="-185.8" font-family="Times,serif" font-size="14.00">DecimaltoRGB</text>
</a>
</g>
</g>
<!-- n4 -->
<g id="node6" class="node"><title>n4</title>
<g id="a_node6"><a xlink:href="graph_QuadraticLine%2Cf%2Cstack+%22lib_GeometryBezier%22%2C1" xlink:title="graph_QuadraticLine">
<ellipse fill="GreenYellow" stroke="#008b00" cx="946" cy="-190" rx="85.9686" ry="18"/>
<text text-anchor="middle" x="946" y="-185.8" font-family="Times,serif" font-size="14.00">graph_QuadraticLine</text>
</a>
</g>
</g>
<!-- n6 -->
<g id="node8" class="node"><title>n6</title>
<g id="a_node8"><a xlink:href="graph_ImportEps%2Cc%2Cstack+%22lib_GeometryBezier%22%2C1" xlink:title="graph_ImportEps">
<ellipse fill="LightBlue" stroke="Blue" cx="770" cy="-190" rx="71.9963" ry="18"/>
<text text-anchor="middle" x="770" y="-185.8" font-family="Times,serif" font-size="14.00">graph_ImportEps</text>
</a>
</g>
</g>
<!-- n8 -->
<g id="node15" class="node"><title>n8</title>
<g id="a_node15"><a xlink:href="foreColor%2Cs%2CMissing%2C1" xlink:title="foreColor">
<ellipse fill="grey" stroke="white" cx="1536" cy="-116" rx="44.475" ry="18"/>
<text text-anchor="middle" x="1536" y="-111.8" font-family="Times,serif" font-size="14.00">foreColor</text>
</a>
</g>
</g>
<!-- n6&#45;&gt;n8 -->
<g id="edge2" class="edge"><title>n6&#45;&gt;n8</title>
<path fill="none" stroke="black" d="M819.877,-176.948C830.113,-174.923 840.859,-173.118 851,-172 885.903,-168.153 1450.25,-176.667 1483,-164 1495.55,-159.148 1507.05,-149.862 1516.1,-140.817"/>
<polygon fill="black" stroke="black" points="1518.8,-143.059 1523.11,-133.379 1513.7,-138.261 1518.8,-143.059"/>
</g>
<!-- n9 -->
<g id="node16" class="node"><title>n9</title>
<g id="a_node16"><a xlink:href="rect%2Cs%2CMissing%2C1" xlink:title="rect">
<ellipse fill="grey" stroke="white" cx="1447" cy="-116" rx="27" ry="18"/>
<text text-anchor="middle" x="1447" y="-111.8" font-family="Times,serif" font-size="14.00">rect</text>
</a>
</g>
</g>
<!-- n6&#45;&gt;n9 -->
<g id="edge3" class="edge"><title>n6&#45;&gt;n9</title>
<path fill="none" stroke="black" d="M819.879,-176.962C830.115,-174.935 840.86,-173.126 851,-172 881.758,-168.584 1380.08,-177.357 1408,-164 1418.04,-159.195 1426.41,-150.425 1432.78,-141.751"/>
<polygon fill="black" stroke="black" points="1435.82,-143.512 1438.48,-133.259 1430,-139.612 1435.82,-143.512"/>
</g>
<!-- n7 -->
<g id="node18" class="node"><title>n7</title>
<g id="a_node18"><a xlink:href="backcolor%2Cs%2CMissing%2C1" xlink:title="backcolor">
<ellipse fill="grey" stroke="white" cx="1643" cy="-116" rx="44.9423" ry="18"/>
<text text-anchor="middle" x="1643" y="-111.8" font-family="Times,serif" font-size="14.00">backcolor</text>
</a>
</g>
</g>
<!-- n6&#45;&gt;n7 -->
<g id="edge1" class="edge"><title>n6&#45;&gt;n7</title>
<path fill="none" stroke="black" d="M819.876,-176.934C830.112,-174.91 840.858,-173.108 851,-172 891.76,-167.545 1550.68,-178.579 1589,-164 1601.71,-159.166 1613.41,-149.884 1622.65,-140.836"/>
<polygon fill="black" stroke="black" points="1625.4,-143.03 1629.8,-133.394 1620.35,-138.18 1625.4,-143.03"/>
</g>
<!-- n16 -->
<g id="node10" class="node"><title>n16</title>
<g id="a_node10"><a xlink:href="flipG%2Cc%2Cstack+%22lib_GeometryBezier%22%2C1" xlink:title="flipG">
<ellipse fill="LightBlue" stroke="Blue" cx="1368" cy="-190" rx="28.0822" ry="18"/>
<text text-anchor="middle" x="1368" y="-185.8" font-family="Times,serif" font-size="14.00">flipG</text>
</a>
</g>
</g>
<!-- n16&#45;&gt;n17 -->
<g id="edge5" class="edge"><title>n16&#45;&gt;n17</title>
<path fill="none" stroke="black" d="M1396.27,-188.585C1482.18,-187.136 1736.34,-181.41 1769,-164 1778.29,-159.048 1785.91,-150.536 1791.71,-142.104"/>
<polygon fill="black" stroke="black" points="1794.75,-143.834 1797.08,-133.499 1788.82,-140.125 1794.75,-143.834"/>
</g>
<!-- n18 -->
<g id="node17" class="node"><title>n18</title>
<g id="a_node17"><a xlink:href="loc%2Cs%2CMissing%2C1" xlink:title="loc">
<ellipse fill="grey" stroke="white" cx="1733" cy="-116" rx="27" ry="18"/>
<text text-anchor="middle" x="1733" y="-111.8" font-family="Times,serif" font-size="14.00">loc</text>
</a>
</g>
</g>
<!-- n16&#45;&gt;n18 -->
<g id="edge6" class="edge"><title>n16&#45;&gt;n18</title>
<path fill="none" stroke="black" d="M1396.41,-188.164C1471.43,-185.77 1670.9,-178.138 1697,-164 1706.26,-158.985 1713.87,-150.46 1719.67,-142.036"/>
<polygon fill="black" stroke="black" points="1722.71,-143.777 1725.05,-133.445 1716.78,-140.06 1722.71,-143.777"/>
</g>
<!-- n11 -->
<g id="node11" class="node"><title>n11</title>
<g id="a_node11"><a xlink:href="flipAllgraphics%2Cc%2Cstack+%22lib_GeometryBezier%22%2C1" xlink:title="flipAllgraphics">
<ellipse fill="LightBlue" stroke="Blue" cx="427" cy="-190" rx="63.327" ry="18"/>
<text text-anchor="middle" x="427" y="-185.8" font-family="Times,serif" font-size="14.00">flipAllgraphics</text>
</a>
</g>
</g>
<!-- n5 -->
<g id="node13" class="node"><title>n5</title>
<g id="a_node13"><a xlink:href="flipG2%2Cc%2Cstack+%22lib_GeometryBezier%22%2C1" xlink:title="flipG2">
<ellipse fill="LightBlue" stroke="Blue" cx="427" cy="-116" rx="32.9255" ry="18"/>
<text text-anchor="middle" x="427" y="-111.8" font-family="Times,serif" font-size="14.00">flipG2</text>
</a>
</g>
</g>
<!-- n11&#45;&gt;n5 -->
<g id="edge8" class="edge"><title>n11&#45;&gt;n5</title>
<path fill="none" stroke="black" d="M427,-171.937C427,-163.807 427,-153.876 427,-144.705"/>
<polygon fill="black" stroke="black" points="430.5,-144.441 427,-134.441 423.5,-144.441 430.5,-144.441"/>
</g>
<!-- n10 -->
<g id="node12" class="node"><title>n10</title>
<g id="a_node12"><a xlink:href="bezier%2Cc%2Cstack+%22lib_GeometryBezier%22%2C1" xlink:title="bezier">
<ellipse fill="LightBlue" stroke="Blue" cx="314" cy="-190" rx="31.9132" ry="18"/>
<text text-anchor="middle" x="314" y="-185.8" font-family="Times,serif" font-size="14.00">bezier</text>
</a>
</g>
</g>
<!-- n15 -->
<g id="node14" class="node"><title>n15</title>
<g id="a_node14"><a xlink:href="linerect%2Cc%2Cstack+%22lib_GeometryBezier%22%2C1" xlink:title="linerect">
<ellipse fill="LightBlue" stroke="Blue" cx="228" cy="-190" rx="36.7403" ry="18"/>
<text text-anchor="middle" x="228" y="-185.8" font-family="Times,serif" font-size="14.00">linerect</text>
</a>
</g>
</g>
<!-- n19 -->
<g id="node19" class="node"><title>n19</title>
<g id="a_node19"><a xlink:href="hexagon_Points%2Cs%2Cstack+%22lib_GeometryBezier%22%2C1" xlink:title="hexagon_Points">
<ellipse fill="grey" stroke="white" cx="107" cy="-190" rx="66.7098" ry="18"/>
<text text-anchor="middle" x="107" y="-185.8" font-family="Times,serif" font-size="14.00">hexagon_Points</text>
</a>
</g>
</g>
<!-- n19&#45;&gt;n2 -->
<g id="edge9" class="edge"><title>n19&#45;&gt;n2</title>
<path fill="none" stroke="black" d="M109.133,-171.937C110.16,-163.719 111.417,-153.66 112.574,-144.406"/>
<polygon fill="black" stroke="black" points="116.052,-144.798 113.82,-134.441 109.107,-143.929 116.052,-144.798"/>
</g>
</g>
</svg>
