<?xml version="1.0" encoding="UTF-8" standalone="no"?>
<!DOCTYPE svg PUBLIC "-//W3C//DTD SVG 1.1//EN"
 "http://www.w3.org/Graphics/SVG/1.1/DTD/svg11.dtd">
<!-- Generated by graphviz version 2.38.0 (20140413.2041)
 -->
<!-- Title: dot_FromArray Pages: 1 -->
<svg width="764pt" height="480pt"
 viewBox="0.00 0.00 764.00 480.00" xmlns="http://www.w3.org/2000/svg" xmlns:xlink="http://www.w3.org/1999/xlink">
<g id="graph0" class="graph" transform="scale(1 1) rotate(0) translate(4 476)">
<title>dot_FromArray</title>
<polygon fill="white" stroke="none" points="-4,4 -4,-476 760,-476 760,4 -4,4"/>
<g id="clust5" class="cluster"><title>cluster1</title>
<polygon fill="orange" stroke="red" points="546,-8 546,-82 714,-82 714,-8 546,-8"/>
<text text-anchor="middle" x="630" y="-66.8" font-family="Times,serif" font-size="14.00">Missing</text>
</g>
<g id="clust6" class="cluster"><title>cluster2</title>
<polygon fill="#999999" stroke="#999999" points="601,-90 601,-164 734,-164 734,-90 601,-90"/>
<text text-anchor="middle" x="667.5" y="-148.8" font-family="Times,serif" font-size="14.00">stack &quot;lib_Common&quot;</text>
</g>
<g id="clust7" class="cluster"><title>cluster3</title>
<polygon fill="#999999" stroke="#999999" points="8,-318 8,-464 748,-464 748,-318 8,-318"/>
<text text-anchor="middle" x="378" y="-448.8" font-family="Times,serif" font-size="14.00">stack &quot;lib_DragAndDrop&quot;</text>
</g>
<g id="clust8" class="cluster"><title>cluster4</title>
<polygon fill="#999999" stroke="#999999" points="410,-90 410,-310 582,-310 582,-90 410,-90"/>
<text text-anchor="middle" x="496" y="-294.8" font-family="Times,serif" font-size="14.00">stack &quot;lib_View&quot;</text>
</g>
<!-- n6 -->
<g id="node1" class="node"><title>n6</title>
<g id="a_node1"><a xlink:href="locked_View%2Cg%2Cstack+%22lib_View%22%2C1" xlink:title="locked_View">
<ellipse fill="#7f7f7f" stroke="white" cx="485" cy="-262" rx="56.9596" ry="18"/>
<text text-anchor="middle" x="485" y="-257.8" font-family="Times,serif" font-size="14.00">locked_View</text>
</a>
</g>
</g>
<!-- n3 -->
<g id="node2" class="node"><title>n3</title>
<g id="a_node2"><a xlink:href="view_Object%2Cg%2Cstack+%22lib_View%22%2C1" xlink:title="view_Object">
<ellipse fill="#7f7f7f" stroke="white" cx="490" cy="-190" rx="55.0836" ry="18"/>
<text text-anchor="middle" x="490" y="-185.8" font-family="Times,serif" font-size="14.00">view_Object</text>
</a>
</g>
</g>
<!-- n6&#45;&gt;n3 -->
<g id="edge7" class="edge"><title>n6&#45;&gt;n3</title>
<path fill="none" stroke="black" d="M486.236,-243.697C486.787,-235.983 487.449,-226.712 488.063,-218.112"/>
<polygon fill="black" stroke="black" points="491.557,-218.328 488.778,-208.104 484.575,-217.83 491.557,-218.328"/>
</g>
<!-- n4 -->
<g id="node7" class="node"><title>n4</title>
<g id="a_node7"><a xlink:href="view_AboveTarget%2Cg%2Cstack+%22lib_View%22%2C1" xlink:title="view_AboveTarget">
<ellipse fill="#7f7f7f" stroke="white" cx="496" cy="-116" rx="77.6975" ry="18"/>
<text text-anchor="middle" x="496" y="-111.8" font-family="Times,serif" font-size="14.00">view_AboveTarget</text>
</a>
</g>
</g>
<!-- n3&#45;&gt;n4 -->
<g id="edge8" class="edge"><title>n3&#45;&gt;n4</title>
<path fill="none" stroke="black" d="M491.422,-171.937C492.099,-163.807 492.927,-153.876 493.691,-144.705"/>
<polygon fill="black" stroke="black" points="497.204,-144.697 494.547,-134.441 490.228,-144.115 497.204,-144.697"/>
</g>
<!-- n8 -->
<g id="node3" class="node"><title>n8</title>
<g id="a_node3"><a xlink:href="uRIP%2Cg%2CMissing%2C1" xlink:title="uRIP">
<ellipse fill="#7f7f7f" stroke="white" cx="582" cy="-34" rx="28.0822" ry="18"/>
<text text-anchor="middle" x="582" y="-29.8" font-family="Times,serif" font-size="14.00">uRIP</text>
</a>
</g>
</g>
<!-- n12 -->
<g id="node4" class="node"><title>n12</title>
<g id="a_node4"><a xlink:href="dropped_TargetName%2Cg%2Cstack+%22lib_DragAndDrop%22%2C1" xlink:title="dropped_TargetName">
<ellipse fill="#7f7f7f" stroke="white" cx="349" cy="-416" rx="86.8517" ry="18"/>
<text text-anchor="middle" x="349" y="-411.8" font-family="Times,serif" font-size="14.00">dropped_TargetName</text>
</a>
</g>
</g>
<!-- n7 -->
<g id="node9" class="node"><title>n7</title>
<g id="a_node9"><a xlink:href="drag_GetDroppedTargetView%2Cf%2Cstack+%22lib_DragAndDrop%22%2C1" xlink:title="drag_GetDroppedTargetView">
<ellipse fill="GreenYellow" stroke="#008b00" cx="460" cy="-344" rx="114.771" ry="18"/>
<text text-anchor="middle" x="460" y="-339.8" font-family="Times,serif" font-size="14.00">drag_GetDroppedTargetView</text>
</a>
</g>
</g>
<!-- n12&#45;&gt;n7 -->
<g id="edge9" class="edge"><title>n12&#45;&gt;n7</title>
<path fill="none" stroke="black" d="M374.745,-398.765C389.659,-389.359 408.643,-377.387 424.91,-367.129"/>
<polygon fill="black" stroke="black" points="427.033,-369.928 433.624,-361.633 423.299,-364.007 427.033,-369.928"/>
</g>
<!-- n9 -->
<g id="node5" class="node"><title>n9</title>
<g id="a_node5"><a xlink:href="view_Name%2Cg%2Cstack+%22lib_Common%22%2C1" xlink:title="view_Name">
<ellipse fill="#7f7f7f" stroke="white" cx="667" cy="-116" rx="52.6693" ry="18"/>
<text text-anchor="middle" x="667" y="-111.8" font-family="Times,serif" font-size="14.00">view_Name</text>
</a>
</g>
</g>
<!-- n9&#45;&gt;n8 -->
<g id="edge2" class="edge"><title>n9&#45;&gt;n8</title>
<path fill="none" stroke="black" d="M641.994,-99.8905C634.249,-94.6772 625.935,-88.5011 619,-82 611.655,-75.1154 604.568,-66.7056 598.596,-58.9128"/>
<polygon fill="black" stroke="black" points="601.355,-56.7576 592.594,-50.8003 595.728,-60.921 601.355,-56.7576"/>
</g>
<!-- n10 -->
<g id="node6" class="node"><title>n10</title>
<g id="a_node6"><a xlink:href="dgProps%2Cg%2CMissing%2C1" xlink:title="dgProps">
<ellipse fill="#7f7f7f" stroke="white" cx="667" cy="-34" rx="39.1973" ry="18"/>
<text text-anchor="middle" x="667" y="-29.8" font-family="Times,serif" font-size="14.00">dgProps</text>
</a>
</g>
</g>
<!-- n9&#45;&gt;n10 -->
<g id="edge1" class="edge"><title>n9&#45;&gt;n10</title>
<path fill="none" stroke="black" d="M667,-97.6412C667,-87.2971 667,-73.941 667,-62.2206"/>
<polygon fill="black" stroke="black" points="670.5,-62.0501 667,-52.0501 663.5,-62.0501 670.5,-62.0501"/>
</g>
<!-- n4&#45;&gt;n8 -->
<g id="edge5" class="edge"><title>n4&#45;&gt;n8</title>
<path fill="none" stroke="black" d="M513.819,-98.4239C526.937,-86.2214 544.882,-69.5284 559.069,-56.3309"/>
<polygon fill="black" stroke="black" points="561.572,-58.783 566.51,-49.4092 556.804,-53.6577 561.572,-58.783"/>
</g>
<!-- n11 -->
<g id="node8" class="node"><title>n11</title>
<g id="a_node8"><a xlink:href="drag_GetGlobalStatus%2Cf%2Cstack+%22lib_DragAndDrop%22%2C1" xlink:title="drag_GetGlobalStatus">
<ellipse fill="GreenYellow" stroke="#008b00" cx="543" cy="-416" rx="88.9015" ry="18"/>
<text text-anchor="middle" x="543" y="-411.8" font-family="Times,serif" font-size="14.00">drag_GetGlobalStatus</text>
</a>
</g>
</g>
<!-- n7&#45;&gt;n6 -->
<g id="edge4" class="edge"><title>n7&#45;&gt;n6</title>
<path fill="none" stroke="black" d="M465.425,-325.641C468.69,-315.192 472.916,-301.668 476.606,-289.862"/>
<polygon fill="black" stroke="black" points="480.03,-290.639 479.672,-280.05 473.348,-288.551 480.03,-290.639"/>
</g>
<!-- n2 -->
<g id="node10" class="node"><title>n2</title>
<g id="a_node10"><a xlink:href="drag_SetGlobalStatus%2Cc%2Cstack+%22lib_DragAndDrop%22%2C1" xlink:title="drag_SetGlobalStatus">
<ellipse fill="LightBlue" stroke="Blue" cx="200" cy="-344" rx="87.4654" ry="18"/>
<text text-anchor="middle" x="200" y="-339.8" font-family="Times,serif" font-size="14.00">drag_SetGlobalStatus</text>
</a>
</g>
</g>
<!-- n13 -->
<g id="node11" class="node"><title>n13</title>
<g id="a_node11"><a xlink:href="dragEnter%2Cc%2Cstack+%22lib_DragAndDrop%22%2C1" xlink:title="dragEnter">
<ellipse fill="LightBlue" stroke="Blue" cx="695" cy="-416" rx="44.9423" ry="18"/>
<text text-anchor="middle" x="695" y="-411.8" font-family="Times,serif" font-size="14.00">dragEnter</text>
</a>
</g>
</g>
<!-- n13&#45;&gt;n9 -->
<g id="edge3" class="edge"><title>n13&#45;&gt;n9</title>
<path fill="none" stroke="black" d="M693.374,-397.69C688.715,-348.107 675.291,-205.236 669.6,-144.668"/>
<polygon fill="black" stroke="black" points="673.051,-143.986 668.631,-134.358 666.082,-144.641 673.051,-143.986"/>
</g>
<!-- n1 -->
<g id="node12" class="node"><title>n1</title>
<g id="a_node12"><a xlink:href="dragDrop%2Cc%2Cstack+%22lib_DragAndDrop%22%2C1" xlink:title="dragDrop">
<ellipse fill="LightBlue" stroke="Blue" cx="200" cy="-416" rx="43.9905" ry="18"/>
<text text-anchor="middle" x="200" y="-411.8" font-family="Times,serif" font-size="14.00">dragDrop</text>
</a>
</g>
</g>
<!-- n1&#45;&gt;n2 -->
<g id="edge6" class="edge"><title>n1&#45;&gt;n2</title>
<path fill="none" stroke="black" d="M200,-397.697C200,-389.983 200,-380.712 200,-372.112"/>
<polygon fill="black" stroke="black" points="203.5,-372.104 200,-362.104 196.5,-372.104 203.5,-372.104"/>
</g>
<!-- n5 -->
<g id="node13" class="node"><title>n5</title>
<g id="a_node13"><a xlink:href="drag_Dropped%2Cs%2Cstack+%22lib_DragAndDrop%22%2C1" xlink:title="drag_Dropped">
<ellipse fill="grey" stroke="white" cx="77" cy="-416" rx="61.3718" ry="18"/>
<text text-anchor="middle" x="77" y="-411.8" font-family="Times,serif" font-size="14.00">drag_Dropped</text>
</a>
</g>
</g>
</g>
</svg>
