<?xml version="1.0" encoding="UTF-8" standalone="no"?>
<!DOCTYPE svg PUBLIC "-//W3C//DTD SVG 1.1//EN"
 "http://www.w3.org/Graphics/SVG/1.1/DTD/svg11.dtd">
<!-- Generated by graphviz version 2.38.0 (20140413.2041)
 -->
<!-- Title: dot_FromArray Pages: 1 -->
<svg width="1410pt" height="694pt"
 viewBox="0.00 0.00 1410.00 694.00" xmlns="http://www.w3.org/2000/svg" xmlns:xlink="http://www.w3.org/1999/xlink">
<g id="graph0" class="graph" transform="scale(1 1) rotate(0) translate(4 690)">
<title>dot_FromArray</title>
<polygon fill="white" stroke="none" points="-4,4 -4,-690 1406,-690 1406,4 -4,4"/>
<g id="clust6" class="cluster"><title>cluster1</title>
<polygon fill="orange" stroke="red" points="1252,-440 1252,-514 1394,-514 1394,-440 1252,-440"/>
<text text-anchor="middle" x="1323" y="-498.8" font-family="Times,serif" font-size="14.00">Missing</text>
</g>
<g id="clust7" class="cluster"><title>cluster2</title>
<polygon fill="#999999" stroke="#999999" points="516,-522 516,-596 667,-596 667,-522 516,-522"/>
<text text-anchor="middle" x="591.5" y="-580.8" font-family="Times,serif" font-size="14.00">stack &quot;lib_DaemonLog&quot;</text>
</g>
<g id="clust8" class="cluster"><title>cluster3</title>
<polygon fill="#999999" stroke="#999999" points="8,-604 8,-678 939,-678 939,-604 8,-604"/>
<text text-anchor="middle" x="473.5" y="-662.8" font-family="Times,serif" font-size="14.00">stack &quot;lib_DaemonMiddleware&quot;</text>
</g>
<g id="clust9" class="cluster"><title>cluster4</title>
<polygon fill="#999999" stroke="#999999" points="675,-8 675,-596 1244,-596 1244,-8 675,-8"/>
<text text-anchor="middle" x="959.5" y="-580.8" font-family="Times,serif" font-size="14.00">stack &quot;lib_Log&quot;</text>
</g>
<!-- n13 -->
<g id="node1" class="node"><title>n13</title>
<g id="a_node1"><a xlink:href="log_Name%2Cs%2Cstack+%22lib_Log%22%2C1" xlink:title="log_Name">
<ellipse fill="grey" stroke="white" cx="1102" cy="-34" rx="46.8891" ry="18"/>
<text text-anchor="middle" x="1102" y="-29.8" font-family="Times,serif" font-size="14.00">log_Name</text>
</a>
</g>
</g>
<!-- n13&#45;&gt;n13 -->
<g id="edge7" class="edge"><title>n13&#45;&gt;n13</title>
<path fill="none" stroke="black" d="M1134.75,-47.0254C1151.68,-49.0293 1166.94,-44.6875 1166.94,-34 1166.94,-25.4834 1157.25,-20.9964 1144.75,-20.5389"/>
<polygon fill="black" stroke="black" points="1144.59,-17.0425 1134.75,-20.9746 1144.89,-24.0359 1144.59,-17.0425"/>
</g>
<!-- n20 -->
<g id="node2" class="node"><title>n20</title>
<g id="a_node2"><a xlink:href="displayed_Log%2Cs%2CMissing%2C1" xlink:title="displayed_Log">
<ellipse fill="grey" stroke="white" cx="1323" cy="-466" rx="62.8339" ry="18"/>
<text text-anchor="middle" x="1323" y="-461.8" font-family="Times,serif" font-size="14.00">displayed_Log</text>
</a>
</g>
</g>
<!-- n1 -->
<g id="node3" class="node"><title>n1</title>
<g id="a_node3"><a xlink:href="daemon_Log%2Cpc%2Cstack+%22lib_DaemonMiddleware%22%2C1" xlink:title="daemon_Log">
<ellipse fill="none" stroke="black" cx="874" cy="-630" rx="56.5373" ry="18"/>
<text text-anchor="middle" x="874" y="-625.8" font-family="Times,serif" font-size="14.00">daemon_Log</text>
</a>
</g>
</g>
<!-- n3 -->
<g id="node5" class="node"><title>n3</title>
<g id="a_node5"><a xlink:href="live_Logging%2Cg%2Cstack+%22lib_DaemonLog%22%2C1" xlink:title="live_Logging">
<ellipse fill="#7f7f7f" stroke="white" cx="601" cy="-548" rx="57.5151" ry="18"/>
<text text-anchor="middle" x="601" y="-543.8" font-family="Times,serif" font-size="14.00">live_Logging</text>
</a>
</g>
</g>
<!-- n1&#45;&gt;n3 -->
<g id="edge15" class="edge"><title>n1&#45;&gt;n3</title>
<path fill="none" stroke="black" d="M842.698,-614.918C831.914,-610.67 819.624,-606.48 808,-604 748.35,-591.273 728.803,-615.464 671,-596 655.22,-590.686 639.643,-580.815 627.204,-571.486"/>
<polygon fill="black" stroke="black" points="629.164,-568.576 619.129,-565.177 624.854,-574.092 629.164,-568.576"/>
</g>
<!-- n2 -->
<g id="node9" class="node"><title>n2</title>
<g id="a_node9"><a xlink:href="display_ServerLog%2Cc%2Cstack+%22lib_Log%22%2C1" xlink:title="display_ServerLog">
<ellipse fill="LightBlue" stroke="Blue" cx="1116" cy="-548" rx="77.3003" ry="18"/>
<text text-anchor="middle" x="1116" y="-543.8" font-family="Times,serif" font-size="14.00">display_ServerLog</text>
</a>
</g>
</g>
<!-- n1&#45;&gt;n2 -->
<g id="edge14" class="edge"><title>n1&#45;&gt;n2</title>
<path fill="none" stroke="black" d="M913.743,-617.114C933.939,-610.979 958.835,-603.274 981,-596 1009.33,-586.703 1040.81,-575.779 1066.23,-566.805"/>
<polygon fill="black" stroke="black" points="1067.4,-570.103 1075.66,-563.468 1065.07,-563.504 1067.4,-570.103"/>
</g>
<!-- n4 -->
<g id="node13" class="node"><title>n4</title>
<g id="a_node13"><a xlink:href="log_SetTimeStampEntry%2Cc%2Cstack+%22lib_Log%22%2C1" xlink:title="log_SetTimeStampEntry">
<ellipse fill="LightBlue" stroke="Blue" cx="874" cy="-548" rx="97.9686" ry="18"/>
<text text-anchor="middle" x="874" y="-543.8" font-family="Times,serif" font-size="14.00">log_SetTimeStampEntry</text>
</a>
</g>
</g>
<!-- n1&#45;&gt;n4 -->
<g id="edge16" class="edge"><title>n1&#45;&gt;n4</title>
<path fill="none" stroke="black" d="M874,-611.641C874,-601.297 874,-587.941 874,-576.221"/>
<polygon fill="black" stroke="black" points="877.5,-576.05 874,-566.05 870.5,-576.05 877.5,-576.05"/>
</g>
<!-- n12 -->
<g id="node4" class="node"><title>n12</title>
<g id="a_node4"><a xlink:href="log_View%2Cg%2Cstack+%22lib_Log%22%2C1" xlink:title="log_View">
<ellipse fill="#7f7f7f" stroke="white" cx="1073" cy="-466" rx="44.4146" ry="18"/>
<text text-anchor="middle" x="1073" y="-461.8" font-family="Times,serif" font-size="14.00">log_View</text>
</a>
</g>
</g>
<!-- n12&#45;&gt;n12 -->
<g id="edge6" class="edge"><title>n12&#45;&gt;n12</title>
<path fill="none" stroke="black" d="M1104.17,-478.985C1120.58,-481.086 1135.46,-476.758 1135.46,-466 1135.46,-457.511 1126.2,-453.026 1114.23,-452.544"/>
<polygon fill="black" stroke="black" points="1114,-449.05 1104.17,-453.015 1114.32,-456.043 1114,-449.05"/>
</g>
<!-- n10 -->
<g id="node6" class="node"><title>n10</title>
<g id="a_node6"><a xlink:href="log_View%2Cg%2Cstack+%22lib_DaemonMiddleware%22%2C1" xlink:title="log_View">
<ellipse fill="#7f7f7f" stroke="white" cx="755" cy="-630" rx="44.4146" ry="18"/>
<text text-anchor="middle" x="755" y="-625.8" font-family="Times,serif" font-size="14.00">log_View</text>
</a>
</g>
</g>
<!-- n19 -->
<g id="node7" class="node"><title>n19</title>
<g id="a_node7"><a xlink:href="log_Text%2Cg%2Cstack+%22lib_Log%22%2C1" xlink:title="log_Text">
<ellipse fill="#7f7f7f" stroke="white" cx="1195" cy="-466" rx="41.3349" ry="18"/>
<text text-anchor="middle" x="1195" y="-461.8" font-family="Times,serif" font-size="14.00">log_Text</text>
</a>
</g>
</g>
<!-- n5 -->
<g id="node19" class="node"><title>n5</title>
<g id="a_node19"><a xlink:href="log_Get%2Cf%2Cstack+%22lib_Log%22%2C1" xlink:title="log_Get">
<ellipse fill="GreenYellow" stroke="#008b00" cx="1171" cy="-394" rx="38.6955" ry="18"/>
<text text-anchor="middle" x="1171" y="-389.8" font-family="Times,serif" font-size="14.00">log_Get</text>
</a>
</g>
</g>
<!-- n19&#45;&gt;n5 -->
<g id="edge12" class="edge"><title>n19&#45;&gt;n5</title>
<path fill="none" stroke="black" d="M1189.19,-448.055C1186.49,-440.176 1183.21,-430.617 1180.19,-421.794"/>
<polygon fill="black" stroke="black" points="1183.48,-420.6 1176.92,-412.275 1176.86,-422.87 1183.48,-420.6"/>
</g>
<!-- n15 -->
<g id="node8" class="node"><title>n15</title>
<g id="a_node8"><a xlink:href="log_Name%2Cg%2Cstack+%22lib_Log%22%2C1" xlink:title="log_Name">
<ellipse fill="#7f7f7f" stroke="white" cx="1102" cy="-106" rx="46.8891" ry="18"/>
<text text-anchor="middle" x="1102" y="-101.8" font-family="Times,serif" font-size="14.00">log_Name</text>
</a>
</g>
</g>
<!-- n15&#45;&gt;n13 -->
<g id="edge17" class="edge"><title>n15&#45;&gt;n13</title>
<path fill="none" stroke="black" d="M1102,-87.6966C1102,-79.9827 1102,-70.7125 1102,-62.1124"/>
<polygon fill="black" stroke="black" points="1105.5,-62.1043 1102,-52.1043 1098.5,-62.1044 1105.5,-62.1043"/>
</g>
<!-- n2&#45;&gt;n20 -->
<g id="edge2" class="edge"><title>n2&#45;&gt;n20</title>
<path fill="none" stroke="black" d="M1175.45,-536.313C1198.62,-531.08 1225.07,-523.76 1248,-514 1263.66,-507.336 1279.8,-497.642 1293.09,-488.787"/>
<polygon fill="black" stroke="black" points="1295.08,-491.661 1301.37,-483.129 1291.13,-485.881 1295.08,-491.661"/>
</g>
<!-- n2&#45;&gt;n12 -->
<g id="edge4" class="edge"><title>n2&#45;&gt;n12</title>
<path fill="none" stroke="black" d="M1106.88,-530.034C1101.03,-519.142 1093.31,-504.794 1086.73,-492.539"/>
<polygon fill="black" stroke="black" points="1089.78,-490.818 1081.96,-483.667 1083.61,-494.132 1089.78,-490.818"/>
</g>
<!-- n2&#45;&gt;n19 -->
<g id="edge3" class="edge"><title>n2&#45;&gt;n19</title>
<path fill="none" stroke="black" d="M1132.75,-530.034C1144.26,-518.378 1159.68,-502.765 1172.29,-489.993"/>
<polygon fill="black" stroke="black" points="1174.81,-492.428 1179.34,-482.853 1169.83,-487.509 1174.81,-492.428"/>
</g>
<!-- n16 -->
<g id="node10" class="node"><title>n16</title>
<g id="a_node10"><a xlink:href="dameon_AddToMiddlewareArray%2Cc%2Cstack+%22lib_DaemonMiddleware%22%2C1" xlink:title="dameon_AddToMiddlewareArray">
<ellipse fill="LightBlue" stroke="Blue" cx="562" cy="-630" rx="130.12" ry="18"/>
<text text-anchor="middle" x="562" y="-625.8" font-family="Times,serif" font-size="14.00">dameon_AddToMiddlewareArray</text>
</a>
</g>
</g>
<!-- n14 -->
<g id="node11" class="node"><title>n14</title>
<g id="a_node11"><a xlink:href="middleware_DeleteArray%2Cc%2Cstack+%22lib_DaemonMiddleware%22%2C1" xlink:title="middleware_DeleteArray">
<ellipse fill="LightBlue" stroke="Blue" cx="314" cy="-630" rx="99.9416" ry="18"/>
<text text-anchor="middle" x="314" y="-625.8" font-family="Times,serif" font-size="14.00">middleware_DeleteArray</text>
</a>
</g>
</g>
<!-- n7 -->
<g id="node12" class="node"><title>n7</title>
<g id="a_node12"><a xlink:href="log_SetTemporaryLogFile%2Cc%2Cstack+%22lib_Log%22%2C1" xlink:title="log_SetTemporaryLogFile">
<ellipse fill="LightBlue" stroke="Blue" cx="1102" cy="-250" rx="103.602" ry="18"/>
<text text-anchor="middle" x="1102" y="-245.8" font-family="Times,serif" font-size="14.00">log_SetTemporaryLogFile</text>
</a>
</g>
</g>
<!-- n9 -->
<g id="node15" class="node"><title>n9</title>
<g id="a_node15"><a xlink:href="log_SetFile%2Cc%2Cstack+%22lib_Log%22%2C1" xlink:title="log_SetFile">
<ellipse fill="LightBlue" stroke="Blue" cx="899" cy="-178" rx="50.7741" ry="18"/>
<text text-anchor="middle" x="899" y="-173.8" font-family="Times,serif" font-size="14.00">log_SetFile</text>
</a>
</g>
</g>
<!-- n7&#45;&gt;n9 -->
<g id="edge9" class="edge"><title>n7&#45;&gt;n9</title>
<path fill="none" stroke="black" d="M1057.45,-233.638C1023.67,-221.99 977.448,-206.051 943.645,-194.395"/>
<polygon fill="black" stroke="black" points="944.616,-191.028 934.022,-191.076 942.334,-197.645 944.616,-191.028"/>
</g>
<!-- n8 -->
<g id="node20" class="node"><title>n8</title>
<g id="a_node20"><a xlink:href="log_ConstructTemporaryFileName%2Cf%2Cstack+%22lib_Log%22%2C1" xlink:title="log_ConstructTemporaryFileName">
<ellipse fill="GreenYellow" stroke="#008b00" cx="1102" cy="-178" rx="133.52" ry="18"/>
<text text-anchor="middle" x="1102" y="-173.8" font-family="Times,serif" font-size="14.00">log_ConstructTemporaryFileName</text>
</a>
</g>
</g>
<!-- n7&#45;&gt;n8 -->
<g id="edge8" class="edge"><title>n7&#45;&gt;n8</title>
<path fill="none" stroke="black" d="M1102,-231.697C1102,-223.983 1102,-214.712 1102,-206.112"/>
<polygon fill="black" stroke="black" points="1105.5,-206.104 1102,-196.104 1098.5,-206.104 1105.5,-206.104"/>
</g>
<!-- n18 -->
<g id="node14" class="node"><title>n18</title>
<g id="a_node14"><a xlink:href="log_SetLatestLine%2Cc%2Cstack+%22lib_Log%22%2C1" xlink:title="log_SetLatestLine">
<ellipse fill="LightBlue" stroke="Blue" cx="758" cy="-466" rx="74.8862" ry="18"/>
<text text-anchor="middle" x="758" y="-461.8" font-family="Times,serif" font-size="14.00">log_SetLatestLine</text>
</a>
</g>
</g>
<!-- n4&#45;&gt;n18 -->
<g id="edge11" class="edge"><title>n4&#45;&gt;n18</title>
<path fill="none" stroke="black" d="M849.965,-530.424C832.585,-518.438 808.924,-502.12 789.954,-489.037"/>
<polygon fill="black" stroke="black" points="791.827,-486.077 781.608,-483.281 787.853,-491.84 791.827,-486.077"/>
</g>
<!-- n17 -->
<g id="node17" class="node"><title>n17</title>
<g id="a_node17"><a xlink:href="log_ConstructEntry%2Cf%2Cstack+%22lib_Log%22%2C1" xlink:title="log_ConstructEntry">
<ellipse fill="GreenYellow" stroke="#008b00" cx="931" cy="-466" rx="79.7316" ry="18"/>
<text text-anchor="middle" x="931" y="-461.8" font-family="Times,serif" font-size="14.00">log_ConstructEntry</text>
</a>
</g>
</g>
<!-- n4&#45;&gt;n17 -->
<g id="edge10" class="edge"><title>n4&#45;&gt;n17</title>
<path fill="none" stroke="black" d="M886.088,-530.034C893.872,-519.109 904.133,-504.707 912.883,-492.428"/>
<polygon fill="black" stroke="black" points="915.977,-494.117 918.929,-483.941 910.276,-490.055 915.977,-494.117"/>
</g>
<!-- n11 -->
<g id="node16" class="node"><title>n11</title>
<g id="a_node16"><a xlink:href="middleware_GetArray%2Cf%2Cstack+%22lib_DaemonMiddleware%22%2C1" xlink:title="middleware_GetArray">
<ellipse fill="GreenYellow" stroke="#008b00" cx="106" cy="-630" rx="89.8272" ry="18"/>
<text text-anchor="middle" x="106" y="-625.8" font-family="Times,serif" font-size="14.00">middleware_GetArray</text>
</a>
</g>
</g>
<!-- n6 -->
<g id="node18" class="node"><title>n6</title>
<g id="a_node18"><a xlink:href="log_GetFile%2Cf%2Cstack+%22lib_Log%22%2C1" xlink:title="log_GetFile">
<ellipse fill="GreenYellow" stroke="#008b00" cx="1125" cy="-322" rx="52.2106" ry="18"/>
<text text-anchor="middle" x="1125" y="-317.8" font-family="Times,serif" font-size="14.00">log_GetFile</text>
</a>
</g>
</g>
<!-- n6&#45;&gt;n7 -->
<g id="edge1" class="edge"><title>n6&#45;&gt;n7</title>
<path fill="none" stroke="black" d="M1119.43,-304.055C1116.84,-296.176 1113.7,-286.617 1110.8,-277.794"/>
<polygon fill="black" stroke="black" points="1114.12,-276.683 1107.68,-268.275 1107.47,-278.868 1114.12,-276.683"/>
</g>
<!-- n5&#45;&gt;n6 -->
<g id="edge13" class="edge"><title>n5&#45;&gt;n6</title>
<path fill="none" stroke="black" d="M1160.1,-376.411C1154.62,-368.077 1147.87,-357.797 1141.75,-348.488"/>
<polygon fill="black" stroke="black" points="1144.56,-346.391 1136.14,-339.956 1138.71,-350.235 1144.56,-346.391"/>
</g>
<!-- n8&#45;&gt;n15 -->
<g id="edge5" class="edge"><title>n8&#45;&gt;n15</title>
<path fill="none" stroke="black" d="M1102,-159.697C1102,-151.983 1102,-142.712 1102,-134.112"/>
<polygon fill="black" stroke="black" points="1105.5,-134.104 1102,-124.104 1098.5,-134.104 1105.5,-134.104"/>
</g>
</g>
</svg>
