<?xml version="1.0" encoding="UTF-8" standalone="no"?>
<!DOCTYPE svg PUBLIC "-//W3C//DTD SVG 1.1//EN"
 "http://www.w3.org/Graphics/SVG/1.1/DTD/svg11.dtd">
<!-- Generated by graphviz version 2.38.0 (20140413.2041)
 -->
<!-- Title: dot_FromArray Pages: 1 -->
<svg width="2250pt" height="306pt"
 viewBox="0.00 0.00 2250.00 306.10" xmlns="http://www.w3.org/2000/svg" xmlns:xlink="http://www.w3.org/1999/xlink">
<g id="graph0" class="graph" transform="scale(0.544662 0.544662) rotate(0) translate(4 558)">
<title>dot_FromArray</title>
<polygon fill="white" stroke="none" points="-4,4 -4,-558 4127,-558 4127,4 -4,4"/>
<g id="clust5" class="cluster"><title>cluster1</title>
<polygon fill="orange" stroke="red" points="3107,-8 3107,-82 3874,-82 3874,-8 3107,-8"/>
<text text-anchor="middle" x="3490.5" y="-66.8" font-family="Times,serif" font-size="14.00">Missing</text>
</g>
<g id="clust6" class="cluster"><title>cluster2</title>
<polygon fill="#999999" stroke="#999999" points="3289,-90 3289,-308 3867,-308 3867,-90 3289,-90"/>
<text text-anchor="middle" x="3578" y="-292.8" font-family="Times,serif" font-size="14.00">stack &quot;lib_Colour&quot;</text>
</g>
<g id="clust7" class="cluster"><title>cluster3</title>
<polygon fill="#999999" stroke="#999999" points="2575,-162 2575,-308 2969,-308 2969,-162 2575,-162"/>
<text text-anchor="middle" x="2772" y="-292.8" font-family="Times,serif" font-size="14.00">stack &quot;lib_Common&quot;</text>
</g>
<g id="clust8" class="cluster"><title>cluster4</title>
<polygon fill="#999999" stroke="#999999" points="628,-398 628,-546 3051,-546 3051,-398 628,-398"/>
<text text-anchor="middle" x="1839.5" y="-530.8" font-family="Times,serif" font-size="14.00">stack &quot;lib_Feed&quot;</text>
</g>
<g id="clust9" class="cluster"><title>cluster5</title>
<polygon fill="#999999" stroke="#999999" points="3259,-316 3259,-472 3679,-472 3679,-316 3259,-316"/>
<text text-anchor="middle" x="3469" y="-456.8" font-family="Times,serif" font-size="14.00">stack &quot;lib_HTML&quot;</text>
</g>
<g id="clust10" class="cluster"><title>cluster6</title>
<polygon fill="#999999" stroke="#999999" points="1020,-316 1020,-390 1147,-390 1147,-316 1020,-316"/>
<text text-anchor="middle" x="1083.5" y="-374.8" font-family="Times,serif" font-size="14.00">stack &quot;lib_Sitemap&quot;</text>
</g>
<g id="clust11" class="cluster"><title>cluster7</title>
<polygon fill="#999999" stroke="#999999" points="3059,-398 3059,-472 3251,-472 3251,-398 3059,-398"/>
<text text-anchor="middle" x="3155" y="-456.8" font-family="Times,serif" font-size="14.00">stack &quot;lib_XML&quot;</text>
</g>
<g id="clust12" class="cluster"><title>cluster8</title>
<polygon fill="#999999" stroke="#999999" points="208,-398 208,-472 620,-472 620,-398 208,-398"/>
<text text-anchor="middle" x="414" y="-456.8" font-family="Times,serif" font-size="14.00">stack &quot;lib_XmlExtras&quot;</text>
</g>
<g id="clust13" class="cluster"><title>cluster9</title>
<polygon fill="#999999" stroke="#999999" points="8,-398 8,-472 168,-472 168,-398 8,-398"/>
<text text-anchor="middle" x="88" y="-456.8" font-family="Times,serif" font-size="14.00">stack &quot;libOPN_Outline&quot;</text>
</g>
<g id="clust14" class="cluster"><title>cluster10</title>
<polygon fill="#999999" stroke="#999999" points="3875,-162 3875,-472 4115,-472 4115,-162 3875,-162"/>
<text text-anchor="middle" x="3995" y="-456.8" font-family="Times,serif" font-size="14.00">stack &quot;Rescue Livecode World&quot;</text>
</g>
<!-- n10 -->
<g id="node1" class="node"><title>n10</title>
<g id="a_node1"><a xlink:href="backcolor%2Cg%2CMissing%2C1" xlink:title="backcolor">
<ellipse fill="#7f7f7f" stroke="white" cx="3607" cy="-34" rx="44.9423" ry="18"/>
<text text-anchor="middle" x="3607" y="-29.8" font-family="Times,serif" font-size="14.00">backcolor</text>
</a>
</g>
</g>
<!-- n12 -->
<g id="node2" class="node"><title>n12</title>
<g id="a_node2"><a xlink:href="backpixel%2Cg%2CMissing%2C1" xlink:title="backpixel">
<ellipse fill="#7f7f7f" stroke="white" cx="3500" cy="-34" rx="44.4664" ry="18"/>
<text text-anchor="middle" x="3500" y="-29.8" font-family="Times,serif" font-size="14.00">backpixel</text>
</a>
</g>
</g>
<!-- n33 -->
<g id="node3" class="node"><title>n33</title>
<g id="a_node3"><a xlink:href="opml_ConstructXml%2Cf%2Cstack+%22lib_Feed%22%2C1" xlink:title="opml_ConstructXml">
<ellipse fill="GreenYellow" stroke="#008b00" cx="1974" cy="-498" rx="82.639" ry="18"/>
<text text-anchor="middle" x="1974" y="-493.8" font-family="Times,serif" font-size="14.00">opml_ConstructXml</text>
</a>
</g>
</g>
<!-- n34 -->
<g id="node19" class="node"><title>n34</title>
<g id="a_node19"><a xlink:href="outline_IncreaseIndent%2Cf%2Cstack+%22lib_Common%22%2C1" xlink:title="outline_IncreaseIndent">
<ellipse fill="GreenYellow" stroke="#008b00" cx="2788" cy="-260" rx="91.2721" ry="18"/>
<text text-anchor="middle" x="2788" y="-255.8" font-family="Times,serif" font-size="14.00">outline_IncreaseIndent</text>
</a>
</g>
</g>
<!-- n33&#45;&gt;n34 -->
<g id="edge32" class="edge"><title>n33&#45;&gt;n34</title>
<path fill="none" stroke="black" d="M2032.94,-485.18C2156.52,-459.58 2450.93,-394.288 2688,-308 2708.42,-300.569 2730.34,-290.514 2748.44,-281.611"/>
<polygon fill="black" stroke="black" points="2750.14,-284.674 2757.53,-277.08 2747.02,-278.409 2750.14,-284.674"/>
</g>
<!-- n2 -->
<g id="node4" class="node"><title>n2</title>
<g id="a_node4"><a xlink:href="outline_DecreaseIndent%2Cf%2Cstack+%22lib_Common%22%2C1" xlink:title="outline_DecreaseIndent">
<ellipse fill="GreenYellow" stroke="#008b00" cx="2867" cy="-188" rx="94.1618" ry="18"/>
<text text-anchor="middle" x="2867" y="-183.8" font-family="Times,serif" font-size="14.00">outline_DecreaseIndent</text>
</a>
</g>
</g>
<!-- n28 -->
<g id="node5" class="node"><title>n28</title>
<g id="a_node5"><a xlink:href="opml_ConstructLine%2Cf%2Cstack+%22lib_Feed%22%2C1" xlink:title="opml_ConstructLine">
<ellipse fill="GreenYellow" stroke="#008b00" cx="1083" cy="-424" rx="83.1063" ry="18"/>
<text text-anchor="middle" x="1083" y="-419.8" font-family="Times,serif" font-size="14.00">opml_ConstructLine</text>
</a>
</g>
</g>
<!-- n22 -->
<g id="node22" class="node"><title>n22</title>
<g id="a_node22"><a xlink:href="kwote%2Cf%2Cstack+%22lib_Common%22%2C1" xlink:title="kwote">
<ellipse fill="GreenYellow" stroke="#008b00" cx="2929" cy="-260" rx="31.9393" ry="18"/>
<text text-anchor="middle" x="2929" y="-255.8" font-family="Times,serif" font-size="14.00">kwote</text>
</a>
</g>
</g>
<!-- n28&#45;&gt;n22 -->
<g id="edge5" class="edge"><title>n28&#45;&gt;n22</title>
<path fill="none" stroke="black" d="M1162.23,-418.363C1507.98,-398.074 2868.34,-317.705 2888,-308 2898.05,-303.039 2906.67,-294.407 2913.38,-285.883"/>
<polygon fill="black" stroke="black" points="2916.4,-287.686 2919.44,-277.536 2910.73,-283.577 2916.4,-287.686"/>
</g>
<!-- n38 -->
<g id="node36" class="node"><title>n38</title>
<g id="a_node36"><a xlink:href="xml_Escape%2Cc%2Cstack+%22lib_Sitemap%22%2C1" xlink:title="xml_Escape">
<ellipse fill="LightBlue" stroke="Blue" cx="1083" cy="-342" rx="53.1539" ry="18"/>
<text text-anchor="middle" x="1083" y="-337.8" font-family="Times,serif" font-size="14.00">xml_Escape</text>
</a>
</g>
</g>
<!-- n28&#45;&gt;n38 -->
<g id="edge6" class="edge"><title>n28&#45;&gt;n38</title>
<path fill="none" stroke="black" d="M1083,-405.641C1083,-395.297 1083,-381.941 1083,-370.221"/>
<polygon fill="black" stroke="black" points="1086.5,-370.05 1083,-360.05 1079.5,-370.05 1086.5,-370.05"/>
</g>
<!-- n31 -->
<g id="node6" class="node"><title>n31</title>
<g id="a_node6"><a xlink:href="rss_FeedName%2Cf%2Cstack+%22lib_Feed%22%2C1" xlink:title="rss_FeedName">
<ellipse fill="GreenYellow" stroke="#008b00" cx="2768" cy="-498" rx="62.8252" ry="18"/>
<text text-anchor="middle" x="2768" y="-493.8" font-family="Times,serif" font-size="14.00">rss_FeedName</text>
</a>
</g>
</g>
<!-- n27 -->
<g id="node7" class="node"><title>n27</title>
<g id="a_node7"><a xlink:href="opml_ConvertOutline%2Cf%2Cstack+%22lib_Feed%22%2C1" xlink:title="opml_ConvertOutline">
<ellipse fill="GreenYellow" stroke="#008b00" cx="724" cy="-498" rx="87.9499" ry="18"/>
<text text-anchor="middle" x="724" y="-493.8" font-family="Times,serif" font-size="14.00">opml_ConvertOutline</text>
</a>
</g>
</g>
<!-- n27&#45;&gt;n28 -->
<g id="edge29" class="edge"><title>n27&#45;&gt;n28</title>
<path fill="none" stroke="black" d="M784.494,-484.868C847.977,-472.135 947.607,-452.154 1014.08,-438.822"/>
<polygon fill="black" stroke="black" points="1014.93,-442.221 1024.05,-436.823 1013.56,-435.358 1014.93,-442.221"/>
</g>
<!-- n14 -->
<g id="node12" class="node"><title>n14</title>
<g id="a_node12"><a xlink:href="outline_TabLevel%2Cf%2Cstack+%22libOPN_Outline%22%2C1" xlink:title="outline_TabLevel">
<ellipse fill="GreenYellow" stroke="#008b00" cx="88" cy="-424" rx="72.2047" ry="18"/>
<text text-anchor="middle" x="88" y="-419.8" font-family="Times,serif" font-size="14.00">outline_TabLevel</text>
</a>
</g>
</g>
<!-- n27&#45;&gt;n14 -->
<g id="edge30" class="edge"><title>n27&#45;&gt;n14</title>
<path fill="none" stroke="black" d="M636.156,-497.808C503.421,-498.217 258.283,-495.58 174,-472 154.824,-466.635 135.207,-456.353 119.561,-446.77"/>
<polygon fill="black" stroke="black" points="121.162,-443.642 110.841,-441.252 117.419,-449.557 121.162,-443.642"/>
</g>
<!-- n25 -->
<g id="node8" class="node"><title>n25</title>
<g id="a_node8"><a xlink:href="text_Merge%2Cf%2Cstack+%22Rescue+Livecode+World%22%2C1" xlink:title="text_Merge">
<ellipse fill="GreenYellow" stroke="#008b00" cx="3934" cy="-342" rx="50.9293" ry="18"/>
<text text-anchor="middle" x="3934" y="-337.8" font-family="Times,serif" font-size="14.00">text_Merge</text>
</a>
</g>
</g>
<!-- n9 -->
<g id="node9" class="node"><title>n9</title>
<g id="a_node9"><a xlink:href="_convertVersionToNumber%2Cf%2Cstack+%22Rescue+Livecode+World%22%2C1" xlink:title="_convertVersionToNumber">
<ellipse fill="GreenYellow" stroke="#008b00" cx="4001" cy="-188" rx="106.499" ry="18"/>
<text text-anchor="middle" x="4001" y="-183.8" font-family="Times,serif" font-size="14.00">_convertVersionToNumber</text>
</a>
</g>
</g>
<!-- n21 -->
<g id="node10" class="node"><title>n21</title>
<g id="a_node10"><a xlink:href="html_ConstructColouredText%2Cf%2Cstack+%22lib_HTML%22%2C1" xlink:title="html_ConstructColouredText">
<ellipse fill="GreenYellow" stroke="#008b00" cx="3468" cy="-342" rx="113.767" ry="18"/>
<text text-anchor="middle" x="3468" y="-337.8" font-family="Times,serif" font-size="14.00">html_ConstructColouredText</text>
</a>
</g>
</g>
<!-- n21&#45;&gt;n22 -->
<g id="edge21" class="edge"><title>n21&#45;&gt;n22</title>
<path fill="none" stroke="black" d="M3388.18,-329.153C3271.34,-311.811 3058.01,-280.148 2969.33,-266.986"/>
<polygon fill="black" stroke="black" points="2969.8,-263.518 2959.4,-265.512 2968.78,-270.442 2969.8,-263.518"/>
</g>
<!-- n30 -->
<g id="node41" class="node"><title>n30</title>
<g id="a_node41"><a xlink:href="colour_HexNormalise%2Cc%2Cstack+%22lib_Colour%22%2C1" xlink:title="colour_HexNormalise">
<ellipse fill="LightBlue" stroke="Blue" cx="3468" cy="-260" rx="88.8842" ry="18"/>
<text text-anchor="middle" x="3468" y="-255.8" font-family="Times,serif" font-size="14.00">colour_HexNormalise</text>
</a>
</g>
</g>
<!-- n21&#45;&gt;n30 -->
<g id="edge20" class="edge"><title>n21&#45;&gt;n30</title>
<path fill="none" stroke="black" d="M3468,-323.641C3468,-313.297 3468,-299.941 3468,-288.221"/>
<polygon fill="black" stroke="black" points="3471.5,-288.05 3468,-278.05 3464.5,-288.05 3471.5,-288.05"/>
</g>
<!-- n44 -->
<g id="node11" class="node"><title>n44</title>
<g id="a_node11"><a xlink:href="rss_TreeItemValue%2Cf%2Cstack+%22lib_Feed%22%2C1" xlink:title="rss_TreeItemValue">
<ellipse fill="GreenYellow" stroke="#008b00" cx="2372" cy="-498" rx="76.6766" ry="18"/>
<text text-anchor="middle" x="2372" y="-493.8" font-family="Times,serif" font-size="14.00">rss_TreeItemValue</text>
</a>
</g>
</g>
<!-- n15 -->
<g id="node31" class="node"><title>n15</title>
<g id="a_node31"><a xlink:href="char%2Cf%2CMissing%2C1" xlink:title="char">
<ellipse fill="GreenYellow" stroke="#008b00" cx="3142" cy="-34" rx="27" ry="18"/>
<text text-anchor="middle" x="3142" y="-29.8" font-family="Times,serif" font-size="14.00">char</text>
</a>
</g>
</g>
<!-- n14&#45;&gt;n15 -->
<g id="edge14" class="edge"><title>n14&#45;&gt;n15</title>
<path fill="none" stroke="black" d="M93.5422,-405.708C102.459,-376.306 119,-314.548 119,-261 119,-261 119,-261 119,-187 119,-137.441 131.41,-115.342 174,-90 240.113,-50.6608 2766.32,-36.8523 3104.68,-35.178"/>
<polygon fill="black" stroke="black" points="3104.72,-38.6779 3114.7,-35.1287 3104.68,-31.678 3104.72,-38.6779"/>
</g>
<!-- n16 -->
<g id="node13" class="node"><title>n16</title>
<g id="a_node13"><a xlink:href="rss_ConstructArray%2Cf%2Cstack+%22lib_Feed%22%2C1" xlink:title="rss_ConstructArray">
<ellipse fill="GreenYellow" stroke="#008b00" cx="909" cy="-498" rx="79.2385" ry="18"/>
<text text-anchor="middle" x="909" y="-493.8" font-family="Times,serif" font-size="14.00">rss_ConstructArray</text>
</a>
</g>
</g>
<!-- n19 -->
<g id="node24" class="node"><title>n19</title>
<g id="a_node24"><a xlink:href="xml_TreeNodeAttributeArray%2Cf%2Cstack+%22lib_XmlExtras%22%2C1" xlink:title="xml_TreeNodeAttributeArray">
<ellipse fill="GreenYellow" stroke="#008b00" cx="332" cy="-424" rx="115.766" ry="18"/>
<text text-anchor="middle" x="332" y="-419.8" font-family="Times,serif" font-size="14.00">xml_TreeNodeAttributeArray</text>
</a>
</g>
</g>
<!-- n16&#45;&gt;n19 -->
<g id="edge9" class="edge"><title>n16&#45;&gt;n19</title>
<path fill="none" stroke="black" d="M854.293,-484.95C843.318,-482.952 831.831,-481.157 821,-480 740.549,-471.407 536.44,-487.345 457,-472 428.89,-466.57 398.813,-455.443 375.209,-445.378"/>
<polygon fill="black" stroke="black" points="376.408,-442.083 365.843,-441.296 373.611,-448.5 376.408,-442.083"/>
</g>
<!-- n17 -->
<g id="node32" class="node"><title>n17</title>
<g id="a_node32"><a xlink:href="xml_ConvertXMLNodeToArray%2Cf%2CMissing%2C1" xlink:title="xml_ConvertXMLNodeToArray">
<ellipse fill="GreenYellow" stroke="#008b00" cx="3312" cy="-34" rx="125.326" ry="18"/>
<text text-anchor="middle" x="3312" y="-29.8" font-family="Times,serif" font-size="14.00">xml_ConvertXMLNodeToArray</text>
</a>
</g>
</g>
<!-- n16&#45;&gt;n17 -->
<g id="edge7" class="edge"><title>n16&#45;&gt;n17</title>
<path fill="none" stroke="black" d="M854.301,-484.873C843.325,-482.881 831.836,-481.108 821,-480 803.949,-478.256 216.77,-483.433 204,-472 160.956,-433.465 188,-400.773 188,-343 188,-343 188,-343 188,-187 188,-20.7865 3014.66,-112.774 3178,-82 3208.08,-76.3336 3240.49,-65.1106 3265.91,-55.0526"/>
<polygon fill="black" stroke="black" points="3267.32,-58.2562 3275.29,-51.2688 3264.7,-51.7646 3267.32,-58.2562"/>
</g>
<!-- n18 -->
<g id="node35" class="node"><title>n18</title>
<g id="a_node35"><a xlink:href="xml_ExtractEncoding%2Cc%2Cstack+%22lib_XML%22%2C1" xlink:title="xml_ExtractEncoding">
<ellipse fill="LightBlue" stroke="Blue" cx="3155" cy="-424" rx="87.9239" ry="18"/>
<text text-anchor="middle" x="3155" y="-419.8" font-family="Times,serif" font-size="14.00">xml_ExtractEncoding</text>
</a>
</g>
</g>
<!-- n16&#45;&gt;n18 -->
<g id="edge8" class="edge"><title>n16&#45;&gt;n18</title>
<path fill="none" stroke="black" d="M963.691,-484.795C974.668,-482.81 986.159,-481.059 997,-480 1053.9,-474.443 2999.23,-484.566 3055,-472 3077.57,-466.914 3101.07,-456.186 3119.62,-446.263"/>
<polygon fill="black" stroke="black" points="3121.5,-449.225 3128.57,-441.333 3118.12,-443.094 3121.5,-449.225"/>
</g>
<!-- n7 -->
<g id="node14" class="node"><title>n7</title>
<g id="a_node14"><a xlink:href="colour_TranslateName%2Cf%2Cstack+%22lib_Colour%22%2C1" xlink:title="colour_TranslateName">
<ellipse fill="GreenYellow" stroke="#008b00" cx="3768" cy="-116" rx="90.659" ry="18"/>
<text text-anchor="middle" x="3768" y="-111.8" font-family="Times,serif" font-size="14.00">colour_TranslateName</text>
</a>
</g>
</g>
<!-- n7&#45;&gt;n10 -->
<g id="edge10" class="edge"><title>n7&#45;&gt;n10</title>
<path fill="none" stroke="black" d="M3710.38,-102.014C3693.86,-97.0359 3676.2,-90.4583 3661,-82 3649.74,-75.7378 3638.75,-66.8428 3629.65,-58.473"/>
<polygon fill="black" stroke="black" points="3631.83,-55.7148 3622.19,-51.3324 3626.99,-60.7736 3631.83,-55.7148"/>
</g>
<!-- n7&#45;&gt;n12 -->
<g id="edge12" class="edge"><title>n7&#45;&gt;n12</title>
<path fill="none" stroke="black" d="M3718.76,-100.866C3702.7,-96.7474 3684.7,-92.6478 3668,-90 3642.7,-85.9891 3576.62,-91.9159 3553,-82 3540.77,-76.8677 3529.45,-67.7223 3520.43,-58.8542"/>
<polygon fill="black" stroke="black" points="3522.88,-56.3524 3513.43,-51.5645 3517.83,-61.2013 3522.88,-56.3524"/>
</g>
<!-- n11 -->
<g id="node45" class="node"><title>n11</title>
<g id="a_node45"><a xlink:href="backcolor%2Cs%2CMissing%2C1" xlink:title="backcolor">
<ellipse fill="grey" stroke="white" cx="3821" cy="-34" rx="44.9423" ry="18"/>
<text text-anchor="middle" x="3821" y="-29.8" font-family="Times,serif" font-size="14.00">backcolor</text>
</a>
</g>
</g>
<!-- n7&#45;&gt;n11 -->
<g id="edge11" class="edge"><title>n7&#45;&gt;n11</title>
<path fill="none" stroke="black" d="M3779.24,-98.0341C3786.53,-87.0356 3796.15,-72.5126 3804.32,-60.1792"/>
<polygon fill="black" stroke="black" points="3807.35,-61.9367 3809.96,-51.6672 3801.52,-58.0706 3807.35,-61.9367"/>
</g>
<!-- n13 -->
<g id="node46" class="node"><title>n13</title>
<g id="a_node46"><a xlink:href="backpixel%2Cs%2CMissing%2C1" xlink:title="backpixel">
<ellipse fill="grey" stroke="white" cx="3714" cy="-34" rx="44.4664" ry="18"/>
<text text-anchor="middle" x="3714" y="-29.8" font-family="Times,serif" font-size="14.00">backpixel</text>
</a>
</g>
</g>
<!-- n7&#45;&gt;n13 -->
<g id="edge13" class="edge"><title>n7&#45;&gt;n13</title>
<path fill="none" stroke="black" d="M3756.55,-98.0341C3749.12,-87.0356 3739.32,-72.5126 3731,-60.1792"/>
<polygon fill="black" stroke="black" points="3733.75,-57.9975 3725.25,-51.6672 3727.94,-61.9138 3733.75,-57.9975"/>
</g>
<!-- n1 -->
<g id="node15" class="node"><title>n1</title>
<g id="a_node15"><a xlink:href="opml_ExtractTitleOutline%2Cf%2Cstack+%22lib_Feed%22%2C1" xlink:title="opml_ExtractTitleOutline">
<ellipse fill="GreenYellow" stroke="#008b00" cx="2176" cy="-498" rx="101.317" ry="18"/>
<text text-anchor="middle" x="2176" y="-493.8" font-family="Times,serif" font-size="14.00">opml_ExtractTitleOutline</text>
</a>
</g>
</g>
<!-- n1&#45;&gt;n2 -->
<g id="edge15" class="edge"><title>n1&#45;&gt;n2</title>
<path fill="none" stroke="black" d="M2244.76,-484.777C2258.39,-482.808 2272.61,-481.067 2286,-480 2295.67,-479.229 3676.16,-478.88 3683,-472 3731.89,-422.834 3731.53,-365.516 3683,-316 3675.26,-308.103 3295.94,-309.639 3285,-308 3148.86,-287.602 2994.46,-235.836 2916.97,-207.774"/>
<polygon fill="black" stroke="black" points="2918.06,-204.443 2907.46,-204.308 2915.66,-211.02 2918.06,-204.443"/>
</g>
<!-- n3 -->
<g id="node16" class="node"><title>n3</title>
<g id="a_node16"><a xlink:href="xml_TreeRecurse%2Cf%2Cstack+%22lib_XmlExtras%22%2C1" xlink:title="xml_TreeRecurse">
<ellipse fill="GreenYellow" stroke="#008b00" cx="539" cy="-424" rx="72.8179" ry="18"/>
<text text-anchor="middle" x="539" y="-419.8" font-family="Times,serif" font-size="14.00">xml_TreeRecurse</text>
</a>
</g>
</g>
<!-- n1&#45;&gt;n3 -->
<g id="edge16" class="edge"><title>n1&#45;&gt;n3</title>
<path fill="none" stroke="black" d="M2107.24,-484.775C2093.61,-482.806 2079.39,-481.066 2066,-480 2026.07,-476.821 662.758,-482.117 624,-472 604.769,-466.98 585.228,-456.62 569.739,-446.9"/>
<polygon fill="black" stroke="black" points="571.412,-443.813 561.12,-441.297 567.596,-449.682 571.412,-443.813"/>
</g>
<!-- n45 -->
<g id="node33" class="node"><title>n45</title>
<g id="a_node33"><a xlink:href="line_Insert%2Cc%2Cstack+%22lib_Common%22%2C1" xlink:title="line_Insert">
<ellipse fill="LightBlue" stroke="Blue" cx="2631" cy="-260" rx="47.8496" ry="18"/>
<text text-anchor="middle" x="2631" y="-255.8" font-family="Times,serif" font-size="14.00">line_Insert</text>
</a>
</g>
</g>
<!-- n3&#45;&gt;n45 -->
<g id="edge4" class="edge"><title>n3&#45;&gt;n45</title>
<path fill="none" stroke="black" d="M582.496,-409.481C595.76,-405.555 610.424,-401.411 624,-398 796.629,-354.631 839.29,-337.33 1016,-316 1326.6,-278.508 2321.83,-264.597 2573,-261.636"/>
<polygon fill="black" stroke="black" points="2573.06,-265.136 2583.02,-261.519 2572.98,-258.136 2573.06,-265.136"/>
</g>
<!-- n29 -->
<g id="node17" class="node"><title>n29</title>
<g id="a_node17"><a xlink:href="kwote%2Cf%2Cstack+%22Rescue+Livecode+World%22%2C1" xlink:title="kwote">
<ellipse fill="GreenYellow" stroke="#008b00" cx="3915" cy="-260" rx="31.9393" ry="18"/>
<text text-anchor="middle" x="3915" y="-255.8" font-family="Times,serif" font-size="14.00">kwote</text>
</a>
</g>
</g>
<!-- n32 -->
<g id="node18" class="node"><title>n32</title>
<g id="a_node18"><a xlink:href="opml_ConstructHeader%2Cf%2Cstack+%22lib_Feed%22%2C1" xlink:title="opml_ConstructHeader">
<ellipse fill="GreenYellow" stroke="#008b00" cx="1781" cy="-498" rx="92.7515" ry="18"/>
<text text-anchor="middle" x="1781" y="-493.8" font-family="Times,serif" font-size="14.00">opml_ConstructHeader</text>
</a>
</g>
</g>
<!-- n34&#45;&gt;n2 -->
<g id="edge2" class="edge"><title>n34&#45;&gt;n2</title>
<path fill="none" stroke="black" d="M2807.12,-242.055C2817.12,-233.199 2829.51,-222.219 2840.42,-212.549"/>
<polygon fill="black" stroke="black" points="2842.89,-215.04 2848.05,-205.789 2838.25,-209.801 2842.89,-215.04"/>
</g>
<!-- n46 -->
<g id="node20" class="node"><title>n46</title>
<g id="a_node20"><a xlink:href="text_RepeatString%2Cf%2Cstack+%22lib_Common%22%2C1" xlink:title="text_RepeatString">
<ellipse fill="GreenYellow" stroke="#008b00" cx="2681" cy="-188" rx="73.9257" ry="18"/>
<text text-anchor="middle" x="2681" y="-183.8" font-family="Times,serif" font-size="14.00">text_RepeatString</text>
</a>
</g>
</g>
<!-- n34&#45;&gt;n46 -->
<g id="edge3" class="edge"><title>n34&#45;&gt;n46</title>
<path fill="none" stroke="black" d="M2762.91,-242.588C2748.32,-233.041 2729.75,-220.895 2713.99,-210.581"/>
<polygon fill="black" stroke="black" points="2715.85,-207.613 2705.56,-205.068 2712.01,-213.471 2715.85,-207.613"/>
</g>
<!-- n26 -->
<g id="node21" class="node"><title>n26</title>
<g id="a_node21"><a xlink:href="opml_RecurseOutlineNodes%2Cf%2Cstack+%22lib_Feed%22%2C1" xlink:title="opml_RecurseOutlineNodes">
<ellipse fill="GreenYellow" stroke="#008b00" cx="2577" cy="-498" rx="110.126" ry="18"/>
<text text-anchor="middle" x="2577" y="-493.8" font-family="Times,serif" font-size="14.00">opml_RecurseOutlineNodes</text>
</a>
</g>
</g>
<!-- n20 -->
<g id="node23" class="node"><title>n20</title>
<g id="a_node23"><a xlink:href="html_ConstructNameLink%2Cf%2Cstack+%22lib_HTML%22%2C1" xlink:title="html_ConstructNameLink">
<ellipse fill="GreenYellow" stroke="#008b00" cx="3568" cy="-424" rx="102.901" ry="18"/>
<text text-anchor="middle" x="3568" y="-419.8" font-family="Times,serif" font-size="14.00">html_ConstructNameLink</text>
</a>
</g>
</g>
<!-- n26&#45;&gt;n20 -->
<g id="edge31" class="edge"><title>n26&#45;&gt;n20</title>
<path fill="none" stroke="black" d="M2652.06,-484.752C2666.6,-482.812 2681.75,-481.088 2696,-480 2738.1,-476.785 3414.65,-480.551 3456,-472 3481.25,-466.778 3507.93,-455.823 3528.91,-445.802"/>
<polygon fill="black" stroke="black" points="3530.69,-448.83 3538.13,-441.287 3527.61,-442.544 3530.69,-448.83"/>
</g>
<!-- n20&#45;&gt;n21 -->
<g id="edge23" class="edge"><title>n20&#45;&gt;n21</title>
<path fill="none" stroke="black" d="M3546.79,-406.034C3532.34,-394.473 3513.02,-379.018 3497.13,-366.305"/>
<polygon fill="black" stroke="black" points="3499.17,-363.455 3489.18,-359.941 3494.8,-368.922 3499.17,-363.455"/>
</g>
<!-- n20&#45;&gt;n22 -->
<g id="edge24" class="edge"><title>n20&#45;&gt;n22</title>
<path fill="none" stroke="black" d="M3512.19,-408.84C3494.34,-404.77 3474.43,-400.706 3456,-398 3407.06,-390.815 3393.61,-399.162 3345,-390 3200.17,-362.698 3034.72,-302.189 2964.02,-274.866"/>
<polygon fill="black" stroke="black" points="2964.87,-271.444 2954.28,-271.084 2962.34,-277.969 2964.87,-271.444"/>
</g>
<!-- n8 -->
<g id="node25" class="node"><title>n8</title>
<g id="a_node25"><a xlink:href="version_IsEarlier%2Cf%2Cstack+%22Rescue+Livecode+World%22%2C1" xlink:title="version_IsEarlier">
<ellipse fill="GreenYellow" stroke="#008b00" cx="4036" cy="-260" rx="71.0099" ry="18"/>
<text text-anchor="middle" x="4036" y="-255.8" font-family="Times,serif" font-size="14.00">version_IsEarlier</text>
</a>
</g>
</g>
<!-- n8&#45;&gt;n9 -->
<g id="edge22" class="edge"><title>n8&#45;&gt;n9</title>
<path fill="none" stroke="black" d="M4027.53,-242.055C4023.5,-234.007 4018.6,-224.205 4014.11,-215.226"/>
<polygon fill="black" stroke="black" points="4017.24,-213.654 4009.64,-206.275 4010.98,-216.785 4017.24,-213.654"/>
</g>
<!-- n39 -->
<g id="node26" class="node"><title>n39</title>
<g id="a_node26"><a xlink:href="colour_RgbToHex%2Cf%2Cstack+%22lib_Colour%22%2C1" xlink:title="colour_RgbToHex">
<ellipse fill="GreenYellow" stroke="#008b00" cx="3373" cy="-188" rx="75.6053" ry="18"/>
<text text-anchor="middle" x="3373" y="-183.8" font-family="Times,serif" font-size="14.00">colour_RgbToHex</text>
</a>
</g>
</g>
<!-- n4 -->
<g id="node27" class="node"><title>n4</title>
<g id="a_node27"><a xlink:href="colour_NameToRgb%2Cf%2Cstack+%22lib_Colour%22%2C1" xlink:title="colour_NameToRgb">
<ellipse fill="GreenYellow" stroke="#008b00" cx="3549" cy="-188" rx="82.3695" ry="18"/>
<text text-anchor="middle" x="3549" y="-183.8" font-family="Times,serif" font-size="14.00">colour_NameToRgb</text>
</a>
</g>
</g>
<!-- n4&#45;&gt;n7 -->
<g id="edge19" class="edge"><title>n4&#45;&gt;n7</title>
<path fill="none" stroke="black" d="M3593.32,-172.834C3627.74,-161.833 3675.67,-146.513 3712.62,-134.703"/>
<polygon fill="black" stroke="black" points="3713.78,-138.005 3722.24,-131.626 3711.65,-131.337 3713.78,-138.005"/>
</g>
<!-- n6 -->
<g id="node28" class="node"><title>n6</title>
<g id="a_node28"><a xlink:href="colour_IsRgb%2Cf%2Cstack+%22lib_Colour%22%2C1" xlink:title="colour_IsRgb">
<ellipse fill="GreenYellow" stroke="#008b00" cx="3355" cy="-116" rx="58.4997" ry="18"/>
<text text-anchor="middle" x="3355" y="-111.8" font-family="Times,serif" font-size="14.00">colour_IsRgb</text>
</a>
</g>
</g>
<!-- n4&#45;&gt;n6 -->
<g id="edge18" class="edge"><title>n4&#45;&gt;n6</title>
<path fill="none" stroke="black" d="M3508.33,-172.326C3477.02,-161.026 3433.71,-145.402 3401.11,-133.638"/>
<polygon fill="black" stroke="black" points="3401.96,-130.222 3391.36,-130.121 3399.58,-136.807 3401.96,-130.222"/>
</g>
<!-- n5 -->
<g id="node37" class="node"><title>n5</title>
<g id="a_node37"><a xlink:href="colour_ConvertEnglishName%2Cc%2Cstack+%22lib_Colour%22%2C1" xlink:title="colour_ConvertEnglishName">
<ellipse fill="LightBlue" stroke="Blue" cx="3545" cy="-116" rx="114" ry="18"/>
<text text-anchor="middle" x="3545" y="-111.8" font-family="Times,serif" font-size="14.00">colour_ConvertEnglishName</text>
</a>
</g>
</g>
<!-- n4&#45;&gt;n5 -->
<g id="edge17" class="edge"><title>n4&#45;&gt;n5</title>
<path fill="none" stroke="black" d="M3548.01,-169.697C3547.57,-161.983 3547.04,-152.712 3546.55,-144.112"/>
<polygon fill="black" stroke="black" points="3550.04,-143.888 3545.98,-134.104 3543.05,-144.288 3550.04,-143.888"/>
</g>
<!-- n35 -->
<g id="node29" class="node"><title>n35</title>
<g id="a_node29"><a xlink:href="rss_TreeFeedProperty%2Cf%2Cstack+%22lib_Feed%22%2C1" xlink:title="rss_TreeFeedProperty">
<ellipse fill="GreenYellow" stroke="#008b00" cx="1478" cy="-498" rx="87.7862" ry="18"/>
<text text-anchor="middle" x="1478" y="-493.8" font-family="Times,serif" font-size="14.00">rss_TreeFeedProperty</text>
</a>
</g>
</g>
<!-- n41 -->
<g id="node30" class="node"><title>n41</title>
<g id="a_node30"><a xlink:href="opml_FromOutline%2Cf%2Cstack+%22lib_Feed%22%2C1" xlink:title="opml_FromOutline">
<ellipse fill="GreenYellow" stroke="#008b00" cx="1294" cy="-498" rx="78.2952" ry="18"/>
<text text-anchor="middle" x="1294" y="-493.8" font-family="Times,serif" font-size="14.00">opml_FromOutline</text>
</a>
</g>
</g>
<!-- n41&#45;&gt;n14 -->
<g id="edge36" class="edge"><title>n41&#45;&gt;n14</title>
<path fill="none" stroke="black" d="M1239.93,-484.829C1229.08,-482.841 1217.72,-481.081 1207,-480 1151.56,-474.411 258.652,-482.878 204,-472 177.148,-466.656 148.628,-455.186 126.586,-444.916"/>
<polygon fill="black" stroke="black" points="128.093,-441.757 117.56,-440.609 125.078,-448.075 128.093,-441.757"/>
</g>
<!-- n42 -->
<g id="node40" class="node"><title>n42</title>
<g id="a_node40"><a xlink:href="html_DeconstructLink%2Cc%2Cstack+%22lib_HTML%22%2C1" xlink:title="html_DeconstructLink">
<ellipse fill="LightBlue" stroke="Blue" cx="3357" cy="-424" rx="90.3463" ry="18"/>
<text text-anchor="middle" x="3357" y="-419.8" font-family="Times,serif" font-size="14.00">html_DeconstructLink</text>
</a>
</g>
</g>
<!-- n41&#45;&gt;n42 -->
<g id="edge35" class="edge"><title>n41&#45;&gt;n42</title>
<path fill="none" stroke="black" d="M1348.06,-484.798C1358.92,-482.812 1370.28,-481.061 1381,-480 1432.8,-474.875 3204.18,-483.26 3255,-472 3278.07,-466.89 3302.15,-456.087 3321.12,-446.126"/>
<polygon fill="black" stroke="black" points="3322.86,-449.164 3329.99,-441.332 3319.53,-443.006 3322.86,-449.164"/>
</g>
<!-- n23 -->
<g id="node34" class="node"><title>n23</title>
<g id="a_node34"><a xlink:href="opn_Notify%2Cc%2Cstack+%22Rescue+Livecode+World%22%2C1" xlink:title="opn_Notify">
<ellipse fill="LightBlue" stroke="Blue" cx="3934" cy="-424" rx="50.7655" ry="18"/>
<text text-anchor="middle" x="3934" y="-419.8" font-family="Times,serif" font-size="14.00">opn_Notify</text>
</a>
</g>
</g>
<!-- n23&#45;&gt;n25 -->
<g id="edge26" class="edge"><title>n23&#45;&gt;n25</title>
<path fill="none" stroke="black" d="M3934,-405.641C3934,-395.297 3934,-381.941 3934,-370.221"/>
<polygon fill="black" stroke="black" points="3937.5,-370.05 3934,-360.05 3930.5,-370.05 3937.5,-370.05"/>
</g>
<!-- n24 -->
<g id="node42" class="node"><title>n24</title>
<g id="a_node42"><a xlink:href="osx_Notify%2Cc%2Cstack+%22Rescue+Livecode+World%22%2C1" xlink:title="osx_Notify">
<ellipse fill="LightBlue" stroke="Blue" cx="4053" cy="-342" rx="49.805" ry="18"/>
<text text-anchor="middle" x="4053" y="-337.8" font-family="Times,serif" font-size="14.00">osx_Notify</text>
</a>
</g>
</g>
<!-- n23&#45;&gt;n24 -->
<g id="edge25" class="edge"><title>n23&#45;&gt;n24</title>
<path fill="none" stroke="black" d="M3962.06,-408.841C3972.33,-403.328 3983.91,-396.724 3994,-390 4005.15,-382.568 4016.82,-373.567 4026.8,-365.439"/>
<polygon fill="black" stroke="black" points="4029.27,-367.94 4034.75,-358.87 4024.81,-362.545 4029.27,-367.94"/>
</g>
<!-- n36 -->
<g id="node38" class="node"><title>n36</title>
<g id="a_node38"><a xlink:href="rss_DeconstructItem%2Cc%2Cstack+%22lib_Feed%22%2C1" xlink:title="rss_DeconstructItem">
<ellipse fill="LightBlue" stroke="Blue" cx="1627" cy="-424" rx="83.0804" ry="18"/>
<text text-anchor="middle" x="1627" y="-419.8" font-family="Times,serif" font-size="14.00">rss_DeconstructItem</text>
</a>
</g>
</g>
<!-- n40 -->
<g id="node39" class="node"><title>n40</title>
<g id="a_node39"><a xlink:href="rss_ConstructItemArray%2Cc%2Cstack+%22lib_Feed%22%2C1" xlink:title="rss_ConstructItemArray">
<ellipse fill="LightBlue" stroke="Blue" cx="1102" cy="-498" rx="95.65" ry="18"/>
<text text-anchor="middle" x="1102" y="-493.8" font-family="Times,serif" font-size="14.00">rss_ConstructItemArray</text>
</a>
</g>
</g>
<!-- n30&#45;&gt;n39 -->
<g id="edge34" class="edge"><title>n30&#45;&gt;n39</title>
<path fill="none" stroke="black" d="M3445.49,-242.411C3432.85,-233.103 3416.93,-221.367 3403.22,-211.268"/>
<polygon fill="black" stroke="black" points="3405.15,-208.343 3395.02,-205.228 3401,-213.978 3405.15,-208.343"/>
</g>
<!-- n30&#45;&gt;n4 -->
<g id="edge33" class="edge"><title>n30&#45;&gt;n4</title>
<path fill="none" stroke="black" d="M3487.2,-242.411C3497.61,-233.41 3510.65,-222.139 3522.07,-212.273"/>
<polygon fill="black" stroke="black" points="3524.38,-214.899 3529.66,-205.713 3519.81,-209.603 3524.38,-214.899"/>
</g>
<!-- n24&#45;&gt;n29 -->
<g id="edge27" class="edge"><title>n24&#45;&gt;n29</title>
<path fill="none" stroke="black" d="M4023.71,-327.269C4014.36,-323.245 4003.87,-319.098 3994,-316 3977.53,-310.831 3970.89,-316.732 3956,-308 3946.47,-302.412 3938.03,-293.815 3931.32,-285.495"/>
<polygon fill="black" stroke="black" points="3934.02,-283.267 3925.21,-277.388 3928.43,-287.481 3934.02,-283.267"/>
</g>
<!-- n24&#45;&gt;n8 -->
<g id="edge28" class="edge"><title>n24&#45;&gt;n8</title>
<path fill="none" stroke="black" d="M4049.39,-324.034C4047.18,-313.605 4044.29,-300.006 4041.76,-288.11"/>
<polygon fill="black" stroke="black" points="4045.16,-287.271 4039.66,-278.217 4038.31,-288.726 4045.16,-287.271"/>
</g>
<!-- n37 -->
<g id="node43" class="node"><title>n37</title>
<g id="a_node43"><a xlink:href="opml_ConvertToOutline%2Cc%2Cstack+%22lib_Feed%22%2C1" xlink:title="opml_ConvertToOutline">
<ellipse fill="LightBlue" stroke="Blue" cx="2946" cy="-498" rx="96.8617" ry="18"/>
<text text-anchor="middle" x="2946" y="-493.8" font-family="Times,serif" font-size="14.00">opml_ConvertToOutline</text>
</a>
</g>
</g>
<!-- n37&#45;&gt;n23 -->
<g id="edge1" class="edge"><title>n37&#45;&gt;n23</title>
<path fill="none" stroke="black" d="M3042.38,-495.986C3218.56,-493.778 3586.12,-487.437 3713,-472 3772.79,-464.726 3840.36,-449.271 3884.86,-438.064"/>
<polygon fill="black" stroke="black" points="3886,-441.386 3894.83,-435.529 3884.28,-434.602 3886,-441.386"/>
</g>
<!-- n43 -->
<g id="node44" class="node"><title>n43</title>
<g id="a_node44"><a xlink:href="rss_Parse%2Cc%2Cstack+%22lib_Feed%22%2C1" xlink:title="rss_Parse">
<ellipse fill="LightBlue" stroke="Blue" cx="1627" cy="-498" rx="43.5233" ry="18"/>
<text text-anchor="middle" x="1627" y="-493.8" font-family="Times,serif" font-size="14.00">rss_Parse</text>
</a>
</g>
</g>
<!-- n43&#45;&gt;n36 -->
<g id="edge37" class="edge"><title>n43&#45;&gt;n36</title>
<path fill="none" stroke="black" d="M1627,-479.937C1627,-471.807 1627,-461.876 1627,-452.705"/>
<polygon fill="black" stroke="black" points="1630.5,-452.441 1627,-442.441 1623.5,-452.441 1630.5,-452.441"/>
</g>
</g>
</svg>
