<?xml version="1.0" encoding="UTF-8" standalone="no"?>
<!DOCTYPE svg PUBLIC "-//W3C//DTD SVG 1.1//EN"
 "http://www.w3.org/Graphics/SVG/1.1/DTD/svg11.dtd">
<!-- Generated by graphviz version 2.38.0 (20140413.2041)
 -->
<!-- Title: dot_FromArray Pages: 1 -->
<svg width="557pt" height="180pt"
 viewBox="0.00 0.00 557.00 180.00" xmlns="http://www.w3.org/2000/svg" xmlns:xlink="http://www.w3.org/1999/xlink">
<g id="graph0" class="graph" transform="scale(1 1) rotate(0) translate(4 176)">
<title>dot_FromArray</title>
<polygon fill="white" stroke="none" points="-4,4 -4,-176 553,-176 553,4 -4,4"/>
<g id="clust3" class="cluster"><title>cluster1</title>
<polygon fill="#999999" stroke="#999999" points="9,-8 9,-82 147,-82 147,-8 9,-8"/>
<text text-anchor="middle" x="78" y="-66.8" font-family="Times,serif" font-size="14.00">stack &quot;lib_Common&quot;</text>
</g>
<g id="clust4" class="cluster"><title>cluster2</title>
<polygon fill="#999999" stroke="#999999" points="8,-90 8,-164 541,-164 541,-90 8,-90"/>
<text text-anchor="middle" x="274.5" y="-148.8" font-family="Times,serif" font-size="14.00">stack &quot;lib_DirectoryWalker&quot;</text>
</g>
<!-- n1 -->
<g id="node1" class="node"><title>n1</title>
<g id="a_node1"><a xlink:href="_FilterFoundFiles%2Cf%2Cstack+%22lib_DirectoryWalker%22%2C1" xlink:title="_FilterFoundFiles">
<ellipse fill="GreenYellow" stroke="#008b00" cx="460" cy="-116" rx="73.4844" ry="18"/>
<text text-anchor="middle" x="460" y="-111.8" font-family="Times,serif" font-size="14.00">_FilterFoundFiles</text>
</a>
</g>
</g>
<!-- n2 -->
<g id="node2" class="node"><title>n2</title>
<g id="a_node2"><a xlink:href="shell_GetGoodNestedFiles%2Cf%2Cstack+%22lib_DirectoryWalker%22%2C1" xlink:title="shell_GetGoodNestedFiles">
<ellipse fill="GreenYellow" stroke="#008b00" cx="263" cy="-116" rx="105.315" ry="18"/>
<text text-anchor="middle" x="263" y="-111.8" font-family="Times,serif" font-size="14.00">shell_GetGoodNestedFiles</text>
</a>
</g>
</g>
<!-- n4 -->
<g id="node3" class="node"><title>n4</title>
<g id="a_node3"><a xlink:href="folder_Format%2Cc%2Cstack+%22lib_Common%22%2C1" xlink:title="folder_Format">
<ellipse fill="LightBlue" stroke="Blue" cx="78" cy="-34" rx="61.3804" ry="18"/>
<text text-anchor="middle" x="78" y="-29.8" font-family="Times,serif" font-size="14.00">folder_Format</text>
</a>
</g>
</g>
<!-- n3 -->
<g id="node4" class="node"><title>n3</title>
<g id="a_node4"><a xlink:href="_AddInfoFiles%2Cc%2Cstack+%22lib_DirectoryWalker%22%2C1" xlink:title="_AddInfoFiles">
<ellipse fill="LightBlue" stroke="Blue" cx="78" cy="-116" rx="61.8822" ry="18"/>
<text text-anchor="middle" x="78" y="-111.8" font-family="Times,serif" font-size="14.00">_AddInfoFiles</text>
</a>
</g>
</g>
<!-- n3&#45;&gt;n4 -->
<g id="edge1" class="edge"><title>n3&#45;&gt;n4</title>
<path fill="none" stroke="black" d="M78,-97.6412C78,-87.2971 78,-73.941 78,-62.2206"/>
<polygon fill="black" stroke="black" points="81.5001,-62.0501 78,-52.0501 74.5001,-62.0501 81.5001,-62.0501"/>
</g>
</g>
</svg>
