<?xml version="1.0" encoding="UTF-8" standalone="no"?>
<!DOCTYPE svg PUBLIC "-//W3C//DTD SVG 1.1//EN"
 "http://www.w3.org/Graphics/SVG/1.1/DTD/svg11.dtd">
<!-- Generated by graphviz version 2.38.0 (20140413.2041)
 -->
<!-- Title: dot_FromArray Pages: 1 -->
<svg width="2250pt" height="135pt"
 viewBox="0.00 0.00 2250.00 134.51" xmlns="http://www.w3.org/2000/svg" xmlns:xlink="http://www.w3.org/1999/xlink">
<g id="graph0" class="graph" transform="scale(0.32967 0.32967) rotate(0) translate(4 404)">
<title>dot_FromArray</title>
<polygon fill="white" stroke="none" points="-4,4 -4,-404 6821,-404 6821,4 -4,4"/>
<g id="clust4" class="cluster"><title>cluster1</title>
<polygon fill="orange" stroke="red" points="5738,-244 5738,-318 6597,-318 6597,-244 5738,-244"/>
<text text-anchor="middle" x="6167.5" y="-302.8" font-family="Times,serif" font-size="14.00">Missing</text>
</g>
<g id="clust5" class="cluster"><title>cluster2</title>
<polygon fill="#999999" stroke="#999999" points="6605,-80 6605,-318 6809,-318 6809,-80 6605,-80"/>
<text text-anchor="middle" x="6707" y="-302.8" font-family="Times,serif" font-size="14.00">stack &quot;lib_Behavior&quot;</text>
</g>
<g id="clust6" class="cluster"><title>cluster3</title>
<polygon fill="#999999" stroke="#999999" points="4984,-8 4984,-154 5454,-154 5454,-8 4984,-8"/>
<text text-anchor="middle" x="5219" y="-138.8" font-family="Times,serif" font-size="14.00">stack &quot;lib_Common&quot;</text>
</g>
<g id="clust7" class="cluster"><title>cluster4</title>
<polygon fill="#999999" stroke="#999999" points="8,-80 8,-392 4962,-392 4962,-80 8,-80"/>
<text text-anchor="middle" x="2485" y="-376.8" font-family="Times,serif" font-size="14.00">stack &quot;lib_DaemonUtils&quot;</text>
</g>
<g id="clust8" class="cluster"><title>cluster5</title>
<polygon fill="#999999" stroke="#999999" points="5569,-244 5569,-318 5730,-318 5730,-244 5569,-244"/>
<text text-anchor="middle" x="5649.5" y="-302.8" font-family="Times,serif" font-size="14.00">stack &quot;lib_LocalFedWiki&quot;</text>
</g>
<g id="clust9" class="cluster"><title>cluster6</title>
<polygon fill="#999999" stroke="#999999" points="5130,-244 5130,-318 5258,-318 5258,-244 5130,-244"/>
<text text-anchor="middle" x="5194" y="-302.8" font-family="Times,serif" font-size="14.00">stack &quot;lib_Object&quot;</text>
</g>
<g id="clust10" class="cluster"><title>cluster7</title>
<polygon fill="#999999" stroke="#999999" points="5256,-162 5256,-236 5378,-236 5378,-162 5256,-162"/>
<text text-anchor="middle" x="5317" y="-220.8" font-family="Times,serif" font-size="14.00">stack &quot;lib_Stack&quot;</text>
</g>
<g id="clust11" class="cluster"><title>cluster8</title>
<polygon fill="#999999" stroke="#999999" points="5266,-244 5266,-318 5492,-318 5492,-244 5266,-244"/>
<text text-anchor="middle" x="5379" y="-302.8" font-family="Times,serif" font-size="14.00">stack &quot;libOPN_FedWiki&quot;</text>
</g>
<g id="clust12" class="cluster"><title>cluster9</title>
<polygon fill="#999999" stroke="#999999" points="4970,-162 4970,-236 5248,-236 5248,-162 4970,-162"/>
<text text-anchor="middle" x="5109" y="-220.8" font-family="Times,serif" font-size="14.00">stack &quot;model_Prefs&quot;</text>
</g>
<!-- n28 -->
<g id="node1" class="node"><title>n28</title>
<g id="a_node1"><a xlink:href="daemon_RouterLibrary%2Cg%2Cstack+%22lib_DaemonUtils%22%2C1" xlink:title="daemon_RouterLibrary">
<ellipse fill="#7f7f7f" stroke="white" cx="4861" cy="-344" rx="93.2188" ry="18"/>
<text text-anchor="middle" x="4861" y="-339.8" font-family="Times,serif" font-size="14.00">daemon_RouterLibrary</text>
</a>
</g>
</g>
<!-- n31 -->
<g id="node2" class="node"><title>n31</title>
<g id="a_node2"><a xlink:href="card_Object%2Cg%2Cstack+%22lib_Stack%22%2C1" xlink:title="card_Object">
<ellipse fill="#7f7f7f" stroke="white" cx="5317" cy="-188" rx="53.1367" ry="18"/>
<text text-anchor="middle" x="5317" y="-183.8" font-family="Times,serif" font-size="14.00">card_Object</text>
</a>
</g>
</g>
<!-- n32 -->
<g id="node25" class="node"><title>n32</title>
<g id="a_node25"><a xlink:href="text_TokenOffset%2Cf%2Cstack+%22lib_Common%22%2C1" xlink:title="text_TokenOffset">
<ellipse fill="GreenYellow" stroke="#008b00" cx="5064" cy="-106" rx="71.9182" ry="18"/>
<text text-anchor="middle" x="5064" y="-101.8" font-family="Times,serif" font-size="14.00">text_TokenOffset</text>
</a>
</g>
</g>
<!-- n31&#45;&gt;n32 -->
<g id="edge1" class="edge"><title>n31&#45;&gt;n32</title>
<path fill="none" stroke="black" d="M5286.49,-173.153C5275.8,-168.868 5263.56,-164.596 5252,-162 5205.47,-151.551 5190.56,-168.102 5145,-154 5127.12,-148.466 5108.94,-138.406 5094.35,-129.009"/>
<polygon fill="black" stroke="black" points="5096.03,-125.92 5085.76,-123.291 5092.15,-131.746 5096.03,-125.92"/>
</g>
<!-- n23 -->
<g id="node3" class="node"><title>n23</title>
<g id="a_node3"><a xlink:href="daemon_RouteHandlers%2Cg%2Cstack+%22lib_DaemonUtils%22%2C1" xlink:title="daemon_RouteHandlers">
<ellipse fill="#7f7f7f" stroke="white" cx="4654" cy="-344" rx="95.6413" ry="18"/>
<text text-anchor="middle" x="4654" y="-339.8" font-family="Times,serif" font-size="14.00">daemon_RouteHandlers</text>
</a>
</g>
</g>
<!-- n9 -->
<g id="node4" class="node"><title>n9</title>
<g id="a_node4"><a xlink:href="script_MessageHandlers%2Cg%2Cstack+%22lib_DaemonUtils%22%2C1" xlink:title="script_MessageHandlers">
<ellipse fill="#7f7f7f" stroke="white" cx="4443" cy="-344" rx="97.0862" ry="18"/>
<text text-anchor="middle" x="4443" y="-339.8" font-family="Times,serif" font-size="14.00">script_MessageHandlers</text>
</a>
</g>
</g>
<!-- n38 -->
<g id="node5" class="node"><title>n38</title>
<g id="a_node5"><a xlink:href="fedwiki_Files%2Cg%2Cstack+%22lib_DaemonUtils%22%2C1" xlink:title="fedwiki_Files">
<ellipse fill="#7f7f7f" stroke="white" cx="1976" cy="-344" rx="58.9841" ry="18"/>
<text text-anchor="middle" x="1976" y="-339.8" font-family="Times,serif" font-size="14.00">fedwiki_Files</text>
</a>
</g>
</g>
<!-- n39 -->
<g id="node31" class="node"><title>n39</title>
<g id="a_node31"><a xlink:href="folder_ShortFiles%2Cf%2Cstack+%22lib_LocalFedWiki%22%2C1" xlink:title="folder_ShortFiles">
<ellipse fill="GreenYellow" stroke="#008b00" cx="5650" cy="-270" rx="72.0135" ry="18"/>
<text text-anchor="middle" x="5650" y="-265.8" font-family="Times,serif" font-size="14.00">folder_ShortFiles</text>
</a>
</g>
</g>
<!-- n38&#45;&gt;n39 -->
<g id="edge5" class="edge"><title>n38&#45;&gt;n39</title>
<path fill="none" stroke="black" d="M2017.05,-331.038C2025.87,-328.948 2035.18,-327.095 2044,-326 2092.52,-319.971 5516.65,-330.153 5564,-318 5583.43,-313.015 5603.19,-302.657 5618.87,-292.93"/>
<polygon fill="black" stroke="black" points="5621.08,-295.673 5627.6,-287.322 5617.29,-289.785 5621.08,-295.673"/>
</g>
<!-- n10 -->
<g id="node6" class="node"><title>n10</title>
<g id="a_node6"><a xlink:href="daemon_LogLibrary%2Cg%2Cstack+%22lib_DaemonUtils%22%2C1" xlink:title="daemon_LogLibrary">
<ellipse fill="#7f7f7f" stroke="white" cx="4043" cy="-344" rx="83.0718" ry="18"/>
<text text-anchor="middle" x="4043" y="-339.8" font-family="Times,serif" font-size="14.00">daemon_LogLibrary</text>
</a>
</g>
</g>
<!-- n7 -->
<g id="node7" class="node"><title>n7</title>
<g id="a_node7"><a xlink:href="daemon_MiddlewareLibrary%2Cg%2Cstack+%22lib_DaemonUtils%22%2C1" xlink:title="daemon_MiddlewareLibrary">
<ellipse fill="#7f7f7f" stroke="white" cx="3830" cy="-344" rx="111.536" ry="18"/>
<text text-anchor="middle" x="3830" y="-339.8" font-family="Times,serif" font-size="14.00">daemon_MiddlewareLibrary</text>
</a>
</g>
</g>
<!-- n12 -->
<g id="node8" class="node"><title>n12</title>
<g id="a_node8"><a xlink:href="behavior_Objects%2Cg%2Cstack+%22lib_Behavior%22%2C1" xlink:title="behavior_Objects">
<ellipse fill="#7f7f7f" stroke="white" cx="6703" cy="-188" rx="72.4635" ry="18"/>
<text text-anchor="middle" x="6703" y="-183.8" font-family="Times,serif" font-size="14.00">behavior_Objects</text>
</a>
</g>
</g>
<!-- n44 -->
<g id="node21" class="node"><title>n44</title>
<g id="a_node21"><a xlink:href="behavior_GetHierarchy%2Cf%2Cstack+%22lib_Behavior%22%2C1" xlink:title="behavior_GetHierarchy">
<ellipse fill="GreenYellow" stroke="#008b00" cx="6707" cy="-106" rx="93.6773" ry="18"/>
<text text-anchor="middle" x="6707" y="-101.8" font-family="Times,serif" font-size="14.00">behavior_GetHierarchy</text>
</a>
</g>
</g>
<!-- n12&#45;&gt;n44 -->
<g id="edge17" class="edge"><title>n12&#45;&gt;n44</title>
<path fill="none" stroke="black" d="M6703.87,-169.641C6704.39,-159.297 6705.05,-145.941 6705.64,-134.221"/>
<polygon fill="black" stroke="black" points="6709.14,-134.212 6706.15,-124.05 6702.15,-133.863 6709.14,-134.212"/>
</g>
<!-- n8 -->
<g id="node9" class="node"><title>n8</title>
<g id="a_node9"><a xlink:href="daemon_Library%2Cg%2Cstack+%22lib_DaemonUtils%22%2C1" xlink:title="daemon_Library">
<ellipse fill="#7f7f7f" stroke="white" cx="3631" cy="-344" rx="69.0805" ry="18"/>
<text text-anchor="middle" x="3631" y="-339.8" font-family="Times,serif" font-size="14.00">daemon_Library</text>
</a>
</g>
</g>
<!-- n35 -->
<g id="node10" class="node"><title>n35</title>
<g id="a_node10"><a xlink:href="stack_Name%2Cg%2Cstack+%22lib_Common%22%2C1" xlink:title="stack_Name">
<ellipse fill="#7f7f7f" stroke="white" cx="5208" cy="-106" rx="53.6299" ry="18"/>
<text text-anchor="middle" x="5208" y="-101.8" font-family="Times,serif" font-size="14.00">stack_Name</text>
</a>
</g>
</g>
<!-- n43 -->
<g id="node32" class="node"><title>n43</title>
<g id="a_node32"><a xlink:href="object_ExtractStack%2Cf%2Cstack+%22lib_Common%22%2C1" xlink:title="object_ExtractStack">
<ellipse fill="GreenYellow" stroke="#008b00" cx="5208" cy="-34" rx="81.1336" ry="18"/>
<text text-anchor="middle" x="5208" y="-29.8" font-family="Times,serif" font-size="14.00">object_ExtractStack</text>
</a>
</g>
</g>
<!-- n35&#45;&gt;n43 -->
<g id="edge25" class="edge"><title>n35&#45;&gt;n43</title>
<path fill="none" stroke="black" d="M5208,-87.6966C5208,-79.9827 5208,-70.7125 5208,-62.1124"/>
<polygon fill="black" stroke="black" points="5211.5,-62.1043 5208,-52.1043 5204.5,-62.1044 5211.5,-62.1043"/>
</g>
<!-- n11 -->
<g id="node11" class="node"><title>n11</title>
<g id="a_node11"><a xlink:href="behavior_Hierarchy%2Cg%2Cstack+%22lib_Behavior%22%2C1" xlink:title="behavior_Hierarchy">
<ellipse fill="#7f7f7f" stroke="white" cx="6700" cy="-270" rx="80.6404" ry="18"/>
<text text-anchor="middle" x="6700" y="-265.8" font-family="Times,serif" font-size="14.00">behavior_Hierarchy</text>
</a>
</g>
</g>
<!-- n11&#45;&gt;n12 -->
<g id="edge29" class="edge"><title>n11&#45;&gt;n12</title>
<path fill="none" stroke="black" d="M6700.65,-251.641C6701.04,-241.297 6701.54,-227.941 6701.98,-216.221"/>
<polygon fill="black" stroke="black" points="6705.48,-216.174 6702.36,-206.05 6698.49,-215.912 6705.48,-216.174"/>
</g>
<!-- n33 -->
<g id="node12" class="node"><title>n33</title>
<g id="a_node12"><a xlink:href="request_UrlPath%2Cf%2Cstack+%22lib_DaemonUtils%22%2C1" xlink:title="request_UrlPath">
<ellipse fill="GreenYellow" stroke="#008b00" cx="3476" cy="-344" rx="67.6529" ry="18"/>
<text text-anchor="middle" x="3476" y="-339.8" font-family="Times,serif" font-size="14.00">request_UrlPath</text>
</a>
</g>
</g>
<!-- n45 -->
<g id="node13" class="node"><title>n45</title>
<g id="a_node13"><a xlink:href="fedwiki_LocalSiteJsonFile%2Cf%2Cstack+%22lib_DaemonUtils%22%2C1" xlink:title="fedwiki_LocalSiteJsonFile">
<ellipse fill="GreenYellow" stroke="#008b00" cx="704" cy="-344" rx="104.83" ry="18"/>
<text text-anchor="middle" x="704" y="-339.8" font-family="Times,serif" font-size="14.00">fedwiki_LocalSiteJsonFile</text>
</a>
</g>
</g>
<!-- n24 -->
<g id="node28" class="node"><title>n24</title>
<g id="a_node28"><a xlink:href="fedwiki_GetLocalSiteJsonFolder%2Cf%2Cstack+%22lib_DaemonUtils%22%2C1" xlink:title="fedwiki_GetLocalSiteJsonFolder">
<ellipse fill="GreenYellow" stroke="#008b00" cx="1320" cy="-270" rx="127.03" ry="18"/>
<text text-anchor="middle" x="1320" y="-265.8" font-family="Times,serif" font-size="14.00">fedwiki_GetLocalSiteJsonFolder</text>
</a>
</g>
</g>
<!-- n45&#45;&gt;n24 -->
<g id="edge2" class="edge"><title>n45&#45;&gt;n24</title>
<path fill="none" stroke="black" d="M778.704,-331.326C791.468,-329.456 804.606,-327.609 817,-326 951.472,-308.54 1106.66,-292.14 1208.68,-281.868"/>
<polygon fill="black" stroke="black" points="1209.1,-285.345 1218.7,-280.863 1208.4,-278.38 1209.1,-285.345"/>
</g>
<!-- n47 -->
<g id="node14" class="node"><title>n47</title>
<g id="a_node14"><a xlink:href="fedwiki_GetFileData%2Cf%2Cstack+%22lib_DaemonUtils%22%2C1" xlink:title="fedwiki_GetFileData">
<ellipse fill="GreenYellow" stroke="#008b00" cx="101" cy="-344" rx="84.5255" ry="18"/>
<text text-anchor="middle" x="101" y="-339.8" font-family="Times,serif" font-size="14.00">fedwiki_GetFileData</text>
</a>
</g>
</g>
<!-- n21 -->
<g id="node18" class="node"><title>n21</title>
<g id="a_node18"><a xlink:href="fedwiki_GetFile%2Cf%2Cstack+%22lib_DaemonUtils%22%2C1" xlink:title="fedwiki_GetFile">
<ellipse fill="GreenYellow" stroke="#008b00" cx="207" cy="-270" rx="68.1374" ry="18"/>
<text text-anchor="middle" x="207" y="-265.8" font-family="Times,serif" font-size="14.00">fedwiki_GetFile</text>
</a>
</g>
</g>
<!-- n47&#45;&gt;n21 -->
<g id="edge3" class="edge"><title>n47&#45;&gt;n21</title>
<path fill="none" stroke="black" d="M125.053,-326.662C139.793,-316.65 158.842,-303.711 174.864,-292.828"/>
<polygon fill="black" stroke="black" points="177.102,-295.539 183.407,-287.025 173.168,-289.749 177.102,-295.539"/>
</g>
<!-- n27 -->
<g id="node15" class="node"><title>n27</title>
<g id="a_node15"><a xlink:href="daemon_GetRouteData%2Cf%2CMissing%2C1" xlink:title="daemon_GetRouteData">
<ellipse fill="GreenYellow" stroke="#008b00" cx="6496" cy="-270" rx="93.2188" ry="18"/>
<text text-anchor="middle" x="6496" y="-265.8" font-family="Times,serif" font-size="14.00">daemon_GetRouteData</text>
</a>
</g>
</g>
<!-- n25 -->
<g id="node16" class="node"><title>n25</title>
<g id="a_node16"><a xlink:href="pref_GetValue%2Cf%2Cstack+%22model_Prefs%22%2C1" xlink:title="pref_GetValue">
<ellipse fill="GreenYellow" stroke="#008b00" cx="5040" cy="-188" rx="61.8389" ry="18"/>
<text text-anchor="middle" x="5040" y="-183.8" font-family="Times,serif" font-size="14.00">pref_GetValue</text>
</a>
</g>
</g>
<!-- n18 -->
<g id="node17" class="node"><title>n18</title>
<g id="a_node17"><a xlink:href="fedwiki_GetWelcomeHtml%2Cf%2Cstack+%22lib_DaemonUtils%22%2C1" xlink:title="fedwiki_GetWelcomeHtml">
<ellipse fill="GreenYellow" stroke="#008b00" cx="437" cy="-270" rx="105.833" ry="18"/>
<text text-anchor="middle" x="437" y="-265.8" font-family="Times,serif" font-size="14.00">fedwiki_GetWelcomeHtml</text>
</a>
</g>
</g>
<!-- n19 -->
<g id="node30" class="node"><title>n19</title>
<g id="a_node30"><a xlink:href="fedwiki_GetWelcomeFile%2Cf%2Cstack+%22lib_DaemonUtils%22%2C1" xlink:title="fedwiki_GetWelcomeFile">
<ellipse fill="GreenYellow" stroke="#008b00" cx="437" cy="-188" rx="101.49" ry="18"/>
<text text-anchor="middle" x="437" y="-183.8" font-family="Times,serif" font-size="14.00">fedwiki_GetWelcomeFile</text>
</a>
</g>
</g>
<!-- n18&#45;&gt;n19 -->
<g id="edge4" class="edge"><title>n18&#45;&gt;n19</title>
<path fill="none" stroke="black" d="M437,-251.641C437,-241.297 437,-227.941 437,-216.221"/>
<polygon fill="black" stroke="black" points="440.5,-216.05 437,-206.05 433.5,-216.05 440.5,-216.05"/>
</g>
<!-- n13 -->
<g id="node34" class="node"><title>n13</title>
<g id="a_node34"><a xlink:href="fedwiki_GetWelcomeFolder%2Cf%2Cstack+%22lib_DaemonUtils%22%2C1" xlink:title="fedwiki_GetWelcomeFolder">
<ellipse fill="GreenYellow" stroke="#008b00" cx="207" cy="-188" rx="110.652" ry="18"/>
<text text-anchor="middle" x="207" y="-183.8" font-family="Times,serif" font-size="14.00">fedwiki_GetWelcomeFolder</text>
</a>
</g>
</g>
<!-- n21&#45;&gt;n13 -->
<g id="edge8" class="edge"><title>n21&#45;&gt;n13</title>
<path fill="none" stroke="black" d="M207,-251.641C207,-241.297 207,-227.941 207,-216.221"/>
<polygon fill="black" stroke="black" points="210.5,-216.05 207,-206.05 203.5,-216.05 210.5,-216.05"/>
</g>
<!-- n40 -->
<g id="node19" class="node"><title>n40</title>
<g id="a_node19"><a xlink:href="request_Method%2Cf%2Cstack+%22lib_DaemonUtils%22%2C1" xlink:title="request_Method">
<ellipse fill="GreenYellow" stroke="#008b00" cx="2992" cy="-344" rx="67.6529" ry="18"/>
<text text-anchor="middle" x="2992" y="-339.8" font-family="Times,serif" font-size="14.00">request_Method</text>
</a>
</g>
</g>
<!-- n42 -->
<g id="node20" class="node"><title>n42</title>
<g id="a_node20"><a xlink:href="persona_ConstructAssertionCheckReply%2Cf%2CMissing%2C1" xlink:title="persona_ConstructAssertionCheckReply">
<ellipse fill="GreenYellow" stroke="#008b00" cx="6231" cy="-270" rx="154.067" ry="18"/>
<text text-anchor="middle" x="6231" y="-265.8" font-family="Times,serif" font-size="14.00">persona_ConstructAssertionCheckReply</text>
</a>
</g>
</g>
<!-- n14 -->
<g id="node22" class="node"><title>n14</title>
<g id="a_node22"><a xlink:href="fedwiki_GetRootFolder%2Cf%2Cstack+%22lib_DaemonUtils%22%2C1" xlink:title="fedwiki_GetRootFolder">
<ellipse fill="GreenYellow" stroke="#008b00" cx="322" cy="-106" rx="94.6982" ry="18"/>
<text text-anchor="middle" x="322" y="-101.8" font-family="Times,serif" font-size="14.00">fedwiki_GetRootFolder</text>
</a>
</g>
</g>
<!-- n16 -->
<g id="node23" class="node"><title>n16</title>
<g id="a_node23"><a xlink:href="daemon_ConstructDotHandler%2Cf%2Cstack+%22lib_DaemonUtils%22%2C1" xlink:title="daemon_ConstructDotHandler">
<ellipse fill="GreenYellow" stroke="#008b00" cx="2788" cy="-344" rx="118.819" ry="18"/>
<text text-anchor="middle" x="2788" y="-339.8" font-family="Times,serif" font-size="14.00">daemon_ConstructDotHandler</text>
</a>
</g>
</g>
<!-- n29 -->
<g id="node24" class="node"><title>n29</title>
<g id="a_node24"><a xlink:href="fedwiki_GetBinaryFile%2Cf%2Cstack+%22lib_DaemonUtils%22%2C1" xlink:title="fedwiki_GetBinaryFile">
<ellipse fill="GreenYellow" stroke="#008b00" cx="3170" cy="-344" rx="92.2757" ry="18"/>
<text text-anchor="middle" x="3170" y="-339.8" font-family="Times,serif" font-size="14.00">fedwiki_GetBinaryFile</text>
</a>
</g>
</g>
<!-- n30 -->
<g id="node41" class="node"><title>n30</title>
<g id="a_node41"><a xlink:href="fedwiki_Log%2Cc%2CMissing%2C1" xlink:title="fedwiki_Log">
<ellipse fill="LightBlue" stroke="Blue" cx="6003" cy="-270" rx="55.5768" ry="18"/>
<text text-anchor="middle" x="6003" y="-265.8" font-family="Times,serif" font-size="14.00">fedwiki_Log</text>
</a>
</g>
</g>
<!-- n29&#45;&gt;n30 -->
<g id="edge12" class="edge"><title>n29&#45;&gt;n30</title>
<path fill="none" stroke="black" d="M3232.83,-330.789C3245.43,-328.804 3258.6,-327.055 3271,-326 3307.92,-322.859 5903.8,-329.594 5939,-318 5953.86,-313.106 5968.11,-303.318 5979.39,-293.935"/>
<polygon fill="black" stroke="black" points="5981.81,-296.467 5987.03,-287.251 5977.2,-291.197 5981.81,-296.467"/>
</g>
<!-- n48 -->
<g id="node26" class="node"><title>n48</title>
<g id="a_node26"><a xlink:href="request_SocketID%2Cf%2Cstack+%22lib_DaemonUtils%22%2C1" xlink:title="request_SocketID">
<ellipse fill="GreenYellow" stroke="#008b00" cx="2379" cy="-344" rx="73.4326" ry="18"/>
<text text-anchor="middle" x="2379" y="-339.8" font-family="Times,serif" font-size="14.00">request_SocketID</text>
</a>
</g>
</g>
<!-- n26 -->
<g id="node27" class="node"><title>n26</title>
<g id="a_node27"><a xlink:href="fedwiki_GetRouteData%2Cf%2Cstack+%22lib_DaemonUtils%22%2C1" xlink:title="fedwiki_GetRouteData">
<ellipse fill="GreenYellow" stroke="#008b00" cx="4236" cy="-344" rx="92.2584" ry="18"/>
<text text-anchor="middle" x="4236" y="-339.8" font-family="Times,serif" font-size="14.00">fedwiki_GetRouteData</text>
</a>
</g>
</g>
<!-- n26&#45;&gt;n27 -->
<g id="edge18" class="edge"><title>n26&#45;&gt;n27</title>
<path fill="none" stroke="black" d="M4298.83,-330.798C4311.43,-328.812 4324.6,-327.061 4337,-326 4393.93,-321.131 6338.21,-330.349 6394,-318 6417.07,-312.894 6441.15,-302.092 6460.12,-292.13"/>
<polygon fill="black" stroke="black" points="6461.86,-295.168 6468.99,-287.335 6458.53,-289.009 6461.86,-295.168"/>
</g>
<!-- n24&#45;&gt;n25 -->
<g id="edge19" class="edge"><title>n24&#45;&gt;n25</title>
<path fill="none" stroke="black" d="M1439.61,-263.932C1588.79,-257.869 1851.69,-248.032 2077,-244 2097.06,-243.641 4946.74,-241.627 4966,-236 4982.9,-231.062 4999.63,-220.992 5012.9,-211.435"/>
<polygon fill="black" stroke="black" points="5015.19,-214.092 5021.09,-205.288 5010.99,-208.494 5015.19,-214.092"/>
</g>
<!-- n20 -->
<g id="node29" class="node"><title>n20</title>
<g id="a_node29"><a xlink:href="fedwiki_GetTextFile%2Cf%2Cstack+%22lib_DaemonUtils%22%2C1" xlink:title="fedwiki_GetTextFile">
<ellipse fill="GreenYellow" stroke="#008b00" cx="287" cy="-344" rx="83.8143" ry="18"/>
<text text-anchor="middle" x="287" y="-339.8" font-family="Times,serif" font-size="14.00">fedwiki_GetTextFile</text>
</a>
</g>
</g>
<!-- n20&#45;&gt;n21 -->
<g id="edge20" class="edge"><title>n20&#45;&gt;n21</title>
<path fill="none" stroke="black" d="M268.445,-326.301C257.869,-316.782 244.454,-304.708 232.858,-294.272"/>
<polygon fill="black" stroke="black" points="234.953,-291.449 225.178,-287.36 230.27,-296.652 234.953,-291.449"/>
</g>
<!-- n19&#45;&gt;n14 -->
<g id="edge21" class="edge"><title>n19&#45;&gt;n14</title>
<path fill="none" stroke="black" d="M413.172,-170.424C396.056,-158.517 372.795,-142.336 354.053,-129.298"/>
<polygon fill="black" stroke="black" points="356.005,-126.392 345.798,-123.555 352.008,-132.139 356.005,-126.392"/>
</g>
<!-- n15 -->
<g id="node33" class="node"><title>n15</title>
<g id="a_node33"><a xlink:href="request_QueryString%2Cf%2Cstack+%22lib_DaemonUtils%22%2C1" xlink:title="request_QueryString">
<ellipse fill="GreenYellow" stroke="#008b00" cx="1815" cy="-344" rx="83.5736" ry="18"/>
<text text-anchor="middle" x="1815" y="-339.8" font-family="Times,serif" font-size="14.00">request_QueryString</text>
</a>
</g>
</g>
<!-- n13&#45;&gt;n14 -->
<g id="edge30" class="edge"><title>n13&#45;&gt;n14</title>
<path fill="none" stroke="black" d="M231.108,-170.229C248.242,-158.31 271.431,-142.178 290.098,-129.193"/>
<polygon fill="black" stroke="black" points="292.108,-132.058 298.318,-123.475 288.11,-126.312 292.108,-132.058"/>
</g>
<!-- n2 -->
<g id="node35" class="node"><title>n2</title>
<g id="a_node35"><a xlink:href="folder_Format%2Cc%2Cstack+%22lib_Common%22%2C1" xlink:title="folder_Format">
<ellipse fill="LightBlue" stroke="Blue" cx="5385" cy="-34" rx="61.3804" ry="18"/>
<text text-anchor="middle" x="5385" y="-29.8" font-family="Times,serif" font-size="14.00">folder_Format</text>
</a>
</g>
</g>
<!-- n49 -->
<g id="node36" class="node"><title>n49</title>
<g id="a_node36"><a xlink:href="test_PersonaServer%2Cc%2Cstack+%22lib_DaemonUtils%22%2C1" xlink:title="test_PersonaServer">
<ellipse fill="LightBlue" stroke="Blue" cx="1635" cy="-344" rx="77.7762" ry="18"/>
<text text-anchor="middle" x="1635" y="-339.8" font-family="Times,serif" font-size="14.00">test_PersonaServer</text>
</a>
</g>
</g>
<!-- n5 -->
<g id="node37" class="node"><title>n5</title>
<g id="a_node37"><a xlink:href="fedwiki_SetLocalSiteJsonFolder%2Cc%2Cstack+%22lib_DaemonUtils%22%2C1" xlink:title="fedwiki_SetLocalSiteJsonFolder">
<ellipse fill="LightBlue" stroke="Blue" cx="952" cy="-344" rx="125.594" ry="18"/>
<text text-anchor="middle" x="952" y="-339.8" font-family="Times,serif" font-size="14.00">fedwiki_SetLocalSiteJsonFolder</text>
</a>
</g>
</g>
<!-- n5&#45;&gt;n2 -->
<g id="edge6" class="edge"><title>n5&#45;&gt;n2</title>
<path fill="none" stroke="black" d="M1036.55,-330.654C1052.92,-328.722 1069.97,-327.027 1086,-326 1101.28,-325.021 5485.18,-328.837 5496,-318 5529.65,-284.29 5515.54,-138.427 5474,-80 5464.95,-67.2664 5451.22,-57.9186 5437.24,-51.1518"/>
<polygon fill="black" stroke="black" points="5438.62,-47.9351 5428.06,-47.0681 5435.77,-54.3308 5438.62,-47.9351"/>
</g>
<!-- n6 -->
<g id="node46" class="node"><title>n6</title>
<g id="a_node46"><a xlink:href="pref_SetValue%2Cc%2Cstack+%22model_Prefs%22%2C1" xlink:title="pref_SetValue">
<ellipse fill="LightBlue" stroke="Blue" cx="5180" cy="-188" rx="60.4028" ry="18"/>
<text text-anchor="middle" x="5180" y="-183.8" font-family="Times,serif" font-size="14.00">pref_SetValue</text>
</a>
</g>
</g>
<!-- n5&#45;&gt;n6 -->
<g id="edge7" class="edge"><title>n5&#45;&gt;n6</title>
<path fill="none" stroke="black" d="M1037.65,-330.781C1053.69,-328.877 1070.33,-327.16 1086,-326 1250.03,-313.855 1291.89,-329.106 1456,-318 1745.65,-298.397 1815.18,-260.857 2105,-244 2146.68,-241.576 5071.12,-248.351 5111,-236 5126.86,-231.088 5142.35,-221.16 5154.61,-211.689"/>
<polygon fill="black" stroke="black" points="5156.98,-214.279 5162.56,-205.272 5152.58,-208.833 5156.98,-214.279"/>
</g>
<!-- n36 -->
<g id="node38" class="node"><title>n36</title>
<g id="a_node38"><a xlink:href="fedwiki_SetRouteData%2Cc%2Cstack+%22lib_DaemonUtils%22%2C1" xlink:title="fedwiki_SetRouteData">
<ellipse fill="LightBlue" stroke="Blue" cx="2561" cy="-344" rx="90.8222" ry="18"/>
<text text-anchor="middle" x="2561" y="-339.8" font-family="Times,serif" font-size="14.00">fedwiki_SetRouteData</text>
</a>
</g>
</g>
<!-- n37 -->
<g id="node47" class="node"><title>n37</title>
<g id="a_node47"><a xlink:href="daemon_SetRouteData%2Cc%2CMissing%2C1" xlink:title="daemon_SetRouteData">
<ellipse fill="LightBlue" stroke="Blue" cx="5838" cy="-270" rx="91.7825" ry="18"/>
<text text-anchor="middle" x="5838" y="-265.8" font-family="Times,serif" font-size="14.00">daemon_SetRouteData</text>
</a>
</g>
</g>
<!-- n36&#45;&gt;n37 -->
<g id="edge9" class="edge"><title>n36&#45;&gt;n37</title>
<path fill="none" stroke="black" d="M2622.58,-330.785C2634.93,-328.801 2647.84,-327.053 2660,-326 2702.54,-322.319 5692.28,-327.047 5734,-318 5757.46,-312.912 5782.02,-302.111 5801.37,-292.145"/>
<polygon fill="black" stroke="black" points="5803.23,-295.122 5810.42,-287.348 5799.95,-288.936 5803.23,-295.122"/>
</g>
<!-- n1 -->
<g id="node39" class="node"><title>n1</title>
<g id="a_node39"><a xlink:href="folder_CreateNested%2Cc%2Cstack+%22lib_Common%22%2C1" xlink:title="folder_CreateNested">
<ellipse fill="LightBlue" stroke="Blue" cx="5363" cy="-106" rx="83.0546" ry="18"/>
<text text-anchor="middle" x="5363" y="-101.8" font-family="Times,serif" font-size="14.00">folder_CreateNested</text>
</a>
</g>
</g>
<!-- n1&#45;&gt;n2 -->
<g id="edge10" class="edge"><title>n1&#45;&gt;n2</title>
<path fill="none" stroke="black" d="M5368.44,-87.6966C5370.89,-79.8979 5373.84,-70.5085 5376.57,-61.8292"/>
<polygon fill="black" stroke="black" points="5379.96,-62.6937 5379.62,-52.1043 5373.29,-60.5949 5379.96,-62.6937"/>
</g>
<!-- n3 -->
<g id="node40" class="node"><title>n3</title>
<g id="a_node40"><a xlink:href="fedwiki_SetLocalFolders%2Cc%2Cstack+%22lib_DaemonUtils%22%2C1" xlink:title="fedwiki_SetLocalFolders">
<ellipse fill="LightBlue" stroke="Blue" cx="1195" cy="-344" rx="99.5088" ry="18"/>
<text text-anchor="middle" x="1195" y="-339.8" font-family="Times,serif" font-size="14.00">fedwiki_SetLocalFolders</text>
</a>
</g>
</g>
<!-- n4 -->
<g id="node45" class="node"><title>n4</title>
<g id="a_node45"><a xlink:href="fedwiki_SetBigDataFolder%2Cc%2Cstack+%22libOPN_FedWiki%22%2C1" xlink:title="fedwiki_SetBigDataFolder">
<ellipse fill="LightBlue" stroke="Blue" cx="5379" cy="-270" rx="105.306" ry="18"/>
<text text-anchor="middle" x="5379" y="-265.8" font-family="Times,serif" font-size="14.00">fedwiki_SetBigDataFolder</text>
</a>
</g>
</g>
<!-- n3&#45;&gt;n4 -->
<g id="edge11" class="edge"><title>n3&#45;&gt;n4</title>
<path fill="none" stroke="black" d="M1262.84,-330.78C1276.43,-328.796 1290.63,-327.05 1304,-326 1358.8,-321.696 5208.04,-328.49 5262,-318 5288.39,-312.869 5316.39,-301.843 5338.38,-291.759"/>
<polygon fill="black" stroke="black" points="5340.16,-294.789 5347.72,-287.367 5337.18,-288.454 5340.16,-294.789"/>
</g>
<!-- n34 -->
<g id="node42" class="node"><title>n34</title>
<g id="a_node42"><a xlink:href="object_GoTo%2Cc%2Cstack+%22lib_Object%22%2C1" xlink:title="object_GoTo">
<ellipse fill="LightBlue" stroke="Blue" cx="5194" cy="-270" rx="56.3018" ry="18"/>
<text text-anchor="middle" x="5194" y="-265.8" font-family="Times,serif" font-size="14.00">object_GoTo</text>
</a>
</g>
</g>
<!-- n34&#45;&gt;n31 -->
<g id="edge13" class="edge"><title>n34&#45;&gt;n31</title>
<path fill="none" stroke="black" d="M5221.51,-254.155C5231.28,-248.675 5242.26,-242.268 5252,-236 5264.13,-228.195 5277.09,-219.01 5288.22,-210.841"/>
<polygon fill="black" stroke="black" points="5290.38,-213.597 5296.33,-204.831 5286.21,-207.973 5290.38,-213.597"/>
</g>
<!-- n34&#45;&gt;n35 -->
<g id="edge14" class="edge"><title>n34&#45;&gt;n35</title>
<path fill="none" stroke="black" d="M5225.96,-255.115C5237.15,-250.827 5249.94,-246.563 5262,-244 5275.07,-241.222 5372.87,-245.758 5382,-236 5404.47,-211.983 5404.4,-186.077 5382,-162 5373.58,-152.948 5282.59,-158.315 5271,-154 5256.84,-148.726 5243.13,-139.217 5232.15,-130.125"/>
<polygon fill="black" stroke="black" points="5234.16,-127.237 5224.31,-123.331 5229.57,-132.526 5234.16,-127.237"/>
</g>
<!-- n46 -->
<g id="node43" class="node"><title>n46</title>
<g id="a_node43"><a xlink:href="daemon_OpenBehaviorStacks%2Cc%2Cstack+%22lib_DaemonUtils%22%2C1" xlink:title="daemon_OpenBehaviorStacks">
<ellipse fill="LightBlue" stroke="Blue" cx="2170" cy="-344" rx="117.366" ry="18"/>
<text text-anchor="middle" x="2170" y="-339.8" font-family="Times,serif" font-size="14.00">daemon_OpenBehaviorStacks</text>
</a>
</g>
</g>
<!-- n46&#45;&gt;n11 -->
<g id="edge15" class="edge"><title>n46&#45;&gt;n11</title>
<path fill="none" stroke="black" d="M2249.44,-330.738C2265.16,-328.772 2281.57,-327.042 2297,-326 2356.64,-321.97 6542.7,-331.194 6601,-318 6623.54,-312.899 6646.98,-302.056 6665.39,-292.069"/>
<polygon fill="black" stroke="black" points="6667.24,-295.045 6674.27,-287.112 6663.83,-288.934 6667.24,-295.045"/>
</g>
<!-- n46&#45;&gt;n34 -->
<g id="edge16" class="edge"><title>n46&#45;&gt;n34</title>
<path fill="none" stroke="black" d="M2249.44,-330.752C2265.17,-328.784 2281.58,-327.051 2297,-326 2444.94,-315.92 4818.51,-333.267 4966,-318 5027.42,-311.642 5096.74,-296.132 5142.65,-284.658"/>
<polygon fill="black" stroke="black" points="5143.53,-288.047 5152.37,-282.203 5141.82,-281.26 5143.53,-288.047"/>
</g>
<!-- n22 -->
<g id="node44" class="node"><title>n22</title>
<g id="a_node44"><a xlink:href="fedwiki_NormlizeRoute%2Cc%2Cstack+%22lib_DaemonUtils%22%2C1" xlink:title="fedwiki_NormlizeRoute">
<ellipse fill="LightBlue" stroke="Blue" cx="485" cy="-344" rx="96.1258" ry="18"/>
<text text-anchor="middle" x="485" y="-339.8" font-family="Times,serif" font-size="14.00">fedwiki_NormlizeRoute</text>
</a>
</g>
</g>
<!-- n4&#45;&gt;n2 -->
<g id="edge23" class="edge"><title>n4&#45;&gt;n2</title>
<path fill="none" stroke="black" d="M5406.24,-252.279C5412.35,-247.586 5418.38,-242.083 5423,-236 5446.67,-204.849 5447.76,-192.446 5455,-154 5461.08,-121.679 5470.76,-108.867 5455,-80 5449.1,-69.2017 5439.39,-60.608 5429.04,-53.9472"/>
<polygon fill="black" stroke="black" points="5430.67,-50.8442 5420.27,-48.8007 5427.12,-56.8811 5430.67,-50.8442"/>
</g>
<!-- n4&#45;&gt;n1 -->
<g id="edge22" class="edge"><title>n4&#45;&gt;n1</title>
<path fill="none" stroke="black" d="M5395.72,-252.167C5399.5,-247.332 5402.99,-241.789 5405,-236 5415.77,-204.925 5415.54,-193.156 5405,-162 5401.29,-151.021 5394.41,-140.506 5387.28,-131.665"/>
<polygon fill="black" stroke="black" points="5389.91,-129.358 5380.74,-124.05 5384.6,-133.918 5389.91,-129.358"/>
</g>
<!-- n4&#45;&gt;n6 -->
<g id="edge24" class="edge"><title>n4&#45;&gt;n6</title>
<path fill="none" stroke="black" d="M5312.36,-255.992C5292.49,-250.975 5270.96,-244.382 5252,-236 5237.02,-229.379 5221.66,-219.804 5209,-211.021"/>
<polygon fill="black" stroke="black" points="5210.87,-208.06 5200.7,-205.113 5206.81,-213.763 5210.87,-208.06"/>
</g>
<!-- n41 -->
<g id="node48" class="node"><title>n41</title>
<g id="a_node48"><a xlink:href="demo_Reply%2Cc%2Cstack+%22lib_DaemonUtils%22%2C1" xlink:title="demo_Reply">
<ellipse fill="LightBlue" stroke="Blue" cx="3335" cy="-344" rx="55.1008" ry="18"/>
<text text-anchor="middle" x="3335" y="-339.8" font-family="Times,serif" font-size="14.00">demo_Reply</text>
</a>
</g>
</g>
<!-- n41&#45;&gt;n42 -->
<g id="edge26" class="edge"><title>n41&#45;&gt;n42</title>
<path fill="none" stroke="black" d="M3373.6,-331.043C3381.9,-328.953 3390.68,-327.099 3399,-326 3546,-306.585 5921.21,-338.965 6068,-318 6105.23,-312.683 6145.87,-300.978 6177.25,-290.58"/>
<polygon fill="black" stroke="black" points="6178.75,-293.771 6187.1,-287.26 6176.51,-287.138 6178.75,-293.771"/>
</g>
<!-- n17 -->
<g id="node49" class="node"><title>n17</title>
<g id="a_node49"><a xlink:href="fedwiki_SetLocalWikiFolder%2Cc%2Cstack+%22lib_DaemonUtils%22%2C1" xlink:title="fedwiki_SetLocalWikiFolder">
<ellipse fill="LightBlue" stroke="Blue" cx="1426" cy="-344" rx="113.292" ry="18"/>
<text text-anchor="middle" x="1426" y="-339.8" font-family="Times,serif" font-size="14.00">fedwiki_SetLocalWikiFolder</text>
</a>
</g>
</g>
<!-- n17&#45;&gt;n2 -->
<g id="edge27" class="edge"><title>n17&#45;&gt;n2</title>
<path fill="none" stroke="black" d="M1502.63,-330.697C1517.63,-328.748 1533.28,-327.035 1548,-326 1561.78,-325.031 5516.24,-327.777 5526,-318 5563.36,-280.564 5557.2,-122.707 5526,-80 5509.54,-57.4622 5481.66,-45.9487 5455.02,-40.1617"/>
<polygon fill="black" stroke="black" points="5455.37,-36.6663 5444.89,-38.2131 5454.05,-43.5402 5455.37,-36.6663"/>
</g>
<!-- n17&#45;&gt;n6 -->
<g id="edge28" class="edge"><title>n17&#45;&gt;n6</title>
<path fill="none" stroke="black" d="M1503.29,-330.757C1518.1,-328.83 1533.5,-327.11 1548,-326 1671.43,-316.551 1981.24,-320.577 2105,-318 2439.05,-311.045 4793.07,-338.761 5111,-236 5126.69,-230.929 5142.06,-221.085 5154.29,-211.711"/>
<polygon fill="black" stroke="black" points="5156.61,-214.341 5162.23,-205.361 5152.24,-208.876 5156.61,-214.341"/>
</g>
</g>
</svg>
