<?xml version="1.0" encoding="UTF-8" standalone="no"?>
<!DOCTYPE svg PUBLIC "-//W3C//DTD SVG 1.1//EN"
 "http://www.w3.org/Graphics/SVG/1.1/DTD/svg11.dtd">
<!-- Generated by graphviz version 2.38.0 (20140413.2041)
 -->
<!-- Title: dot_FromArray Pages: 1 -->
<svg width="2250pt" height="159pt"
 viewBox="0.00 0.00 2250.00 159.14" xmlns="http://www.w3.org/2000/svg" xmlns:xlink="http://www.w3.org/1999/xlink">
<g id="graph0" class="graph" transform="scale(0.324769 0.324769) rotate(0) translate(4 486)">
<title>dot_FromArray</title>
<polygon fill="white" stroke="none" points="-4,4 -4,-486 6924,-486 6924,4 -4,4"/>
<g id="clust6" class="cluster"><title>cluster1</title>
<polygon fill="orange" stroke="red" points="822,-162 822,-236 1664,-236 1664,-162 822,-162"/>
<text text-anchor="middle" x="1243" y="-220.8" font-family="Times,serif" font-size="14.00">Missing</text>
</g>
<g id="clust7" class="cluster"><title>cluster2</title>
<polygon fill="#999999" stroke="#999999" points="8,-162 8,-400 538,-400 538,-162 8,-162"/>
<text text-anchor="middle" x="273" y="-384.8" font-family="Times,serif" font-size="14.00">stack &quot;lib_Display&quot;</text>
</g>
<g id="clust8" class="cluster"><title>cluster3</title>
<polygon fill="#999999" stroke="#999999" points="6662,-326 6662,-400 6912,-400 6912,-326 6662,-326"/>
<text text-anchor="middle" x="6787" y="-384.8" font-family="Times,serif" font-size="14.00">stack &quot;lib_Script&quot;</text>
</g>
<g id="clust9" class="cluster"><title>cluster4</title>
<polygon fill="#999999" stroke="#999999" points="1672,-162 1672,-474 4665,-474 4665,-162 1672,-162"/>
<text text-anchor="middle" x="3168.5" y="-458.8" font-family="Times,serif" font-size="14.00">stack &quot;lib_SivaSiva&quot;</text>
</g>
<g id="clust10" class="cluster"><title>cluster5</title>
<polygon fill="#999999" stroke="#999999" points="546,-80 546,-236 814,-236 814,-80 546,-80"/>
<text text-anchor="middle" x="680" y="-220.8" font-family="Times,serif" font-size="14.00">stack &quot;lib_Stack&quot;</text>
</g>
<g id="clust11" class="cluster"><title>cluster6</title>
<polygon fill="#999999" stroke="#999999" points="6323,-80 6323,-400 6654,-400 6654,-80 6323,-80"/>
<text text-anchor="middle" x="6488.5" y="-384.8" font-family="Times,serif" font-size="14.00">stack &quot;lib_XML&quot;</text>
</g>
<g id="clust12" class="cluster"><title>cluster7</title>
<polygon fill="#999999" stroke="#999999" points="578,-244 578,-318 762,-318 762,-244 578,-244"/>
<text text-anchor="middle" x="670" y="-302.8" font-family="Times,serif" font-size="14.00">stack &quot;libOPN_Data&quot;</text>
</g>
<g id="clust13" class="cluster"><title>cluster8</title>
<polygon fill="#999999" stroke="#999999" points="4673,-8 4673,-318 5365,-318 5365,-8 4673,-8"/>
<text text-anchor="middle" x="5019" y="-302.8" font-family="Times,serif" font-size="14.00">stack &quot;model_Project&quot;</text>
</g>
<g id="clust14" class="cluster"><title>cluster9</title>
<polygon fill="#999999" stroke="#999999" points="5373,-8 5373,-154 6315,-154 6315,-8 5373,-8"/>
<text text-anchor="middle" x="5844" y="-138.8" font-family="Times,serif" font-size="14.00">stack &quot;Rescue Livecode World&quot;</text>
</g>
<!-- n52 -->
<g id="node1" class="node"><title>n52</title>
<g id="a_node1"><a xlink:href="_displayView%2Cpf%2Cstack+%22lib_Display%22%2C1" xlink:title="_displayView">
<ellipse fill="none" stroke="black" cx="449" cy="-188" rx="58.9061" ry="18"/>
<text text-anchor="middle" x="449" y="-183.8" font-family="Times,serif" font-size="14.00">_displayView</text>
</a>
</g>
</g>
<!-- n46 -->
<g id="node2" class="node"><title>n46</title>
<g id="a_node2"><a xlink:href="table_ParseSection%2Cpc%2Cstack+%22lib_SivaSiva%22%2C1" xlink:title="table_ParseSection">
<ellipse fill="none" stroke="black" cx="2215" cy="-188" rx="77.2916" ry="18"/>
<text text-anchor="middle" x="2215" y="-183.8" font-family="Times,serif" font-size="14.00">table_ParseSection</text>
</a>
</g>
</g>
<!-- n53 -->
<g id="node3" class="node"><title>n53</title>
<g id="a_node3"><a xlink:href="displayed_Data%2Cs%2CMissing%2C1" xlink:title="displayed_Data">
<ellipse fill="grey" stroke="white" cx="1001" cy="-188" rx="65.2304" ry="18"/>
<text text-anchor="middle" x="1001" y="-183.8" font-family="Times,serif" font-size="14.00">displayed_Data</text>
</a>
</g>
</g>
<!-- n50 -->
<g id="node4" class="node"><title>n50</title>
<g id="a_node4"><a xlink:href="title_Colour%2Cs%2CMissing%2C1" xlink:title="title_Colour">
<ellipse fill="grey" stroke="white" cx="1465" cy="-188" rx="52.6952" ry="18"/>
<text text-anchor="middle" x="1465" y="-183.8" font-family="Times,serif" font-size="14.00">title_Colour</text>
</a>
</g>
</g>
<!-- n54 -->
<g id="node5" class="node"><title>n54</title>
<g id="a_node5"><a xlink:href="view_EventArray%2Cs%2CMissing%2C1" xlink:title="view_EventArray">
<ellipse fill="grey" stroke="white" cx="1157" cy="-188" rx="72.9394" ry="18"/>
<text text-anchor="middle" x="1157" y="-183.8" font-family="Times,serif" font-size="14.00">view_EventArray</text>
</a>
</g>
</g>
<!-- n32 -->
<g id="node6" class="node"><title>n32</title>
<g id="a_node6"><a xlink:href="title_Text%2Cs%2CMissing%2C1" xlink:title="title_Text">
<ellipse fill="grey" stroke="white" cx="874" cy="-188" rx="43.7405" ry="18"/>
<text text-anchor="middle" x="874" y="-183.8" font-family="Times,serif" font-size="14.00">title_Text</text>
</a>
</g>
</g>
<!-- n55 -->
<g id="node7" class="node"><title>n55</title>
<g id="a_node7"><a xlink:href="view_MenuArray%2Cs%2CMissing%2C1" xlink:title="view_MenuArray">
<ellipse fill="grey" stroke="white" cx="1321" cy="-188" rx="72.948" ry="18"/>
<text text-anchor="middle" x="1321" y="-183.8" font-family="Times,serif" font-size="14.00">view_MenuArray</text>
</a>
</g>
</g>
<!-- n12 -->
<g id="node8" class="node"><title>n12</title>
<g id="a_node8"><a xlink:href="tree_SortType%2Cs%2CMissing%2C1" xlink:title="tree_SortType">
<ellipse fill="grey" stroke="white" cx="1596" cy="-188" rx="60.1518" ry="18"/>
<text text-anchor="middle" x="1596" y="-183.8" font-family="Times,serif" font-size="14.00">tree_SortType</text>
</a>
</g>
</g>
<!-- n14 -->
<g id="node9" class="node"><title>n14</title>
<g id="a_node9"><a xlink:href="xml_AddHeaderLine%2Cc%2Cstack+%22lib_XML%22%2C1" xlink:title="xml_AddHeaderLine">
<ellipse fill="LightBlue" stroke="Blue" cx="6561" cy="-352" rx="85.0015" ry="18"/>
<text text-anchor="middle" x="6561" y="-347.8" font-family="Times,serif" font-size="14.00">xml_AddHeaderLine</text>
</a>
</g>
</g>
<!-- n15 -->
<g id="node35" class="node"><title>n15</title>
<g id="a_node35"><a xlink:href="kwote%2Cf%2Cstack+%22lib_XML%22%2C1" xlink:title="kwote">
<ellipse fill="GreenYellow" stroke="#008b00" cx="6561" cy="-270" rx="31.9393" ry="18"/>
<text text-anchor="middle" x="6561" y="-265.8" font-family="Times,serif" font-size="14.00">kwote</text>
</a>
</g>
</g>
<!-- n14&#45;&gt;n15 -->
<g id="edge22" class="edge"><title>n14&#45;&gt;n15</title>
<path fill="none" stroke="black" d="M6561,-333.641C6561,-323.297 6561,-309.941 6561,-298.221"/>
<polygon fill="black" stroke="black" points="6564.5,-298.05 6561,-288.05 6557.5,-298.05 6564.5,-298.05"/>
</g>
<!-- n56 -->
<g id="node10" class="node"><title>n56</title>
<g id="a_node10"><a xlink:href="sivasiva_SaveChapterTitleArray%2Cc%2Cstack+%22lib_SivaSiva%22%2C1" xlink:title="sivasiva_SaveChapterTitleArray">
<ellipse fill="LightBlue" stroke="Blue" cx="3300" cy="-426" rx="125.438" ry="18"/>
<text text-anchor="middle" x="3300" y="-421.8" font-family="Times,serif" font-size="14.00">sivasiva_SaveChapterTitleArray</text>
</a>
</g>
</g>
<!-- n24 -->
<g id="node22" class="node"><title>n24</title>
<g id="a_node22"><a xlink:href="project_SaveValue%2Cc%2Cstack+%22model_Project%22%2C1" xlink:title="project_SaveValue">
<ellipse fill="LightBlue" stroke="Blue" cx="4933" cy="-270" rx="76.3139" ry="18"/>
<text text-anchor="middle" x="4933" y="-265.8" font-family="Times,serif" font-size="14.00">project_SaveValue</text>
</a>
</g>
</g>
<!-- n56&#45;&gt;n24 -->
<g id="edge11" class="edge"><title>n56&#45;&gt;n24</title>
<path fill="none" stroke="black" d="M3384.56,-412.714C3400.93,-410.777 3417.97,-409.065 3434,-408 3468.06,-405.736 4629.71,-407.566 4663,-400 4738.22,-382.904 4747.79,-353.13 4820,-326 4832.12,-321.448 4836.04,-322.941 4848,-318 4865.17,-310.91 4883.29,-301.221 4898.38,-292.481"/>
<polygon fill="black" stroke="black" points="4900.51,-295.289 4907.34,-287.194 4896.95,-289.26 4900.51,-295.289"/>
</g>
<!-- n1 -->
<g id="node11" class="node"><title>n1</title>
<g id="a_node11"><a xlink:href="xml_FindNextSibling%2Cc%2Cstack+%22lib_SivaSiva%22%2C1" xlink:title="xml_FindNextSibling">
<ellipse fill="LightBlue" stroke="Blue" cx="1818" cy="-270" rx="87.5" ry="18"/>
<text text-anchor="middle" x="1818" y="-265.8" font-family="Times,serif" font-size="14.00">xml_FindNextSibling</text>
</a>
</g>
</g>
<!-- n29 -->
<g id="node12" class="node"><title>n29</title>
<g id="a_node12"><a xlink:href="library_StoreArray%2Cc%2Cstack+%22model_Project%22%2C1" xlink:title="library_StoreArray">
<ellipse fill="LightBlue" stroke="Blue" cx="5280" cy="-270" rx="77.283" ry="18"/>
<text text-anchor="middle" x="5280" y="-265.8" font-family="Times,serif" font-size="14.00">library_StoreArray</text>
</a>
</g>
</g>
<!-- n30 -->
<g id="node13" class="node"><title>n30</title>
<g id="a_node13"><a xlink:href="array_Save%2Cc%2Cstack+%22Rescue+Livecode+World%22%2C1" xlink:title="array_Save">
<ellipse fill="LightBlue" stroke="Blue" cx="6257" cy="-106" rx="49.7619" ry="18"/>
<text text-anchor="middle" x="6257" y="-101.8" font-family="Times,serif" font-size="14.00">array_Save</text>
</a>
</g>
</g>
<!-- n29&#45;&gt;n30 -->
<g id="edge28" class="edge"><title>n29&#45;&gt;n30</title>
<path fill="none" stroke="black" d="M5352.52,-263.52C5425.31,-257.744 5540.6,-247.851 5640,-236 5888.9,-206.326 5968.04,-253.754 6198,-154 6211.08,-148.325 6223.71,-138.974 6233.9,-130.102"/>
<polygon fill="black" stroke="black" points="6236.48,-132.488 6241.52,-123.168 6231.77,-127.313 6236.48,-132.488"/>
</g>
<!-- n10 -->
<g id="node14" class="node"><title>n10</title>
<g id="a_node14"><a xlink:href="display_IndexedBookArray%2Cc%2Cstack+%22lib_SivaSiva%22%2C1" xlink:title="display_IndexedBookArray">
<ellipse fill="LightBlue" stroke="Blue" cx="1788" cy="-426" rx="108.187" ry="18"/>
<text text-anchor="middle" x="1788" y="-421.8" font-family="Times,serif" font-size="14.00">display_IndexedBookArray</text>
</a>
</g>
</g>
<!-- n10&#45;&gt;n12 -->
<g id="edge25" class="edge"><title>n10&#45;&gt;n12</title>
<path fill="none" stroke="black" d="M1774.19,-408.027C1740.77,-366.95 1655.41,-262.023 1616.22,-213.855"/>
<polygon fill="black" stroke="black" points="1618.71,-211.367 1609.68,-205.819 1613.28,-215.785 1618.71,-211.367"/>
</g>
<!-- n11 -->
<g id="node18" class="node"><title>n11</title>
<g id="a_node18"><a xlink:href="display_Array%2Cc%2Cstack+%22lib_Display%22%2C1" xlink:title="display_Array">
<ellipse fill="LightBlue" stroke="Blue" cx="469" cy="-352" rx="60.896" ry="18"/>
<text text-anchor="middle" x="469" y="-347.8" font-family="Times,serif" font-size="14.00">display_Array</text>
</a>
</g>
</g>
<!-- n10&#45;&gt;n11 -->
<g id="edge24" class="edge"><title>n10&#45;&gt;n11</title>
<path fill="none" stroke="black" d="M1686.96,-419.485C1429.91,-405.453 756.022,-368.668 538.074,-356.771"/>
<polygon fill="black" stroke="black" points="538.22,-353.273 528.044,-356.223 537.838,-360.263 538.22,-353.273"/>
</g>
<!-- n57 -->
<g id="node15" class="node"><title>n57</title>
<g id="a_node15"><a xlink:href="book_ParseDivArray%2Cc%2Cstack+%22lib_SivaSiva%22%2C1" xlink:title="book_ParseDivArray">
<ellipse fill="LightBlue" stroke="Blue" cx="4124" cy="-426" rx="85.0187" ry="18"/>
<text text-anchor="middle" x="4124" y="-421.8" font-family="Times,serif" font-size="14.00">book_ParseDivArray</text>
</a>
</g>
</g>
<!-- n51 -->
<g id="node16" class="node"><title>n51</title>
<g id="a_node16"><a xlink:href="view_SetCloneData%2Cc%2Cstack+%22lib_Display%22%2C1" xlink:title="view_SetCloneData">
<ellipse fill="LightBlue" stroke="Blue" cx="449" cy="-270" rx="80.6749" ry="18"/>
<text text-anchor="middle" x="449" y="-265.8" font-family="Times,serif" font-size="14.00">view_SetCloneData</text>
</a>
</g>
</g>
<!-- n51&#45;&gt;n52 -->
<g id="edge30" class="edge"><title>n51&#45;&gt;n52</title>
<path fill="none" stroke="black" d="M449,-251.641C449,-241.297 449,-227.941 449,-216.221"/>
<polygon fill="black" stroke="black" points="452.5,-216.05 449,-206.05 445.5,-216.05 452.5,-216.05"/>
</g>
<!-- n51&#45;&gt;n53 -->
<g id="edge31" class="edge"><title>n51&#45;&gt;n53</title>
<path fill="none" stroke="black" d="M493.499,-254.966C509.283,-250.61 527.279,-246.341 544,-244 586.154,-238.098 886.254,-248.309 927,-236 943.732,-230.946 960.344,-220.967 973.577,-211.5"/>
<polygon fill="black" stroke="black" points="975.824,-214.191 981.752,-205.41 971.641,-208.577 975.824,-214.191"/>
</g>
<!-- n51&#45;&gt;n54 -->
<g id="edge32" class="edge"><title>n51&#45;&gt;n54</title>
<path fill="none" stroke="black" d="M493.492,-254.911C509.275,-250.551 527.272,-246.292 544,-244 602.46,-235.988 1018.1,-251.612 1075,-236 1093.65,-230.883 1112.51,-220.515 1127.43,-210.815"/>
<polygon fill="black" stroke="black" points="1129.39,-213.715 1135.73,-205.226 1125.48,-207.909 1129.39,-213.715"/>
</g>
<!-- n51&#45;&gt;n55 -->
<g id="edge33" class="edge"><title>n51&#45;&gt;n55</title>
<path fill="none" stroke="black" d="M493.487,-254.878C509.27,-250.514 527.268,-246.263 544,-244 582.265,-238.825 1201.74,-246.15 1239,-236 1257.66,-230.916 1276.52,-220.55 1291.44,-210.844"/>
<polygon fill="black" stroke="black" points="1293.4,-213.742 1299.74,-205.25 1289.49,-207.938 1293.4,-213.742"/>
</g>
<!-- n31 -->
<g id="node17" class="node"><title>n31</title>
<g id="a_node17"><a xlink:href="view_CloneShow%2Cc%2Cstack+%22lib_Display%22%2C1" xlink:title="view_CloneShow">
<ellipse fill="LightBlue" stroke="Blue" cx="89" cy="-270" rx="72.9826" ry="18"/>
<text text-anchor="middle" x="89" y="-265.8" font-family="Times,serif" font-size="14.00">view_CloneShow</text>
</a>
</g>
</g>
<!-- n31&#45;&gt;n32 -->
<g id="edge4" class="edge"><title>n31&#45;&gt;n32</title>
<path fill="none" stroke="black" d="M128.094,-254.613C141.507,-250.343 156.735,-246.217 171,-244 206.521,-238.481 784.298,-248.505 818,-236 831.146,-231.122 843.374,-221.702 853.028,-212.569"/>
<polygon fill="black" stroke="black" points="855.6,-214.947 860.188,-205.397 850.646,-210.002 855.6,-214.947"/>
</g>
<!-- n33 -->
<g id="node50" class="node"><title>n33</title>
<g id="a_node50"><a xlink:href="view_GetTemplateControl%2Cf%2Cstack+%22lib_Display%22%2C1" xlink:title="view_GetTemplateControl">
<ellipse fill="GreenYellow" stroke="#008b00" cx="120" cy="-188" rx="104.07" ry="18"/>
<text text-anchor="middle" x="120" y="-183.8" font-family="Times,serif" font-size="14.00">view_GetTemplateControl</text>
</a>
</g>
</g>
<!-- n31&#45;&gt;n33 -->
<g id="edge5" class="edge"><title>n31&#45;&gt;n33</title>
<path fill="none" stroke="black" d="M95.5743,-252.034C99.6565,-241.499 104.992,-227.731 109.634,-215.75"/>
<polygon fill="black" stroke="black" points="112.979,-216.806 113.328,-206.217 106.451,-214.277 112.979,-216.806"/>
</g>
<!-- n11&#45;&gt;n50 -->
<g id="edge50" class="edge"><title>n11&#45;&gt;n50</title>
<path fill="none" stroke="black" d="M508.336,-338.147C519.253,-333.16 530.444,-326.545 539,-318 564.742,-292.29 543.357,-263.612 574,-244 593.396,-231.586 1381.21,-243.444 1403,-236 1417.26,-231.129 1430.87,-221.578 1441.68,-212.35"/>
<polygon fill="black" stroke="black" points="1444.27,-214.727 1449.37,-205.44 1439.59,-209.521 1444.27,-214.727"/>
</g>
<!-- n11&#45;&gt;n12 -->
<g id="edge51" class="edge"><title>n11&#45;&gt;n12</title>
<path fill="none" stroke="black" d="M528.738,-348.316C723.937,-338.955 1341.07,-304.528 1527,-236 1542.25,-230.38 1557.38,-220.667 1569.56,-211.524"/>
<polygon fill="black" stroke="black" points="1571.76,-214.25 1577.5,-205.343 1567.46,-208.728 1571.76,-214.25"/>
</g>
<!-- n11&#45;&gt;n51 -->
<g id="edge53" class="edge"><title>n11&#45;&gt;n51</title>
<path fill="none" stroke="black" d="M464.759,-334.034C462.151,-323.605 458.751,-310.006 455.778,-298.11"/>
<polygon fill="black" stroke="black" points="459.125,-297.07 453.304,-288.217 452.334,-298.768 459.125,-297.07"/>
</g>
<!-- n11&#45;&gt;n31 -->
<g id="edge52" class="edge"><title>n11&#45;&gt;n31</title>
<path fill="none" stroke="black" d="M408.113,-351.457C346.788,-350.265 250.176,-343.832 171,-318 153.173,-312.184 134.921,-302.194 120.176,-292.916"/>
<polygon fill="black" stroke="black" points="121.778,-289.783 111.484,-287.275 117.967,-295.655 121.778,-289.783"/>
</g>
<!-- n44 -->
<g id="node30" class="node"><title>n44</title>
<g id="a_node30"><a xlink:href="stack_CloneInvisible%2Cc%2Cstack+%22lib_Display%22%2C1" xlink:title="stack_CloneInvisible">
<ellipse fill="LightBlue" stroke="Blue" cx="265" cy="-270" rx="84.5427" ry="18"/>
<text text-anchor="middle" x="265" y="-265.8" font-family="Times,serif" font-size="14.00">stack_CloneInvisible</text>
</a>
</g>
</g>
<!-- n11&#45;&gt;n44 -->
<g id="edge49" class="edge"><title>n11&#45;&gt;n44</title>
<path fill="none" stroke="black" d="M424.781,-339.613C404.465,-333.905 380.221,-326.416 359,-318 340.11,-310.509 319.865,-300.64 303.019,-291.88"/>
<polygon fill="black" stroke="black" points="304.518,-288.714 294.04,-287.15 301.256,-294.907 304.518,-288.714"/>
</g>
<!-- n49 -->
<g id="node32" class="node"><title>n49</title>
<g id="a_node32"><a xlink:href="script_CallingObject%2Cf%2Cstack+%22libOPN_Data%22%2C1" xlink:title="script_CallingObject">
<ellipse fill="GreenYellow" stroke="#008b00" cx="670" cy="-270" rx="83.5736" ry="18"/>
<text text-anchor="middle" x="670" y="-265.8" font-family="Times,serif" font-size="14.00">script_CallingObject</text>
</a>
</g>
</g>
<!-- n11&#45;&gt;n49 -->
<g id="edge48" class="edge"><title>n11&#45;&gt;n49</title>
<path fill="none" stroke="black" d="M511.056,-338.955C529.906,-333.192 552.284,-325.843 572,-318 591.527,-310.232 612.613,-300.327 630.204,-291.615"/>
<polygon fill="black" stroke="black" points="632.21,-294.525 639.586,-286.918 629.077,-288.265 632.21,-294.525"/>
</g>
<!-- n42 -->
<g id="node19" class="node"><title>n42</title>
<g id="a_node19"><a xlink:href="text_DecodeUTF8%2Cc%2Cstack+%22lib_SivaSiva%22%2C1" xlink:title="text_DecodeUTF8">
<ellipse fill="LightBlue" stroke="Blue" cx="1999" cy="-270" rx="75.8466" ry="18"/>
<text text-anchor="middle" x="1999" y="-265.8" font-family="Times,serif" font-size="14.00">text_DecodeUTF8</text>
</a>
</g>
</g>
<!-- n7 -->
<g id="node20" class="node"><title>n7</title>
<g id="a_node20"><a xlink:href="shell_AddBashParam%2Cc%2Cstack+%22lib_XML%22%2C1" xlink:title="shell_AddBashParam">
<ellipse fill="LightBlue" stroke="Blue" cx="6422" cy="-270" rx="86.9809" ry="18"/>
<text text-anchor="middle" x="6422" y="-265.8" font-family="Times,serif" font-size="14.00">shell_AddBashParam</text>
</a>
</g>
</g>
<!-- n8 -->
<g id="node26" class="node"><title>n8</title>
<g id="a_node26"><a xlink:href="shell_BashParamEscape%2Cc%2Cstack+%22lib_XML%22%2C1" xlink:title="shell_BashParamEscape">
<ellipse fill="LightBlue" stroke="Blue" cx="6428" cy="-188" rx="96.6017" ry="18"/>
<text text-anchor="middle" x="6428" y="-183.8" font-family="Times,serif" font-size="14.00">shell_BashParamEscape</text>
</a>
</g>
</g>
<!-- n7&#45;&gt;n8 -->
<g id="edge26" class="edge"><title>n7&#45;&gt;n8</title>
<path fill="none" stroke="black" d="M6423.3,-251.641C6424.08,-241.297 6425.08,-227.941 6425.96,-216.221"/>
<polygon fill="black" stroke="black" points="6429.46,-216.284 6426.72,-206.05 6422.48,-215.76 6429.46,-216.284"/>
</g>
<!-- n37 -->
<g id="node21" class="node"><title>n37</title>
<g id="a_node21"><a xlink:href="sivasiva_SaveBookArray%2Cc%2Cstack+%22lib_SivaSiva%22%2C1" xlink:title="sivasiva_SaveBookArray">
<ellipse fill="LightBlue" stroke="Blue" cx="3057" cy="-426" rx="99.9934" ry="18"/>
<text text-anchor="middle" x="3057" y="-421.8" font-family="Times,serif" font-size="14.00">sivasiva_SaveBookArray</text>
</a>
</g>
</g>
<!-- n37&#45;&gt;n24 -->
<g id="edge42" class="edge"><title>n37&#45;&gt;n24</title>
<path fill="none" stroke="black" d="M3125.44,-412.852C3138.85,-410.89 3152.83,-409.133 3166,-408 3270.74,-398.99 3533.98,-404.679 3639,-400 4094.85,-379.69 4207.46,-352.304 4663,-326 4704.08,-323.628 4808.39,-329.141 4848,-318 4867,-312.657 4886.39,-302.377 4901.85,-292.79"/>
<polygon fill="black" stroke="black" points="4903.93,-295.612 4910.46,-287.268 4900.15,-289.719 4903.93,-295.612"/>
</g>
<!-- n20 -->
<g id="node25" class="node"><title>n20</title>
<g id="a_node25"><a xlink:href="project_SaveArray%2Cc%2Cstack+%22model_Project%22%2C1" xlink:title="project_SaveArray">
<ellipse fill="LightBlue" stroke="Blue" cx="4973" cy="-188" rx="76.7898" ry="18"/>
<text text-anchor="middle" x="4973" y="-183.8" font-family="Times,serif" font-size="14.00">project_SaveArray</text>
</a>
</g>
</g>
<!-- n24&#45;&gt;n20 -->
<g id="edge35" class="edge"><title>n24&#45;&gt;n20</title>
<path fill="none" stroke="black" d="M4941.48,-252.034C4946.84,-241.322 4953.87,-227.265 4959.93,-215.145"/>
<polygon fill="black" stroke="black" points="4963.19,-216.451 4964.53,-205.941 4956.93,-213.321 4963.19,-216.451"/>
</g>
<!-- n16 -->
<g id="node23" class="node"><title>n16</title>
<g id="a_node23"><a xlink:href="folder_Format%2Cc%2Cstack+%22Rescue+Livecode+World%22%2C1" xlink:title="folder_Format">
<ellipse fill="LightBlue" stroke="Blue" cx="6128" cy="-106" rx="61.3804" ry="18"/>
<text text-anchor="middle" x="6128" y="-101.8" font-family="Times,serif" font-size="14.00">folder_Format</text>
</a>
</g>
</g>
<!-- n17 -->
<g id="node27" class="node"><title>n17</title>
<g id="a_node27"><a xlink:href="text_AddTrailing%2Cc%2Cstack+%22Rescue+Livecode+World%22%2C1" xlink:title="text_AddTrailing">
<ellipse fill="LightBlue" stroke="Blue" cx="5985" cy="-34" rx="71.3991" ry="18"/>
<text text-anchor="middle" x="5985" y="-29.8" font-family="Times,serif" font-size="14.00">text_AddTrailing</text>
</a>
</g>
</g>
<!-- n16&#45;&gt;n17 -->
<g id="edge23" class="edge"><title>n16&#45;&gt;n17</title>
<path fill="none" stroke="black" d="M6097.67,-90.1548C6076.63,-79.8552 6048.38,-66.0231 6025.42,-54.7878"/>
<polygon fill="black" stroke="black" points="6026.79,-51.5608 6016.27,-50.3077 6023.71,-57.848 6026.79,-51.5608"/>
</g>
<!-- n21 -->
<g id="node24" class="node"><title>n21</title>
<g id="a_node24"><a xlink:href="library_StoreSetData%2Cc%2Cstack+%22Rescue+Livecode+World%22%2C1" xlink:title="library_StoreSetData">
<ellipse fill="LightBlue" stroke="Blue" cx="5656" cy="-106" rx="84.5255" ry="18"/>
<text text-anchor="middle" x="5656" y="-101.8" font-family="Times,serif" font-size="14.00">library_StoreSetData</text>
</a>
</g>
</g>
<!-- n21&#45;&gt;n29 -->
<g id="edge21" class="edge"><title>n21&#45;&gt;n29</title>
<path fill="none" stroke="black" d="M5625.8,-122.835C5607.51,-132.244 5583.61,-144.211 5562,-154 5480.96,-190.718 5384.62,-228.85 5328.11,-250.675"/>
<polygon fill="black" stroke="black" points="5326.78,-247.434 5318.71,-254.295 5329.3,-253.966 5326.78,-247.434"/>
</g>
<!-- n20&#45;&gt;n21 -->
<g id="edge36" class="edge"><title>n20&#45;&gt;n21</title>
<path fill="none" stroke="black" d="M5026.09,-174.901C5050.32,-169.927 5079.47,-164.707 5106,-162 5156.41,-156.857 5512.79,-166.075 5562,-154 5583.08,-148.828 5604.87,-138.312 5622.15,-128.537"/>
<polygon fill="black" stroke="black" points="5624.39,-131.285 5631.26,-123.221 5620.86,-125.24 5624.39,-131.285"/>
</g>
<!-- n22 -->
<g id="node33" class="node"><title>n22</title>
<g id="a_node33"><a xlink:href="project_GetCurrentName%2Cf%2Cstack+%22model_Project%22%2C1" xlink:title="project_GetCurrentName">
<ellipse fill="GreenYellow" stroke="#008b00" cx="4957" cy="-106" rx="99.9588" ry="18"/>
<text text-anchor="middle" x="4957" y="-101.8" font-family="Times,serif" font-size="14.00">project_GetCurrentName</text>
</a>
</g>
</g>
<!-- n20&#45;&gt;n22 -->
<g id="edge37" class="edge"><title>n20&#45;&gt;n22</title>
<path fill="none" stroke="black" d="M4969.53,-169.641C4967.44,-159.192 4964.73,-145.668 4962.37,-133.862"/>
<polygon fill="black" stroke="black" points="4965.8,-133.169 4960.41,-124.05 4958.94,-134.542 4965.8,-133.169"/>
</g>
<!-- n60 -->
<g id="node51" class="node"><title>n60</title>
<g id="a_node51"><a xlink:href="text_IsQuoted%2Cf%2Cstack+%22lib_XML%22%2C1" xlink:title="text_IsQuoted">
<ellipse fill="GreenYellow" stroke="#008b00" cx="6428" cy="-106" rx="60.4202" ry="18"/>
<text text-anchor="middle" x="6428" y="-101.8" font-family="Times,serif" font-size="14.00">text_IsQuoted</text>
</a>
</g>
</g>
<!-- n8&#45;&gt;n60 -->
<g id="edge39" class="edge"><title>n8&#45;&gt;n60</title>
<path fill="none" stroke="black" d="M6428,-169.641C6428,-159.297 6428,-145.941 6428,-134.221"/>
<polygon fill="black" stroke="black" points="6431.5,-134.05 6428,-124.05 6424.5,-134.05 6431.5,-134.05"/>
</g>
<!-- n19 -->
<g id="node28" class="node"><title>n19</title>
<g id="a_node28"><a xlink:href="folder_CreateNested%2Cc%2Cstack+%22Rescue+Livecode+World%22%2C1" xlink:title="folder_CreateNested">
<ellipse fill="LightBlue" stroke="Blue" cx="5842" cy="-106" rx="83.0546" ry="18"/>
<text text-anchor="middle" x="5842" y="-101.8" font-family="Times,serif" font-size="14.00">folder_CreateNested</text>
</a>
</g>
</g>
<!-- n19&#45;&gt;n17 -->
<g id="edge38" class="edge"><title>n19&#45;&gt;n17</title>
<path fill="none" stroke="black" d="M5874.09,-89.2906C5894.84,-79.1327 5922.03,-65.8222 5944.3,-54.9231"/>
<polygon fill="black" stroke="black" points="5946.06,-57.9562 5953.51,-50.4159 5942.99,-51.669 5946.06,-57.9562"/>
</g>
<!-- n23 -->
<g id="node29" class="node"><title>n23</title>
<g id="a_node29"><a xlink:href="sivasiva_SaveChapters%2Cc%2Cstack+%22lib_SivaSiva%22%2C1" xlink:title="sivasiva_SaveChapters">
<ellipse fill="LightBlue" stroke="Blue" cx="3929" cy="-426" rx="91.7912" ry="18"/>
<text text-anchor="middle" x="3929" y="-421.8" font-family="Times,serif" font-size="14.00">sivasiva_SaveChapters</text>
</a>
</g>
</g>
<!-- n23&#45;&gt;n24 -->
<g id="edge10" class="edge"><title>n23&#45;&gt;n24</title>
<path fill="none" stroke="black" d="M3991.84,-412.859C4004.43,-410.869 4017.6,-409.099 4030,-408 4051.86,-406.062 4800.06,-409.164 4820,-400 4866.34,-378.706 4901.25,-328.159 4919.29,-297.036"/>
<polygon fill="black" stroke="black" points="4922.49,-298.487 4924.34,-288.055 4916.39,-295.056 4922.49,-298.487"/>
</g>
<!-- n34 -->
<g id="node59" class="node"><title>n34</title>
<g id="a_node59"><a xlink:href="stack_ConstructNewCloneName%2Cf%2Cstack+%22lib_Stack%22%2C1" xlink:title="stack_ConstructNewCloneName">
<ellipse fill="GreenYellow" stroke="#008b00" cx="680" cy="-188" rx="126.052" ry="18"/>
<text text-anchor="middle" x="680" y="-183.8" font-family="Times,serif" font-size="14.00">stack_ConstructNewCloneName</text>
</a>
</g>
</g>
<!-- n44&#45;&gt;n34 -->
<g id="edge20" class="edge"><title>n44&#45;&gt;n34</title>
<path fill="none" stroke="black" d="M310.479,-254.783C325.75,-250.58 342.975,-246.452 359,-244 439.475,-231.688 461.993,-251.053 542,-236 573.014,-230.165 606.554,-218.864 632.802,-208.806"/>
<polygon fill="black" stroke="black" points="634.08,-212.065 642.124,-205.169 631.536,-205.543 634.08,-212.065"/>
</g>
<!-- n35 -->
<g id="node31" class="node"><title>n35</title>
<g id="a_node31"><a xlink:href="stack_ClonedStackNames%2Cf%2Cstack+%22lib_Stack%22%2C1" xlink:title="stack_ClonedStackNames">
<ellipse fill="GreenYellow" stroke="#008b00" cx="680" cy="-106" rx="102.399" ry="18"/>
<text text-anchor="middle" x="680" y="-101.8" font-family="Times,serif" font-size="14.00">stack_ClonedStackNames</text>
</a>
</g>
</g>
<!-- n43 -->
<g id="node34" class="node"><title>n43</title>
<g id="a_node34"><a xlink:href="sivasiva_ExtractDivs%2Cf%2Cstack+%22lib_SivaSiva%22%2C1" xlink:title="sivasiva_ExtractDivs">
<ellipse fill="GreenYellow" stroke="#008b00" cx="3528" cy="-426" rx="85.0187" ry="18"/>
<text text-anchor="middle" x="3528" y="-421.8" font-family="Times,serif" font-size="14.00">sivasiva_ExtractDivs</text>
</a>
</g>
</g>
<!-- n36 -->
<g id="node36" class="node"><title>n36</title>
<g id="a_node36"><a xlink:href="sivasiva_FetchChapters%2Cf%2Cstack+%22lib_SivaSiva%22%2C1" xlink:title="sivasiva_FetchChapters">
<ellipse fill="GreenYellow" stroke="#008b00" cx="3725" cy="-426" rx="94.2051" ry="18"/>
<text text-anchor="middle" x="3725" y="-421.8" font-family="Times,serif" font-size="14.00">sivasiva_FetchChapters</text>
</a>
</g>
</g>
<!-- n13 -->
<g id="node60" class="node"><title>n13</title>
<g id="a_node60"><a xlink:href="project_FetchValue%2Cf%2Cstack+%22model_Project%22%2C1" xlink:title="project_FetchValue">
<ellipse fill="GreenYellow" stroke="#008b00" cx="4760" cy="-270" rx="78.728" ry="18"/>
<text text-anchor="middle" x="4760" y="-265.8" font-family="Times,serif" font-size="14.00">project_FetchValue</text>
</a>
</g>
</g>
<!-- n36&#45;&gt;n13 -->
<g id="edge19" class="edge"><title>n36&#45;&gt;n13</title>
<path fill="none" stroke="black" d="M3791.78,-413.216C3917.3,-391.62 4197.2,-346.076 4435,-326 4486.85,-321.623 4618.66,-331.148 4669,-318 4689.32,-312.692 4710.27,-302.276 4726.93,-292.595"/>
<polygon fill="black" stroke="black" points="4728.94,-295.473 4735.72,-287.33 4725.34,-289.468 4728.94,-295.473"/>
</g>
<!-- n48 -->
<g id="node37" class="node"><title>n48</title>
<g id="a_node37"><a xlink:href="array_Fetch%2Cf%2Cstack+%22Rescue+Livecode+World%22%2C1" xlink:title="array_Fetch">
<ellipse fill="GreenYellow" stroke="#008b00" cx="5996" cy="-106" rx="52.1762" ry="18"/>
<text text-anchor="middle" x="5996" y="-101.8" font-family="Times,serif" font-size="14.00">array_Fetch</text>
</a>
</g>
</g>
<!-- n28 -->
<g id="node38" class="node"><title>n28</title>
<g id="a_node38"><a xlink:href="project_FetchArray%2Cf%2Cstack+%22model_Project%22%2C1" xlink:title="project_FetchArray">
<ellipse fill="GreenYellow" stroke="#008b00" cx="4799" cy="-188" rx="79.204" ry="18"/>
<text text-anchor="middle" x="4799" y="-183.8" font-family="Times,serif" font-size="14.00">project_FetchArray</text>
</a>
</g>
</g>
<!-- n28&#45;&gt;n22 -->
<g id="edge8" class="edge"><title>n28&#45;&gt;n22</title>
<path fill="none" stroke="black" d="M4829.84,-171.385C4854.42,-158.938 4889.06,-141.398 4915.98,-127.767"/>
<polygon fill="black" stroke="black" points="4917.82,-130.764 4925.16,-123.124 4914.65,-124.519 4917.82,-130.764"/>
</g>
<!-- n38 -->
<g id="node45" class="node"><title>n38</title>
<g id="a_node45"><a xlink:href="library_FetchSetData%2Cf%2Cstack+%22Rescue+Livecode+World%22%2C1" xlink:title="library_FetchSetData">
<ellipse fill="GreenYellow" stroke="#008b00" cx="5467" cy="-106" rx="85.986" ry="18"/>
<text text-anchor="middle" x="5467" y="-101.8" font-family="Times,serif" font-size="14.00">library_FetchSetData</text>
</a>
</g>
</g>
<!-- n28&#45;&gt;n38 -->
<g id="edge7" class="edge"><title>n28&#45;&gt;n38</title>
<path fill="none" stroke="black" d="M4841.03,-172.654C4855.43,-168.387 4871.76,-164.252 4887,-162 4939.99,-154.171 5316.87,-166.31 5369,-154 5391.05,-148.793 5413.97,-138.131 5432.1,-128.277"/>
<polygon fill="black" stroke="black" points="5434.1,-131.17 5441.12,-123.231 5430.68,-125.062 5434.1,-131.17"/>
</g>
<!-- n25 -->
<g id="node39" class="node"><title>n25</title>
<g id="a_node39"><a xlink:href="library_ArrayFile%2Cf%2Cstack+%22model_Project%22%2C1" xlink:title="library_ArrayFile">
<ellipse fill="GreenYellow" stroke="#008b00" cx="5187" cy="-188" rx="72.4635" ry="18"/>
<text text-anchor="middle" x="5187" y="-183.8" font-family="Times,serif" font-size="14.00">library_ArrayFile</text>
</a>
</g>
</g>
<!-- n26 -->
<g id="node58" class="node"><title>n26</title>
<g id="a_node58"><a xlink:href="library_ArrayFolder%2Cf%2Cstack+%22model_Project%22%2C1" xlink:title="library_ArrayFolder">
<ellipse fill="GreenYellow" stroke="#008b00" cx="5234" cy="-106" rx="81.6268" ry="18"/>
<text text-anchor="middle" x="5234" y="-101.8" font-family="Times,serif" font-size="14.00">library_ArrayFolder</text>
</a>
</g>
</g>
<!-- n25&#45;&gt;n26 -->
<g id="edge9" class="edge"><title>n25&#45;&gt;n26</title>
<path fill="none" stroke="black" d="M5196.97,-170.034C5203.32,-159.215 5211.68,-144.987 5218.85,-132.786"/>
<polygon fill="black" stroke="black" points="5222,-134.337 5224.05,-123.941 5215.96,-130.791 5222,-134.337"/>
</g>
<!-- n47 -->
<g id="node40" class="node"><title>n47</title>
<g id="a_node40"><a xlink:href="sivasiva_ParseXhtml%2Cf%2Cstack+%22lib_SivaSiva%22%2C1" xlink:title="sivasiva_ParseXhtml">
<ellipse fill="GreenYellow" stroke="#008b00" cx="1999" cy="-426" rx="84.5514" ry="18"/>
<text text-anchor="middle" x="1999" y="-421.8" font-family="Times,serif" font-size="14.00">sivasiva_ParseXhtml</text>
</a>
</g>
</g>
<!-- n40 -->
<g id="node53" class="node"><title>n40</title>
<g id="a_node53"><a xlink:href="sivasiva_ExtractChapterArray%2Cf%2Cstack+%22lib_SivaSiva%22%2C1" xlink:title="sivasiva_ExtractChapterArray">
<ellipse fill="GreenYellow" stroke="#008b00" cx="1999" cy="-352" rx="117.34" ry="18"/>
<text text-anchor="middle" x="1999" y="-347.8" font-family="Times,serif" font-size="14.00">sivasiva_ExtractChapterArray</text>
</a>
</g>
</g>
<!-- n47&#45;&gt;n40 -->
<g id="edge6" class="edge"><title>n47&#45;&gt;n40</title>
<path fill="none" stroke="black" d="M1999,-407.937C1999,-399.807 1999,-389.876 1999,-380.705"/>
<polygon fill="black" stroke="black" points="2002.5,-380.441 1999,-370.441 1995.5,-380.441 2002.5,-380.441"/>
</g>
<!-- n6 -->
<g id="node41" class="node"><title>n6</title>
<g id="a_node41"><a xlink:href="sivasiva_ExtractDataFromXml%2Cf%2Cstack+%22lib_SivaSiva%22%2C1" xlink:title="sivasiva_ExtractDataFromXml">
<ellipse fill="GreenYellow" stroke="#008b00" cx="2819" cy="-426" rx="120.264" ry="18"/>
<text text-anchor="middle" x="2819" y="-421.8" font-family="Times,serif" font-size="14.00">sivasiva_ExtractDataFromXml</text>
</a>
</g>
</g>
<!-- n9 -->
<g id="node42" class="node"><title>n9</title>
<g id="a_node42"><a xlink:href="shell_XmlTidy%2Cf%2Cstack+%22lib_XML%22%2C1" xlink:title="shell_XmlTidy">
<ellipse fill="GreenYellow" stroke="#008b00" cx="6394" cy="-352" rx="63.1983" ry="18"/>
<text text-anchor="middle" x="6394" y="-347.8" font-family="Times,serif" font-size="14.00">shell_XmlTidy</text>
</a>
</g>
</g>
<!-- n9&#45;&gt;n7 -->
<g id="edge14" class="edge"><title>n9&#45;&gt;n7</title>
<path fill="none" stroke="black" d="M6399.94,-334.034C6403.63,-323.499 6408.44,-309.731 6412.64,-297.75"/>
<polygon fill="black" stroke="black" points="6415.97,-298.812 6415.97,-288.217 6409.37,-296.5 6415.97,-298.812"/>
</g>
<!-- n3 -->
<g id="node43" class="node"><title>n3</title>
<g id="a_node43"><a xlink:href="sivasiva_FetchBookArray%2Cf%2Cstack+%22lib_SivaSiva%22%2C1" xlink:title="sivasiva_FetchBookArray">
<ellipse fill="GreenYellow" stroke="#008b00" cx="2915" cy="-352" rx="102.407" ry="18"/>
<text text-anchor="middle" x="2915" y="-347.8" font-family="Times,serif" font-size="14.00">sivasiva_FetchBookArray</text>
</a>
</g>
</g>
<!-- n3&#45;&gt;n13 -->
<g id="edge27" class="edge"><title>n3&#45;&gt;n13</title>
<path fill="none" stroke="black" d="M3008.45,-344.46C3099.43,-338.412 3241.63,-329.803 3365,-326 3401.21,-324.884 4633.83,-326.661 4669,-318 4689.54,-312.942 4710.64,-302.435 4727.35,-292.635"/>
<polygon fill="black" stroke="black" points="4729.41,-295.48 4736.15,-287.303 4725.78,-289.493 4729.41,-295.48"/>
</g>
<!-- n41 -->
<g id="node44" class="node"><title>n41</title>
<g id="a_node44"><a xlink:href="table_ConstructArrayFromTree%2Cf%2Cstack+%22lib_SivaSiva%22%2C1" xlink:title="table_ConstructArrayFromTree">
<ellipse fill="GreenYellow" stroke="#008b00" cx="2215" cy="-270" rx="121.563" ry="18"/>
<text text-anchor="middle" x="2215" y="-265.8" font-family="Times,serif" font-size="14.00">table_ConstructArrayFromTree</text>
</a>
</g>
</g>
<!-- n41&#45;&gt;n46 -->
<g id="edge44" class="edge"><title>n41&#45;&gt;n46</title>
<path fill="none" stroke="black" d="M2215,-251.641C2215,-241.297 2215,-227.941 2215,-216.221"/>
<polygon fill="black" stroke="black" points="2218.5,-216.05 2215,-206.05 2211.5,-216.05 2218.5,-216.05"/>
</g>
<!-- n39 -->
<g id="node55" class="node"><title>n39</title>
<g id="a_node55"><a xlink:href="library_FetchArray%2Cf%2Cstack+%22model_Project%22%2C1" xlink:title="library_FetchArray">
<ellipse fill="GreenYellow" stroke="#008b00" cx="5106" cy="-270" rx="78.2435" ry="18"/>
<text text-anchor="middle" x="5106" y="-265.8" font-family="Times,serif" font-size="14.00">library_FetchArray</text>
</a>
</g>
</g>
<!-- n38&#45;&gt;n39 -->
<g id="edge15" class="edge"><title>n38&#45;&gt;n39</title>
<path fill="none" stroke="black" d="M5448.04,-123.756C5414.46,-152.356 5341.13,-210.015 5268,-236 5236.83,-247.076 5226.47,-237.68 5194,-244 5182.79,-246.183 5170.93,-249.113 5159.67,-252.197"/>
<polygon fill="black" stroke="black" points="5158.64,-248.851 5149.96,-254.933 5160.54,-255.589 5158.64,-248.851"/>
</g>
<!-- n58 -->
<g id="node46" class="node"><title>n58</title>
<g id="a_node46"><a xlink:href="sivasiva_GetTestXML%2Cf%2Cstack+%22lib_SivaSiva%22%2C1" xlink:title="sivasiva_GetTestXML">
<ellipse fill="GreenYellow" stroke="#008b00" cx="4567" cy="-426" rx="90.0956" ry="18"/>
<text text-anchor="middle" x="4567" y="-421.8" font-family="Times,serif" font-size="14.00">sivasiva_GetTestXML</text>
</a>
</g>
</g>
<!-- n58&#45;&gt;n14 -->
<g id="edge47" class="edge"><title>n58&#45;&gt;n14</title>
<path fill="none" stroke="black" d="M4656.95,-424.924C5021.96,-424.472 6377.3,-421.359 6466,-400 6487.48,-394.828 6509.71,-384.168 6527.26,-374.306"/>
<polygon fill="black" stroke="black" points="6529.08,-377.295 6535.98,-369.255 6525.57,-371.238 6529.08,-377.295"/>
</g>
<!-- n58&#45;&gt;n9 -->
<g id="edge46" class="edge"><title>n58&#45;&gt;n9</title>
<path fill="none" stroke="black" d="M4654.5,-421.552C4968.08,-409.194 6032.21,-367.258 6321.11,-355.872"/>
<polygon fill="black" stroke="black" points="6321.61,-359.356 6331.46,-355.464 6321.33,-352.361 6321.61,-359.356"/>
</g>
<!-- n59 -->
<g id="node54" class="node"><title>n59</title>
<g id="a_node54"><a xlink:href="script_GetCommentAboveMe%2Cf%2Cstack+%22lib_Script%22%2C1" xlink:title="script_GetCommentAboveMe">
<ellipse fill="GreenYellow" stroke="#008b00" cx="6787" cy="-352" rx="117.383" ry="18"/>
<text text-anchor="middle" x="6787" y="-347.8" font-family="Times,serif" font-size="14.00">script_GetCommentAboveMe</text>
</a>
</g>
</g>
<!-- n58&#45;&gt;n59 -->
<g id="edge45" class="edge"><title>n58&#45;&gt;n59</title>
<path fill="none" stroke="black" d="M4656.99,-424.768C5044.83,-423.661 6558.42,-418.19 6658,-400 6687.19,-394.668 6718.49,-383.41 6742.95,-373.248"/>
<polygon fill="black" stroke="black" points="6744.47,-376.405 6752.31,-369.276 6741.74,-369.962 6744.47,-376.405"/>
</g>
<!-- n18 -->
<g id="node47" class="node"><title>n18</title>
<g id="a_node47"><a xlink:href="library_PluginFolder%2Cf%2Cstack+%22model_Project%22%2C1" xlink:title="library_PluginFolder">
<ellipse fill="GreenYellow" stroke="#008b00" cx="5273" cy="-34" rx="84.0754" ry="18"/>
<text text-anchor="middle" x="5273" y="-29.8" font-family="Times,serif" font-size="14.00">library_PluginFolder</text>
</a>
</g>
</g>
<!-- n18&#45;&gt;n16 -->
<g id="edge13" class="edge"><title>n18&#45;&gt;n16</title>
<path fill="none" stroke="black" d="M5332.48,-46.8168C5344.53,-48.8472 5357.14,-50.7141 5369,-52 5673.25,-84.9782 5756.45,-22.3189 6057,-80 6066.14,-81.7546 6075.69,-84.4684 6084.72,-87.4718"/>
<polygon fill="black" stroke="black" points="6083.67,-90.8118 6094.26,-90.8127 6085.98,-84.2049 6083.67,-90.8118"/>
</g>
<!-- n18&#45;&gt;n19 -->
<g id="edge12" class="edge"><title>n18&#45;&gt;n19</title>
<path fill="none" stroke="black" d="M5333.29,-46.6427C5345.1,-48.6494 5357.41,-50.5519 5369,-52 5537.48,-73.0527 5582.64,-51.3841 5750,-80 5761.98,-82.0486 5774.66,-84.9791 5786.65,-88.117"/>
<polygon fill="black" stroke="black" points="5785.96,-91.5565 5796.53,-90.7868 5787.79,-84.7989 5785.96,-91.5565"/>
</g>
<!-- n5 -->
<g id="node48" class="node"><title>n5</title>
<g id="a_node48"><a xlink:href="sivasiva_ExtractTables%2Cf%2Cstack+%22lib_SivaSiva%22%2C1" xlink:title="sivasiva_ExtractTables">
<ellipse fill="GreenYellow" stroke="#008b00" cx="2362" cy="-426" rx="91.5146" ry="18"/>
<text text-anchor="middle" x="2362" y="-421.8" font-family="Times,serif" font-size="14.00">sivasiva_ExtractTables</text>
</a>
</g>
</g>
<!-- n27 -->
<g id="node49" class="node"><title>n27</title>
<g id="a_node49"><a xlink:href="sivasiva_GetXML%2Cf%2Cstack+%22lib_SivaSiva%22%2C1" xlink:title="sivasiva_GetXML">
<ellipse fill="GreenYellow" stroke="#008b00" cx="2177" cy="-426" rx="75.3794" ry="18"/>
<text text-anchor="middle" x="2177" y="-421.8" font-family="Times,serif" font-size="14.00">sivasiva_GetXML</text>
</a>
</g>
</g>
<!-- n2 -->
<g id="node52" class="node"><title>n2</title>
<g id="a_node52"><a xlink:href="sivasiva_GetChapterArray%2Cf%2Cstack+%22lib_SivaSiva%22%2C1" xlink:title="sivasiva_GetChapterArray">
<ellipse fill="GreenYellow" stroke="#008b00" cx="2576" cy="-426" rx="104.311" ry="18"/>
<text text-anchor="middle" x="2576" y="-421.8" font-family="Times,serif" font-size="14.00">sivasiva_GetChapterArray</text>
</a>
</g>
</g>
<!-- n2&#45;&gt;n3 -->
<g id="edge1" class="edge"><title>n2&#45;&gt;n3</title>
<path fill="none" stroke="black" d="M2638.97,-411.626C2696.65,-399.376 2782,-381.247 2842.5,-368.397"/>
<polygon fill="black" stroke="black" points="2843.31,-371.804 2852.37,-366.302 2841.86,-364.956 2843.31,-371.804"/>
</g>
<!-- n4 -->
<g id="node57" class="node"><title>n4</title>
<g id="a_node57"><a xlink:href="sivasiva_FetchChapterTitleArray%2Cf%2Cstack+%22lib_SivaSiva%22%2C1" xlink:title="sivasiva_FetchChapterTitleArray">
<ellipse fill="GreenYellow" stroke="#008b00" cx="3502" cy="-352" rx="127.852" ry="18"/>
<text text-anchor="middle" x="3502" y="-347.8" font-family="Times,serif" font-size="14.00">sivasiva_FetchChapterTitleArray</text>
</a>
</g>
</g>
<!-- n2&#45;&gt;n4 -->
<g id="edge2" class="edge"><title>n2&#45;&gt;n4</title>
<path fill="none" stroke="black" d="M2647.9,-412.893C2661.83,-410.94 2676.34,-409.176 2690,-408 2838.82,-395.182 2876.9,-409.123 3026,-400 3154.68,-392.126 3302.36,-376.516 3398.66,-365.449"/>
<polygon fill="black" stroke="black" points="3399.15,-368.915 3408.68,-364.292 3398.35,-361.962 3399.15,-368.915"/>
</g>
<!-- n40&#45;&gt;n1 -->
<g id="edge18" class="edge"><title>n40&#45;&gt;n1</title>
<path fill="none" stroke="black" d="M1955.9,-335.084C1942.39,-329.876 1927.49,-323.906 1914,-318 1895.36,-309.834 1875.06,-300.038 1857.96,-291.507"/>
<polygon fill="black" stroke="black" points="1859.32,-288.275 1848.82,-286.916 1856.18,-294.531 1859.32,-288.275"/>
</g>
<!-- n40&#45;&gt;n42 -->
<g id="edge17" class="edge"><title>n40&#45;&gt;n42</title>
<path fill="none" stroke="black" d="M1999,-333.641C1999,-323.297 1999,-309.941 1999,-298.221"/>
<polygon fill="black" stroke="black" points="2002.5,-298.05 1999,-288.05 1995.5,-298.05 2002.5,-298.05"/>
</g>
<!-- n40&#45;&gt;n41 -->
<g id="edge16" class="edge"><title>n40&#45;&gt;n41</title>
<path fill="none" stroke="black" d="M2041.67,-335.195C2076.32,-322.362 2125.34,-304.207 2162.41,-290.477"/>
<polygon fill="black" stroke="black" points="2163.88,-293.665 2172.04,-286.909 2161.45,-287.1 2163.88,-293.665"/>
</g>
<!-- n39&#45;&gt;n48 -->
<g id="edge40" class="edge"><title>n39&#45;&gt;n48</title>
<path fill="none" stroke="black" d="M5148.53,-254.84C5162.82,-250.64 5178.96,-246.5 5194,-244 5260.73,-232.909 5278.66,-242.456 5346,-236 5608.66,-210.82 5690.31,-255.196 5934,-154 5947.72,-148.303 5961.09,-138.828 5971.88,-129.872"/>
<polygon fill="black" stroke="black" points="5974.33,-132.386 5979.6,-123.195 5969.75,-127.093 5974.33,-132.386"/>
</g>
<!-- n39&#45;&gt;n25 -->
<g id="edge41" class="edge"><title>n39&#45;&gt;n25</title>
<path fill="none" stroke="black" d="M5123.18,-252.034C5134.75,-240.608 5150.17,-225.379 5162.95,-212.753"/>
<polygon fill="black" stroke="black" points="5165.47,-215.184 5170.12,-205.667 5160.55,-210.204 5165.47,-215.184"/>
</g>
<!-- n45 -->
<g id="node56" class="node"><title>n45</title>
<g id="a_node56"><a xlink:href="sivasiva_FetchOldBookArray%2Cf%2Cstack+%22lib_SivaSiva%22%2C1" xlink:title="sivasiva_FetchOldBookArray">
<ellipse fill="GreenYellow" stroke="#008b00" cx="4343" cy="-426" rx="115.938" ry="18"/>
<text text-anchor="middle" x="4343" y="-421.8" font-family="Times,serif" font-size="14.00">sivasiva_FetchOldBookArray</text>
</a>
</g>
</g>
<!-- n45&#45;&gt;n13 -->
<g id="edge3" class="edge"><title>n45&#45;&gt;n13</title>
<path fill="none" stroke="black" d="M4397.32,-410.059C4462.83,-391.387 4575.75,-357.092 4669,-318 4687.1,-310.415 4706.5,-300.636 4722.72,-291.965"/>
<polygon fill="black" stroke="black" points="4724.74,-294.851 4731.87,-287.012 4721.41,-288.695 4724.74,-294.851"/>
</g>
<!-- n4&#45;&gt;n13 -->
<g id="edge43" class="edge"><title>n4&#45;&gt;n13</title>
<path fill="none" stroke="black" d="M3617.29,-344.192C3721.43,-338.329 3878.92,-330.172 4016,-326 4052.26,-324.896 4633.8,-326.782 4669,-318 4689.53,-312.879 4710.63,-302.367 4727.34,-292.581"/>
<polygon fill="black" stroke="black" points="4729.39,-295.429 4736.13,-287.258 4725.77,-289.44 4729.39,-295.429"/>
</g>
<!-- n26&#45;&gt;n18 -->
<g id="edge34" class="edge"><title>n26&#45;&gt;n18</title>
<path fill="none" stroke="black" d="M5243.44,-88.055C5247.92,-80.0067 5253.39,-70.2046 5258.39,-61.2259"/>
<polygon fill="black" stroke="black" points="5261.57,-62.7145 5263.38,-52.2753 5255.45,-59.3075 5261.57,-62.7145"/>
</g>
<!-- n34&#45;&gt;n35 -->
<g id="edge29" class="edge"><title>n34&#45;&gt;n35</title>
<path fill="none" stroke="black" d="M680,-169.641C680,-159.297 680,-145.941 680,-134.221"/>
<polygon fill="black" stroke="black" points="683.5,-134.05 680,-124.05 676.5,-134.05 683.5,-134.05"/>
</g>
<!-- n13&#45;&gt;n28 -->
<g id="edge54" class="edge"><title>n13&#45;&gt;n28</title>
<path fill="none" stroke="black" d="M4768.27,-252.034C4773.49,-241.322 4780.35,-227.265 4786.25,-215.145"/>
<polygon fill="black" stroke="black" points="4789.51,-216.464 4790.74,-205.941 4783.21,-213.397 4789.51,-216.464"/>
</g>
</g>
</svg>
