<?xml version="1.0" encoding="UTF-8" standalone="no"?>
<!DOCTYPE svg PUBLIC "-//W3C//DTD SVG 1.1//EN"
 "http://www.w3.org/Graphics/SVG/1.1/DTD/svg11.dtd">
<!-- Generated by graphviz version 2.38.0 (20140413.2041)
 -->
<!-- Title: dot_FromArray Pages: 1 -->
<svg width="2250pt" height="243pt"
 viewBox="0.00 0.00 2250.00 242.82" xmlns="http://www.w3.org/2000/svg" xmlns:xlink="http://www.w3.org/1999/xlink">
<g id="graph0" class="graph" transform="scale(0.516648 0.516648) rotate(0) translate(4 466)">
<title>dot_FromArray</title>
<polygon fill="white" stroke="none" points="-4,4 -4,-466 4351,-466 4351,4 -4,4"/>
<g id="clust3" class="cluster"><title>cluster1</title>
<polygon fill="orange" stroke="red" points="4121,-306 4121,-380 4201,-380 4201,-306 4121,-306"/>
<text text-anchor="middle" x="4161" y="-364.8" font-family="Times,serif" font-size="14.00">Missing</text>
</g>
<g id="clust4" class="cluster"><title>cluster2</title>
<polygon fill="#999999" stroke="#999999" points="8,-8 8,-454 3889,-454 3889,-8 8,-8"/>
<text text-anchor="middle" x="1948.5" y="-438.8" font-family="Times,serif" font-size="14.00">stack &quot;lib_Shell&quot;</text>
</g>
<g id="clust5" class="cluster"><title>cluster3</title>
<polygon fill="#999999" stroke="#999999" points="3897,-306 3897,-380 4081,-380 4081,-306 3897,-306"/>
<text text-anchor="middle" x="3989" y="-364.8" font-family="Times,serif" font-size="14.00">stack &quot;model_Project&quot;</text>
</g>
<g id="clust6" class="cluster"><title>cluster4</title>
<polygon fill="#999999" stroke="#999999" points="3897,-8 3897,-298 4339,-298 4339,-8 3897,-8"/>
<text text-anchor="middle" x="4118" y="-282.8" font-family="Times,serif" font-size="14.00">stack &quot;Rescue Livecode World&quot;</text>
</g>
<!-- n33 -->
<g id="node1" class="node"><title>n33</title>
<g id="a_node1"><a xlink:href="_convertVersionToNumber%2Cf%2Cstack+%22Rescue+Livecode+World%22%2C1" xlink:title="_convertVersionToNumber">
<ellipse fill="GreenYellow" stroke="#008b00" cx="4100" cy="-34" rx="106.499" ry="18"/>
<text text-anchor="middle" x="4100" y="-29.8" font-family="Times,serif" font-size="14.00">_convertVersionToNumber</text>
</a>
</g>
</g>
<!-- n2 -->
<g id="node2" class="node"><title>n2</title>
<g id="a_node2"><a xlink:href="date_MonthToMonthNumber%2Cf%2Cstack+%22lib_Shell%22%2C1" xlink:title="date_MonthToMonthNumber">
<ellipse fill="GreenYellow" stroke="#008b00" cx="3155" cy="-250" rx="114.727" ry="18"/>
<text text-anchor="middle" x="3155" y="-245.8" font-family="Times,serif" font-size="14.00">date_MonthToMonthNumber</text>
</a>
</g>
</g>
<!-- n31 -->
<g id="node3" class="node"><title>n31</title>
<g id="a_node3"><a xlink:href="shell_ConvertHtmlToXML%2Cf%2Cstack+%22lib_Shell%22%2C1" xlink:title="shell_ConvertHtmlToXML">
<ellipse fill="GreenYellow" stroke="#008b00" cx="2090" cy="-406" rx="106.518" ry="18"/>
<text text-anchor="middle" x="2090" y="-401.8" font-family="Times,serif" font-size="14.00">shell_ConvertHtmlToXML</text>
</a>
</g>
</g>
<!-- n32 -->
<g id="node17" class="node"><title>n32</title>
<g id="a_node17"><a xlink:href="shell_Tidy%2Cf%2Cstack+%22lib_Shell%22%2C1" xlink:title="shell_Tidy">
<ellipse fill="GreenYellow" stroke="#008b00" cx="2344" cy="-332" rx="47.7539" ry="18"/>
<text text-anchor="middle" x="2344" y="-327.8" font-family="Times,serif" font-size="14.00">shell_Tidy</text>
</a>
</g>
</g>
<!-- n31&#45;&gt;n32 -->
<g id="edge1" class="edge"><title>n31&#45;&gt;n32</title>
<path fill="none" stroke="black" d="M2142.01,-390.256C2187.53,-377.355 2253.05,-358.78 2297.01,-346.32"/>
<polygon fill="black" stroke="black" points="2298.2,-349.62 2306.87,-343.525 2296.29,-342.885 2298.2,-349.62"/>
</g>
<!-- n50 -->
<g id="node4" class="node"><title>n50</title>
<g id="a_node4"><a xlink:href="shell_GetBashHistory%2Cf%2Cstack+%22lib_Shell%22%2C1" xlink:title="shell_GetBashHistory">
<ellipse fill="GreenYellow" stroke="#008b00" cx="3621" cy="-406" rx="88.4343" ry="18"/>
<text text-anchor="middle" x="3621" y="-401.8" font-family="Times,serif" font-size="14.00">shell_GetBashHistory</text>
</a>
</g>
</g>
<!-- n27 -->
<g id="node5" class="node"><title>n27</title>
<g id="a_node5"><a xlink:href="shell_ConstructLSArray%2Cf%2Cstack+%22lib_Shell%22%2C1" xlink:title="shell_ConstructLSArray">
<ellipse fill="GreenYellow" stroke="#008b00" cx="3229" cy="-406" rx="96.6276" ry="18"/>
<text text-anchor="middle" x="3229" y="-401.8" font-family="Times,serif" font-size="14.00">shell_ConstructLSArray</text>
</a>
</g>
</g>
<!-- n1 -->
<g id="node41" class="node"><title>n1</title>
<g id="a_node41"><a xlink:href="shell_DeconstructLS%2Cc%2Cstack+%22lib_Shell%22%2C1" xlink:title="shell_DeconstructLS">
<ellipse fill="LightBlue" stroke="Blue" cx="3229" cy="-332" rx="84.0582" ry="18"/>
<text text-anchor="middle" x="3229" y="-327.8" font-family="Times,serif" font-size="14.00">shell_DeconstructLS</text>
</a>
</g>
</g>
<!-- n27&#45;&gt;n1 -->
<g id="edge5" class="edge"><title>n27&#45;&gt;n1</title>
<path fill="none" stroke="black" d="M3229,-387.937C3229,-379.807 3229,-369.876 3229,-360.705"/>
<polygon fill="black" stroke="black" points="3232.5,-360.441 3229,-350.441 3225.5,-360.441 3232.5,-360.441"/>
</g>
<!-- n38 -->
<g id="node6" class="node"><title>n38</title>
<g id="a_node6"><a xlink:href="shell_GetBashPathExtraItems%2Cf%2Cstack+%22lib_Shell%22%2C1" xlink:title="shell_GetBashPathExtraItems">
<ellipse fill="GreenYellow" stroke="#008b00" cx="2851" cy="-406" rx="116.414" ry="18"/>
<text text-anchor="middle" x="2851" y="-401.8" font-family="Times,serif" font-size="14.00">shell_GetBashPathExtraItems</text>
</a>
</g>
</g>
<!-- n10 -->
<g id="node13" class="node"><title>n10</title>
<g id="a_node13"><a xlink:href="shell_GetBashProfile%2Cf%2Cstack+%22lib_Shell%22%2C1" xlink:title="shell_GetBashProfile">
<ellipse fill="GreenYellow" stroke="#008b00" cx="2851" cy="-332" rx="85.0445" ry="18"/>
<text text-anchor="middle" x="2851" y="-327.8" font-family="Times,serif" font-size="14.00">shell_GetBashProfile</text>
</a>
</g>
</g>
<!-- n38&#45;&gt;n10 -->
<g id="edge9" class="edge"><title>n38&#45;&gt;n10</title>
<path fill="none" stroke="black" d="M2851,-387.937C2851,-379.807 2851,-369.876 2851,-360.705"/>
<polygon fill="black" stroke="black" points="2854.5,-360.441 2851,-350.441 2847.5,-360.441 2854.5,-360.441"/>
</g>
<!-- n5 -->
<g id="node7" class="node"><title>n5</title>
<g id="a_node7"><a xlink:href="OSSL%2Cf%2CMissing%2C1" xlink:title="OSSL">
<ellipse fill="GreenYellow" stroke="#008b00" cx="4161" cy="-332" rx="31.9654" ry="18"/>
<text text-anchor="middle" x="4161" y="-327.8" font-family="Times,serif" font-size="14.00">OSSL</text>
</a>
</g>
</g>
<!-- n21 -->
<g id="node8" class="node"><title>n21</title>
<g id="a_node8"><a xlink:href="version_IsEarlier%2Cf%2Cstack+%22Rescue+Livecode+World%22%2C1" xlink:title="version_IsEarlier">
<ellipse fill="GreenYellow" stroke="#008b00" cx="4100" cy="-106" rx="71.0099" ry="18"/>
<text text-anchor="middle" x="4100" y="-101.8" font-family="Times,serif" font-size="14.00">version_IsEarlier</text>
</a>
</g>
</g>
<!-- n21&#45;&gt;n33 -->
<g id="edge10" class="edge"><title>n21&#45;&gt;n33</title>
<path fill="none" stroke="black" d="M4100,-87.6966C4100,-79.9827 4100,-70.7125 4100,-62.1124"/>
<polygon fill="black" stroke="black" points="4103.5,-62.1043 4100,-52.1043 4096.5,-62.1044 4103.5,-62.1043"/>
</g>
<!-- n36 -->
<g id="node9" class="node"><title>n36</title>
<g id="a_node9"><a xlink:href="shell_ManPage%2Cf%2Cstack+%22lib_Shell%22%2C1" xlink:title="shell_ManPage">
<ellipse fill="GreenYellow" stroke="#008b00" cx="3050" cy="-406" rx="64.7632" ry="18"/>
<text text-anchor="middle" x="3050" y="-401.8" font-family="Times,serif" font-size="14.00">shell_ManPage</text>
</a>
</g>
</g>
<!-- n42 -->
<g id="node10" class="node"><title>n42</title>
<g id="a_node10"><a xlink:href="shell_ExecuteAtRoot%2Cf%2Cstack+%22lib_Shell%22%2C1" xlink:title="shell_ExecuteAtRoot">
<ellipse fill="GreenYellow" stroke="#008b00" cx="3429" cy="-406" rx="85.5033" ry="18"/>
<text text-anchor="middle" x="3429" y="-401.8" font-family="Times,serif" font-size="14.00">shell_ExecuteAtRoot</text>
</a>
</g>
</g>
<!-- n22 -->
<g id="node21" class="node"><title>n22</title>
<g id="a_node21"><a xlink:href="library_PluginFolder%2Cf%2Cstack+%22model_Project%22%2C1" xlink:title="library_PluginFolder">
<ellipse fill="GreenYellow" stroke="#008b00" cx="3989" cy="-332" rx="84.0754" ry="18"/>
<text text-anchor="middle" x="3989" y="-327.8" font-family="Times,serif" font-size="14.00">library_PluginFolder</text>
</a>
</g>
</g>
<!-- n42&#45;&gt;n22 -->
<g id="edge12" class="edge"><title>n42&#45;&gt;n22</title>
<path fill="none" stroke="black" d="M3488.35,-392.918C3500.12,-390.936 3512.41,-389.155 3524,-388 3564.81,-383.931 3853.15,-389.687 3893,-380 3914.65,-374.737 3937.11,-364.071 3954.86,-354.229"/>
<polygon fill="black" stroke="black" points="3956.73,-357.189 3963.68,-349.19 3953.26,-351.111 3956.73,-357.189"/>
</g>
<!-- n43 -->
<g id="node49" class="node"><title>n43</title>
<g id="a_node49"><a xlink:href="opn_Notify%2Cc%2Cstack+%22Rescue+Livecode+World%22%2C1" xlink:title="opn_Notify">
<ellipse fill="LightBlue" stroke="Blue" cx="4280" cy="-250" rx="50.7655" ry="18"/>
<text text-anchor="middle" x="4280" y="-245.8" font-family="Times,serif" font-size="14.00">opn_Notify</text>
</a>
</g>
</g>
<!-- n42&#45;&gt;n43 -->
<g id="edge13" class="edge"><title>n42&#45;&gt;n43</title>
<path fill="none" stroke="black" d="M3488.09,-392.892C3499.93,-390.899 3512.33,-389.12 3524,-388 3539.51,-386.511 4072.04,-388.651 4085,-380 4114.81,-360.11 4087.84,-326.822 4117,-306 4135.68,-292.659 4198.6,-306.323 4220,-298 4233.56,-292.724 4246.54,-283.309 4256.94,-274.283"/>
<polygon fill="black" stroke="black" points="4259.32,-276.852 4264.36,-267.532 4254.6,-271.676 4259.32,-276.852"/>
</g>
<!-- n44 -->
<g id="node11" class="node"><title>n44</title>
<g id="a_node11"><a xlink:href="shell_ConvertHtmlToXHTML%2Cf%2Cstack+%22lib_Shell%22%2C1" xlink:title="shell_ConvertHtmlToXHTML">
<ellipse fill="GreenYellow" stroke="#008b00" cx="2598" cy="-406" rx="118.594" ry="18"/>
<text text-anchor="middle" x="2598" y="-401.8" font-family="Times,serif" font-size="14.00">shell_ConvertHtmlToXHTML</text>
</a>
</g>
</g>
<!-- n44&#45;&gt;n32 -->
<g id="edge14" class="edge"><title>n44&#45;&gt;n32</title>
<path fill="none" stroke="black" d="M2544.75,-389.906C2499.27,-377.014 2434.48,-358.648 2390.92,-346.3"/>
<polygon fill="black" stroke="black" points="2391.72,-342.889 2381.15,-343.529 2389.81,-349.624 2391.72,-342.889"/>
</g>
<!-- n14 -->
<g id="node12" class="node"><title>n14</title>
<g id="a_node12"><a xlink:href="shell_EscapeFile%2Cf%2Cstack+%22lib_Shell%22%2C1" xlink:title="shell_EscapeFile">
<ellipse fill="GreenYellow" stroke="#008b00" cx="1404" cy="-332" rx="70.0582" ry="18"/>
<text text-anchor="middle" x="1404" y="-327.8" font-family="Times,serif" font-size="14.00">shell_EscapeFile</text>
</a>
</g>
</g>
<!-- n11 -->
<g id="node28" class="node"><title>n11</title>
<g id="a_node28"><a xlink:href="shell_GetBashProfileUrl%2Cf%2Cstack+%22lib_Shell%22%2C1" xlink:title="shell_GetBashProfileUrl">
<ellipse fill="GreenYellow" stroke="#008b00" cx="2851" cy="-250" rx="97.1208" ry="18"/>
<text text-anchor="middle" x="2851" y="-245.8" font-family="Times,serif" font-size="14.00">shell_GetBashProfileUrl</text>
</a>
</g>
</g>
<!-- n10&#45;&gt;n11 -->
<g id="edge16" class="edge"><title>n10&#45;&gt;n11</title>
<path fill="none" stroke="black" d="M2851,-313.641C2851,-303.297 2851,-289.941 2851,-278.221"/>
<polygon fill="black" stroke="black" points="2854.5,-278.05 2851,-268.05 2847.5,-278.05 2854.5,-278.05"/>
</g>
<!-- n3 -->
<g id="node14" class="node"><title>n3</title>
<g id="a_node14"><a xlink:href="shell_InterpretFileMode%2Cf%2Cstack+%22lib_Shell%22%2C1" xlink:title="shell_InterpretFileMode">
<ellipse fill="GreenYellow" stroke="#008b00" cx="3384" cy="-250" rx="96.1258" ry="18"/>
<text text-anchor="middle" x="3384" y="-245.8" font-family="Times,serif" font-size="14.00">shell_InterpretFileMode</text>
</a>
</g>
</g>
<!-- n29 -->
<g id="node15" class="node"><title>n29</title>
<g id="a_node15"><a xlink:href="ijwAPLIB_MakeOSXShellPath%2Cf%2Cstack+%22lib_Shell%22%2C1" xlink:title="ijwAPLIB_MakeOSXShellPath">
<ellipse fill="GreenYellow" stroke="#008b00" cx="2338" cy="-406" rx="123.214" ry="18"/>
<text text-anchor="middle" x="2338" y="-401.8" font-family="Times,serif" font-size="14.00">ijwAPLIB_MakeOSXShellPath</text>
</a>
</g>
</g>
<!-- n30 -->
<g id="node16" class="node"><title>n30</title>
<g id="a_node16"><a xlink:href="shell_FetchFile%2Cf%2Cstack+%22lib_Shell%22%2C1" xlink:title="shell_FetchFile">
<ellipse fill="GreenYellow" stroke="#008b00" cx="1147" cy="-406" rx="64.7718" ry="18"/>
<text text-anchor="middle" x="1147" y="-401.8" font-family="Times,serif" font-size="14.00">shell_FetchFile</text>
</a>
</g>
</g>
<!-- n12 -->
<g id="node43" class="node"><title>n12</title>
<g id="a_node43"><a xlink:href="shell_RemoteExecute%2Cc%2Cstack+%22lib_Shell%22%2C1" xlink:title="shell_RemoteExecute">
<ellipse fill="LightBlue" stroke="Blue" cx="996" cy="-332" rx="87.4307" ry="18"/>
<text text-anchor="middle" x="996" y="-327.8" font-family="Times,serif" font-size="14.00">shell_RemoteExecute</text>
</a>
</g>
</g>
<!-- n30&#45;&gt;n12 -->
<g id="edge20" class="edge"><title>n30&#45;&gt;n12</title>
<path fill="none" stroke="black" d="M1115.71,-390.082C1093.27,-379.38 1062.78,-364.841 1038.19,-353.115"/>
<polygon fill="black" stroke="black" points="1039.61,-349.917 1029.08,-348.772 1036.6,-356.235 1039.61,-349.917"/>
</g>
<!-- n46 -->
<g id="node18" class="node"><title>n46</title>
<g id="a_node18"><a xlink:href="text_Merge%2Cf%2Cstack+%22Rescue+Livecode+World%22%2C1" xlink:title="text_Merge">
<ellipse fill="GreenYellow" stroke="#008b00" cx="4280" cy="-178" rx="50.9293" ry="18"/>
<text text-anchor="middle" x="4280" y="-173.8" font-family="Times,serif" font-size="14.00">text_Merge</text>
</a>
</g>
</g>
<!-- n48 -->
<g id="node19" class="node"><title>n48</title>
<g id="a_node19"><a xlink:href="shell_ListProcesses%2Cf%2Cstack+%22lib_Shell%22%2C1" xlink:title="shell_ListProcesses">
<ellipse fill="GreenYellow" stroke="#008b00" cx="621" cy="-178" rx="79.2471" ry="18"/>
<text text-anchor="middle" x="621" y="-173.8" font-family="Times,serif" font-size="14.00">shell_ListProcesses</text>
</a>
</g>
</g>
<!-- n26 -->
<g id="node44" class="node"><title>n26</title>
<g id="a_node44"><a xlink:href="shell_BashParamEscape%2Cc%2Cstack+%22lib_Shell%22%2C1" xlink:title="shell_BashParamEscape">
<ellipse fill="LightBlue" stroke="Blue" cx="376" cy="-106" rx="96.6017" ry="18"/>
<text text-anchor="middle" x="376" y="-101.8" font-family="Times,serif" font-size="14.00">shell_BashParamEscape</text>
</a>
</g>
</g>
<!-- n48&#45;&gt;n26 -->
<g id="edge21" class="edge"><title>n48&#45;&gt;n26</title>
<path fill="none" stroke="black" d="M573.762,-163.503C534.545,-152.299 478.526,-136.293 436.116,-124.176"/>
<polygon fill="black" stroke="black" points="437.044,-120.801 426.467,-121.419 435.121,-127.532 437.044,-120.801"/>
</g>
<!-- n24 -->
<g id="node20" class="node"><title>n24</title>
<g id="a_node20"><a xlink:href="text_IsQuoted%2Cf%2Cstack+%22lib_Shell%22%2C1" xlink:title="text_IsQuoted">
<ellipse fill="GreenYellow" stroke="#008b00" cx="376" cy="-34" rx="60.4202" ry="18"/>
<text text-anchor="middle" x="376" y="-29.8" font-family="Times,serif" font-size="14.00">text_IsQuoted</text>
</a>
</g>
</g>
<!-- n23 -->
<g id="node35" class="node"><title>n23</title>
<g id="a_node35"><a xlink:href="folder_CreateNested%2Cc%2Cstack+%22Rescue+Livecode+World%22%2C1" xlink:title="folder_CreateNested">
<ellipse fill="LightBlue" stroke="Blue" cx="4128" cy="-250" rx="83.0546" ry="18"/>
<text text-anchor="middle" x="4128" y="-245.8" font-family="Times,serif" font-size="14.00">folder_CreateNested</text>
</a>
</g>
</g>
<!-- n22&#45;&gt;n23 -->
<g id="edge23" class="edge"><title>n22&#45;&gt;n23</title>
<path fill="none" stroke="black" d="M4016.79,-315.003C4038.06,-302.766 4067.58,-285.772 4090.87,-272.371"/>
<polygon fill="black" stroke="black" points="4092.86,-275.265 4099.78,-267.243 4089.36,-269.198 4092.86,-275.265"/>
</g>
<!-- n17 -->
<g id="node50" class="node"><title>n17</title>
<g id="a_node50"><a xlink:href="folder_Format%2Cc%2Cstack+%22Rescue+Livecode+World%22%2C1" xlink:title="folder_Format">
<ellipse fill="LightBlue" stroke="Blue" cx="3966" cy="-250" rx="61.3804" ry="18"/>
<text text-anchor="middle" x="3966" y="-245.8" font-family="Times,serif" font-size="14.00">folder_Format</text>
</a>
</g>
</g>
<!-- n22&#45;&gt;n17 -->
<g id="edge24" class="edge"><title>n22&#45;&gt;n17</title>
<path fill="none" stroke="black" d="M3984.01,-313.641C3981.01,-303.192 3977.12,-289.668 3973.72,-277.862"/>
<polygon fill="black" stroke="black" points="3977.03,-276.694 3970.9,-268.05 3970.3,-278.628 3977.03,-276.694"/>
</g>
<!-- n20 -->
<g id="node22" class="node"><title>n20</title>
<g id="a_node22"><a xlink:href="kwote%2Cf%2Cstack+%22Rescue+Livecode+World%22%2C1" xlink:title="kwote">
<ellipse fill="GreenYellow" stroke="#008b00" cx="4221" cy="-106" rx="31.9393" ry="18"/>
<text text-anchor="middle" x="4221" y="-101.8" font-family="Times,serif" font-size="14.00">kwote</text>
</a>
</g>
</g>
<!-- n6 -->
<g id="node23" class="node"><title>n6</title>
<g id="a_node23"><a xlink:href="sha1_HashFile%2Cf%2Cstack+%22lib_Shell%22%2C1" xlink:title="sha1_HashFile">
<ellipse fill="GreenYellow" stroke="#008b00" cx="1903" cy="-406" rx="62.8425" ry="18"/>
<text text-anchor="middle" x="1903" y="-401.8" font-family="Times,serif" font-size="14.00">sha1_HashFile</text>
</a>
</g>
</g>
<!-- n35 -->
<g id="node24" class="node"><title>n35</title>
<g id="a_node24"><a xlink:href="socket_ListUsedPorts%2Cf%2Cstack+%22lib_Shell%22%2C1" xlink:title="socket_ListUsedPorts">
<ellipse fill="GreenYellow" stroke="#008b00" cx="1735" cy="-406" rx="87.474" ry="18"/>
<text text-anchor="middle" x="1735" y="-401.8" font-family="Times,serif" font-size="14.00">socket_ListUsedPorts</text>
</a>
</g>
</g>
<!-- n15 -->
<g id="node27" class="node"><title>n15</title>
<g id="a_node27"><a xlink:href="osx_DaemonArray%2Cf%2Cstack+%22lib_Shell%22%2C1" xlink:title="osx_DaemonArray">
<ellipse fill="GreenYellow" stroke="#008b00" cx="1735" cy="-332" rx="77.2916" ry="18"/>
<text text-anchor="middle" x="1735" y="-327.8" font-family="Times,serif" font-size="14.00">osx_DaemonArray</text>
</a>
</g>
</g>
<!-- n35&#45;&gt;n15 -->
<g id="edge29" class="edge"><title>n35&#45;&gt;n15</title>
<path fill="none" stroke="black" d="M1735,-387.937C1735,-379.807 1735,-369.876 1735,-360.705"/>
<polygon fill="black" stroke="black" points="1738.5,-360.441 1735,-350.441 1731.5,-360.441 1738.5,-360.441"/>
</g>
<!-- n37 -->
<g id="node25" class="node"><title>n37</title>
<g id="a_node25"><a xlink:href="sha1_HashString%2Cf%2Cstack+%22lib_Shell%22%2C1" xlink:title="sha1_HashString">
<ellipse fill="GreenYellow" stroke="#008b00" cx="1559" cy="-406" rx="70.5686" ry="18"/>
<text text-anchor="middle" x="1559" y="-401.8" font-family="Times,serif" font-size="14.00">sha1_HashString</text>
</a>
</g>
</g>
<!-- n41 -->
<g id="node26" class="node"><title>n41</title>
<g id="a_node26"><a xlink:href="linux_CheckMounted%2Cf%2Cstack+%22lib_Shell%22%2C1" xlink:title="linux_CheckMounted">
<ellipse fill="GreenYellow" stroke="#008b00" cx="681" cy="-332" rx="87.4654" ry="18"/>
<text text-anchor="middle" x="681" y="-327.8" font-family="Times,serif" font-size="14.00">linux_CheckMounted</text>
</a>
</g>
</g>
<!-- n13 -->
<g id="node29" class="node"><title>n13</title>
<g id="a_node29"><a xlink:href="shell_Md5Hash%2Cf%2Cstack+%22lib_Shell%22%2C1" xlink:title="shell_Md5Hash">
<ellipse fill="GreenYellow" stroke="#008b00" cx="1404" cy="-406" rx="66.2253" ry="18"/>
<text text-anchor="middle" x="1404" y="-401.8" font-family="Times,serif" font-size="14.00">shell_Md5Hash</text>
</a>
</g>
</g>
<!-- n13&#45;&gt;n14 -->
<g id="edge33" class="edge"><title>n13&#45;&gt;n14</title>
<path fill="none" stroke="black" d="M1404,-387.937C1404,-379.807 1404,-369.876 1404,-360.705"/>
<polygon fill="black" stroke="black" points="1407.5,-360.441 1404,-350.441 1400.5,-360.441 1407.5,-360.441"/>
</g>
<!-- n28 -->
<g id="node30" class="node"><title>n28</title>
<g id="a_node30"><a xlink:href="sudo_Kill%2Cc%2Cstack+%22lib_Shell%22%2C1" xlink:title="sudo_Kill">
<ellipse fill="LightBlue" stroke="Blue" cx="1275" cy="-406" rx="44.9855" ry="18"/>
<text text-anchor="middle" x="1275" y="-401.8" font-family="Times,serif" font-size="14.00">sudo_Kill</text>
</a>
</g>
</g>
<!-- n45 -->
<g id="node31" class="node"><title>n45</title>
<g id="a_node31"><a xlink:href="shell_DeleteFile%2Cc%2Cstack+%22lib_Shell%22%2C1" xlink:title="shell_DeleteFile">
<ellipse fill="LightBlue" stroke="Blue" cx="996" cy="-406" rx="68.1287" ry="18"/>
<text text-anchor="middle" x="996" y="-401.8" font-family="Times,serif" font-size="14.00">shell_DeleteFile</text>
</a>
</g>
</g>
<!-- n45&#45;&gt;n12 -->
<g id="edge2" class="edge"><title>n45&#45;&gt;n12</title>
<path fill="none" stroke="black" d="M996,-387.937C996,-379.807 996,-369.876 996,-360.705"/>
<polygon fill="black" stroke="black" points="999.5,-360.441 996,-350.441 992.5,-360.441 999.5,-360.441"/>
</g>
<!-- n47 -->
<g id="node32" class="node"><title>n47</title>
<g id="a_node32"><a xlink:href="shell_StoreFile%2Cc%2Cstack+%22lib_Shell%22%2C1" xlink:title="shell_StoreFile">
<ellipse fill="LightBlue" stroke="Blue" cx="460" cy="-178" rx="63.8115" ry="18"/>
<text text-anchor="middle" x="460" y="-173.8" font-family="Times,serif" font-size="14.00">shell_StoreFile</text>
</a>
</g>
</g>
<!-- n47&#45;&gt;n26 -->
<g id="edge3" class="edge"><title>n47&#45;&gt;n26</title>
<path fill="none" stroke="black" d="M440.518,-160.765C429.649,-151.708 415.925,-140.27 403.931,-130.276"/>
<polygon fill="black" stroke="black" points="405.883,-127.346 395.96,-123.633 401.402,-132.724 405.883,-127.346"/>
</g>
<!-- n49 -->
<g id="node33" class="node"><title>n49</title>
<g id="a_node33"><a xlink:href="linux_Mount%2Cc%2Cstack+%22lib_Shell%22%2C1" xlink:title="linux_Mount">
<ellipse fill="LightBlue" stroke="Blue" cx="681" cy="-406" rx="56.0872" ry="18"/>
<text text-anchor="middle" x="681" y="-401.8" font-family="Times,serif" font-size="14.00">linux_Mount</text>
</a>
</g>
</g>
<!-- n49&#45;&gt;n41 -->
<g id="edge4" class="edge"><title>n49&#45;&gt;n41</title>
<path fill="none" stroke="black" d="M681,-387.937C681,-379.807 681,-369.876 681,-360.705"/>
<polygon fill="black" stroke="black" points="684.5,-360.441 681,-350.441 677.5,-360.441 684.5,-360.441"/>
</g>
<!-- n25 -->
<g id="node34" class="node"><title>n25</title>
<g id="a_node34"><a xlink:href="shell_AddBashParam%2Cc%2Cstack+%22lib_Shell%22%2C1" xlink:title="shell_AddBashParam">
<ellipse fill="LightBlue" stroke="Blue" cx="292" cy="-178" rx="86.9809" ry="18"/>
<text text-anchor="middle" x="292" y="-173.8" font-family="Times,serif" font-size="14.00">shell_AddBashParam</text>
</a>
</g>
</g>
<!-- n25&#45;&gt;n26 -->
<g id="edge6" class="edge"><title>n25&#45;&gt;n26</title>
<path fill="none" stroke="black" d="M311.907,-160.411C322.708,-151.41 336.233,-140.139 348.072,-130.273"/>
<polygon fill="black" stroke="black" points="350.503,-132.803 355.945,-123.713 346.022,-127.426 350.503,-132.803"/>
</g>
<!-- n18 -->
<g id="node36" class="node"><title>n18</title>
<g id="a_node36"><a xlink:href="text_AddTrailing%2Cc%2Cstack+%22Rescue+Livecode+World%22%2C1" xlink:title="text_AddTrailing">
<ellipse fill="LightBlue" stroke="Blue" cx="3999" cy="-178" rx="71.3991" ry="18"/>
<text text-anchor="middle" x="3999" y="-173.8" font-family="Times,serif" font-size="14.00">text_AddTrailing</text>
</a>
</g>
</g>
<!-- n23&#45;&gt;n18 -->
<g id="edge7" class="edge"><title>n23&#45;&gt;n18</title>
<path fill="none" stroke="black" d="M4098.73,-233.116C4080.37,-223.157 4056.53,-210.218 4036.76,-199.49"/>
<polygon fill="black" stroke="black" points="4038.17,-196.273 4027.71,-194.58 4034.83,-202.426 4038.17,-196.273"/>
</g>
<!-- n9 -->
<g id="node37" class="node"><title>n9</title>
<g id="a_node37"><a xlink:href="shell_Chmod%2Cc%2Cstack+%22lib_Shell%22%2C1" xlink:title="shell_Chmod">
<ellipse fill="LightBlue" stroke="Blue" cx="130" cy="-178" rx="57.0477" ry="18"/>
<text text-anchor="middle" x="130" y="-173.8" font-family="Times,serif" font-size="14.00">shell_Chmod</text>
</a>
</g>
</g>
<!-- n9&#45;&gt;n26 -->
<g id="edge8" class="edge"><title>n9&#45;&gt;n26</title>
<path fill="none" stroke="black" d="M170.898,-165.362C210.356,-154.134 270.56,-137.003 315.549,-124.201"/>
<polygon fill="black" stroke="black" points="316.533,-127.561 325.193,-121.457 314.617,-120.828 316.533,-127.561"/>
</g>
<!-- n40 -->
<g id="node38" class="node"><title>n40</title>
<g id="a_node38"><a xlink:href="shell_DeleteFolder%2Cc%2Cstack+%22lib_Shell%22%2C1" xlink:title="shell_DeleteFolder">
<ellipse fill="LightBlue" stroke="Blue" cx="833" cy="-406" rx="77.2916" ry="18"/>
<text text-anchor="middle" x="833" y="-401.8" font-family="Times,serif" font-size="14.00">shell_DeleteFolder</text>
</a>
</g>
</g>
<!-- n40&#45;&gt;n12 -->
<g id="edge11" class="edge"><title>n40&#45;&gt;n12</title>
<path fill="none" stroke="black" d="M867.568,-389.731C892.038,-378.922 925.07,-364.331 951.506,-352.654"/>
<polygon fill="black" stroke="black" points="953.187,-355.738 960.92,-348.496 950.358,-349.335 953.187,-355.738"/>
</g>
<!-- n16 -->
<g id="node39" class="node"><title>n16</title>
<g id="a_node39"><a xlink:href="bonjour_RegisterPortMapper%2Cc%2Cstack+%22lib_Shell%22%2C1" xlink:title="bonjour_RegisterPortMapper">
<ellipse fill="LightBlue" stroke="Blue" cx="130" cy="-406" rx="113.509" ry="18"/>
<text text-anchor="middle" x="130" y="-401.8" font-family="Times,serif" font-size="14.00">bonjour_RegisterPortMapper</text>
</a>
</g>
</g>
<!-- n7 -->
<g id="node40" class="node"><title>n7</title>
<g id="a_node40"><a xlink:href="shell_ExecuteInBackground%2Cc%2Cstack+%22lib_Shell%22%2C1" xlink:title="shell_ExecuteInBackground">
<ellipse fill="LightBlue" stroke="Blue" cx="130" cy="-332" rx="110.1" ry="18"/>
<text text-anchor="middle" x="130" y="-327.8" font-family="Times,serif" font-size="14.00">shell_ExecuteInBackground</text>
</a>
</g>
</g>
<!-- n16&#45;&gt;n7 -->
<g id="edge15" class="edge"><title>n16&#45;&gt;n7</title>
<path fill="none" stroke="black" d="M130,-387.937C130,-379.807 130,-369.876 130,-360.705"/>
<polygon fill="black" stroke="black" points="133.5,-360.441 130,-350.441 126.5,-360.441 133.5,-360.441"/>
</g>
<!-- n8 -->
<g id="node46" class="node"><title>n8</title>
<g id="a_node46"><a xlink:href="shell_MakeExecutable%2Cc%2Cstack+%22lib_Shell%22%2C1" xlink:title="shell_MakeExecutable">
<ellipse fill="LightBlue" stroke="Blue" cx="130" cy="-250" rx="90.7962" ry="18"/>
<text text-anchor="middle" x="130" y="-245.8" font-family="Times,serif" font-size="14.00">shell_MakeExecutable</text>
</a>
</g>
</g>
<!-- n7&#45;&gt;n8 -->
<g id="edge17" class="edge"><title>n7&#45;&gt;n8</title>
<path fill="none" stroke="black" d="M130,-313.641C130,-303.297 130,-289.941 130,-278.221"/>
<polygon fill="black" stroke="black" points="133.5,-278.05 130,-268.05 126.5,-278.05 133.5,-278.05"/>
</g>
<!-- n1&#45;&gt;n2 -->
<g id="edge18" class="edge"><title>n1&#45;&gt;n2</title>
<path fill="none" stroke="black" d="M3213.31,-314.034C3202.91,-302.791 3189.1,-287.866 3177.53,-275.36"/>
<polygon fill="black" stroke="black" points="3180.03,-272.906 3170.67,-267.941 3174.89,-277.659 3180.03,-272.906"/>
</g>
<!-- n1&#45;&gt;n3 -->
<g id="edge19" class="edge"><title>n1&#45;&gt;n3</title>
<path fill="none" stroke="black" d="M3259.62,-315.195C3283.77,-302.73 3317.65,-285.245 3343.95,-271.67"/>
<polygon fill="black" stroke="black" points="3345.63,-274.743 3352.91,-267.046 3342.42,-268.523 3345.63,-274.743"/>
</g>
<!-- n34 -->
<g id="node42" class="node"><title>n34</title>
<g id="a_node42"><a xlink:href="linux_Sudo%2Cc%2Cstack+%22lib_Shell%22%2C1" xlink:title="linux_Sudo">
<ellipse fill="LightBlue" stroke="Blue" cx="556" cy="-406" rx="50.7828" ry="18"/>
<text text-anchor="middle" x="556" y="-401.8" font-family="Times,serif" font-size="14.00">linux_Sudo</text>
</a>
</g>
</g>
<!-- n26&#45;&gt;n24 -->
<g id="edge22" class="edge"><title>n26&#45;&gt;n24</title>
<path fill="none" stroke="black" d="M376,-87.6966C376,-79.9827 376,-70.7125 376,-62.1124"/>
<polygon fill="black" stroke="black" points="379.5,-62.1043 376,-52.1043 372.5,-62.1044 379.5,-62.1043"/>
</g>
<!-- n19 -->
<g id="node45" class="node"><title>n19</title>
<g id="a_node45"><a xlink:href="osx_Notify%2Cc%2Cstack+%22Rescue+Livecode+World%22%2C1" xlink:title="osx_Notify">
<ellipse fill="LightBlue" stroke="Blue" cx="4161" cy="-178" rx="49.805" ry="18"/>
<text text-anchor="middle" x="4161" y="-173.8" font-family="Times,serif" font-size="14.00">osx_Notify</text>
</a>
</g>
</g>
<!-- n19&#45;&gt;n21 -->
<g id="edge26" class="edge"><title>n19&#45;&gt;n21</title>
<path fill="none" stroke="black" d="M4146.54,-160.411C4139.06,-151.82 4129.77,-141.159 4121.46,-131.627"/>
<polygon fill="black" stroke="black" points="4123.98,-129.196 4114.78,-123.956 4118.71,-133.795 4123.98,-129.196"/>
</g>
<!-- n19&#45;&gt;n20 -->
<g id="edge25" class="edge"><title>n19&#45;&gt;n20</title>
<path fill="none" stroke="black" d="M4175.22,-160.411C4182.91,-151.441 4192.53,-140.215 4200.97,-130.373"/>
<polygon fill="black" stroke="black" points="4203.85,-132.381 4207.7,-122.511 4198.54,-127.826 4203.85,-132.381"/>
</g>
<!-- n8&#45;&gt;n9 -->
<g id="edge27" class="edge"><title>n8&#45;&gt;n9</title>
<path fill="none" stroke="black" d="M130,-231.697C130,-223.983 130,-214.712 130,-206.112"/>
<polygon fill="black" stroke="black" points="133.5,-206.104 130,-196.104 126.5,-206.104 133.5,-206.104"/>
</g>
<!-- n39 -->
<g id="node47" class="node"><title>n39</title>
<g id="a_node47"><a xlink:href="shell_AddBashProfileToPath%2Cc%2Cstack+%22lib_Shell%22%2C1" xlink:title="shell_AddBashProfileToPath">
<ellipse fill="LightBlue" stroke="Blue" cx="374" cy="-406" rx="112.824" ry="18"/>
<text text-anchor="middle" x="374" y="-401.8" font-family="Times,serif" font-size="14.00">shell_AddBashProfileToPath</text>
</a>
</g>
</g>
<!-- n4 -->
<g id="node48" class="node"><title>n4</title>
<g id="a_node48"><a xlink:href="sha1_AskHashFile%2Cc%2Cstack+%22lib_Shell%22%2C1" xlink:title="sha1_AskHashFile">
<ellipse fill="LightBlue" stroke="Blue" cx="3804" cy="-406" rx="76.8416" ry="18"/>
<text text-anchor="middle" x="3804" y="-401.8" font-family="Times,serif" font-size="14.00">sha1_AskHashFile</text>
</a>
</g>
</g>
<!-- n4&#45;&gt;n5 -->
<g id="edge28" class="edge"><title>n4&#45;&gt;n5</title>
<path fill="none" stroke="black" d="M3881.12,-404.921C3959.52,-403.76 4074.96,-398.76 4115,-380 4126.08,-374.807 4135.95,-365.724 4143.67,-356.917"/>
<polygon fill="black" stroke="black" points="4146.51,-358.98 4150.14,-349.027 4141.09,-354.543 4146.51,-358.98"/>
</g>
<!-- n43&#45;&gt;n46 -->
<g id="edge31" class="edge"><title>n43&#45;&gt;n46</title>
<path fill="none" stroke="black" d="M4280,-231.697C4280,-223.983 4280,-214.712 4280,-206.112"/>
<polygon fill="black" stroke="black" points="4283.5,-206.104 4280,-196.104 4276.5,-206.104 4283.5,-206.104"/>
</g>
<!-- n43&#45;&gt;n19 -->
<g id="edge30" class="edge"><title>n43&#45;&gt;n19</title>
<path fill="none" stroke="black" d="M4254.76,-234.155C4237.33,-223.9 4213.94,-210.143 4194.89,-198.934"/>
<polygon fill="black" stroke="black" points="4196.59,-195.877 4186.2,-193.824 4193.05,-201.911 4196.59,-195.877"/>
</g>
<!-- n17&#45;&gt;n18 -->
<g id="edge32" class="edge"><title>n17&#45;&gt;n18</title>
<path fill="none" stroke="black" d="M3973.99,-232.055C3977.74,-224.091 3982.31,-214.411 3986.5,-205.51"/>
<polygon fill="black" stroke="black" points="3989.76,-206.813 3990.86,-196.275 3983.43,-203.828 3989.76,-206.813"/>
</g>
</g>
</svg>
