<?xml version="1.0" encoding="UTF-8" standalone="no"?>
<!DOCTYPE svg PUBLIC "-//W3C//DTD SVG 1.1//EN"
 "http://www.w3.org/Graphics/SVG/1.1/DTD/svg11.dtd">
<!-- Generated by graphviz version 2.38.0 (20140413.2041)
 -->
<!-- Title: dot_FromArray Pages: 1 -->
<svg width="2250pt" height="198pt"
 viewBox="0.00 0.00 2250.00 198.32" xmlns="http://www.w3.org/2000/svg" xmlns:xlink="http://www.w3.org/1999/xlink">
<g id="graph0" class="graph" transform="scale(0.511131 0.511131) rotate(0) translate(4 384)">
<title>dot_FromArray</title>
<polygon fill="white" stroke="none" points="-4,4 -4,-384 4398,-384 4398,4 -4,4"/>
<g id="clust4" class="cluster"><title>cluster1</title>
<polygon fill="orange" stroke="red" points="3284,-152 3284,-226 4008,-226 4008,-152 3284,-152"/>
<text text-anchor="middle" x="3646" y="-210.8" font-family="Times,serif" font-size="14.00">Missing</text>
</g>
<g id="clust5" class="cluster"><title>cluster2</title>
<polygon fill="#999999" stroke="#999999" points="8,-80 8,-372 3276,-372 3276,-80 8,-80"/>
<text text-anchor="middle" x="1642" y="-356.8" font-family="Times,serif" font-size="14.00">stack &quot;lib_Sitemap&quot;</text>
</g>
<g id="clust6" class="cluster"><title>cluster3</title>
<polygon fill="#999999" stroke="#999999" points="4016,-8 4016,-226 4386,-226 4386,-8 4016,-8"/>
<text text-anchor="middle" x="4201" y="-210.8" font-family="Times,serif" font-size="14.00">stack &quot;lib_XML&quot;</text>
</g>
<!-- n2 -->
<g id="node1" class="node"><title>n2</title>
<g id="a_node1"><a xlink:href="_addPageMapXML%2Cpc%2Cstack+%22lib_Sitemap%22%2C1" xlink:title="_addPageMapXML">
<ellipse fill="none" stroke="black" cx="2548" cy="-252" rx="80.1989" ry="18"/>
<text text-anchor="middle" x="2548" y="-247.8" font-family="Times,serif" font-size="14.00">_addPageMapXML</text>
</a>
</g>
</g>
<!-- n16 -->
<g id="node2" class="node"><title>n16</title>
<g id="a_node2"><a xlink:href="_addImageXML%2Cpc%2Cstack+%22lib_Sitemap%22%2C1" xlink:title="_addImageXML">
<ellipse fill="none" stroke="black" cx="1938" cy="-252" rx="69.0891" ry="18"/>
<text text-anchor="middle" x="1938" y="-247.8" font-family="Times,serif" font-size="14.00">_addImageXML</text>
</a>
</g>
</g>
<!-- n8 -->
<g id="node42" class="node"><title>n8</title>
<g id="a_node42"><a xlink:href="xml_Enclose%2Cf%2Cstack+%22lib_XML%22%2C1" xlink:title="xml_Enclose">
<ellipse fill="GreenYellow" stroke="#008b00" cx="4080" cy="-178" rx="56.0614" ry="18"/>
<text text-anchor="middle" x="4080" y="-173.8" font-family="Times,serif" font-size="14.00">xml_Enclose</text>
</a>
</g>
</g>
<!-- n16&#45;&gt;n8 -->
<g id="edge17" class="edge"><title>n16&#45;&gt;n8</title>
<path fill="none" stroke="black" d="M1986,-238.879C1995.86,-236.859 2006.22,-235.073 2016,-234 2043.56,-230.976 3985.55,-234.309 4012,-226 4027.69,-221.072 4042.95,-211.143 4055.03,-201.675"/>
<polygon fill="black" stroke="black" points="4057.34,-204.309 4062.85,-195.261 4052.9,-198.896 4057.34,-204.309"/>
</g>
<!-- n3 -->
<g id="node3" class="node"><title>n3</title>
<g id="a_node3"><a xlink:href="_addPriorityXML%2Cpc%2Cstack+%22lib_Sitemap%22%2C1" xlink:title="_addPriorityXML">
<ellipse fill="none" stroke="black" cx="2720" cy="-252" rx="73.943" ry="18"/>
<text text-anchor="middle" x="2720" y="-247.8" font-family="Times,serif" font-size="14.00">_addPriorityXML</text>
</a>
</g>
</g>
<!-- n3&#45;&gt;n8 -->
<g id="edge26" class="edge"><title>n3&#45;&gt;n8</title>
<path fill="none" stroke="black" d="M2771.12,-238.901C2781.6,-236.879 2792.61,-235.087 2803,-234 2836.4,-230.503 3979.97,-236.107 4012,-226 4027.68,-221.052 4042.94,-211.12 4055.02,-201.656"/>
<polygon fill="black" stroke="black" points="4057.33,-204.292 4062.84,-195.245 4052.89,-198.878 4057.33,-204.292"/>
</g>
<!-- n4 -->
<g id="node4" class="node"><title>n4</title>
<g id="a_node4"><a xlink:href="_setPageMapXML%2Cpc%2Cstack+%22lib_Sitemap%22%2C1" xlink:title="_setPageMapXML">
<ellipse fill="none" stroke="black" cx="2372" cy="-252" rx="77.3089" ry="18"/>
<text text-anchor="middle" x="2372" y="-247.8" font-family="Times,serif" font-size="14.00">_setPageMapXML</text>
</a>
</g>
</g>
<!-- n4&#45;&gt;n8 -->
<g id="edge41" class="edge"><title>n4&#45;&gt;n8</title>
<path fill="none" stroke="black" d="M2425.6,-238.891C2436.59,-236.87 2448.13,-235.081 2459,-234 2501.93,-229.734 3970.85,-238.953 4012,-226 4027.68,-221.063 4042.95,-211.133 4055.03,-201.666"/>
<polygon fill="black" stroke="black" points="4057.33,-204.301 4062.85,-195.254 4052.89,-198.888 4057.33,-204.301"/>
</g>
<!-- n27 -->
<g id="node5" class="node"><title>n27</title>
<g id="a_node5"><a xlink:href="text_Utf8Encode%2Cc%2Cstack+%22lib_Sitemap%22%2C1" xlink:title="text_Utf8Encode">
<ellipse fill="LightBlue" stroke="Blue" cx="2080" cy="-106" rx="70.534" ry="18"/>
<text text-anchor="middle" x="2080" y="-101.8" font-family="Times,serif" font-size="14.00">text_Utf8Encode</text>
</a>
</g>
</g>
<!-- n23 -->
<g id="node6" class="node"><title>n23</title>
<g id="a_node6"><a xlink:href="date_Convert8601%2Cc%2Cstack+%22lib_Sitemap%22%2C1" xlink:title="date_Convert8601">
<ellipse fill="LightBlue" stroke="Blue" cx="3193" cy="-324" rx="75.3707" ry="18"/>
<text text-anchor="middle" x="3193" y="-319.8" font-family="Times,serif" font-size="14.00">date_Convert8601</text>
</a>
</g>
</g>
<!-- n36 -->
<g id="node7" class="node"><title>n36</title>
<g id="a_node7"><a xlink:href="rigDbOrWhere%2Cc%2CMissing%2C1" xlink:title="rigDbOrWhere">
<ellipse fill="LightBlue" stroke="Blue" cx="3600" cy="-178" rx="63.7682" ry="18"/>
<text text-anchor="middle" x="3600" y="-173.8" font-family="Times,serif" font-size="14.00">rigDbOrWhere</text>
</a>
</g>
</g>
<!-- n14 -->
<g id="node8" class="node"><title>n14</title>
<g id="a_node8"><a xlink:href="sitemap_EntityEscape%2Cc%2Cstack+%22lib_Sitemap%22%2C1" xlink:title="sitemap_EntityEscape">
<ellipse fill="LightBlue" stroke="Blue" cx="2151" cy="-178" rx="88.8842" ry="18"/>
<text text-anchor="middle" x="2151" y="-173.8" font-family="Times,serif" font-size="14.00">sitemap_EntityEscape</text>
</a>
</g>
</g>
<!-- n14&#45;&gt;n27 -->
<g id="edge15" class="edge"><title>n14&#45;&gt;n27</title>
<path fill="none" stroke="black" d="M2133.81,-160.055C2124.92,-151.285 2113.91,-140.432 2104.17,-130.831"/>
<polygon fill="black" stroke="black" points="2106.61,-128.317 2097.03,-123.789 2101.69,-133.302 2106.61,-128.317"/>
</g>
<!-- n39 -->
<g id="node14" class="node"><title>n39</title>
<g id="a_node14"><a xlink:href="xml_Escape%2Cc%2Cstack+%22lib_Sitemap%22%2C1" xlink:title="xml_Escape">
<ellipse fill="LightBlue" stroke="Blue" cx="2222" cy="-106" rx="53.1539" ry="18"/>
<text text-anchor="middle" x="2222" y="-101.8" font-family="Times,serif" font-size="14.00">xml_Escape</text>
</a>
</g>
</g>
<!-- n14&#45;&gt;n39 -->
<g id="edge16" class="edge"><title>n14&#45;&gt;n39</title>
<path fill="none" stroke="black" d="M2168.19,-160.055C2177.21,-151.156 2188.41,-140.112 2198.26,-130.408"/>
<polygon fill="black" stroke="black" points="2200.8,-132.82 2205.46,-123.307 2195.88,-127.835 2200.8,-132.82"/>
</g>
<!-- n7 -->
<g id="node9" class="node"><title>n7</title>
<g id="a_node9"><a xlink:href="xml_AddHeaderLine%2Cc%2Cstack+%22lib_XML%22%2C1" xlink:title="xml_AddHeaderLine">
<ellipse fill="LightBlue" stroke="Blue" cx="4240" cy="-178" rx="85.0015" ry="18"/>
<text text-anchor="middle" x="4240" y="-173.8" font-family="Times,serif" font-size="14.00">xml_AddHeaderLine</text>
</a>
</g>
</g>
<!-- n19 -->
<g id="node41" class="node"><title>n19</title>
<g id="a_node41"><a xlink:href="kwote%2Cf%2Cstack+%22lib_XML%22%2C1" xlink:title="kwote">
<ellipse fill="GreenYellow" stroke="#008b00" cx="4256" cy="-106" rx="31.9393" ry="18"/>
<text text-anchor="middle" x="4256" y="-101.8" font-family="Times,serif" font-size="14.00">kwote</text>
</a>
</g>
</g>
<!-- n7&#45;&gt;n19 -->
<g id="edge18" class="edge"><title>n7&#45;&gt;n19</title>
<path fill="none" stroke="black" d="M4243.96,-159.697C4245.72,-151.983 4247.84,-142.712 4249.8,-134.112"/>
<polygon fill="black" stroke="black" points="4253.27,-134.633 4252.09,-124.104 4246.45,-133.073 4253.27,-134.633"/>
</g>
<!-- n32 -->
<g id="node10" class="node"><title>n32</title>
<g id="a_node10"><a xlink:href="rigDB_ItemByMediaType%2Cc%2Cstack+%22lib_Sitemap%22%2C1" xlink:title="rigDB_ItemByMediaType">
<ellipse fill="LightBlue" stroke="Blue" cx="1156" cy="-252" rx="103.118" ry="18"/>
<text text-anchor="middle" x="1156" y="-247.8" font-family="Times,serif" font-size="14.00">rigDB_ItemByMediaType</text>
</a>
</g>
</g>
<!-- n32&#45;&gt;n36 -->
<g id="edge30" class="edge"><title>n32&#45;&gt;n36</title>
<path fill="none" stroke="black" d="M1226.02,-238.755C1239.89,-236.787 1254.37,-235.053 1268,-234 1299.28,-231.584 3496.92,-234.905 3527,-226 3543.72,-221.052 3560.23,-210.98 3573.31,-201.426"/>
<polygon fill="black" stroke="black" points="3575.54,-204.124 3581.38,-195.28 3571.3,-198.555 3575.54,-204.124"/>
</g>
<!-- n35 -->
<g id="node15" class="node"><title>n35</title>
<g id="a_node15"><a xlink:href="rigDbFrom%2Cc%2CMissing%2C1" xlink:title="rigDbFrom">
<ellipse fill="LightBlue" stroke="Blue" cx="3342" cy="-178" rx="49.805" ry="18"/>
<text text-anchor="middle" x="3342" y="-173.8" font-family="Times,serif" font-size="14.00">rigDbFrom</text>
</a>
</g>
</g>
<!-- n32&#45;&gt;n35 -->
<g id="edge29" class="edge"><title>n32&#45;&gt;n35</title>
<path fill="none" stroke="black" d="M1226.02,-238.759C1239.89,-236.791 1254.37,-235.056 1268,-234 1295.86,-231.842 3253.53,-234.958 3280,-226 3294.27,-221.17 3307.88,-211.623 3318.69,-202.389"/>
<polygon fill="black" stroke="black" points="3321.29,-204.762 3326.38,-195.471 3316.61,-199.559 3321.29,-204.762"/>
</g>
<!-- n37 -->
<g id="node16" class="node"><title>n37</title>
<g id="a_node16"><a xlink:href="rigDbWhere%2Cc%2CMissing%2C1" xlink:title="rigDbWhere">
<ellipse fill="LightBlue" stroke="Blue" cx="3464" cy="-178" rx="54.1058" ry="18"/>
<text text-anchor="middle" x="3464" y="-173.8" font-family="Times,serif" font-size="14.00">rigDbWhere</text>
</a>
</g>
</g>
<!-- n32&#45;&gt;n37 -->
<g id="edge31" class="edge"><title>n32&#45;&gt;n37</title>
<path fill="none" stroke="black" d="M1226.02,-238.757C1239.89,-236.789 1254.37,-235.054 1268,-234 1297.54,-231.715 3372.9,-235.385 3401,-226 3415.69,-221.095 3429.73,-211.306 3440.81,-201.925"/>
<polygon fill="black" stroke="black" points="3443.18,-204.502 3448.33,-195.242 3438.53,-199.271 3443.18,-204.502"/>
</g>
<!-- n34 -->
<g id="node11" class="node"><title>n34</title>
<g id="a_node11"><a xlink:href="rigDbJoin%2Cc%2CMissing%2C1" xlink:title="rigDbJoin">
<ellipse fill="LightBlue" stroke="Blue" cx="3955" cy="-178" rx="45.4614" ry="18"/>
<text text-anchor="middle" x="3955" y="-173.8" font-family="Times,serif" font-size="14.00">rigDbJoin</text>
</a>
</g>
</g>
<!-- n12 -->
<g id="node12" class="node"><title>n12</title>
<g id="a_node12"><a xlink:href="text_AddTrailing%2Cc%2Cstack+%22lib_Sitemap%22%2C1" xlink:title="text_AddTrailing">
<ellipse fill="LightBlue" stroke="Blue" cx="87" cy="-252" rx="71.3991" ry="18"/>
<text text-anchor="middle" x="87" y="-247.8" font-family="Times,serif" font-size="14.00">text_AddTrailing</text>
</a>
</g>
</g>
<!-- n20 -->
<g id="node13" class="node"><title>n20</title>
<g id="a_node13"><a xlink:href="date_Wc3Datetime%2Cc%2Cstack+%22lib_Sitemap%22%2C1" xlink:title="date_Wc3Datetime">
<ellipse fill="LightBlue" stroke="Blue" cx="3021" cy="-324" rx="78.2263" ry="18"/>
<text text-anchor="middle" x="3021" y="-319.8" font-family="Times,serif" font-size="14.00">date_Wc3Datetime</text>
</a>
</g>
</g>
<!-- n43 -->
<g id="node17" class="node"><title>n43</title>
<g id="a_node17"><a xlink:href="rigDbSelect%2Cc%2CMissing%2C1" xlink:title="rigDbSelect">
<ellipse fill="LightBlue" stroke="Blue" cx="3734" cy="-178" rx="52.1934" ry="18"/>
<text text-anchor="middle" x="3734" y="-173.8" font-family="Times,serif" font-size="14.00">rigDbSelect</text>
</a>
</g>
</g>
<!-- n17 -->
<g id="node18" class="node"><title>n17</title>
<g id="a_node18"><a xlink:href="sitemap_Save%2Cc%2Cstack+%22lib_Sitemap%22%2C1" xlink:title="sitemap_Save">
<ellipse fill="LightBlue" stroke="Blue" cx="2222" cy="-324" rx="59.4512" ry="18"/>
<text text-anchor="middle" x="2222" y="-319.8" font-family="Times,serif" font-size="14.00">sitemap_Save</text>
</a>
</g>
</g>
<!-- n18 -->
<g id="node25" class="node"><title>n18</title>
<g id="a_node25"><a xlink:href="sitemap_ConstructFilePath%2Cf%2Cstack+%22lib_Sitemap%22%2C1" xlink:title="sitemap_ConstructFilePath">
<ellipse fill="GreenYellow" stroke="#008b00" cx="3162" cy="-252" rx="105.808" ry="18"/>
<text text-anchor="middle" x="3162" y="-247.8" font-family="Times,serif" font-size="14.00">sitemap_ConstructFilePath</text>
</a>
</g>
</g>
<!-- n17&#45;&gt;n18 -->
<g id="edge51" class="edge"><title>n17&#45;&gt;n18</title>
<path fill="none" stroke="black" d="M2263.82,-311.17C2272.42,-309.127 2281.45,-307.259 2290,-306 2623.23,-256.915 2711.76,-302.668 3047,-270 3057.2,-269.006 3067.88,-267.738 3078.44,-266.343"/>
<polygon fill="black" stroke="black" points="3079.08,-269.788 3088.51,-264.972 3078.13,-262.852 3079.08,-269.788"/>
</g>
<!-- n13 -->
<g id="node19" class="node"><title>n13</title>
<g id="a_node19"><a xlink:href="text_TopAndTail%2Cc%2Cstack+%22lib_Sitemap%22%2C1" xlink:title="text_TopAndTail">
<ellipse fill="LightBlue" stroke="Blue" cx="246" cy="-252" rx="70.0425" ry="18"/>
<text text-anchor="middle" x="246" y="-247.8" font-family="Times,serif" font-size="14.00">text_TopAndTail</text>
</a>
</g>
</g>
<!-- n33 -->
<g id="node20" class="node"><title>n33</title>
<g id="a_node20"><a xlink:href="rigDB_GetPhotoData%2Cf%2Cstack+%22lib_Sitemap%22%2C1" xlink:title="rigDB_GetPhotoData">
<ellipse fill="GreenYellow" stroke="#008b00" cx="2386" cy="-324" rx="86.9809" ry="18"/>
<text text-anchor="middle" x="2386" y="-319.8" font-family="Times,serif" font-size="14.00">rigDB_GetPhotoData</text>
</a>
</g>
</g>
<!-- n33&#45;&gt;n34 -->
<g id="edge1" class="edge"><title>n33&#45;&gt;n34</title>
<path fill="none" stroke="black" d="M2446.51,-311.053C2458.25,-309.086 2470.48,-307.276 2482,-306 2833.55,-267.081 2923.9,-290.441 3277,-270 3554.56,-253.933 3644.21,-332.548 3901,-226 3913.38,-220.865 3924.91,-211.719 3934.11,-202.851"/>
<polygon fill="black" stroke="black" points="3936.75,-205.152 3941.26,-195.562 3931.75,-200.251 3936.75,-205.152"/>
</g>
<!-- n28 -->
<g id="node21" class="node"><title>n28</title>
<g id="a_node21"><a xlink:href="rigDB_GetData%2Cf%2Cstack+%22lib_Sitemap%22%2C1" xlink:title="rigDB_GetData">
<ellipse fill="GreenYellow" stroke="#008b00" cx="969" cy="-252" rx="66.1994" ry="18"/>
<text text-anchor="middle" x="969" y="-247.8" font-family="Times,serif" font-size="14.00">rigDB_GetData</text>
</a>
</g>
</g>
<!-- n29 -->
<g id="node35" class="node"><title>n29</title>
<g id="a_node35"><a xlink:href="rigDB_ExtractFirstThing%2Cf%2Cstack+%22lib_Sitemap%22%2C1" xlink:title="rigDB_ExtractFirstThing">
<ellipse fill="GreenYellow" stroke="#008b00" cx="969" cy="-178" rx="99.5261" ry="18"/>
<text text-anchor="middle" x="969" y="-173.8" font-family="Times,serif" font-size="14.00">rigDB_ExtractFirstThing</text>
</a>
</g>
</g>
<!-- n28&#45;&gt;n29 -->
<g id="edge2" class="edge"><title>n28&#45;&gt;n29</title>
<path fill="none" stroke="black" d="M969,-233.937C969,-225.807 969,-215.876 969,-206.705"/>
<polygon fill="black" stroke="black" points="972.5,-206.441 969,-196.441 965.5,-206.441 972.5,-206.441"/>
</g>
<!-- n31 -->
<g id="node22" class="node"><title>n31</title>
<g id="a_node22"><a xlink:href="rigDB_GetArtData%2Cf%2Cstack+%22lib_Sitemap%22%2C1" xlink:title="rigDB_GetArtData">
<ellipse fill="GreenYellow" stroke="#008b00" cx="970" cy="-324" rx="77.7762" ry="18"/>
<text text-anchor="middle" x="970" y="-319.8" font-family="Times,serif" font-size="14.00">rigDB_GetArtData</text>
</a>
</g>
</g>
<!-- n31&#45;&gt;n32 -->
<g id="edge4" class="edge"><title>n31&#45;&gt;n32</title>
<path fill="none" stroke="black" d="M1008.99,-308.326C1036.87,-297.835 1074.65,-283.616 1104.93,-272.22"/>
<polygon fill="black" stroke="black" points="1106.35,-275.425 1114.48,-268.627 1103.88,-268.874 1106.35,-275.425"/>
</g>
<!-- n31&#45;&gt;n28 -->
<g id="edge3" class="edge"><title>n31&#45;&gt;n28</title>
<path fill="none" stroke="black" d="M969.753,-305.697C969.643,-297.983 969.51,-288.712 969.387,-280.112"/>
<polygon fill="black" stroke="black" points="972.887,-280.053 969.244,-270.104 965.888,-280.153 972.887,-280.053"/>
</g>
<!-- n45 -->
<g id="node23" class="node"><title>n45</title>
<g id="a_node23"><a xlink:href="sitemap_Fetch%2Cf%2Cstack+%22lib_Sitemap%22%2C1" xlink:title="sitemap_Fetch">
<ellipse fill="GreenYellow" stroke="#008b00" cx="2083" cy="-324" rx="61.8649" ry="18"/>
<text text-anchor="middle" x="2083" y="-319.8" font-family="Times,serif" font-size="14.00">sitemap_Fetch</text>
</a>
</g>
</g>
<!-- n45&#45;&gt;n18 -->
<g id="edge5" class="edge"><title>n45&#45;&gt;n18</title>
<path fill="none" stroke="black" d="M2126.68,-311.132C2135.66,-309.092 2145.09,-307.235 2154,-306 2547.45,-251.496 2651.52,-307.096 3047,-270 3057.2,-269.043 3067.88,-267.797 3078.45,-266.414"/>
<polygon fill="black" stroke="black" points="3079.08,-269.86 3088.52,-265.051 3078.14,-262.923 3079.08,-269.86"/>
</g>
<!-- n25 -->
<g id="node24" class="node"><title>n25</title>
<g id="a_node24"><a xlink:href="sitemap_FileIDsFromMediaType%2Cf%2Cstack+%22lib_Sitemap%22%2C1" xlink:title="sitemap_FileIDsFromMediaType">
<ellipse fill="GreenYellow" stroke="#008b00" cx="1405" cy="-252" rx="127.749" ry="18"/>
<text text-anchor="middle" x="1405" y="-247.8" font-family="Times,serif" font-size="14.00">sitemap_FileIDsFromMediaType</text>
</a>
</g>
</g>
<!-- n25&#45;&gt;n43 -->
<g id="edge7" class="edge"><title>n25&#45;&gt;n43</title>
<path fill="none" stroke="black" d="M1491.45,-238.68C1508.19,-236.746 1525.62,-235.044 1542,-234 1571.54,-232.119 3645,-235.594 3673,-226 3687.11,-221.165 3700.51,-211.618 3711.13,-202.385"/>
<polygon fill="black" stroke="black" points="3713.67,-204.803 3718.68,-195.468 3708.94,-199.642 3713.67,-204.803"/>
</g>
<!-- n42 -->
<g id="node31" class="node"><title>n42</title>
<g id="a_node31"><a xlink:href="rigDbGet%2Cf%2CMissing%2C1" xlink:title="rigDbGet">
<ellipse fill="GreenYellow" stroke="#008b00" cx="3848" cy="-178" rx="43.5146" ry="18"/>
<text text-anchor="middle" x="3848" y="-173.8" font-family="Times,serif" font-size="14.00">rigDbGet</text>
</a>
</g>
</g>
<!-- n25&#45;&gt;n42 -->
<g id="edge6" class="edge"><title>n25&#45;&gt;n42</title>
<path fill="none" stroke="black" d="M1491.45,-238.677C1508.19,-236.743 1525.62,-235.042 1542,-234 1573.23,-232.014 3765.76,-237.155 3795,-226 3807.57,-221.205 3819.07,-211.928 3828.13,-202.874"/>
<polygon fill="black" stroke="black" points="3830.83,-205.109 3835.12,-195.424 3825.73,-200.316 3830.83,-205.109"/>
</g>
<!-- n9 -->
<g id="node26" class="node"><title>n9</title>
<g id="a_node26"><a xlink:href="outline_IncreaseIndent%2Cf%2Cstack+%22lib_XML%22%2C1" xlink:title="outline_IncreaseIndent">
<ellipse fill="GreenYellow" stroke="#008b00" cx="4115" cy="-106" rx="91.2721" ry="18"/>
<text text-anchor="middle" x="4115" y="-101.8" font-family="Times,serif" font-size="14.00">outline_IncreaseIndent</text>
</a>
</g>
</g>
<!-- n10 -->
<g id="node33" class="node"><title>n10</title>
<g id="a_node33"><a xlink:href="outline_DecreaseIndent%2Cf%2Cstack+%22lib_XML%22%2C1" xlink:title="outline_DecreaseIndent">
<ellipse fill="GreenYellow" stroke="#008b00" cx="4118" cy="-34" rx="94.1618" ry="18"/>
<text text-anchor="middle" x="4118" y="-29.8" font-family="Times,serif" font-size="14.00">outline_DecreaseIndent</text>
</a>
</g>
</g>
<!-- n9&#45;&gt;n10 -->
<g id="edge8" class="edge"><title>n9&#45;&gt;n10</title>
<path fill="none" stroke="black" d="M4115.74,-87.6966C4116.07,-79.9827 4116.47,-70.7125 4116.84,-62.1124"/>
<polygon fill="black" stroke="black" points="4120.34,-62.2451 4117.27,-52.1043 4113.34,-61.9453 4120.34,-62.2451"/>
</g>
<!-- n11 -->
<g id="node46" class="node"><title>n11</title>
<g id="a_node46"><a xlink:href="text_RepeatString%2Cf%2Cstack+%22lib_XML%22%2C1" xlink:title="text_RepeatString">
<ellipse fill="GreenYellow" stroke="#008b00" cx="4304" cy="-34" rx="73.9257" ry="18"/>
<text text-anchor="middle" x="4304" y="-29.8" font-family="Times,serif" font-size="14.00">text_RepeatString</text>
</a>
</g>
</g>
<!-- n9&#45;&gt;n11 -->
<g id="edge9" class="edge"><title>n9&#45;&gt;n11</title>
<path fill="none" stroke="black" d="M4156.01,-89.811C4185.2,-78.9986 4224.55,-64.425 4255.34,-53.0233"/>
<polygon fill="black" stroke="black" points="4256.85,-56.197 4265.01,-49.4417 4254.41,-49.6328 4256.85,-56.197"/>
</g>
<!-- n38 -->
<g id="node27" class="node"><title>n38</title>
<g id="a_node27"><a xlink:href="date_Construct8601%2Cf%2Cstack+%22lib_Sitemap%22%2C1" xlink:title="date_Construct8601">
<ellipse fill="GreenYellow" stroke="#008b00" cx="2925" cy="-178" rx="81.1681" ry="18"/>
<text text-anchor="middle" x="2925" y="-173.8" font-family="Times,serif" font-size="14.00">date_Construct8601</text>
</a>
</g>
</g>
<!-- n5 -->
<g id="node28" class="node"><title>n5</title>
<g id="a_node28"><a xlink:href="date_ConstructWc3Datetime%2Cf%2Cstack+%22lib_Sitemap%22%2C1" xlink:title="date_ConstructWc3Datetime">
<ellipse fill="GreenYellow" stroke="#008b00" cx="2925" cy="-252" rx="112.505" ry="18"/>
<text text-anchor="middle" x="2925" y="-247.8" font-family="Times,serif" font-size="14.00">date_ConstructWc3Datetime</text>
</a>
</g>
</g>
<!-- n5&#45;&gt;n38 -->
<g id="edge10" class="edge"><title>n5&#45;&gt;n38</title>
<path fill="none" stroke="black" d="M2925,-233.937C2925,-225.807 2925,-215.876 2925,-206.705"/>
<polygon fill="black" stroke="black" points="2928.5,-206.441 2925,-196.441 2921.5,-206.441 2928.5,-206.441"/>
</g>
<!-- n21 -->
<g id="node29" class="node"><title>n21</title>
<g id="a_node29"><a xlink:href="sitemap_ConstructShortFileName%2Cf%2Cstack+%22lib_Sitemap%22%2C1" xlink:title="sitemap_ConstructShortFileName">
<ellipse fill="GreenYellow" stroke="#008b00" cx="465" cy="-252" rx="130.422" ry="18"/>
<text text-anchor="middle" x="465" y="-247.8" font-family="Times,serif" font-size="14.00">sitemap_ConstructShortFileName</text>
</a>
</g>
</g>
<!-- n40 -->
<g id="node30" class="node"><title>n40</title>
<g id="a_node30"><a xlink:href="sitemap_ListIndexURLs%2Cf%2Cstack+%22lib_Sitemap%22%2C1" xlink:title="sitemap_ListIndexURLs">
<ellipse fill="GreenYellow" stroke="#008b00" cx="607" cy="-324" rx="97.1121" ry="18"/>
<text text-anchor="middle" x="607" y="-319.8" font-family="Times,serif" font-size="14.00">sitemap_ListIndexURLs</text>
</a>
</g>
</g>
<!-- n40&#45;&gt;n21 -->
<g id="edge11" class="edge"><title>n40&#45;&gt;n21</title>
<path fill="none" stroke="black" d="M574.422,-306.941C554.594,-297.166 529.043,-284.571 507.62,-274.01"/>
<polygon fill="black" stroke="black" points="508.929,-270.753 498.412,-269.471 505.834,-277.032 508.929,-270.753"/>
</g>
<!-- n41 -->
<g id="node44" class="node"><title>n41</title>
<g id="a_node44"><a xlink:href="sitemap_ListHapRefinementNames%2Cf%2Cstack+%22lib_Sitemap%22%2C1" xlink:title="sitemap_ListHapRefinementNames">
<ellipse fill="GreenYellow" stroke="#008b00" cx="749" cy="-252" rx="135.709" ry="18"/>
<text text-anchor="middle" x="749" y="-247.8" font-family="Times,serif" font-size="14.00">sitemap_ListHapRefinementNames</text>
</a>
</g>
</g>
<!-- n40&#45;&gt;n41 -->
<g id="edge12" class="edge"><title>n40&#45;&gt;n41</title>
<path fill="none" stroke="black" d="M639.578,-306.941C659.406,-297.166 684.957,-284.571 706.38,-274.01"/>
<polygon fill="black" stroke="black" points="708.166,-277.032 715.588,-269.471 705.071,-270.753 708.166,-277.032"/>
</g>
<!-- n44 -->
<g id="node32" class="node"><title>n44</title>
<g id="a_node32"><a xlink:href="rigDB_GetVideoData%2Cf%2Cstack+%22lib_Sitemap%22%2C1" xlink:title="rigDB_GetVideoData">
<ellipse fill="GreenYellow" stroke="#008b00" cx="1154" cy="-324" rx="87.3702" ry="18"/>
<text text-anchor="middle" x="1154" y="-319.8" font-family="Times,serif" font-size="14.00">rigDB_GetVideoData</text>
</a>
</g>
</g>
<!-- n44&#45;&gt;n32 -->
<g id="edge14" class="edge"><title>n44&#45;&gt;n32</title>
<path fill="none" stroke="black" d="M1154.49,-305.697C1154.71,-297.983 1154.98,-288.712 1155.23,-280.112"/>
<polygon fill="black" stroke="black" points="1158.72,-280.2 1155.51,-270.104 1151.73,-280 1158.72,-280.2"/>
</g>
<!-- n44&#45;&gt;n28 -->
<g id="edge13" class="edge"><title>n44&#45;&gt;n28</title>
<path fill="none" stroke="black" d="M1113.86,-307.811C1084.9,-296.853 1045.73,-282.033 1015.42,-270.566"/>
<polygon fill="black" stroke="black" points="1016.51,-267.235 1005.92,-266.97 1014.03,-273.782 1016.51,-267.235"/>
</g>
<!-- n1 -->
<g id="node34" class="node"><title>n1</title>
<g id="a_node34"><a xlink:href="sitemap_Build%2Cf%2Cstack+%22lib_Sitemap%22%2C1" xlink:title="sitemap_Build">
<ellipse fill="GreenYellow" stroke="#008b00" cx="1942" cy="-324" rx="61.8822" ry="18"/>
<text text-anchor="middle" x="1942" y="-319.8" font-family="Times,serif" font-size="14.00">sitemap_Build</text>
</a>
</g>
</g>
<!-- n1&#45;&gt;n2 -->
<g id="edge19" class="edge"><title>n1&#45;&gt;n2</title>
<path fill="none" stroke="black" d="M1985.85,-311.232C1994.47,-309.236 2003.48,-307.37 2012,-306 2208.35,-274.436 2260.91,-296.493 2458,-270 2465.45,-268.998 2473.22,-267.787 2480.94,-266.477"/>
<polygon fill="black" stroke="black" points="2481.77,-269.884 2491.02,-264.708 2480.56,-262.99 2481.77,-269.884"/>
</g>
<!-- n1&#45;&gt;n3 -->
<g id="edge20" class="edge"><title>n1&#45;&gt;n3</title>
<path fill="none" stroke="black" d="M1985.45,-311.161C1994.18,-309.146 2003.34,-307.29 2012,-306 2287.2,-265.001 2361.1,-306.009 2637,-270 2643.76,-269.118 2650.8,-267.997 2657.78,-266.754"/>
<polygon fill="black" stroke="black" points="2658.76,-270.132 2667.95,-264.858 2657.48,-263.251 2658.76,-270.132"/>
</g>
<!-- n1&#45;&gt;n4 -->
<g id="edge21" class="edge"><title>n1&#45;&gt;n4</title>
<path fill="none" stroke="black" d="M1986.66,-311.397C1995.04,-309.433 2003.76,-307.537 2012,-306 2132.74,-283.474 2164.8,-289.92 2286,-270 2292.56,-268.922 2299.38,-267.717 2306.19,-266.46"/>
<polygon fill="black" stroke="black" points="2306.94,-269.88 2316.12,-264.589 2305.64,-263.001 2306.94,-269.88"/>
</g>
<!-- n1&#45;&gt;n7 -->
<g id="edge24" class="edge"><title>n1&#45;&gt;n7</title>
<path fill="none" stroke="black" d="M1985.04,-310.995C1993.89,-308.966 2003.2,-307.147 2012,-306 2390.88,-256.623 3350.08,-299.861 3731,-270 3849.06,-260.745 3877.11,-245.163 3995,-234 4028.23,-230.853 4112.71,-234.464 4145,-226 4166.22,-220.438 4188.28,-209.863 4205.79,-200.151"/>
<polygon fill="black" stroke="black" points="4207.56,-203.175 4214.51,-195.181 4204.09,-197.094 4207.56,-203.175"/>
</g>
<!-- n1&#45;&gt;n5 -->
<g id="edge22" class="edge"><title>n1&#45;&gt;n5</title>
<path fill="none" stroke="black" d="M1985.44,-311.078C1994.17,-309.07 2003.33,-307.238 2012,-306 2360.38,-256.243 2452.57,-302.319 2803,-270 2813.95,-268.99 2825.43,-267.699 2836.78,-266.282"/>
<polygon fill="black" stroke="black" points="2837.23,-269.753 2846.7,-265.008 2836.33,-262.81 2837.23,-269.753"/>
</g>
<!-- n1&#45;&gt;n8 -->
<g id="edge25" class="edge"><title>n1&#45;&gt;n8</title>
<path fill="none" stroke="black" d="M1985.04,-311.011C1993.89,-308.981 2003.2,-307.157 2012,-306 2353.82,-261.059 3219.08,-294.038 3563,-270 3700.49,-260.391 3733.69,-245.909 3871,-234 3902.27,-231.288 3982.32,-236.191 4012,-226 4027.44,-220.699 4042.58,-210.829 4054.65,-201.498"/>
<polygon fill="black" stroke="black" points="4056.89,-204.189 4062.47,-195.186 4052.49,-198.74 4056.89,-204.189"/>
</g>
<!-- n6 -->
<g id="node43" class="node"><title>n6</title>
<g id="a_node43"><a xlink:href="sitemap_ConstructHapMediaUrl%2Cf%2Cstack+%22lib_Sitemap%22%2C1" xlink:title="sitemap_ConstructHapMediaUrl">
<ellipse fill="GreenYellow" stroke="#008b00" cx="2151" cy="-252" rx="125.576" ry="18"/>
<text text-anchor="middle" x="2151" y="-247.8" font-family="Times,serif" font-size="14.00">sitemap_ConstructHapMediaUrl</text>
</a>
</g>
</g>
<!-- n1&#45;&gt;n6 -->
<g id="edge23" class="edge"><title>n1&#45;&gt;n6</title>
<path fill="none" stroke="black" d="M1980.82,-309.998C2012.65,-299.336 2058.16,-284.095 2094.11,-272.056"/>
<polygon fill="black" stroke="black" points="2095.6,-275.246 2103.97,-268.751 2093.38,-268.608 2095.6,-275.246"/>
</g>
<!-- n30 -->
<g id="node36" class="node"><title>n30</title>
<g id="a_node36"><a xlink:href="url_Construct%2Cf%2Cstack+%22lib_Sitemap%22%2C1" xlink:title="url_Construct">
<ellipse fill="GreenYellow" stroke="#008b00" cx="166" cy="-324" rx="58.9841" ry="18"/>
<text text-anchor="middle" x="166" y="-319.8" font-family="Times,serif" font-size="14.00">url_Construct</text>
</a>
</g>
</g>
<!-- n30&#45;&gt;n12 -->
<g id="edge27" class="edge"><title>n30&#45;&gt;n12</title>
<path fill="none" stroke="black" d="M147.677,-306.765C137.382,-297.642 124.361,-286.105 113.023,-276.059"/>
<polygon fill="black" stroke="black" points="115.303,-273.402 105.497,-269.39 110.66,-278.641 115.303,-273.402"/>
</g>
<!-- n30&#45;&gt;n13 -->
<g id="edge28" class="edge"><title>n30&#45;&gt;n13</title>
<path fill="none" stroke="black" d="M184.555,-306.765C194.981,-297.642 208.166,-286.105 219.647,-276.059"/>
<polygon fill="black" stroke="black" points="222.048,-278.609 227.269,-269.39 217.438,-273.341 222.048,-278.609"/>
</g>
<!-- n46 -->
<g id="node37" class="node"><title>n46</title>
<g id="a_node37"><a xlink:href="sitemap_ConstructIndexXml%2Cf%2Cstack+%22lib_Sitemap%22%2C1" xlink:title="sitemap_ConstructIndexXml">
<ellipse fill="GreenYellow" stroke="#008b00" cx="2603" cy="-324" rx="112.064" ry="18"/>
<text text-anchor="middle" x="2603" y="-319.8" font-family="Times,serif" font-size="14.00">sitemap_ConstructIndexXml</text>
</a>
</g>
</g>
<!-- n46&#45;&gt;n7 -->
<g id="edge33" class="edge"><title>n46&#45;&gt;n7</title>
<path fill="none" stroke="black" d="M2679.99,-310.874C2694.58,-308.949 2709.73,-307.2 2724,-306 2865.22,-294.123 3864.75,-315.405 3999,-270 4024.94,-261.227 4023.31,-243.482 4049,-234 4089.17,-219.175 4103.75,-237.473 4145,-226 4165.79,-220.217 4187.47,-209.868 4204.86,-200.351"/>
<polygon fill="black" stroke="black" points="4207.05,-203.136 4214.05,-195.183 4203.62,-197.035 4207.05,-203.136"/>
</g>
<!-- n46&#45;&gt;n5 -->
<g id="edge32" class="edge"><title>n46&#45;&gt;n5</title>
<path fill="none" stroke="black" d="M2667,-309.087C2720.12,-297.539 2795.69,-281.11 2851.32,-269.017"/>
<polygon fill="black" stroke="black" points="2852.09,-272.432 2861.12,-266.887 2850.6,-265.591 2852.09,-272.432"/>
</g>
<!-- n46&#45;&gt;n8 -->
<g id="edge34" class="edge"><title>n46&#45;&gt;n8</title>
<path fill="none" stroke="black" d="M2679.99,-310.887C2694.58,-308.96 2709.73,-307.208 2724,-306 2860.13,-294.479 3823.56,-313.688 3953,-270 3993.64,-256.284 4032.53,-224.793 4056.32,-202.719"/>
<polygon fill="black" stroke="black" points="4058.95,-205.054 4063.8,-195.633 4054.13,-199.975 4058.95,-205.054"/>
</g>
<!-- n26 -->
<g id="node38" class="node"><title>n26</title>
<g id="a_node38"><a xlink:href="sitemap_HapRefinementToMediaTypes%2Cf%2Cstack+%22lib_Sitemap%22%2C1" xlink:title="sitemap_HapRefinementToMediaTypes">
<ellipse fill="GreenYellow" stroke="#008b00" cx="1701" cy="-252" rx="150.166" ry="18"/>
<text text-anchor="middle" x="1701" y="-247.8" font-family="Times,serif" font-size="14.00">sitemap_HapRefinementToMediaTypes</text>
</a>
</g>
</g>
<!-- n24 -->
<g id="node39" class="node"><title>n24</title>
<g id="a_node39"><a xlink:href="sitemap_ListFileIDs%2Cf%2Cstack+%22lib_Sitemap%22%2C1" xlink:title="sitemap_ListFileIDs">
<ellipse fill="GreenYellow" stroke="#008b00" cx="1470" cy="-324" rx="82.1458" ry="18"/>
<text text-anchor="middle" x="1470" y="-319.8" font-family="Times,serif" font-size="14.00">sitemap_ListFileIDs</text>
</a>
</g>
</g>
<!-- n24&#45;&gt;n25 -->
<g id="edge35" class="edge"><title>n24&#45;&gt;n25</title>
<path fill="none" stroke="black" d="M1454.27,-306.055C1446.4,-297.583 1436.73,-287.168 1428.04,-277.815"/>
<polygon fill="black" stroke="black" points="1430.41,-275.222 1421.04,-270.275 1425.28,-279.985 1430.41,-275.222"/>
</g>
<!-- n24&#45;&gt;n26 -->
<g id="edge36" class="edge"><title>n24&#45;&gt;n26</title>
<path fill="none" stroke="black" d="M1516.19,-309.003C1551.39,-298.336 1600.22,-283.54 1638.85,-271.835"/>
<polygon fill="black" stroke="black" points="1639.88,-275.18 1648.43,-268.93 1637.85,-268.48 1639.88,-275.18"/>
</g>
<!-- n22 -->
<g id="node40" class="node"><title>n22</title>
<g id="a_node40"><a xlink:href="sitemap_BuildFromUrls%2Cf%2Cstack+%22lib_Sitemap%22%2C1" xlink:title="sitemap_BuildFromUrls">
<ellipse fill="GreenYellow" stroke="#008b00" cx="2829" cy="-324" rx="96.169" ry="18"/>
<text text-anchor="middle" x="2829" y="-319.8" font-family="Times,serif" font-size="14.00">sitemap_BuildFromUrls</text>
</a>
</g>
</g>
<!-- n22&#45;&gt;n7 -->
<g id="edge37" class="edge"><title>n22&#45;&gt;n7</title>
<path fill="none" stroke="black" d="M2895.49,-310.919C2908.23,-308.977 2921.5,-307.21 2934,-306 3178.54,-282.318 3798.87,-321.938 4039,-270 4100.7,-256.656 4166.25,-222.784 4205.13,-200.342"/>
<polygon fill="black" stroke="black" points="4207.09,-203.252 4213.95,-195.181 4203.55,-197.21 4207.09,-203.252"/>
</g>
<!-- n22&#45;&gt;n8 -->
<g id="edge38" class="edge"><title>n22&#45;&gt;n8</title>
<path fill="none" stroke="black" d="M2895.49,-310.93C2908.23,-308.987 2921.5,-307.217 2934,-306 3052.4,-294.471 3897.11,-322.202 4004,-270 4032.32,-256.168 4053.95,-226.326 4066.77,-204.574"/>
<polygon fill="black" stroke="black" points="4069.84,-206.247 4071.71,-195.818 4063.75,-202.805 4069.84,-206.247"/>
</g>
<!-- n8&#45;&gt;n9 -->
<g id="edge40" class="edge"><title>n8&#45;&gt;n9</title>
<path fill="none" stroke="black" d="M4088.47,-160.055C4092.5,-152.007 4097.4,-142.205 4101.89,-133.226"/>
<polygon fill="black" stroke="black" points="4105.02,-134.785 4106.36,-124.275 4098.76,-131.654 4105.02,-134.785"/>
</g>
<!-- n8&#45;&gt;n19 -->
<g id="edge39" class="edge"><title>n8&#45;&gt;n19</title>
<path fill="none" stroke="black" d="M4114.47,-163.673C4141.79,-153.062 4180.91,-137.758 4215,-124 4217.23,-123.1 4219.53,-122.166 4221.84,-121.221"/>
<polygon fill="black" stroke="black" points="4223.4,-124.365 4231.31,-117.324 4220.74,-117.891 4223.4,-124.365"/>
</g>
<!-- n6&#45;&gt;n14 -->
<g id="edge42" class="edge"><title>n6&#45;&gt;n14</title>
<path fill="none" stroke="black" d="M2151,-233.937C2151,-225.807 2151,-215.876 2151,-206.705"/>
<polygon fill="black" stroke="black" points="2154.5,-206.441 2151,-196.441 2147.5,-206.441 2154.5,-206.441"/>
</g>
<!-- n15 -->
<g id="node45" class="node"><title>n15</title>
<g id="a_node45"><a xlink:href="sitemap_BuildImageSiteMap%2Cf%2Cstack+%22lib_Sitemap%22%2C1" xlink:title="sitemap_BuildImageSiteMap">
<ellipse fill="GreenYellow" stroke="#008b00" cx="1749" cy="-324" rx="113.509" ry="18"/>
<text text-anchor="middle" x="1749" y="-319.8" font-family="Times,serif" font-size="14.00">sitemap_BuildImageSiteMap</text>
</a>
</g>
</g>
<!-- n15&#45;&gt;n2 -->
<g id="edge44" class="edge"><title>n15&#45;&gt;n2</title>
<path fill="none" stroke="black" d="M1828.3,-311.045C1842.5,-309.164 1857.17,-307.386 1871,-306 2131.08,-279.944 2198.63,-302.32 2458,-270 2465.46,-269.07 2473.24,-267.904 2480.95,-266.621"/>
<polygon fill="black" stroke="black" points="2481.78,-270.03 2491.04,-264.876 2480.59,-263.132 2481.78,-270.03"/>
</g>
<!-- n15&#45;&gt;n16 -->
<g id="edge43" class="edge"><title>n15&#45;&gt;n16</title>
<path fill="none" stroke="black" d="M1791.42,-307.291C1820.78,-296.415 1859.9,-281.926 1890.34,-270.651"/>
<polygon fill="black" stroke="black" points="1891.73,-273.868 1899.9,-267.113 1889.3,-267.304 1891.73,-273.868"/>
</g>
<!-- n15&#45;&gt;n3 -->
<g id="edge45" class="edge"><title>n15&#45;&gt;n3</title>
<path fill="none" stroke="black" d="M1827.63,-310.966C1842.03,-309.069 1856.95,-307.307 1871,-306 2210.36,-274.449 2298.82,-312.321 2637,-270 2643.77,-269.153 2650.8,-268.056 2657.79,-266.826"/>
<polygon fill="black" stroke="black" points="2658.76,-270.206 2667.96,-264.943 2657.49,-263.323 2658.76,-270.206"/>
</g>
<!-- n15&#45;&gt;n4 -->
<g id="edge46" class="edge"><title>n15&#45;&gt;n4</title>
<path fill="none" stroke="black" d="M1829.32,-311.205C1843.2,-309.338 1857.51,-307.524 1871,-306 2054.97,-285.218 2102.7,-295.989 2286,-270 2292.78,-269.038 2299.84,-267.889 2306.86,-266.648"/>
<polygon fill="black" stroke="black" points="2307.89,-270.019 2317.1,-264.776 2306.63,-263.133 2307.89,-270.019"/>
</g>
<!-- n15&#45;&gt;n7 -->
<g id="edge49" class="edge"><title>n15&#45;&gt;n7</title>
<path fill="none" stroke="black" d="M1826.62,-310.805C1841.33,-308.886 1856.61,-307.157 1871,-306 2594.17,-247.837 2780.45,-335.464 3503,-270 3603.86,-260.862 3627.13,-242.993 3728,-234 3774.16,-229.885 4099.98,-236.984 4145,-226 4166.46,-220.763 4188.69,-210.099 4206.25,-200.252"/>
<polygon fill="black" stroke="black" points="4208.06,-203.243 4214.97,-195.209 4204.56,-197.183 4208.06,-203.243"/>
</g>
<!-- n15&#45;&gt;n5 -->
<g id="edge47" class="edge"><title>n15&#45;&gt;n5</title>
<path fill="none" stroke="black" d="M1827.29,-310.912C1841.8,-309.009 1856.83,-307.257 1871,-306 2283.91,-269.349 2390.09,-306.651 2803,-270 2814.04,-269.02 2825.61,-267.74 2837.04,-266.322"/>
<polygon fill="black" stroke="black" points="2837.56,-269.785 2847.03,-265.045 2836.67,-262.841 2837.56,-269.785"/>
</g>
<!-- n15&#45;&gt;n8 -->
<g id="edge50" class="edge"><title>n15&#45;&gt;n8</title>
<path fill="none" stroke="black" d="M1826.95,-310.803C1841.56,-308.898 1856.72,-307.174 1871,-306 2493.99,-254.784 2652.86,-304.519 3277,-270 3465.39,-259.581 3511.61,-244.423 3700,-234 3734.63,-232.084 3979.03,-236.751 4012,-226 4027.52,-220.939 4042.67,-211.096 4054.72,-201.72"/>
<polygon fill="black" stroke="black" points="4056.98,-204.393 4062.53,-195.368 4052.57,-198.962 4056.98,-204.393"/>
</g>
<!-- n15&#45;&gt;n6 -->
<g id="edge48" class="edge"><title>n15&#45;&gt;n6</title>
<path fill="none" stroke="black" d="M1822.73,-310.161C1891.03,-298.268 1992.64,-280.575 2064.69,-268.028"/>
<polygon fill="black" stroke="black" points="2065.41,-271.457 2074.66,-266.293 2064.21,-264.561 2065.41,-271.457"/>
</g>
</g>
</svg>
