<?xml version="1.0" encoding="UTF-8" standalone="no"?>
<!DOCTYPE svg PUBLIC "-//W3C//DTD SVG 1.1//EN"
 "http://www.w3.org/Graphics/SVG/1.1/DTD/svg11.dtd">
<!-- Generated by graphviz version 2.38.0 (20140413.2041)
 -->
<!-- Title: dot_FromArray Pages: 1 -->
<svg width="2250pt" height="167pt"
 viewBox="0.00 0.00 2250.00 167.10" xmlns="http://www.w3.org/2000/svg" xmlns:xlink="http://www.w3.org/1999/xlink">
<g id="graph0" class="graph" transform="scale(0.532167 0.532167) rotate(0) translate(4 310)">
<title>dot_FromArray</title>
<polygon fill="white" stroke="none" points="-4,4 -4,-310 4224,-310 4224,4 -4,4"/>
<g id="clust3" class="cluster"><title>cluster1</title>
<polygon fill="#999999" stroke="#999999" points="8,-8 8,-298 4212,-298 4212,-8 8,-8"/>
<text text-anchor="middle" x="2110" y="-282.8" font-family="Times,serif" font-size="14.00">stack &quot;lib_DateTime&quot;</text>
</g>
<!-- n33 -->
<g id="node1" class="node"><title>n33</title>
<g id="a_node1"><a xlink:href="daysBetween%2Cf%2Cstack+%22lib_DateTime%22%2C1" xlink:title="daysBetween">
<ellipse fill="GreenYellow" stroke="#008b00" cx="4147" cy="-250" rx="57.0133" ry="18"/>
<text text-anchor="middle" x="4147" y="-245.8" font-family="Times,serif" font-size="14.00">daysBetween</text>
</a>
</g>
</g>
<!-- n2 -->
<g id="node2" class="node"><title>n2</title>
<g id="a_node2"><a xlink:href="date_Round%2Cf%2Cstack+%22lib_DateTime%22%2C1" xlink:title="date_Round">
<ellipse fill="GreenYellow" stroke="#008b00" cx="545" cy="-34" rx="52.6865" ry="18"/>
<text text-anchor="middle" x="545" y="-29.8" font-family="Times,serif" font-size="14.00">date_Round</text>
</a>
</g>
</g>
<!-- n28 -->
<g id="node3" class="node"><title>n28</title>
<g id="a_node3"><a xlink:href="day_Round%2Cf%2Cstack+%22lib_DateTime%22%2C1" xlink:title="day_Round">
<ellipse fill="GreenYellow" stroke="#008b00" cx="4021" cy="-250" rx="50.7655" ry="18"/>
<text text-anchor="middle" x="4021" y="-245.8" font-family="Times,serif" font-size="14.00">day_Round</text>
</a>
</g>
</g>
<!-- n31 -->
<g id="node4" class="node"><title>n31</title>
<g id="a_node4"><a xlink:href="month_GetPeriod%2Cf%2Cstack+%22lib_DateTime%22%2C1" xlink:title="month_GetPeriod">
<ellipse fill="GreenYellow" stroke="#008b00" cx="3879" cy="-250" rx="72.9739" ry="18"/>
<text text-anchor="middle" x="3879" y="-245.8" font-family="Times,serif" font-size="14.00">month_GetPeriod</text>
</a>
</g>
</g>
<!-- n27 -->
<g id="node5" class="node"><title>n27</title>
<g id="a_node5"><a xlink:href="date_FirstOfNextMonth%2Cf%2Cstack+%22lib_DateTime%22%2C1" xlink:title="date_FirstOfNextMonth">
<ellipse fill="GreenYellow" stroke="#008b00" cx="333" cy="-106" rx="95.6672" ry="18"/>
<text text-anchor="middle" x="333" y="-101.8" font-family="Times,serif" font-size="14.00">date_FirstOfNextMonth</text>
</a>
</g>
</g>
<!-- n27&#45;&gt;n2 -->
<g id="edge1" class="edge"><title>n27&#45;&gt;n2</title>
<path fill="none" stroke="black" d="M378.219,-90.0691C413.678,-78.3611 462.842,-62.1278 498.6,-50.3208"/>
<polygon fill="black" stroke="black" points="499.909,-53.5745 508.307,-47.1155 497.714,-46.9274 499.909,-53.5745"/>
</g>
<!-- n25 -->
<g id="node6" class="node"><title>n25</title>
<g id="a_node6"><a xlink:href="hour_GetPeriod%2Cf%2Cstack+%22lib_DateTime%22%2C1" xlink:title="hour_GetPeriod">
<ellipse fill="GreenYellow" stroke="#008b00" cx="3721" cy="-250" rx="66.6925" ry="18"/>
<text text-anchor="middle" x="3721" y="-245.8" font-family="Times,serif" font-size="14.00">hour_GetPeriod</text>
</a>
</g>
</g>
<!-- n23 -->
<g id="node7" class="node"><title>n23</title>
<g id="a_node7"><a xlink:href="day_AbreviatedName%2Cf%2Cstack+%22lib_DateTime%22%2C1" xlink:title="day_AbreviatedName">
<ellipse fill="GreenYellow" stroke="#008b00" cx="3549" cy="-250" rx="87.8979" ry="18"/>
<text text-anchor="middle" x="3549" y="-245.8" font-family="Times,serif" font-size="14.00">day_AbreviatedName</text>
</a>
</g>
</g>
<!-- n18 -->
<g id="node8" class="node"><title>n18</title>
<g id="a_node8"><a xlink:href="addDays%2Cf%2Cstack+%22lib_DateTime%22%2C1" xlink:title="addDays">
<ellipse fill="GreenYellow" stroke="#008b00" cx="845" cy="-34" rx="41.1007" ry="18"/>
<text text-anchor="middle" x="845" y="-29.8" font-family="Times,serif" font-size="14.00">addDays</text>
</a>
</g>
</g>
<!-- n9 -->
<g id="node9" class="node"><title>n9</title>
<g id="a_node9"><a xlink:href="weekNum%2Cf%2Cstack+%22lib_DateTime%22%2C1" xlink:title="weekNum">
<ellipse fill="GreenYellow" stroke="#008b00" cx="3379" cy="-250" rx="46.4046" ry="18"/>
<text text-anchor="middle" x="3379" y="-245.8" font-family="Times,serif" font-size="14.00">weekNum</text>
</a>
</g>
</g>
<!-- n9&#45;&gt;n9 -->
<g id="edge4" class="edge"><title>n9&#45;&gt;n9</title>
<path fill="none" stroke="black" d="M3411.5,-263.025C3428.3,-265.029 3443.45,-260.688 3443.45,-250 3443.45,-241.567 3434.02,-237.085 3421.79,-236.554"/>
<polygon fill="black" stroke="black" points="3421.35,-233.068 3411.5,-236.975 3421.63,-240.063 3421.35,-233.068"/>
</g>
<!-- n10 -->
<g id="node17" class="node"><title>n10</title>
<g id="a_node17"><a xlink:href="convertDate%2Cf%2Cstack+%22lib_DateTime%22%2C1" xlink:title="convertDate">
<ellipse fill="GreenYellow" stroke="#008b00" cx="3390" cy="-106" rx="53.1367" ry="18"/>
<text text-anchor="middle" x="3390" y="-101.8" font-family="Times,serif" font-size="14.00">convertDate</text>
</a>
</g>
</g>
<!-- n9&#45;&gt;n10 -->
<g id="edge2" class="edge"><title>n9&#45;&gt;n10</title>
<path fill="none" stroke="black" d="M3391.82,-232.377C3398.68,-222.42 3406.43,-209.17 3410,-196 3415.64,-175.172 3409.61,-151.303 3402.74,-133.529"/>
<polygon fill="black" stroke="black" points="3405.77,-131.707 3398.67,-123.838 3399.31,-134.414 3405.77,-131.707"/>
</g>
<!-- n11 -->
<g id="node37" class="node"><title>n11</title>
<g id="a_node37"><a xlink:href="dayNum%2Cf%2Cstack+%22lib_DateTime%22%2C1" xlink:title="dayNum">
<ellipse fill="GreenYellow" stroke="#008b00" cx="3360" cy="-178" rx="40.6248" ry="18"/>
<text text-anchor="middle" x="3360" y="-173.8" font-family="Times,serif" font-size="14.00">dayNum</text>
</a>
</g>
</g>
<!-- n9&#45;&gt;n11 -->
<g id="edge3" class="edge"><title>n9&#45;&gt;n11</title>
<path fill="none" stroke="black" d="M3374.4,-232.055C3372.29,-224.261 3369.72,-214.822 3367.35,-206.079"/>
<polygon fill="black" stroke="black" points="3370.69,-205.009 3364.69,-196.275 3363.93,-206.843 3370.69,-205.009"/>
</g>
<!-- n38 -->
<g id="node10" class="node"><title>n38</title>
<g id="a_node10"><a xlink:href="date_ConstructWc3Datetime%2Cf%2Cstack+%22lib_DateTime%22%2C1" xlink:title="date_ConstructWc3Datetime">
<ellipse fill="GreenYellow" stroke="#008b00" cx="3202" cy="-250" rx="112.505" ry="18"/>
<text text-anchor="middle" x="3202" y="-245.8" font-family="Times,serif" font-size="14.00">date_ConstructWc3Datetime</text>
</a>
</g>
</g>
<!-- n16 -->
<g id="node16" class="node"><title>n16</title>
<g id="a_node16"><a xlink:href="date_Construct8601%2Cf%2Cstack+%22lib_DateTime%22%2C1" xlink:title="date_Construct8601">
<ellipse fill="GreenYellow" stroke="#008b00" cx="3202" cy="-178" rx="81.1681" ry="18"/>
<text text-anchor="middle" x="3202" y="-173.8" font-family="Times,serif" font-size="14.00">date_Construct8601</text>
</a>
</g>
</g>
<!-- n38&#45;&gt;n16 -->
<g id="edge5" class="edge"><title>n38&#45;&gt;n16</title>
<path fill="none" stroke="black" d="M3202,-231.697C3202,-223.983 3202,-214.712 3202,-206.112"/>
<polygon fill="black" stroke="black" points="3205.5,-206.104 3202,-196.104 3198.5,-206.104 3205.5,-206.104"/>
</g>
<!-- n5 -->
<g id="node11" class="node"><title>n5</title>
<g id="a_node11"><a xlink:href="month_Name%2Cf%2Cstack+%22lib_DateTime%22%2C1" xlink:title="month_Name">
<ellipse fill="GreenYellow" stroke="#008b00" cx="3013" cy="-250" rx="58.491" ry="18"/>
<text text-anchor="middle" x="3013" y="-245.8" font-family="Times,serif" font-size="14.00">month_Name</text>
</a>
</g>
</g>
<!-- n21 -->
<g id="node12" class="node"><title>n21</title>
<g id="a_node12"><a xlink:href="day_Name%2Cf%2Cstack+%22lib_DateTime%22%2C1" xlink:title="day_Name">
<ellipse fill="GreenYellow" stroke="#008b00" cx="2888" cy="-250" rx="48.3255" ry="18"/>
<text text-anchor="middle" x="2888" y="-245.8" font-family="Times,serif" font-size="14.00">day_Name</text>
</a>
</g>
</g>
<!-- n40 -->
<g id="node13" class="node"><title>n40</title>
<g id="a_node13"><a xlink:href="day_Number%2Cf%2Cstack+%22lib_DateTime%22%2C1" xlink:title="day_Number">
<ellipse fill="GreenYellow" stroke="#008b00" cx="2765" cy="-250" rx="56.0528" ry="18"/>
<text text-anchor="middle" x="2765" y="-245.8" font-family="Times,serif" font-size="14.00">day_Number</text>
</a>
</g>
</g>
<!-- n42 -->
<g id="node14" class="node"><title>n42</title>
<g id="a_node14"><a xlink:href="date_NextFinancialYear%2Cf%2Cstack+%22lib_DateTime%22%2C1" xlink:title="date_NextFinancialYear">
<ellipse fill="GreenYellow" stroke="#008b00" cx="2595" cy="-250" rx="95.8142" ry="18"/>
<text text-anchor="middle" x="2595" y="-245.8" font-family="Times,serif" font-size="14.00">date_NextFinancialYear</text>
</a>
</g>
</g>
<!-- n14 -->
<g id="node15" class="node"><title>n14</title>
<g id="a_node15"><a xlink:href="day_Suffix%2Cf%2Cstack+%22lib_DateTime%22%2C1" xlink:title="day_Suffix">
<ellipse fill="GreenYellow" stroke="#008b00" cx="2432" cy="-250" rx="48.8445" ry="18"/>
<text text-anchor="middle" x="2432" y="-245.8" font-family="Times,serif" font-size="14.00">day_Suffix</text>
</a>
</g>
</g>
<!-- n7 -->
<g id="node18" class="node"><title>n7</title>
<g id="a_node18"><a xlink:href="date_ConvertEnglish%2Cf%2Cstack+%22lib_DateTime%22%2C1" xlink:title="date_ConvertEnglish">
<ellipse fill="GreenYellow" stroke="#008b00" cx="2280" cy="-250" rx="84.5427" ry="18"/>
<text text-anchor="middle" x="2280" y="-245.8" font-family="Times,serif" font-size="14.00">date_ConvertEnglish</text>
</a>
</g>
</g>
<!-- n1 -->
<g id="node19" class="node"><title>n1</title>
<g id="a_node19"><a xlink:href="date_FirstOfMonth%2Cf%2Cstack+%22lib_DateTime%22%2C1" xlink:title="date_FirstOfMonth">
<ellipse fill="GreenYellow" stroke="#008b00" cx="247" cy="-178" rx="78.2866" ry="18"/>
<text text-anchor="middle" x="247" y="-173.8" font-family="Times,serif" font-size="14.00">date_FirstOfMonth</text>
</a>
</g>
</g>
<!-- n1&#45;&gt;n2 -->
<g id="edge7" class="edge"><title>n1&#45;&gt;n2</title>
<path fill="none" stroke="black" d="M235.728,-159.861C224.391,-140.256 210.848,-108.257 228,-88 259.93,-50.2885 399.411,-39.3896 482.343,-36.2536"/>
<polygon fill="black" stroke="black" points="482.541,-39.7489 492.412,-35.9003 482.296,-32.7532 482.541,-39.7489"/>
</g>
<!-- n3 -->
<g id="node20" class="node"><title>n3</title>
<g id="a_node20"><a xlink:href="day_DaysBefore%2Cf%2Cstack+%22lib_DateTime%22%2C1" xlink:title="day_DaysBefore">
<ellipse fill="GreenYellow" stroke="#008b00" cx="1056" cy="-34" rx="69.565" ry="18"/>
<text text-anchor="middle" x="1056" y="-29.8" font-family="Times,serif" font-size="14.00">day_DaysBefore</text>
</a>
</g>
</g>
<!-- n30 -->
<g id="node21" class="node"><title>n30</title>
<g id="a_node21"><a xlink:href="date_EndOfMonth%2Cf%2Cstack+%22lib_DateTime%22%2C1" xlink:title="date_EndOfMonth">
<ellipse fill="GreenYellow" stroke="#008b00" cx="448" cy="-178" rx="76.3398" ry="18"/>
<text text-anchor="middle" x="448" y="-173.8" font-family="Times,serif" font-size="14.00">date_EndOfMonth</text>
</a>
</g>
</g>
<!-- n30&#45;&gt;n2 -->
<g id="edge12" class="edge"><title>n30&#45;&gt;n2</title>
<path fill="none" stroke="black" d="M445.692,-159.803C444.036,-140.723 444.12,-109.761 458,-88 468.018,-72.2942 484.519,-60.5404 500.474,-52.1453"/>
<polygon fill="black" stroke="black" points="502.32,-55.1379 509.751,-47.5861 499.233,-48.8555 502.32,-55.1379"/>
</g>
<!-- n30&#45;&gt;n27 -->
<g id="edge11" class="edge"><title>n30&#45;&gt;n27</title>
<path fill="none" stroke="black" d="M421.617,-160.941C405.918,-151.385 385.792,-139.134 368.688,-128.723"/>
<polygon fill="black" stroke="black" points="370.421,-125.68 360.059,-123.471 366.781,-131.66 370.421,-125.68"/>
</g>
<!-- n30&#45;&gt;n18 -->
<g id="edge10" class="edge"><title>n30&#45;&gt;n18</title>
<path fill="none" stroke="black" d="M521.838,-173.241C610.067,-167.472 751.161,-153.804 794,-124 809.025,-113.547 804.934,-103.901 814,-88 819.172,-78.9277 824.926,-69.0372 830.058,-60.2834"/>
<polygon fill="black" stroke="black" points="833.081,-62.0488 835.132,-51.6544 827.046,-58.501 833.081,-62.0488"/>
</g>
<!-- n34 -->
<g id="node22" class="node"><title>n34</title>
<g id="a_node22"><a xlink:href="date_ExtractYear%2Cf%2Cstack+%22lib_DateTime%22%2C1" xlink:title="date_ExtractYear">
<ellipse fill="GreenYellow" stroke="#008b00" cx="2106" cy="-250" rx="71.1828" ry="18"/>
<text text-anchor="middle" x="2106" y="-245.8" font-family="Times,serif" font-size="14.00">date_ExtractYear</text>
</a>
</g>
</g>
<!-- n12 -->
<g id="node23" class="node"><title>n12</title>
<g id="a_node23"><a xlink:href="date_IsLeapYear%2Cf%2Cstack+%22lib_DateTime%22%2C1" xlink:title="date_IsLeapYear">
<ellipse fill="GreenYellow" stroke="#008b00" cx="1261" cy="-106" rx="69.7379" ry="18"/>
<text text-anchor="middle" x="1261" y="-101.8" font-family="Times,serif" font-size="14.00">date_IsLeapYear</text>
</a>
</g>
</g>
<!-- n26 -->
<g id="node24" class="node"><title>n26</title>
<g id="a_node24"><a xlink:href="addHours%2Cf%2Cstack+%22lib_DateTime%22%2C1" xlink:title="addHours">
<ellipse fill="GreenYellow" stroke="#008b00" cx="1972" cy="-250" rx="44.4837" ry="18"/>
<text text-anchor="middle" x="1972" y="-245.8" font-family="Times,serif" font-size="14.00">addHours</text>
</a>
</g>
</g>
<!-- n22 -->
<g id="node25" class="node"><title>n22</title>
<g id="a_node25"><a xlink:href="day_MondayBefore%2Cf%2Cstack+%22lib_DateTime%22%2C1" xlink:title="day_MondayBefore">
<ellipse fill="GreenYellow" stroke="#008b00" cx="904" cy="-106" rx="80.6663" ry="18"/>
<text text-anchor="middle" x="904" y="-101.8" font-family="Times,serif" font-size="14.00">day_MondayBefore</text>
</a>
</g>
</g>
<!-- n22&#45;&gt;n2 -->
<g id="edge16" class="edge"><title>n22&#45;&gt;n2</title>
<path fill="none" stroke="black" d="M845.12,-93.5193C777.006,-80.2379 665.761,-58.5468 599.543,-45.6352"/>
<polygon fill="black" stroke="black" points="600.198,-42.1971 589.713,-43.7185 598.859,-49.0677 600.198,-42.1971"/>
</g>
<!-- n22&#45;&gt;n18 -->
<g id="edge15" class="edge"><title>n22&#45;&gt;n18</title>
<path fill="none" stroke="black" d="M889.718,-88.055C882.364,-79.3303 873.273,-68.5444 865.212,-58.9808"/>
<polygon fill="black" stroke="black" points="867.865,-56.6976 858.744,-51.307 862.513,-61.209 867.865,-56.6976"/>
</g>
<!-- n22&#45;&gt;n3 -->
<g id="edge17" class="edge"><title>n22&#45;&gt;n3</title>
<path fill="none" stroke="black" d="M937.734,-89.4647C960.28,-79.0817 990.102,-65.3476 1014.16,-54.2689"/>
<polygon fill="black" stroke="black" points="1015.78,-57.3735 1023.4,-50.0114 1012.86,-51.0154 1015.78,-57.3735"/>
</g>
<!-- n20 -->
<g id="node26" class="node"><title>n20</title>
<g id="a_node26"><a xlink:href="date_ExtractMonthName%2Cf%2Cstack+%22lib_DateTime%22%2C1" xlink:title="date_ExtractMonthName">
<ellipse fill="GreenYellow" stroke="#008b00" cx="1810" cy="-250" rx="99.4829" ry="18"/>
<text text-anchor="middle" x="1810" y="-245.8" font-family="Times,serif" font-size="14.00">date_ExtractMonthName</text>
</a>
</g>
</g>
<!-- n19 -->
<g id="node27" class="node"><title>n19</title>
<g id="a_node27"><a xlink:href="isLater%2Cf%2Cstack+%22lib_DateTime%22%2C1" xlink:title="isLater">
<ellipse fill="GreenYellow" stroke="#008b00" cx="1658" cy="-250" rx="34.8198" ry="18"/>
<text text-anchor="middle" x="1658" y="-245.8" font-family="Times,serif" font-size="14.00">isLater</text>
</a>
</g>
</g>
<!-- n8 -->
<g id="node28" class="node"><title>n8</title>
<g id="a_node28"><a xlink:href="date_CombineWithTime%2Cf%2Cstack+%22lib_DateTime%22%2C1" xlink:title="date_CombineWithTime">
<ellipse fill="GreenYellow" stroke="#008b00" cx="1508" cy="-250" rx="97.2427" ry="18"/>
<text text-anchor="middle" x="1508" y="-245.8" font-family="Times,serif" font-size="14.00">date_CombineWithTime</text>
</a>
</g>
</g>
<!-- n39 -->
<g id="node29" class="node"><title>n39</title>
<g id="a_node29"><a xlink:href="day_MondayAfter%2Cf%2Cstack+%22lib_DateTime%22%2C1" xlink:title="day_MondayAfter">
<ellipse fill="GreenYellow" stroke="#008b00" cx="1098" cy="-106" rx="75.3621" ry="18"/>
<text text-anchor="middle" x="1098" y="-101.8" font-family="Times,serif" font-size="14.00">day_MondayAfter</text>
</a>
</g>
</g>
<!-- n39&#45;&gt;n2 -->
<g id="edge19" class="edge"><title>n39&#45;&gt;n2</title>
<path fill="none" stroke="black" d="M1038.67,-94.834C1024.08,-92.4637 1008.49,-90.0389 994,-88 855.075,-68.456 691.271,-50.3673 605.049,-41.2286"/>
<polygon fill="black" stroke="black" points="605.238,-37.7292 594.925,-40.159 604.502,-44.6904 605.238,-37.7292"/>
</g>
<!-- n39&#45;&gt;n18 -->
<g id="edge18" class="edge"><title>n39&#45;&gt;n18</title>
<path fill="none" stroke="black" d="M1050.71,-91.9157C1004.17,-79.0395 933.7,-59.5416 888.513,-47.0393"/>
<polygon fill="black" stroke="black" points="889.287,-43.6219 878.716,-44.3285 887.421,-50.3685 889.287,-43.6219"/>
</g>
<!-- n39&#45;&gt;n3 -->
<g id="edge20" class="edge"><title>n39&#45;&gt;n3</title>
<path fill="none" stroke="black" d="M1087.83,-88.055C1082.95,-79.922 1077,-69.998 1071.57,-60.9426"/>
<polygon fill="black" stroke="black" points="1074.51,-59.0495 1066.37,-52.2753 1068.51,-62.651 1074.51,-59.0495"/>
</g>
<!-- n4 -->
<g id="node30" class="node"><title>n4</title>
<g id="a_node30"><a xlink:href="date_PadTwoZeros%2Cf%2Cstack+%22lib_DateTime%22%2C1" xlink:title="date_PadTwoZeros">
<ellipse fill="GreenYellow" stroke="#008b00" cx="1314" cy="-250" rx="78.0023" ry="18"/>
<text text-anchor="middle" x="1314" y="-245.8" font-family="Times,serif" font-size="14.00">date_PadTwoZeros</text>
</a>
</g>
</g>
<!-- n6 -->
<g id="node31" class="node"><title>n6</title>
<g id="a_node31"><a xlink:href="weeksBetween%2Cf%2Cstack+%22lib_DateTime%22%2C1" xlink:title="weeksBetween">
<ellipse fill="GreenYellow" stroke="#008b00" cx="1155" cy="-250" rx="63.2924" ry="18"/>
<text text-anchor="middle" x="1155" y="-245.8" font-family="Times,serif" font-size="14.00">weeksBetween</text>
</a>
</g>
</g>
<!-- n35 -->
<g id="node32" class="node"><title>n35</title>
<g id="a_node32"><a xlink:href="date_IsEarlier%2Cf%2Cstack+%22lib_DateTime%22%2C1" xlink:title="date_IsEarlier">
<ellipse fill="GreenYellow" stroke="#008b00" cx="1014" cy="-250" rx="59.901" ry="18"/>
<text text-anchor="middle" x="1014" y="-245.8" font-family="Times,serif" font-size="14.00">date_IsEarlier</text>
</a>
</g>
</g>
<!-- n37 -->
<g id="node33" class="node"><title>n37</title>
<g id="a_node33"><a xlink:href="date_MaxDaysInMonth%2Cf%2Cstack+%22lib_DateTime%22%2C1" xlink:title="date_MaxDaysInMonth">
<ellipse fill="GreenYellow" stroke="#008b00" cx="1182" cy="-178" rx="94.6896" ry="18"/>
<text text-anchor="middle" x="1182" y="-173.8" font-family="Times,serif" font-size="14.00">date_MaxDaysInMonth</text>
</a>
</g>
</g>
<!-- n37&#45;&gt;n12 -->
<g id="edge21" class="edge"><title>n37&#45;&gt;n12</title>
<path fill="none" stroke="black" d="M1201.12,-160.055C1211.19,-151.134 1223.69,-140.057 1234.66,-130.336"/>
<polygon fill="black" stroke="black" points="1237.16,-132.799 1242.33,-123.547 1232.52,-127.56 1237.16,-132.799"/>
</g>
<!-- n41 -->
<g id="node34" class="node"><title>n41</title>
<g id="a_node34"><a xlink:href="day_SundayAfter%2Cf%2Cstack+%22lib_DateTime%22%2C1" xlink:title="day_SundayAfter">
<ellipse fill="GreenYellow" stroke="#008b00" cx="713" cy="-106" rx="72.4722" ry="18"/>
<text text-anchor="middle" x="713" y="-101.8" font-family="Times,serif" font-size="14.00">day_SundayAfter</text>
</a>
</g>
</g>
<!-- n41&#45;&gt;n2 -->
<g id="edge23" class="edge"><title>n41&#45;&gt;n2</title>
<path fill="none" stroke="black" d="M677.372,-90.1548C650.834,-79.0977 614.527,-63.9694 586.648,-52.3534"/>
<polygon fill="black" stroke="black" points="587.745,-49.019 577.168,-48.4035 585.053,-55.4805 587.745,-49.019"/>
</g>
<!-- n41&#45;&gt;n18 -->
<g id="edge22" class="edge"><title>n41&#45;&gt;n18</title>
<path fill="none" stroke="black" d="M742.295,-89.4647C762.541,-78.7283 789.543,-64.4089 810.78,-53.1472"/>
<polygon fill="black" stroke="black" points="812.593,-56.1472 819.788,-48.37 809.314,-49.9629 812.593,-56.1472"/>
</g>
<!-- n43 -->
<g id="node35" class="node"><title>n43</title>
<g id="a_node35"><a xlink:href="year_Number%2Cf%2Cstack+%22lib_DateTime%22%2C1" xlink:title="year_Number">
<ellipse fill="GreenYellow" stroke="#008b00" cx="878" cy="-250" rx="58.9494" ry="18"/>
<text text-anchor="middle" x="878" y="-245.8" font-family="Times,serif" font-size="14.00">year_Number</text>
</a>
</g>
</g>
<!-- n17 -->
<g id="node36" class="node"><title>n17</title>
<g id="a_node36"><a xlink:href="day_SundayBefore%2Cf%2Cstack+%22lib_DateTime%22%2C1" xlink:title="day_SundayBefore">
<ellipse fill="GreenYellow" stroke="#008b00" cx="545" cy="-106" rx="77.7762" ry="18"/>
<text text-anchor="middle" x="545" y="-101.8" font-family="Times,serif" font-size="14.00">day_SundayBefore</text>
</a>
</g>
</g>
<!-- n17&#45;&gt;n2 -->
<g id="edge25" class="edge"><title>n17&#45;&gt;n2</title>
<path fill="none" stroke="black" d="M545,-87.6966C545,-79.9827 545,-70.7125 545,-62.1124"/>
<polygon fill="black" stroke="black" points="548.5,-62.1043 545,-52.1043 541.5,-62.1044 548.5,-62.1043"/>
</g>
<!-- n17&#45;&gt;n18 -->
<g id="edge24" class="edge"><title>n17&#45;&gt;n18</title>
<path fill="none" stroke="black" d="M597.943,-92.6465C655.149,-79.2986 745.359,-58.2495 799.491,-45.6188"/>
<polygon fill="black" stroke="black" points="800.546,-48.9667 809.489,-43.2859 798.955,-42.1498 800.546,-48.9667"/>
</g>
<!-- n11&#45;&gt;n10 -->
<g id="edge26" class="edge"><title>n11&#45;&gt;n10</title>
<path fill="none" stroke="black" d="M3367.26,-160.055C3370.68,-152.091 3374.82,-142.411 3378.64,-133.51"/>
<polygon fill="black" stroke="black" points="3381.87,-134.845 3382.6,-124.275 3375.44,-132.088 3381.87,-134.845"/>
</g>
<!-- n13 -->
<g id="node38" class="node"><title>n13</title>
<g id="a_node38"><a xlink:href="addWeeks%2Cf%2Cstack+%22lib_DateTime%22%2C1" xlink:title="addWeeks">
<ellipse fill="GreenYellow" stroke="#008b00" cx="755" cy="-250" rx="46.4652" ry="18"/>
<text text-anchor="middle" x="755" y="-245.8" font-family="Times,serif" font-size="14.00">addWeeks</text>
</a>
</g>
</g>
<!-- n36 -->
<g id="node39" class="node"><title>n36</title>
<g id="a_node39"><a xlink:href="date_AddMonth%2Cc%2Cstack+%22lib_DateTime%22%2C1" xlink:title="date_AddMonth">
<ellipse fill="LightBlue" stroke="Blue" cx="623" cy="-250" rx="68.146" ry="18"/>
<text text-anchor="middle" x="623" y="-245.8" font-family="Times,serif" font-size="14.00">date_AddMonth</text>
</a>
</g>
</g>
<!-- n36&#45;&gt;n37 -->
<g id="edge6" class="edge"><title>n36&#45;&gt;n37</title>
<path fill="none" stroke="black" d="M671.723,-237.386C681.073,-235.401 690.812,-233.499 700,-232 849.101,-207.678 887.871,-212.856 1038,-196 1056.15,-193.962 1075.58,-191.713 1094.11,-189.537"/>
<polygon fill="black" stroke="black" points="1094.77,-192.983 1104.3,-188.338 1093.96,-186.032 1094.77,-192.983"/>
</g>
<!-- n29 -->
<g id="node40" class="node"><title>n29</title>
<g id="a_node40"><a xlink:href="period_MonthStarting%2Cc%2Cstack+%22lib_DateTime%22%2C1" xlink:title="period_MonthStarting">
<ellipse fill="LightBlue" stroke="Blue" cx="448" cy="-250" rx="88.9188" ry="18"/>
<text text-anchor="middle" x="448" y="-245.8" font-family="Times,serif" font-size="14.00">period_MonthStarting</text>
</a>
</g>
</g>
<!-- n29&#45;&gt;n1 -->
<g id="edge9" class="edge"><title>n29&#45;&gt;n1</title>
<path fill="none" stroke="black" d="M405.373,-234.155C373.908,-223.197 330.961,-208.24 297.728,-196.666"/>
<polygon fill="black" stroke="black" points="298.786,-193.329 288.191,-193.345 296.483,-199.939 298.786,-193.329"/>
</g>
<!-- n29&#45;&gt;n30 -->
<g id="edge8" class="edge"><title>n29&#45;&gt;n30</title>
<path fill="none" stroke="black" d="M448,-231.697C448,-223.983 448,-214.712 448,-206.112"/>
<polygon fill="black" stroke="black" points="451.5,-206.104 448,-196.104 444.5,-206.104 451.5,-206.104"/>
</g>
<!-- n32 -->
<g id="node41" class="node"><title>n32</title>
<g id="a_node41"><a xlink:href="date_Convert8601%2Cc%2Cstack+%22lib_DateTime%22%2C1" xlink:title="date_Convert8601">
<ellipse fill="LightBlue" stroke="Blue" cx="266" cy="-250" rx="75.3707" ry="18"/>
<text text-anchor="middle" x="266" y="-245.8" font-family="Times,serif" font-size="14.00">date_Convert8601</text>
</a>
</g>
</g>
<!-- n24 -->
<g id="node42" class="node"><title>n24</title>
<g id="a_node42"><a xlink:href="period_WeekStarting%2Cc%2Cstack+%22lib_DateTime%22%2C1" xlink:title="period_WeekStarting">
<ellipse fill="LightBlue" stroke="Blue" cx="944" cy="-178" rx="85.0776" ry="18"/>
<text text-anchor="middle" x="944" y="-173.8" font-family="Times,serif" font-size="14.00">period_WeekStarting</text>
</a>
</g>
</g>
<!-- n24&#45;&gt;n18 -->
<g id="edge13" class="edge"><title>n24&#45;&gt;n18</title>
<path fill="none" stroke="black" d="M964.853,-160.315C985.216,-141.959 1010.86,-111.893 994,-88 971.907,-56.6923 929.619,-43.7685 895.721,-38.4889"/>
<polygon fill="black" stroke="black" points="895.886,-34.9786 885.503,-37.0839 894.933,-41.9134 895.886,-34.9786"/>
</g>
<!-- n24&#45;&gt;n22 -->
<g id="edge14" class="edge"><title>n24&#45;&gt;n22</title>
<path fill="none" stroke="black" d="M934.317,-160.055C929.718,-152.007 924.117,-142.205 918.986,-133.226"/>
<polygon fill="black" stroke="black" points="921.872,-131.221 913.872,-124.275 915.794,-134.694 921.872,-131.221"/>
</g>
<!-- n15 -->
<g id="node43" class="node"><title>n15</title>
<g id="a_node43"><a xlink:href="date_Wc3Datetime%2Cc%2Cstack+%22lib_DateTime%22%2C1" xlink:title="date_Wc3Datetime">
<ellipse fill="LightBlue" stroke="Blue" cx="94" cy="-250" rx="78.2263" ry="18"/>
<text text-anchor="middle" x="94" y="-245.8" font-family="Times,serif" font-size="14.00">date_Wc3Datetime</text>
</a>
</g>
</g>
</g>
</svg>
