<?xml version="1.0" encoding="UTF-8" standalone="no"?>
<!DOCTYPE svg PUBLIC "-//W3C//DTD SVG 1.1//EN"
 "http://www.w3.org/Graphics/SVG/1.1/DTD/svg11.dtd">
<!-- Generated by graphviz version 2.38.0 (20140413.2041)
 -->
<!-- Title: dot_FromArray Pages: 1 -->
<svg width="2250pt" height="610pt"
 viewBox="0.00 0.00 2250.00 609.70" xmlns="http://www.w3.org/2000/svg" xmlns:xlink="http://www.w3.org/1999/xlink">
<g id="graph0" class="graph" transform="scale(0.734574 0.734574) rotate(0) translate(4 826)">
<title>dot_FromArray</title>
<polygon fill="white" stroke="none" points="-4,4 -4,-826 3059,-826 3059,4 -4,4"/>
<g id="clust5" class="cluster"><title>cluster1</title>
<polygon fill="#999999" stroke="#999999" points="8,-668 8,-814 3047,-814 3047,-668 8,-668"/>
<text text-anchor="middle" x="1527.5" y="-798.8" font-family="Times,serif" font-size="14.00">stack &quot;lib_RemoteServer&quot;</text>
</g>
<g id="clust6" class="cluster"><title>cluster2</title>
<polygon fill="#999999" stroke="#999999" points="446,-442 446,-660 666,-660 666,-442 446,-442"/>
<text text-anchor="middle" x="556" y="-644.8" font-family="Times,serif" font-size="14.00">stack &quot;lib_RevIgniter&quot;</text>
</g>
<g id="clust7" class="cluster"><title>cluster3</title>
<polygon fill="#999999" stroke="#999999" points="1660,-442 1660,-660 2254,-660 2254,-442 1660,-442"/>
<text text-anchor="middle" x="1957" y="-644.8" font-family="Times,serif" font-size="14.00">stack &quot;lib_Shell&quot;</text>
</g>
<g id="clust8" class="cluster"><title>cluster4</title>
<polygon fill="#999999" stroke="#999999" points="228,-514 228,-660 438,-660 438,-514 228,-514"/>
<text text-anchor="middle" x="333" y="-644.8" font-family="Times,serif" font-size="14.00">stack &quot;lib_XML&quot;</text>
</g>
<g id="clust9" class="cluster"><title>cluster5</title>
<polygon fill="#999999" stroke="#999999" points="681,-152 681,-660 1191,-660 1191,-152 681,-152"/>
<text text-anchor="middle" x="936" y="-644.8" font-family="Times,serif" font-size="14.00">stack &quot;model_Prefs&quot;</text>
</g>
<g id="clust10" class="cluster"><title>cluster6</title>
<polygon fill="#999999" stroke="#999999" points="130,-8 130,-298 673,-298 673,-8 130,-8"/>
<text text-anchor="middle" x="401.5" y="-282.8" font-family="Times,serif" font-size="14.00">stack &quot;Rescue Livecode World&quot;</text>
</g>
<!-- n49 -->
<g id="node1" class="node"><title>n49</title>
<g id="a_node1"><a xlink:href="server_PreferenceArray%2Cg%2Cstack+%22lib_RemoteServer%22%2C1" xlink:title="server_PreferenceArray">
<ellipse fill="#7f7f7f" stroke="white" cx="2944" cy="-766" rx="94.6118" ry="18"/>
<text text-anchor="middle" x="2944" y="-761.8" font-family="Times,serif" font-size="14.00">server_PreferenceArray</text>
</a>
</g>
</g>
<!-- n14 -->
<g id="node2" class="node"><title>n14</title>
<g id="a_node2"><a xlink:href="kwote%2Cf%2Cstack+%22Rescue+Livecode+World%22%2C1" xlink:title="kwote">
<ellipse fill="GreenYellow" stroke="#008b00" cx="247" cy="-106" rx="31.9393" ry="18"/>
<text text-anchor="middle" x="247" y="-101.8" font-family="Times,serif" font-size="14.00">kwote</text>
</a>
</g>
</g>
<!-- n56 -->
<g id="node3" class="node"><title>n56</title>
<g id="a_node3"><a xlink:href="array_Fetch%2Cf%2Cstack+%22Rescue+Livecode+World%22%2C1" xlink:title="array_Fetch">
<ellipse fill="GreenYellow" stroke="#008b00" cx="428" cy="-250" rx="52.1762" ry="18"/>
<text text-anchor="middle" x="428" y="-245.8" font-family="Times,serif" font-size="14.00">array_Fetch</text>
</a>
</g>
</g>
<!-- n35 -->
<g id="node4" class="node"><title>n35</title>
<g id="a_node4"><a xlink:href="pref_FetchValue%2Cf%2Cstack+%22model_Prefs%22%2C1" xlink:title="pref_FetchValue">
<ellipse fill="GreenYellow" stroke="#008b00" cx="758" cy="-612" rx="68.596" ry="18"/>
<text text-anchor="middle" x="758" y="-607.8" font-family="Times,serif" font-size="14.00">pref_FetchValue</text>
</a>
</g>
</g>
<!-- n18 -->
<g id="node23" class="node"><title>n18</title>
<g id="a_node23"><a xlink:href="pref_FetchArray%2Cf%2Cstack+%22model_Prefs%22%2C1" xlink:title="pref_FetchArray">
<ellipse fill="GreenYellow" stroke="#008b00" cx="758" cy="-540" rx="69.0718" ry="18"/>
<text text-anchor="middle" x="758" y="-535.8" font-family="Times,serif" font-size="14.00">pref_FetchArray</text>
</a>
</g>
</g>
<!-- n35&#45;&gt;n18 -->
<g id="edge43" class="edge"><title>n35&#45;&gt;n18</title>
<path fill="none" stroke="black" d="M758,-593.697C758,-585.983 758,-576.712 758,-568.112"/>
<polygon fill="black" stroke="black" points="761.5,-568.104 758,-558.104 754.5,-568.104 761.5,-568.104"/>
</g>
<!-- n8 -->
<g id="node25" class="node"><title>n8</title>
<g id="a_node25"><a xlink:href="project_GetCurrentName%2Cf%2Cstack+%22model_Prefs%22%2C1" xlink:title="project_GetCurrentName">
<ellipse fill="GreenYellow" stroke="#008b00" cx="789" cy="-468" rx="99.9588" ry="18"/>
<text text-anchor="middle" x="789" y="-463.8" font-family="Times,serif" font-size="14.00">project_GetCurrentName</text>
</a>
</g>
</g>
<!-- n35&#45;&gt;n8 -->
<g id="edge44" class="edge"><title>n35&#45;&gt;n8</title>
<path fill="none" stroke="black" d="M793.273,-596.503C809.388,-587.881 826.883,-575.218 836,-558 845.151,-540.718 843.679,-531.985 836,-514 832.556,-505.935 826.88,-498.624 820.641,-492.351"/>
<polygon fill="black" stroke="black" points="822.892,-489.666 813.159,-485.48 818.157,-494.822 822.892,-489.666"/>
</g>
<!-- n53 -->
<g id="node5" class="node"><title>n53</title>
<g id="a_node5"><a xlink:href="server_ConstructPrefArray%2Cf%2Cstack+%22lib_RemoteServer%22%2C1" xlink:title="server_ConstructPrefArray">
<ellipse fill="GreenYellow" stroke="#008b00" cx="2726" cy="-766" rx="105.756" ry="18"/>
<text text-anchor="middle" x="2726" y="-761.8" font-family="Times,serif" font-size="14.00">server_ConstructPrefArray</text>
</a>
</g>
</g>
<!-- n10 -->
<g id="node6" class="node"><title>n10</title>
<g id="a_node6"><a xlink:href="server_FetchFile%2Cf%2Cstack+%22lib_RemoteServer%22%2C1" xlink:title="server_FetchFile">
<ellipse fill="GreenYellow" stroke="#008b00" cx="2159" cy="-766" rx="69.5736" ry="18"/>
<text text-anchor="middle" x="2159" y="-761.8" font-family="Times,serif" font-size="14.00">server_FetchFile</text>
</a>
</g>
</g>
<!-- n11 -->
<g id="node13" class="node"><title>n11</title>
<g id="a_node13"><a xlink:href="shell_FetchFile%2Cf%2Cstack+%22lib_Shell%22%2C1" xlink:title="shell_FetchFile">
<ellipse fill="GreenYellow" stroke="#008b00" cx="2159" cy="-612" rx="64.7718" ry="18"/>
<text text-anchor="middle" x="2159" y="-607.8" font-family="Times,serif" font-size="14.00">shell_FetchFile</text>
</a>
</g>
</g>
<!-- n10&#45;&gt;n11 -->
<g id="edge26" class="edge"><title>n10&#45;&gt;n11</title>
<path fill="none" stroke="black" d="M2159,-747.859C2159,-721.745 2159,-671.743 2159,-640.507"/>
<polygon fill="black" stroke="black" points="2162.5,-640.311 2159,-630.311 2155.5,-640.311 2162.5,-640.311"/>
</g>
<!-- n43 -->
<g id="node7" class="node"><title>n43</title>
<g id="a_node7"><a xlink:href="server_GetIPaddress%2Cf%2Cstack+%22lib_RemoteServer%22%2C1" xlink:title="server_GetIPaddress">
<ellipse fill="GreenYellow" stroke="#008b00" cx="2330" cy="-766" rx="83.0718" ry="18"/>
<text text-anchor="middle" x="2330" y="-761.8" font-family="Times,serif" font-size="14.00">server_GetIPaddress</text>
</a>
</g>
</g>
<!-- n15 -->
<g id="node8" class="node"><title>n15</title>
<g id="a_node8"><a xlink:href="version_IsEarlier%2Cf%2Cstack+%22Rescue+Livecode+World%22%2C1" xlink:title="version_IsEarlier">
<ellipse fill="GreenYellow" stroke="#008b00" cx="368" cy="-106" rx="71.0099" ry="18"/>
<text text-anchor="middle" x="368" y="-101.8" font-family="Times,serif" font-size="14.00">version_IsEarlier</text>
</a>
</g>
</g>
<!-- n34 -->
<g id="node33" class="node"><title>n34</title>
<g id="a_node33"><a xlink:href="_convertVersionToNumber%2Cf%2Cstack+%22Rescue+Livecode+World%22%2C1" xlink:title="_convertVersionToNumber">
<ellipse fill="GreenYellow" stroke="#008b00" cx="368" cy="-34" rx="106.499" ry="18"/>
<text text-anchor="middle" x="368" y="-29.8" font-family="Times,serif" font-size="14.00">_convertVersionToNumber</text>
</a>
</g>
</g>
<!-- n15&#45;&gt;n34 -->
<g id="edge47" class="edge"><title>n15&#45;&gt;n34</title>
<path fill="none" stroke="black" d="M368,-87.6966C368,-79.9827 368,-70.7125 368,-62.1124"/>
<polygon fill="black" stroke="black" points="371.5,-62.1043 368,-52.1043 364.5,-62.1044 371.5,-62.1043"/>
</g>
<!-- n50 -->
<g id="node9" class="node"><title>n50</title>
<g id="a_node9"><a xlink:href="pref_File%2Cf%2Cstack+%22model_Prefs%22%2C1" xlink:title="pref_File">
<ellipse fill="GreenYellow" stroke="#008b00" cx="1032" cy="-396" rx="42.5456" ry="18"/>
<text text-anchor="middle" x="1032" y="-391.8" font-family="Times,serif" font-size="14.00">pref_File</text>
</a>
</g>
</g>
<!-- n36 -->
<g id="node10" class="node"><title>n36</title>
<g id="a_node10"><a xlink:href="library_PrefFolder%2Cf%2Cstack+%22model_Prefs%22%2C1" xlink:title="library_PrefFolder">
<ellipse fill="GreenYellow" stroke="#008b00" cx="860" cy="-324" rx="75.8466" ry="18"/>
<text text-anchor="middle" x="860" y="-319.8" font-family="Times,serif" font-size="14.00">library_PrefFolder</text>
</a>
</g>
</g>
<!-- n50&#45;&gt;n36 -->
<g id="edge7" class="edge"><title>n50&#45;&gt;n36</title>
<path fill="none" stroke="black" d="M1002.43,-382.967C975.998,-372.208 936.828,-356.267 906.252,-343.823"/>
<polygon fill="black" stroke="black" points="907.235,-340.445 896.654,-339.917 904.597,-346.929 907.235,-340.445"/>
</g>
<!-- n26 -->
<g id="node32" class="node"><title>n26</title>
<g id="a_node32"><a xlink:href="pref_Folder%2Cf%2Cstack+%22model_Prefs%22%2C1" xlink:title="pref_Folder">
<ellipse fill="GreenYellow" stroke="#008b00" cx="860" cy="-250" rx="51.7088" ry="18"/>
<text text-anchor="middle" x="860" y="-245.8" font-family="Times,serif" font-size="14.00">pref_Folder</text>
</a>
</g>
</g>
<!-- n36&#45;&gt;n26 -->
<g id="edge24" class="edge"><title>n36&#45;&gt;n26</title>
<path fill="none" stroke="black" d="M860,-305.937C860,-297.807 860,-287.876 860,-278.705"/>
<polygon fill="black" stroke="black" points="863.5,-278.441 860,-268.441 856.5,-278.441 863.5,-278.441"/>
</g>
<!-- n33 -->
<g id="node53" class="node"><title>n33</title>
<g id="a_node53"><a xlink:href="folder_CreateNested%2Cc%2Cstack+%22Rescue+Livecode+World%22%2C1" xlink:title="folder_CreateNested">
<ellipse fill="LightBlue" stroke="Blue" cx="582" cy="-250" rx="83.0546" ry="18"/>
<text text-anchor="middle" x="582" y="-245.8" font-family="Times,serif" font-size="14.00">folder_CreateNested</text>
</a>
</g>
</g>
<!-- n36&#45;&gt;n33 -->
<g id="edge23" class="edge"><title>n36&#45;&gt;n33</title>
<path fill="none" stroke="black" d="M787.577,-318.533C753.469,-315.063 712.561,-308.907 677,-298 656.664,-291.763 635.324,-281.576 618.033,-272.277"/>
<polygon fill="black" stroke="black" points="619.323,-268.992 608.875,-267.234 615.946,-275.124 619.323,-268.992"/>
</g>
<!-- n51 -->
<g id="node11" class="node"><title>n51</title>
<g id="a_node11"><a xlink:href="server_FetchFileArray%2Cf%2Cstack+%22lib_RemoteServer%22%2C1" xlink:title="server_FetchFileArray">
<ellipse fill="GreenYellow" stroke="#008b00" cx="1079" cy="-766" rx="90.3204" ry="18"/>
<text text-anchor="middle" x="1079" y="-761.8" font-family="Times,serif" font-size="14.00">server_FetchFileArray</text>
</a>
</g>
</g>
<!-- n52 -->
<g id="node27" class="node"><title>n52</title>
<g id="a_node27"><a xlink:href="server_FetchFileList%2Cf%2Cstack+%22lib_RemoteServer%22%2C1" xlink:title="server_FetchFileList">
<ellipse fill="GreenYellow" stroke="#008b00" cx="1094" cy="-694" rx="83.0891" ry="18"/>
<text text-anchor="middle" x="1094" y="-689.8" font-family="Times,serif" font-size="14.00">server_FetchFileList</text>
</a>
</g>
</g>
<!-- n51&#45;&gt;n52 -->
<g id="edge31" class="edge"><title>n51&#45;&gt;n52</title>
<path fill="none" stroke="black" d="M1082.71,-747.697C1084.36,-739.983 1086.35,-730.712 1088.19,-722.112"/>
<polygon fill="black" stroke="black" points="1091.66,-722.616 1090.33,-712.104 1084.82,-721.149 1091.66,-722.616"/>
</g>
<!-- n19 -->
<g id="node30" class="node"><title>n19</title>
<g id="a_node30"><a xlink:href="shell_ConstructLSArray%2Cf%2Cstack+%22lib_Shell%22%2C1" xlink:title="shell_ConstructLSArray">
<ellipse fill="GreenYellow" stroke="#008b00" cx="1967" cy="-612" rx="96.6276" ry="18"/>
<text text-anchor="middle" x="1967" y="-607.8" font-family="Times,serif" font-size="14.00">shell_ConstructLSArray</text>
</a>
</g>
</g>
<!-- n51&#45;&gt;n19 -->
<g id="edge32" class="edge"><title>n51&#45;&gt;n19</title>
<path fill="none" stroke="black" d="M1142.51,-753.186C1154.28,-751.255 1166.49,-749.424 1178,-748 1386.8,-722.169 1443.2,-750.67 1650,-712 1728.5,-697.321 1745.79,-683.869 1822,-660 1851.8,-650.666 1884.94,-639.951 1912,-631.11"/>
<polygon fill="black" stroke="black" points="1913.27,-634.38 1921.68,-627.944 1911.09,-627.727 1913.27,-634.38"/>
</g>
<!-- n25 -->
<g id="node12" class="node"><title>n25</title>
<g id="a_node12"><a xlink:href="server_FetchPrefArray%2Cf%2Cstack+%22lib_RemoteServer%22%2C1" xlink:title="server_FetchPrefArray">
<ellipse fill="GreenYellow" stroke="#008b00" cx="706" cy="-694" rx="91.2721" ry="18"/>
<text text-anchor="middle" x="706" y="-689.8" font-family="Times,serif" font-size="14.00">server_FetchPrefArray</text>
</a>
</g>
</g>
<!-- n25&#45;&gt;n35 -->
<g id="edge9" class="edge"><title>n25&#45;&gt;n35</title>
<path fill="none" stroke="black" d="M717.028,-676.034C724.129,-665.109 733.49,-650.707 741.472,-638.428"/>
<polygon fill="black" stroke="black" points="744.473,-640.233 746.988,-629.941 738.604,-636.418 744.473,-640.233"/>
</g>
<!-- n30 -->
<g id="node37" class="node"><title>n30</title>
<g id="a_node37"><a xlink:href="shell_RemoteExecute%2Cc%2Cstack+%22lib_Shell%22%2C1" xlink:title="shell_RemoteExecute">
<ellipse fill="LightBlue" stroke="Blue" cx="2159" cy="-540" rx="87.4307" ry="18"/>
<text text-anchor="middle" x="2159" y="-535.8" font-family="Times,serif" font-size="14.00">shell_RemoteExecute</text>
</a>
</g>
</g>
<!-- n11&#45;&gt;n30 -->
<g id="edge48" class="edge"><title>n11&#45;&gt;n30</title>
<path fill="none" stroke="black" d="M2159,-593.697C2159,-585.983 2159,-576.712 2159,-568.112"/>
<polygon fill="black" stroke="black" points="2162.5,-568.104 2159,-558.104 2155.5,-568.104 2162.5,-568.104"/>
</g>
<!-- n42 -->
<g id="node14" class="node"><title>n42</title>
<g id="a_node14"><a xlink:href="server_GetSshUser%2Cf%2Cstack+%22lib_RemoteServer%22%2C1" xlink:title="server_GetSshUser">
<ellipse fill="GreenYellow" stroke="#008b00" cx="1993" cy="-766" rx="78.2607" ry="18"/>
<text text-anchor="middle" x="1993" y="-761.8" font-family="Times,serif" font-size="14.00">server_GetSshUser</text>
</a>
</g>
</g>
<!-- n37 -->
<g id="node15" class="node"><title>n37</title>
<g id="a_node15"><a xlink:href="server_GetSshKeyPath%2Cf%2Cstack+%22lib_RemoteServer%22%2C1" xlink:title="server_GetSshKeyPath">
<ellipse fill="GreenYellow" stroke="#008b00" cx="1804" cy="-766" rx="92.2757" ry="18"/>
<text text-anchor="middle" x="1804" y="-761.8" font-family="Times,serif" font-size="14.00">server_GetSshKeyPath</text>
</a>
</g>
</g>
<!-- n6 -->
<g id="node16" class="node"><title>n6</title>
<g id="a_node16"><a xlink:href="pref_FetchData%2Cf%2Cstack+%22model_Prefs%22%2C1" xlink:title="pref_FetchData">
<ellipse fill="GreenYellow" stroke="#008b00" cx="1118" cy="-468" rx="65.2131" ry="18"/>
<text text-anchor="middle" x="1118" y="-463.8" font-family="Times,serif" font-size="14.00">pref_FetchData</text>
</a>
</g>
</g>
<!-- n6&#45;&gt;n56 -->
<g id="edge45" class="edge"><title>n6&#45;&gt;n56</title>
<path fill="none" stroke="black" d="M1079.38,-453.371C1068.03,-449.525 1055.56,-445.452 1044,-442 800.223,-369.24 718.914,-408.994 490,-298 476.828,-291.613 463.697,-282.211 452.933,-273.491"/>
<polygon fill="black" stroke="black" points="455.116,-270.753 445.202,-267.017 450.622,-276.12 455.116,-270.753"/>
</g>
<!-- n6&#45;&gt;n50 -->
<g id="edge46" class="edge"><title>n6&#45;&gt;n50</title>
<path fill="none" stroke="black" d="M1098.05,-450.765C1086.33,-441.223 1071.36,-429.04 1058.64,-418.684"/>
<polygon fill="black" stroke="black" points="1060.63,-415.787 1050.66,-412.189 1056.21,-421.216 1060.63,-415.787"/>
</g>
<!-- n9 -->
<g id="node17" class="node"><title>n9</title>
<g id="a_node17"><a xlink:href="server_GetDropletName%2Cf%2Cstack+%22lib_RemoteServer%22%2C1" xlink:title="server_GetDropletName">
<ellipse fill="GreenYellow" stroke="#008b00" cx="1597" cy="-766" rx="97.0603" ry="18"/>
<text text-anchor="middle" x="1597" y="-761.8" font-family="Times,serif" font-size="14.00">server_GetDropletName</text>
</a>
</g>
</g>
<!-- n16 -->
<g id="node18" class="node"><title>n16</title>
<g id="a_node18"><a xlink:href="server_RigApplicationFolder%2Cf%2Cstack+%22lib_RemoteServer%22%2C1" xlink:title="server_RigApplicationFolder">
<ellipse fill="GreenYellow" stroke="#008b00" cx="130" cy="-766" rx="114" ry="18"/>
<text text-anchor="middle" x="130" y="-761.8" font-family="Times,serif" font-size="14.00">server_RigApplicationFolder</text>
</a>
</g>
</g>
<!-- n17 -->
<g id="node54" class="node"><title>n17</title>
<g id="a_node54"><a xlink:href="text_AddTrailing%2Cc%2Cstack+%22Rescue+Livecode+World%22%2C1" xlink:title="text_AddTrailing">
<ellipse fill="LightBlue" stroke="Blue" cx="514" cy="-178" rx="71.3991" ry="18"/>
<text text-anchor="middle" x="514" y="-173.8" font-family="Times,serif" font-size="14.00">text_AddTrailing</text>
</a>
</g>
</g>
<!-- n16&#45;&gt;n17 -->
<g id="edge25" class="edge"><title>n16&#45;&gt;n17</title>
<path fill="none" stroke="black" d="M126.238,-747.773C120.445,-719.692 110,-662.24 110,-613 110,-613 110,-613 110,-323 110,-281.683 98.794,-260.19 129,-232 134.673,-226.706 331.094,-201.641 441.124,-187.961"/>
<polygon fill="black" stroke="black" points="441.676,-191.42 451.168,-186.714 440.813,-184.473 441.676,-191.42"/>
</g>
<!-- n3 -->
<g id="node19" class="node"><title>n3</title>
<g id="a_node19"><a xlink:href="shell_InterpretFileMode%2Cf%2Cstack+%22lib_Shell%22%2C1" xlink:title="shell_InterpretFileMode">
<ellipse fill="GreenYellow" stroke="#008b00" cx="2150" cy="-468" rx="96.1258" ry="18"/>
<text text-anchor="middle" x="2150" y="-463.8" font-family="Times,serif" font-size="14.00">shell_InterpretFileMode</text>
</a>
</g>
</g>
<!-- n55 -->
<g id="node20" class="node"><title>n55</title>
<g id="a_node20"><a xlink:href="text_Merge%2Cf%2Cstack+%22Rescue+Livecode+World%22%2C1" xlink:title="text_Merge">
<ellipse fill="GreenYellow" stroke="#008b00" cx="189" cy="-178" rx="50.9293" ry="18"/>
<text text-anchor="middle" x="189" y="-173.8" font-family="Times,serif" font-size="14.00">text_Merge</text>
</a>
</g>
</g>
<!-- n38 -->
<g id="node21" class="node"><title>n38</title>
<g id="a_node21"><a xlink:href="rig_StackPath%2Cf%2Cstack+%22lib_RevIgniter%22%2C1" xlink:title="rig_StackPath">
<ellipse fill="GreenYellow" stroke="#008b00" cx="535" cy="-612" rx="59.9444" ry="18"/>
<text text-anchor="middle" x="535" y="-607.8" font-family="Times,serif" font-size="14.00">rig_StackPath</text>
</a>
</g>
</g>
<!-- n39 -->
<g id="node28" class="node"><title>n39</title>
<g id="a_node28"><a xlink:href="rig_GetApplicationFolder%2Cf%2Cstack+%22lib_RevIgniter%22%2C1" xlink:title="rig_GetApplicationFolder">
<ellipse fill="GreenYellow" stroke="#008b00" cx="556" cy="-540" rx="101.923" ry="18"/>
<text text-anchor="middle" x="556" y="-535.8" font-family="Times,serif" font-size="14.00">rig_GetApplicationFolder</text>
</a>
</g>
</g>
<!-- n38&#45;&gt;n39 -->
<g id="edge13" class="edge"><title>n38&#45;&gt;n39</title>
<path fill="none" stroke="black" d="M540.084,-594.055C542.422,-586.261 545.253,-576.822 547.876,-568.079"/>
<polygon fill="black" stroke="black" points="551.296,-568.859 550.817,-558.275 544.591,-566.848 551.296,-568.859"/>
</g>
<!-- n58 -->
<g id="node22" class="node"><title>n58</title>
<g id="a_node22"><a xlink:href="text_IsQuoted%2Cf%2Cstack+%22lib_XML%22%2C1" xlink:title="text_IsQuoted">
<ellipse fill="GreenYellow" stroke="#008b00" cx="333" cy="-540" rx="60.4202" ry="18"/>
<text text-anchor="middle" x="333" y="-535.8" font-family="Times,serif" font-size="14.00">text_IsQuoted</text>
</a>
</g>
</g>
<!-- n18&#45;&gt;n8 -->
<g id="edge12" class="edge"><title>n18&#45;&gt;n8</title>
<path fill="none" stroke="black" d="M765.504,-522.055C769.031,-514.091 773.318,-504.411 777.26,-495.51"/>
<polygon fill="black" stroke="black" points="780.5,-496.836 781.35,-486.275 774.1,-494.002 780.5,-496.836"/>
</g>
<!-- n27 -->
<g id="node24" class="node"><title>n27</title>
<g id="a_node24"><a xlink:href="pref_WindowsFolder%2Cf%2Cstack+%22model_Prefs%22%2C1" xlink:title="pref_WindowsFolder">
<ellipse fill="GreenYellow" stroke="#008b00" cx="860" cy="-178" rx="85.3031" ry="18"/>
<text text-anchor="middle" x="860" y="-173.8" font-family="Times,serif" font-size="14.00">pref_WindowsFolder</text>
</a>
</g>
</g>
<!-- n2 -->
<g id="node26" class="node"><title>n2</title>
<g id="a_node26"><a xlink:href="date_MonthToMonthNumber%2Cf%2Cstack+%22lib_Shell%22%2C1" xlink:title="date_MonthToMonthNumber">
<ellipse fill="GreenYellow" stroke="#008b00" cx="1921" cy="-468" rx="114.727" ry="18"/>
<text text-anchor="middle" x="1921" y="-463.8" font-family="Times,serif" font-size="14.00">date_MonthToMonthNumber</text>
</a>
</g>
</g>
<!-- n57 -->
<g id="node39" class="node"><title>n57</title>
<g id="a_node39"><a xlink:href="shell_BashParamEscape%2Cc%2Cstack+%22lib_XML%22%2C1" xlink:title="shell_BashParamEscape">
<ellipse fill="LightBlue" stroke="Blue" cx="333" cy="-612" rx="96.6017" ry="18"/>
<text text-anchor="middle" x="333" y="-607.8" font-family="Times,serif" font-size="14.00">shell_BashParamEscape</text>
</a>
</g>
</g>
<!-- n52&#45;&gt;n57 -->
<g id="edge8" class="edge"><title>n52&#45;&gt;n57</title>
<path fill="none" stroke="black" d="M1050.01,-678.637C1034.96,-674.368 1017.9,-670.237 1002,-668 940.379,-659.328 502.852,-673.014 442,-660 417.359,-654.73 391.391,-643.772 370.984,-633.762"/>
<polygon fill="black" stroke="black" points="372.53,-630.622 362.024,-629.253 369.383,-636.875 372.53,-630.622"/>
</g>
<!-- n41 -->
<g id="node48" class="node"><title>n41</title>
<g id="a_node48"><a xlink:href="text_AddTrailing%2Cc%2Cstack+%22lib_RevIgniter%22%2C1" xlink:title="text_AddTrailing">
<ellipse fill="LightBlue" stroke="Blue" cx="556" cy="-468" rx="71.3991" ry="18"/>
<text text-anchor="middle" x="556" y="-463.8" font-family="Times,serif" font-size="14.00">text_AddTrailing</text>
</a>
</g>
</g>
<!-- n39&#45;&gt;n41 -->
<g id="edge42" class="edge"><title>n39&#45;&gt;n41</title>
<path fill="none" stroke="black" d="M556,-521.697C556,-513.983 556,-504.712 556,-496.112"/>
<polygon fill="black" stroke="black" points="559.5,-496.104 556,-486.104 552.5,-496.104 559.5,-496.104"/>
</g>
<!-- n12 -->
<g id="node29" class="node"><title>n12</title>
<g id="a_node29"><a xlink:href="server_GetURL%2Cf%2Cstack+%22lib_RemoteServer%22%2C1" xlink:title="server_GetURL">
<ellipse fill="GreenYellow" stroke="#008b00" cx="1254" cy="-766" rx="66.6752" ry="18"/>
<text text-anchor="middle" x="1254" y="-761.8" font-family="Times,serif" font-size="14.00">server_GetURL</text>
</a>
</g>
</g>
<!-- n1 -->
<g id="node35" class="node"><title>n1</title>
<g id="a_node35"><a xlink:href="shell_DeconstructLS%2Cc%2Cstack+%22lib_Shell%22%2C1" xlink:title="shell_DeconstructLS">
<ellipse fill="LightBlue" stroke="Blue" cx="1967" cy="-540" rx="84.0582" ry="18"/>
<text text-anchor="middle" x="1967" y="-535.8" font-family="Times,serif" font-size="14.00">shell_DeconstructLS</text>
</a>
</g>
</g>
<!-- n19&#45;&gt;n1 -->
<g id="edge41" class="edge"><title>n19&#45;&gt;n1</title>
<path fill="none" stroke="black" d="M1967,-593.697C1967,-585.983 1967,-576.712 1967,-568.112"/>
<polygon fill="black" stroke="black" points="1970.5,-568.104 1967,-558.104 1963.5,-568.104 1970.5,-568.104"/>
</g>
<!-- n23 -->
<g id="node31" class="node"><title>n23</title>
<g id="a_node31"><a xlink:href="text_IsQuoted%2Cf%2Cstack+%22lib_Shell%22%2C1" xlink:title="text_IsQuoted">
<ellipse fill="GreenYellow" stroke="#008b00" cx="1728" cy="-468" rx="60.4202" ry="18"/>
<text text-anchor="middle" x="1728" y="-463.8" font-family="Times,serif" font-size="14.00">text_IsQuoted</text>
</a>
</g>
</g>
<!-- n26&#45;&gt;n27 -->
<g id="edge35" class="edge"><title>n26&#45;&gt;n27</title>
<path fill="none" stroke="black" d="M860,-231.697C860,-223.983 860,-214.712 860,-206.112"/>
<polygon fill="black" stroke="black" points="863.5,-206.104 860,-196.104 856.5,-206.104 863.5,-206.104"/>
</g>
<!-- n44 -->
<g id="node34" class="node"><title>n44</title>
<g id="a_node34"><a xlink:href="server_FileInfoArray%2Cf%2Cstack+%22lib_RemoteServer%22%2C1" xlink:title="server_FileInfoArray">
<ellipse fill="GreenYellow" stroke="#008b00" cx="2517" cy="-766" rx="85.4928" ry="18"/>
<text text-anchor="middle" x="2517" y="-761.8" font-family="Times,serif" font-size="14.00">server_FileInfoArray</text>
</a>
</g>
</g>
<!-- n44&#45;&gt;n19 -->
<g id="edge21" class="edge"><title>n44&#45;&gt;n19</title>
<path fill="none" stroke="black" d="M2456.87,-753.179C2372.73,-736.009 2215.52,-701.629 2085,-660 2060.48,-652.179 2033.78,-641.719 2012,-632.652"/>
<polygon fill="black" stroke="black" points="2013.25,-629.38 2002.67,-628.731 2010.54,-635.833 2013.25,-629.38"/>
</g>
<!-- n44&#45;&gt;n30 -->
<g id="edge22" class="edge"><title>n44&#45;&gt;n30</title>
<path fill="none" stroke="black" d="M2490.97,-748.71C2427.55,-709.029 2265.04,-607.351 2193.59,-562.643"/>
<polygon fill="black" stroke="black" points="2195.27,-559.566 2184.94,-557.229 2191.56,-565.5 2195.27,-559.566"/>
</g>
<!-- n1&#45;&gt;n3 -->
<g id="edge29" class="edge"><title>n1&#45;&gt;n3</title>
<path fill="none" stroke="black" d="M2006.26,-523.983C2033.72,-513.48 2070.61,-499.367 2100.15,-488.069"/>
<polygon fill="black" stroke="black" points="2101.77,-491.196 2109.86,-484.355 2099.27,-484.658 2101.77,-491.196"/>
</g>
<!-- n1&#45;&gt;n2 -->
<g id="edge28" class="edge"><title>n1&#45;&gt;n2</title>
<path fill="none" stroke="black" d="M1955.86,-522.055C1950.46,-513.837 1943.86,-503.791 1937.86,-494.66"/>
<polygon fill="black" stroke="black" points="1940.77,-492.71 1932.35,-486.275 1934.92,-496.555 1940.77,-492.71"/>
</g>
<!-- n29 -->
<g id="node36" class="node"><title>n29</title>
<g id="a_node36"><a xlink:href="array_Save%2Cc%2Cstack+%22Rescue+Livecode+World%22%2C1" xlink:title="array_Save">
<ellipse fill="LightBlue" stroke="Blue" cx="308" cy="-250" rx="49.7619" ry="18"/>
<text text-anchor="middle" x="308" y="-245.8" font-family="Times,serif" font-size="14.00">array_Save</text>
</a>
</g>
</g>
<!-- n22 -->
<g id="node38" class="node"><title>n22</title>
<g id="a_node38"><a xlink:href="shell_BashParamEscape%2Cc%2Cstack+%22lib_Shell%22%2C1" xlink:title="shell_BashParamEscape">
<ellipse fill="LightBlue" stroke="Blue" cx="1765" cy="-540" rx="96.6017" ry="18"/>
<text text-anchor="middle" x="1765" y="-535.8" font-family="Times,serif" font-size="14.00">shell_BashParamEscape</text>
</a>
</g>
</g>
<!-- n22&#45;&gt;n23 -->
<g id="edge38" class="edge"><title>n22&#45;&gt;n23</title>
<path fill="none" stroke="black" d="M1756.04,-522.055C1751.79,-514.007 1746.61,-504.205 1741.86,-495.226"/>
<polygon fill="black" stroke="black" points="1744.9,-493.481 1737.13,-486.275 1738.71,-496.752 1744.9,-493.481"/>
</g>
<!-- n57&#45;&gt;n58 -->
<g id="edge40" class="edge"><title>n57&#45;&gt;n58</title>
<path fill="none" stroke="black" d="M333,-593.697C333,-585.983 333,-576.712 333,-568.112"/>
<polygon fill="black" stroke="black" points="336.5,-568.104 333,-558.104 329.5,-568.104 336.5,-568.104"/>
</g>
<!-- n48 -->
<g id="node40" class="node"><title>n48</title>
<g id="a_node40"><a xlink:href="server_UploadStack%2Cc%2Cstack+%22lib_RemoteServer%22%2C1" xlink:title="server_UploadStack">
<ellipse fill="LightBlue" stroke="Blue" cx="308" cy="-694" rx="81.6268" ry="18"/>
<text text-anchor="middle" x="308" y="-689.8" font-family="Times,serif" font-size="14.00">server_UploadStack</text>
</a>
</g>
</g>
<!-- n48&#45;&gt;n38 -->
<g id="edge34" class="edge"><title>n48&#45;&gt;n38</title>
<path fill="none" stroke="black" d="M354.97,-679.082C368.768,-675.23 383.932,-671.226 398,-668 417.373,-663.558 423.157,-666.326 442,-660 462.114,-653.247 483.317,-642.818 500.39,-633.497"/>
<polygon fill="black" stroke="black" points="502.388,-636.39 509.417,-628.463 498.979,-630.277 502.388,-636.39"/>
</g>
<!-- n54 -->
<g id="node43" class="node"><title>n54</title>
<g id="a_node43"><a xlink:href="opn_Notify%2Cc%2Cstack+%22Rescue+Livecode+World%22%2C1" xlink:title="opn_Notify">
<ellipse fill="LightBlue" stroke="Blue" cx="189" cy="-250" rx="50.7655" ry="18"/>
<text text-anchor="middle" x="189" y="-245.8" font-family="Times,serif" font-size="14.00">opn_Notify</text>
</a>
</g>
</g>
<!-- n48&#45;&gt;n54 -->
<g id="edge33" class="edge"><title>n48&#45;&gt;n54</title>
<path fill="none" stroke="black" d="M253.051,-680.624C242.058,-675.827 231.577,-669.187 224,-660 189.779,-618.506 202,-594.785 202,-541 202,-541 202,-541 202,-395 202,-354.268 196.777,-307.316 192.952,-278.395"/>
<polygon fill="black" stroke="black" points="196.387,-277.68 191.568,-268.244 189.451,-278.625 196.387,-277.68"/>
</g>
<!-- n28 -->
<g id="node41" class="node"><title>n28</title>
<g id="a_node41"><a xlink:href="server_SaveDetails%2Cc%2Cstack+%22lib_RemoteServer%22%2C1" xlink:title="server_SaveDetails">
<ellipse fill="LightBlue" stroke="Blue" cx="706" cy="-766" rx="78.2435" ry="18"/>
<text text-anchor="middle" x="706" y="-761.8" font-family="Times,serif" font-size="14.00">server_SaveDetails</text>
</a>
</g>
</g>
<!-- n28&#45;&gt;n25 -->
<g id="edge3" class="edge"><title>n28&#45;&gt;n25</title>
<path fill="none" stroke="black" d="M706,-747.697C706,-739.983 706,-730.712 706,-722.112"/>
<polygon fill="black" stroke="black" points="709.5,-722.104 706,-712.104 702.5,-722.104 709.5,-722.104"/>
</g>
<!-- n20 -->
<g id="node52" class="node"><title>n20</title>
<g id="a_node52"><a xlink:href="server_SavePrefArray%2Cc%2Cstack+%22lib_RemoteServer%22%2C1" xlink:title="server_SavePrefArray">
<ellipse fill="LightBlue" stroke="Blue" cx="904" cy="-694" rx="88.8583" ry="18"/>
<text text-anchor="middle" x="904" y="-689.8" font-family="Times,serif" font-size="14.00">server_SavePrefArray</text>
</a>
</g>
</g>
<!-- n28&#45;&gt;n20 -->
<g id="edge4" class="edge"><title>n28&#45;&gt;n20</title>
<path fill="none" stroke="black" d="M747.026,-750.496C777.542,-739.707 819.405,-724.907 852.225,-713.304"/>
<polygon fill="black" stroke="black" points="853.399,-716.602 861.661,-709.968 851.066,-710.002 853.399,-716.602"/>
</g>
<!-- n31 -->
<g id="node42" class="node"><title>n31</title>
<g id="a_node42"><a xlink:href="server_StoreData%2Cc%2Cstack+%22lib_RemoteServer%22%2C1" xlink:title="server_StoreData">
<ellipse fill="LightBlue" stroke="Blue" cx="1410" cy="-766" rx="71.4858" ry="18"/>
<text text-anchor="middle" x="1410" y="-761.8" font-family="Times,serif" font-size="14.00">server_StoreData</text>
</a>
</g>
</g>
<!-- n32 -->
<g id="node46" class="node"><title>n32</title>
<g id="a_node46"><a xlink:href="server_StoreFile%2Cc%2Cstack+%22lib_RemoteServer%22%2C1" xlink:title="server_StoreFile">
<ellipse fill="LightBlue" stroke="Blue" cx="1572" cy="-694" rx="68.6133" ry="18"/>
<text text-anchor="middle" x="1572" y="-689.8" font-family="Times,serif" font-size="14.00">server_StoreFile</text>
</a>
</g>
</g>
<!-- n31&#45;&gt;n32 -->
<g id="edge2" class="edge"><title>n31&#45;&gt;n32</title>
<path fill="none" stroke="black" d="M1444.36,-750.155C1468.92,-739.539 1502.18,-725.171 1528.58,-713.761"/>
<polygon fill="black" stroke="black" points="1530.18,-716.883 1537.97,-709.704 1527.4,-710.457 1530.18,-716.883"/>
</g>
<!-- n54&#45;&gt;n55 -->
<g id="edge11" class="edge"><title>n54&#45;&gt;n55</title>
<path fill="none" stroke="black" d="M189,-231.697C189,-223.983 189,-214.712 189,-206.112"/>
<polygon fill="black" stroke="black" points="192.5,-206.104 189,-196.104 185.5,-206.104 192.5,-206.104"/>
</g>
<!-- n13 -->
<g id="node57" class="node"><title>n13</title>
<g id="a_node57"><a xlink:href="osx_Notify%2Cc%2Cstack+%22Rescue+Livecode+World%22%2C1" xlink:title="osx_Notify">
<ellipse fill="LightBlue" stroke="Blue" cx="308" cy="-178" rx="49.805" ry="18"/>
<text text-anchor="middle" x="308" y="-173.8" font-family="Times,serif" font-size="14.00">osx_Notify</text>
</a>
</g>
</g>
<!-- n54&#45;&gt;n13 -->
<g id="edge10" class="edge"><title>n54&#45;&gt;n13</title>
<path fill="none" stroke="black" d="M214.237,-234.155C231.671,-223.9 255.057,-210.143 274.113,-198.934"/>
<polygon fill="black" stroke="black" points="275.955,-201.911 282.8,-193.824 272.406,-195.877 275.955,-201.911"/>
</g>
<!-- n7 -->
<g id="node44" class="node"><title>n7</title>
<g id="a_node44"><a xlink:href="pref_StoreData%2Cc%2Cstack+%22model_Prefs%22%2C1" xlink:title="pref_StoreData">
<ellipse fill="LightBlue" stroke="Blue" cx="971" cy="-468" rx="64.2527" ry="18"/>
<text text-anchor="middle" x="971" y="-463.8" font-family="Times,serif" font-size="14.00">pref_StoreData</text>
</a>
</g>
</g>
<!-- n7&#45;&gt;n29 -->
<g id="edge27" class="edge"><title>n7&#45;&gt;n29</title>
<path fill="none" stroke="black" d="M935.471,-452.901C923.713,-448.758 910.45,-444.636 898,-442 758.33,-412.433 714.6,-455.503 578,-414 479.853,-384.18 380.761,-310.713 334.668,-273.451"/>
<polygon fill="black" stroke="black" points="336.648,-270.549 326.69,-266.933 332.22,-275.97 336.648,-270.549"/>
</g>
<!-- n47 -->
<g id="node45" class="node"><title>n47</title>
<g id="a_node45"><a xlink:href="server_UploadStacks%2Cc%2Cstack+%22lib_RemoteServer%22%2C1" xlink:title="server_UploadStacks">
<ellipse fill="LightBlue" stroke="Blue" cx="347" cy="-766" rx="85.0101" ry="18"/>
<text text-anchor="middle" x="347" y="-761.8" font-family="Times,serif" font-size="14.00">server_UploadStacks</text>
</a>
</g>
</g>
<!-- n47&#45;&gt;n48 -->
<g id="edge5" class="edge"><title>n47&#45;&gt;n48</title>
<path fill="none" stroke="black" d="M337.559,-748.055C333.075,-740.007 327.614,-730.205 322.612,-721.226"/>
<polygon fill="black" stroke="black" points="325.549,-719.308 317.625,-712.275 319.434,-722.714 325.549,-719.308"/>
</g>
<!-- n45 -->
<g id="node56" class="node"><title>n45</title>
<g id="a_node56"><a xlink:href="shell_StoreFile%2Cc%2Cstack+%22lib_Shell%22%2C1" xlink:title="shell_StoreFile">
<ellipse fill="LightBlue" stroke="Blue" cx="1749" cy="-612" rx="63.8115" ry="18"/>
<text text-anchor="middle" x="1749" y="-607.8" font-family="Times,serif" font-size="14.00">shell_StoreFile</text>
</a>
</g>
</g>
<!-- n32&#45;&gt;n45 -->
<g id="edge30" class="edge"><title>n32&#45;&gt;n45</title>
<path fill="none" stroke="black" d="M1604.88,-678.14C1633.78,-665.077 1675.99,-645.998 1707.27,-631.862"/>
<polygon fill="black" stroke="black" points="1708.93,-634.953 1716.6,-627.645 1706.04,-628.575 1708.93,-634.953"/>
</g>
<!-- n24 -->
<g id="node47" class="node"><title>n24</title>
<g id="a_node47"><a xlink:href="server_DeleteDetails%2Cc%2Cstack+%22lib_RemoteServer%22%2C1" xlink:title="server_DeleteDetails">
<ellipse fill="LightBlue" stroke="Blue" cx="887" cy="-766" rx="84.0151" ry="18"/>
<text text-anchor="middle" x="887" y="-761.8" font-family="Times,serif" font-size="14.00">server_DeleteDetails</text>
</a>
</g>
</g>
<!-- n24&#45;&gt;n25 -->
<g id="edge36" class="edge"><title>n24&#45;&gt;n25</title>
<path fill="none" stroke="black" d="M848.171,-749.983C820.92,-739.444 784.269,-725.27 755.006,-713.953"/>
<polygon fill="black" stroke="black" points="755.979,-710.576 745.389,-710.233 753.454,-717.105 755.979,-710.576"/>
</g>
<!-- n24&#45;&gt;n20 -->
<g id="edge37" class="edge"><title>n24&#45;&gt;n20</title>
<path fill="none" stroke="black" d="M891.202,-747.697C893.096,-739.898 895.377,-730.509 897.484,-721.829"/>
<polygon fill="black" stroke="black" points="900.887,-722.648 899.846,-712.104 894.085,-720.996 900.887,-722.648"/>
</g>
<!-- n21 -->
<g id="node49" class="node"><title>n21</title>
<g id="a_node49"><a xlink:href="pref_SaveValue%2Cc%2Cstack+%22model_Prefs%22%2C1" xlink:title="pref_SaveValue">
<ellipse fill="LightBlue" stroke="Blue" cx="925" cy="-612" rx="66.1821" ry="18"/>
<text text-anchor="middle" x="925" y="-607.8" font-family="Times,serif" font-size="14.00">pref_SaveValue</text>
</a>
</g>
</g>
<!-- n5 -->
<g id="node50" class="node"><title>n5</title>
<g id="a_node50"><a xlink:href="pref_StoreArray%2Cc%2Cstack+%22model_Prefs%22%2C1" xlink:title="pref_StoreArray">
<ellipse fill="LightBlue" stroke="Blue" cx="1071" cy="-540" rx="68.1115" ry="18"/>
<text text-anchor="middle" x="1071" y="-535.8" font-family="Times,serif" font-size="14.00">pref_StoreArray</text>
</a>
</g>
</g>
<!-- n21&#45;&gt;n5 -->
<g id="edge18" class="edge"><title>n21&#45;&gt;n5</title>
<path fill="none" stroke="black" d="M956.321,-595.983C978.068,-585.557 1007.24,-571.572 1030.71,-560.316"/>
<polygon fill="black" stroke="black" points="1032.23,-563.471 1039.73,-555.992 1029.2,-557.159 1032.23,-563.471"/>
</g>
<!-- n46 -->
<g id="node51" class="node"><title>n46</title>
<g id="a_node51"><a xlink:href="pref_SetValue%2Cc%2Cstack+%22model_Prefs%22%2C1" xlink:title="pref_SetValue">
<ellipse fill="LightBlue" stroke="Blue" cx="925" cy="-540" rx="60.4028" ry="18"/>
<text text-anchor="middle" x="925" y="-535.8" font-family="Times,serif" font-size="14.00">pref_SetValue</text>
</a>
</g>
</g>
<!-- n21&#45;&gt;n46 -->
<g id="edge17" class="edge"><title>n21&#45;&gt;n46</title>
<path fill="none" stroke="black" d="M925,-593.697C925,-585.983 925,-576.712 925,-568.112"/>
<polygon fill="black" stroke="black" points="928.5,-568.104 925,-558.104 921.5,-568.104 928.5,-568.104"/>
</g>
<!-- n5&#45;&gt;n6 -->
<g id="edge14" class="edge"><title>n5&#45;&gt;n6</title>
<path fill="none" stroke="black" d="M1082.38,-522.055C1087.98,-513.715 1094.84,-503.491 1101.05,-494.252"/>
<polygon fill="black" stroke="black" points="1104.06,-496.042 1106.73,-485.789 1098.25,-492.14 1104.06,-496.042"/>
</g>
<!-- n5&#45;&gt;n8 -->
<g id="edge16" class="edge"><title>n5&#45;&gt;n8</title>
<path fill="none" stroke="black" d="M1031.26,-525.276C1019.35,-521.387 1006.21,-517.313 994,-514 951.551,-502.479 903.553,-491.818 864.678,-483.767"/>
<polygon fill="black" stroke="black" points="864.985,-480.257 854.486,-481.673 863.576,-487.114 864.985,-480.257"/>
</g>
<!-- n5&#45;&gt;n7 -->
<g id="edge15" class="edge"><title>n5&#45;&gt;n7</title>
<path fill="none" stroke="black" d="M1047.81,-522.765C1034.21,-513.244 1016.85,-501.093 1002.07,-490.752"/>
<polygon fill="black" stroke="black" points="1003.92,-487.773 993.723,-484.906 999.908,-493.508 1003.92,-487.773"/>
</g>
<!-- n20&#45;&gt;n21 -->
<g id="edge39" class="edge"><title>n20&#45;&gt;n21</title>
<path fill="none" stroke="black" d="M908.557,-675.641C911.3,-665.192 914.85,-651.668 917.949,-639.862"/>
<polygon fill="black" stroke="black" points="921.371,-640.611 920.524,-630.05 914.6,-638.834 921.371,-640.611"/>
</g>
<!-- n33&#45;&gt;n17 -->
<g id="edge1" class="edge"><title>n33&#45;&gt;n17</title>
<path fill="none" stroke="black" d="M565.539,-232.055C557.103,-223.371 546.683,-212.644 537.425,-203.114"/>
<polygon fill="black" stroke="black" points="539.788,-200.523 530.309,-195.789 534.767,-205.401 539.788,-200.523"/>
</g>
<!-- n40 -->
<g id="node55" class="node"><title>n40</title>
<g id="a_node55"><a xlink:href="server_LoadDetails%2Cc%2Cstack+%22lib_RemoteServer%22%2C1" xlink:title="server_LoadDetails">
<ellipse fill="LightBlue" stroke="Blue" cx="530" cy="-766" rx="79.204" ry="18"/>
<text text-anchor="middle" x="530" y="-761.8" font-family="Times,serif" font-size="14.00">server_LoadDetails</text>
</a>
</g>
</g>
<!-- n40&#45;&gt;n25 -->
<g id="edge19" class="edge"><title>n40&#45;&gt;n25</title>
<path fill="none" stroke="black" d="M567.756,-749.983C594.164,-739.48 629.649,-725.367 658.055,-714.069"/>
<polygon fill="black" stroke="black" points="659.395,-717.303 667.394,-710.355 656.808,-710.798 659.395,-717.303"/>
</g>
<!-- n4 -->
<g id="node58" class="node"><title>n4</title>
<g id="a_node58"><a xlink:href="server_PreferenceArray%2Cs%2Cstack+%22lib_RemoteServer%22%2C1" xlink:title="server_PreferenceArray">
<ellipse fill="grey" stroke="white" cx="502" cy="-694" rx="94.6118" ry="18"/>
<text text-anchor="middle" x="502" y="-689.8" font-family="Times,serif" font-size="14.00">server_PreferenceArray</text>
</a>
</g>
</g>
<!-- n40&#45;&gt;n4 -->
<g id="edge20" class="edge"><title>n40&#45;&gt;n4</title>
<path fill="none" stroke="black" d="M523.222,-748.055C520.07,-740.176 516.247,-730.617 512.718,-721.794"/>
<polygon fill="black" stroke="black" points="515.874,-720.26 508.91,-712.275 509.374,-722.86 515.874,-720.26"/>
</g>
<!-- n45&#45;&gt;n22 -->
<g id="edge6" class="edge"><title>n45&#45;&gt;n22</title>
<path fill="none" stroke="black" d="M1752.96,-593.697C1754.72,-585.983 1756.84,-576.712 1758.8,-568.112"/>
<polygon fill="black" stroke="black" points="1762.27,-568.633 1761.09,-558.104 1755.45,-567.073 1762.27,-568.633"/>
</g>
<!-- n13&#45;&gt;n14 -->
<g id="edge49" class="edge"><title>n13&#45;&gt;n14</title>
<path fill="none" stroke="black" d="M293.544,-160.411C285.649,-151.351 275.748,-139.99 267.111,-130.078"/>
<polygon fill="black" stroke="black" points="269.725,-127.751 260.517,-122.511 264.448,-132.349 269.725,-127.751"/>
</g>
<!-- n13&#45;&gt;n15 -->
<g id="edge50" class="edge"><title>n13&#45;&gt;n15</title>
<path fill="none" stroke="black" d="M322.219,-160.411C329.583,-151.82 338.721,-141.159 346.891,-131.627"/>
<polygon fill="black" stroke="black" points="349.616,-133.827 353.466,-123.956 344.301,-129.271 349.616,-133.827"/>
</g>
</g>
</svg>
