<?xml version="1.0" encoding="UTF-8" standalone="no"?>
<!DOCTYPE svg PUBLIC "-//W3C//DTD SVG 1.1//EN"
 "http://www.w3.org/Graphics/SVG/1.1/DTD/svg11.dtd">
<!-- Generated by graphviz version 2.38.0 (20140413.2041)
 -->
<!-- Title: dot_FromArray Pages: 1 -->
<svg width="1296pt" height="336pt"
 viewBox="0.00 0.00 1296.00 336.00" xmlns="http://www.w3.org/2000/svg" xmlns:xlink="http://www.w3.org/1999/xlink">
<g id="graph0" class="graph" transform="scale(1 1) rotate(0) translate(4 332)">
<title>dot_FromArray</title>
<polygon fill="white" stroke="none" points="-4,4 -4,-332 1292,-332 1292,4 -4,4"/>
<g id="clust5" class="cluster"><title>cluster1</title>
<polygon fill="orange" stroke="red" points="1010,-172 1010,-246 1280,-246 1280,-172 1010,-172"/>
<text text-anchor="middle" x="1145" y="-230.8" font-family="Times,serif" font-size="14.00">Missing</text>
</g>
<g id="clust6" class="cluster"><title>cluster2</title>
<polygon fill="#999999" stroke="#999999" points="271,-8 271,-82 447,-82 447,-8 271,-8"/>
<text text-anchor="middle" x="359" y="-66.8" font-family="Times,serif" font-size="14.00">stack &quot;lib_Colour&quot;</text>
</g>
<g id="clust7" class="cluster"><title>cluster3</title>
<polygon fill="#999999" stroke="#999999" points="839,-172 839,-246 972,-246 972,-172 839,-172"/>
<text text-anchor="middle" x="905.5" y="-230.8" font-family="Times,serif" font-size="14.00">stack &quot;lib_Common&quot;</text>
</g>
<g id="clust8" class="cluster"><title>cluster4</title>
<polygon fill="#999999" stroke="#999999" points="8,-90 8,-320 831,-320 831,-90 8,-90"/>
<text text-anchor="middle" x="419.5" y="-304.8" font-family="Times,serif" font-size="14.00">stack &quot;lib_GeometryTest&quot;</text>
</g>
<g id="clust9" class="cluster"><title>cluster5</title>
<polygon fill="#999999" stroke="#999999" points="868,-90 868,-164 1052,-164 1052,-90 868,-90"/>
<text text-anchor="middle" x="960" y="-148.8" font-family="Times,serif" font-size="14.00">stack &quot;libOPN_Data&quot;</text>
</g>
<!-- n2 -->
<g id="node1" class="node"><title>n2</title>
<g id="a_node1"><a xlink:href="image_View%2Cg%2CMissing%2C1" xlink:title="image_View">
<ellipse fill="#7f7f7f" stroke="white" cx="1217" cy="-198" rx="54.5302" ry="18"/>
<text text-anchor="middle" x="1217" y="-193.8" font-family="Times,serif" font-size="14.00">image_View</text>
</a>
</g>
</g>
<!-- n3 -->
<g id="node2" class="node"><title>n3</title>
<g id="a_node2"><a xlink:href="rect%2Cg%2CMissing%2C1" xlink:title="rect">
<ellipse fill="#7f7f7f" stroke="white" cx="1117" cy="-198" rx="27" ry="18"/>
<text text-anchor="middle" x="1117" y="-193.8" font-family="Times,serif" font-size="14.00">rect</text>
</a>
</g>
</g>
<!-- n6 -->
<g id="node3" class="node"><title>n6</title>
<g id="a_node3"><a xlink:href="colour_GetRandom%2Cf%2Cstack+%22lib_Colour%22%2C1" xlink:title="colour_GetRandom">
<ellipse fill="GreenYellow" stroke="#008b00" cx="359" cy="-34" rx="79.7144" ry="18"/>
<text text-anchor="middle" x="359" y="-29.8" font-family="Times,serif" font-size="14.00">colour_GetRandom</text>
</a>
</g>
</g>
<!-- n14 -->
<g id="node4" class="node"><title>n14</title>
<g id="a_node4"><a xlink:href="kwote%2Cf%2Cstack+%22lib_Common%22%2C1" xlink:title="kwote">
<ellipse fill="GreenYellow" stroke="#008b00" cx="879" cy="-198" rx="31.9393" ry="18"/>
<text text-anchor="middle" x="879" y="-193.8" font-family="Times,serif" font-size="14.00">kwote</text>
</a>
</g>
</g>
<!-- n9 -->
<g id="node5" class="node"><title>n9</title>
<g id="a_node5"><a xlink:href="script_CallingObject%2Cf%2Cstack+%22libOPN_Data%22%2C1" xlink:title="script_CallingObject">
<ellipse fill="GreenYellow" stroke="#008b00" cx="960" cy="-116" rx="83.5736" ry="18"/>
<text text-anchor="middle" x="960" y="-111.8" font-family="Times,serif" font-size="14.00">script_CallingObject</text>
</a>
</g>
</g>
<!-- n13 -->
<g id="node6" class="node"><title>n13</title>
<g id="a_node6"><a xlink:href="script_SelfDeleteScript%2Cf%2Cstack+%22lib_GeometryTest%22%2C1" xlink:title="script_SelfDeleteScript">
<ellipse fill="GreenYellow" stroke="#008b00" cx="423" cy="-272" rx="92.7429" ry="18"/>
<text text-anchor="middle" x="423" y="-267.8" font-family="Times,serif" font-size="14.00">script_SelfDeleteScript</text>
</a>
</g>
</g>
<!-- n13&#45;&gt;n14 -->
<g id="edge2" class="edge"><title>n13&#45;&gt;n14</title>
<path fill="none" stroke="black" d="M487.026,-258.93C499.575,-256.96 512.669,-255.181 525,-254 542.149,-252.358 819.284,-253.058 835,-246 845.929,-241.092 855.42,-232.054 862.761,-223.206"/>
<polygon fill="black" stroke="black" points="865.553,-225.316 868.878,-215.256 860.005,-221.047 865.553,-225.316"/>
</g>
<!-- n8 -->
<g id="node7" class="node"><title>n8</title>
<g id="a_node7"><a xlink:href="rect_Test%2Cc%2Cstack+%22lib_GeometryTest%22%2C1" xlink:title="rect_Test">
<ellipse fill="LightBlue" stroke="Blue" cx="576" cy="-272" rx="42.2781" ry="18"/>
<text text-anchor="middle" x="576" y="-267.8" font-family="Times,serif" font-size="14.00">rect_Test</text>
</a>
</g>
</g>
<!-- n8&#45;&gt;n9 -->
<g id="edge14" class="edge"><title>n8&#45;&gt;n9</title>
<path fill="none" stroke="black" d="M606.419,-259.411C613.411,-257.21 620.885,-255.218 628,-254 647.061,-250.738 962.484,-259.831 976,-246 1002.36,-219.029 987.487,-172.301 973.982,-143.103"/>
<polygon fill="black" stroke="black" points="977.039,-141.387 969.515,-133.927 970.745,-144.45 977.039,-141.387"/>
</g>
<!-- n11 -->
<g id="node8" class="node"><title>n11</title>
<g id="a_node8"><a xlink:href="rect_CreateTestButton%2Cc%2Cstack+%22lib_GeometryTest%22%2C1" xlink:title="rect_CreateTestButton">
<ellipse fill="LightBlue" stroke="Blue" cx="242" cy="-198" rx="89.5851" ry="18"/>
<text text-anchor="middle" x="242" y="-193.8" font-family="Times,serif" font-size="14.00">rect_CreateTestButton</text>
</a>
</g>
</g>
<!-- n11&#45;&gt;n6 -->
<g id="edge12" class="edge"><title>n11&#45;&gt;n6</title>
<path fill="none" stroke="black" d="M308.007,-185.836C320.175,-180.965 331.654,-173.987 340,-164 363.684,-135.659 364.896,-91.0446 362.661,-62.4118"/>
<polygon fill="black" stroke="black" points="366.128,-61.9014 361.675,-52.2878 359.161,-62.58 366.128,-61.9014"/>
</g>
<!-- n7 -->
<g id="node10" class="node"><title>n7</title>
<g id="a_node10"><a xlink:href="create_PlaceHolder%2Cc%2Cstack+%22lib_GeometryTest%22%2C1" xlink:title="create_PlaceHolder">
<ellipse fill="LightBlue" stroke="Blue" cx="252" cy="-116" rx="79.1781" ry="18"/>
<text text-anchor="middle" x="252" y="-111.8" font-family="Times,serif" font-size="14.00">create_PlaceHolder</text>
</a>
</g>
</g>
<!-- n11&#45;&gt;n7 -->
<g id="edge13" class="edge"><title>n11&#45;&gt;n7</title>
<path fill="none" stroke="black" d="M244.17,-179.641C245.463,-169.297 247.132,-155.941 248.597,-144.221"/>
<polygon fill="black" stroke="black" points="252.101,-144.407 249.869,-134.05 245.155,-143.539 252.101,-144.407"/>
</g>
<!-- n10 -->
<g id="node9" class="node"><title>n10</title>
<g id="a_node9"><a xlink:href="rect_CreateMask%2Cc%2Cstack+%22lib_GeometryTest%22%2C1" xlink:title="rect_CreateMask">
<ellipse fill="LightBlue" stroke="Blue" cx="242" cy="-272" rx="70.5168" ry="18"/>
<text text-anchor="middle" x="242" y="-267.8" font-family="Times,serif" font-size="14.00">rect_CreateMask</text>
</a>
</g>
</g>
<!-- n10&#45;&gt;n11 -->
<g id="edge1" class="edge"><title>n10&#45;&gt;n11</title>
<path fill="none" stroke="black" d="M242,-253.937C242,-245.807 242,-235.876 242,-226.705"/>
<polygon fill="black" stroke="black" points="245.5,-226.441 242,-216.441 238.5,-226.441 245.5,-226.441"/>
</g>
<!-- n7&#45;&gt;n6 -->
<g id="edge3" class="edge"><title>n7&#45;&gt;n6</title>
<path fill="none" stroke="black" d="M273.911,-98.6178C289.779,-86.7538 311.423,-70.5712 328.911,-57.4966"/>
<polygon fill="black" stroke="black" points="331.205,-60.1515 337.118,-51.3603 327.013,-54.5452 331.205,-60.1515"/>
</g>
<!-- n1 -->
<g id="node11" class="node"><title>n1</title>
<g id="a_node11"><a xlink:href="rect_MouseDownDraw%2Cc%2Cstack+%22lib_GeometryTest%22%2C1" xlink:title="rect_MouseDownDraw">
<ellipse fill="LightBlue" stroke="Blue" cx="730" cy="-272" rx="93.2274" ry="18"/>
<text text-anchor="middle" x="730" y="-267.8" font-family="Times,serif" font-size="14.00">rect_MouseDownDraw</text>
</a>
</g>
</g>
<!-- n1&#45;&gt;n2 -->
<g id="edge4" class="edge"><title>n1&#45;&gt;n2</title>
<path fill="none" stroke="black" d="M823.096,-271.61C928.91,-271.233 1094.53,-267.095 1153,-246 1167.5,-240.767 1181.55,-231.135 1192.77,-221.946"/>
<polygon fill="black" stroke="black" points="1195.09,-224.568 1200.41,-215.403 1190.54,-219.252 1195.09,-224.568"/>
</g>
<!-- n1&#45;&gt;n3 -->
<g id="edge5" class="edge"><title>n1&#45;&gt;n3</title>
<path fill="none" stroke="black" d="M821.367,-268.361C917.721,-264.966 1058.68,-258.024 1081,-246 1090.27,-241.007 1097.88,-232.486 1103.68,-224.06"/>
<polygon fill="black" stroke="black" points="1106.72,-225.797 1109.06,-215.464 1100.79,-222.083 1106.72,-225.797"/>
</g>
<!-- n4 -->
<g id="node14" class="node"><title>n4</title>
<g id="a_node14"><a xlink:href="rect%2Cs%2CMissing%2C1" xlink:title="rect">
<ellipse fill="grey" stroke="white" cx="1045" cy="-198" rx="27" ry="18"/>
<text text-anchor="middle" x="1045" y="-193.8" font-family="Times,serif" font-size="14.00">rect</text>
</a>
</g>
</g>
<!-- n1&#45;&gt;n4 -->
<g id="edge6" class="edge"><title>n1&#45;&gt;n4</title>
<path fill="none" stroke="black" d="M822.473,-269.86C889.352,-267.681 973.159,-261.753 1004,-246 1014.23,-240.774 1023.02,-231.808 1029.81,-223.098"/>
<polygon fill="black" stroke="black" points="1032.67,-225.114 1035.69,-214.958 1027,-221.017 1032.67,-225.114"/>
</g>
<!-- n15 -->
<g id="node12" class="node"><title>n15</title>
<g id="a_node12"><a xlink:href="test_Rect%2Cc%2Cstack+%22lib_GeometryTest%22%2C1" xlink:title="test_Rect">
<ellipse fill="LightBlue" stroke="Blue" cx="642" cy="-198" rx="43.0301" ry="18"/>
<text text-anchor="middle" x="642" y="-193.8" font-family="Times,serif" font-size="14.00">test_Rect</text>
</a>
</g>
</g>
<!-- n15&#45;&gt;n9 -->
<g id="edge10" class="edge"><title>n15&#45;&gt;n9</title>
<path fill="none" stroke="black" d="M683.155,-192.271C722.568,-187.203 783.487,-177.952 835,-164 862.143,-156.649 891.625,-145.713 915.137,-136.24"/>
<polygon fill="black" stroke="black" points="916.558,-139.44 924.493,-132.42 913.912,-132.959 916.558,-139.44"/>
</g>
<!-- n15&#45;&gt;n7 -->
<g id="edge9" class="edge"><title>n15&#45;&gt;n7</title>
<path fill="none" stroke="black" d="M604.251,-189.257C538.28,-175.724 401.206,-147.606 318.854,-130.714"/>
<polygon fill="black" stroke="black" points="319.344,-127.241 308.844,-128.66 317.937,-134.098 319.344,-127.241"/>
</g>
<!-- n12 -->
<g id="node13" class="node"><title>n12</title>
<g id="a_node13"><a xlink:href="rect_MaskName%2Cs%2Cstack+%22lib_GeometryTest%22%2C1" xlink:title="rect_MaskName">
<ellipse fill="grey" stroke="white" cx="85" cy="-272" rx="68.596" ry="18"/>
<text text-anchor="middle" x="85" y="-267.8" font-family="Times,serif" font-size="14.00">rect_MaskName</text>
</a>
</g>
</g>
<!-- n12&#45;&gt;n11 -->
<g id="edge11" class="edge"><title>n12&#45;&gt;n11</title>
<path fill="none" stroke="black" d="M117.531,-256.082C141.049,-245.296 173.066,-230.613 198.738,-218.84"/>
<polygon fill="black" stroke="black" points="200.251,-221.997 207.882,-214.647 197.333,-215.634 200.251,-221.997"/>
</g>
<!-- n5 -->
<g id="node15" class="node"><title>n5</title>
<g id="a_node15"><a xlink:href="rect_Mask%2Cs%2Cstack+%22lib_GeometryTest%22%2C1" xlink:title="rect_Mask">
<ellipse fill="grey" stroke="white" cx="397" cy="-198" rx="47.365" ry="18"/>
<text text-anchor="middle" x="397" y="-193.8" font-family="Times,serif" font-size="14.00">rect_Mask</text>
</a>
</g>
</g>
<!-- n5&#45;&gt;n6 -->
<g id="edge7" class="edge"><title>n5&#45;&gt;n6</title>
<path fill="none" stroke="black" d="M393.326,-179.916C388.741,-158.766 380.579,-121.66 373,-90 370.824,-80.9087 368.338,-71.0018 366.07,-62.1325"/>
<polygon fill="black" stroke="black" points="369.424,-61.1198 363.541,-52.3084 362.645,-62.8653 369.424,-61.1198"/>
</g>
<!-- n5&#45;&gt;n7 -->
<g id="edge8" class="edge"><title>n5&#45;&gt;n7</title>
<path fill="none" stroke="black" d="M371.077,-182.698C348.441,-170.209 315.301,-151.925 289.726,-137.815"/>
<polygon fill="black" stroke="black" points="291.126,-134.59 280.68,-132.823 287.745,-140.719 291.126,-134.59"/>
</g>
</g>
</svg>
