<?xml version="1.0" encoding="UTF-8" standalone="no"?>
<!DOCTYPE svg PUBLIC "-//W3C//DTD SVG 1.1//EN"
 "http://www.w3.org/Graphics/SVG/1.1/DTD/svg11.dtd">
<!-- Generated by graphviz version 2.38.0 (20140413.2041)
 -->
<!-- Title: dot_FromArray Pages: 1 -->
<svg width="2250pt" height="165pt"
 viewBox="0.00 0.00 2250.00 165.42" xmlns="http://www.w3.org/2000/svg" xmlns:xlink="http://www.w3.org/1999/xlink">
<g id="graph0" class="graph" transform="scale(0.294349 0.294349) rotate(0) translate(4 558)">
<title>dot_FromArray</title>
<polygon fill="white" stroke="none" points="-4,4 -4,-558 7640,-558 7640,4 -4,4"/>
<g id="clust5" class="cluster"><title>cluster1</title>
<polygon fill="orange" stroke="red" points="6657,-8 6657,-82 7083,-82 7083,-8 6657,-8"/>
<text text-anchor="middle" x="6870" y="-66.8" font-family="Times,serif" font-size="14.00">Missing</text>
</g>
<g id="clust6" class="cluster"><title>cluster2</title>
<polygon fill="#999999" stroke="#999999" points="8,-326 8,-546 6071,-546 6071,-326 8,-326"/>
<text text-anchor="middle" x="3039.5" y="-530.8" font-family="Times,serif" font-size="14.00">stack &quot;lib_Array&quot;</text>
</g>
<g id="clust7" class="cluster"><title>cluster3</title>
<polygon fill="#999999" stroke="#999999" points="6638,-90 6638,-318 7216,-318 7216,-90 6638,-90"/>
<text text-anchor="middle" x="6927" y="-302.8" font-family="Times,serif" font-size="14.00">stack &quot;lib_Colour&quot;</text>
</g>
<g id="clust8" class="cluster"><title>cluster4</title>
<polygon fill="#999999" stroke="#999999" points="241,-162 241,-236 374,-236 374,-162 241,-162"/>
<text text-anchor="middle" x="307.5" y="-220.8" font-family="Times,serif" font-size="14.00">stack &quot;lib_Common&quot;</text>
</g>
<g id="clust9" class="cluster"><title>cluster5</title>
<polygon fill="#999999" stroke="#999999" points="6805,-326 6805,-472 7049,-472 7049,-326 6805,-326"/>
<text text-anchor="middle" x="6927" y="-456.8" font-family="Times,serif" font-size="14.00">stack &quot;lib_HTML&quot;</text>
</g>
<g id="clust10" class="cluster"><title>cluster6</title>
<polygon fill="#999999" stroke="#999999" points="6079,-398 6079,-472 6233,-472 6233,-398 6079,-398"/>
<text text-anchor="middle" x="6156" y="-456.8" font-family="Times,serif" font-size="14.00">stack &quot;lib_Outline&quot;</text>
</g>
<g id="clust11" class="cluster"><title>cluster7</title>
<polygon fill="#999999" stroke="#999999" points="170,-244 170,-318 461,-318 461,-244 170,-244"/>
<text text-anchor="middle" x="315.5" y="-302.8" font-family="Times,serif" font-size="14.00">stack &quot;lib_Text&quot;</text>
</g>
<g id="clust12" class="cluster"><title>cluster8</title>
<polygon fill="#999999" stroke="#999999" points="6427,-326 6427,-472 6797,-472 6797,-326 6427,-326"/>
<text text-anchor="middle" x="6612" y="-456.8" font-family="Times,serif" font-size="14.00">stack &quot;lib_XML&quot;</text>
</g>
<g id="clust13" class="cluster"><title>cluster9</title>
<polygon fill="#999999" stroke="#999999" points="7281,-398 7281,-472 7441,-472 7441,-398 7281,-398"/>
<text text-anchor="middle" x="7361" y="-456.8" font-family="Times,serif" font-size="14.00">stack &quot;libOPN_FedWiki&quot;</text>
</g>
<g id="clust14" class="cluster"><title>cluster10</title>
<polygon fill="#999999" stroke="#999999" points="6241,-398 6241,-472 6419,-472 6419,-398 6241,-398"/>
<text text-anchor="middle" x="6330" y="-456.8" font-family="Times,serif" font-size="14.00">stack &quot;libOPN_ScriptExtras&quot;</text>
</g>
<g id="clust15" class="cluster"><title>cluster11</title>
<polygon fill="#999999" stroke="#999999" points="7089,-326 7089,-472 7273,-472 7273,-326 7089,-326"/>
<text text-anchor="middle" x="7181" y="-456.8" font-family="Times,serif" font-size="14.00">stack &quot;model_Project&quot;</text>
</g>
<g id="clust16" class="cluster"><title>cluster12</title>
<polygon fill="#999999" stroke="#999999" points="7224,-162 7224,-318 7628,-318 7628,-162 7224,-162"/>
<text text-anchor="middle" x="7426" y="-302.8" font-family="Times,serif" font-size="14.00">stack &quot;Rescue Livecode World&quot;</text>
</g>
<!-- n49 -->
<g id="node1" class="node"><title>n49</title>
<g id="a_node1"><a xlink:href="backpixel%2Cg%2CMissing%2C1" xlink:title="backpixel">
<ellipse fill="#7f7f7f" stroke="white" cx="7031" cy="-34" rx="44.4664" ry="18"/>
<text text-anchor="middle" x="7031" y="-29.8" font-family="Times,serif" font-size="14.00">backpixel</text>
</a>
</g>
</g>
<!-- n47 -->
<g id="node2" class="node"><title>n47</title>
<g id="a_node2"><a xlink:href="backcolor%2Cg%2CMissing%2C1" xlink:title="backcolor">
<ellipse fill="#7f7f7f" stroke="white" cx="6924" cy="-34" rx="44.9423" ry="18"/>
<text text-anchor="middle" x="6924" y="-29.8" font-family="Times,serif" font-size="14.00">backcolor</text>
</a>
</g>
</g>
<!-- n14 -->
<g id="node3" class="node"><title>n14</title>
<g id="a_node3"><a xlink:href="array_ToHtmlLinks%2Cf%2Cstack+%22lib_Array%22%2C1" xlink:title="array_ToHtmlLinks">
<ellipse fill="GreenYellow" stroke="#008b00" cx="3656" cy="-498" rx="80.4402" ry="18"/>
<text text-anchor="middle" x="3656" y="-493.8" font-family="Times,serif" font-size="14.00">array_ToHtmlLinks</text>
</a>
</g>
</g>
<!-- n15 -->
<g id="node10" class="node"><title>n15</title>
<g id="a_node10"><a xlink:href="html_ConstructNameLink%2Cf%2Cstack+%22lib_HTML%22%2C1" xlink:title="html_ConstructNameLink">
<ellipse fill="GreenYellow" stroke="#008b00" cx="6927" cy="-424" rx="102.901" ry="18"/>
<text text-anchor="middle" x="6927" y="-419.8" font-family="Times,serif" font-size="14.00">html_ConstructNameLink</text>
</a>
</g>
</g>
<!-- n14&#45;&gt;n15 -->
<g id="edge11" class="edge"><title>n14&#45;&gt;n15</title>
<path fill="none" stroke="black" d="M3711.32,-484.784C3722.42,-482.8 3734.04,-481.052 3745,-480 3829.5,-471.89 6717.48,-487.183 6801,-472 6829.67,-466.788 6860.33,-455.488 6884.23,-445.273"/>
<polygon fill="black" stroke="black" points="6885.94,-448.346 6893.7,-441.132 6883.14,-441.932 6885.94,-448.346"/>
</g>
<!-- n53 -->
<g id="node4" class="node"><title>n53</title>
<g id="a_node4"><a xlink:href="array_Fetch%2Cf%2Cstack+%22lib_Array%22%2C1" xlink:title="array_Fetch">
<ellipse fill="GreenYellow" stroke="#008b00" cx="5893" cy="-498" rx="52.1762" ry="18"/>
<text text-anchor="middle" x="5893" y="-493.8" font-family="Times,serif" font-size="14.00">array_Fetch</text>
</a>
</g>
</g>
<!-- n62 -->
<g id="node5" class="node"><title>n62</title>
<g id="a_node5"><a xlink:href="array_MatchContents%2Cf%2Cstack+%22lib_Array%22%2C1" xlink:title="array_MatchContents">
<ellipse fill="GreenYellow" stroke="#008b00" cx="5736" cy="-498" rx="86.9549" ry="18"/>
<text text-anchor="middle" x="5736" y="-493.8" font-family="Times,serif" font-size="14.00">array_MatchContents</text>
</a>
</g>
</g>
<!-- n29 -->
<g id="node6" class="node"><title>n29</title>
<g id="a_node6"><a xlink:href="array_IsNumbered%2Cf%2Cstack+%22lib_Array%22%2C1" xlink:title="array_IsNumbered">
<ellipse fill="GreenYellow" stroke="#008b00" cx="5555" cy="-498" rx="76.3053" ry="18"/>
<text text-anchor="middle" x="5555" y="-493.8" font-family="Times,serif" font-size="14.00">array_IsNumbered</text>
</a>
</g>
</g>
<!-- n22 -->
<g id="node7" class="node"><title>n22</title>
<g id="a_node7"><a xlink:href="array_KeyFromPath%2Cf%2Cstack+%22lib_Array%22%2C1" xlink:title="array_KeyFromPath">
<ellipse fill="GreenYellow" stroke="#008b00" cx="5378" cy="-498" rx="82.1199" ry="18"/>
<text text-anchor="middle" x="5378" y="-493.8" font-family="Times,serif" font-size="14.00">array_KeyFromPath</text>
</a>
</g>
</g>
<!-- n10 -->
<g id="node8" class="node"><title>n10</title>
<g id="a_node8"><a xlink:href="array_PruneLeaves%2Cf%2Cstack+%22lib_Array%22%2C1" xlink:title="array_PruneLeaves">
<ellipse fill="GreenYellow" stroke="#008b00" cx="5181" cy="-498" rx="78.2263" ry="18"/>
<text text-anchor="middle" x="5181" y="-493.8" font-family="Times,serif" font-size="14.00">array_PruneLeaves</text>
</a>
</g>
</g>
<!-- n10&#45;&gt;n10 -->
<g id="edge13" class="edge"><title>n10&#45;&gt;n10</title>
<path fill="none" stroke="black" d="M5232.55,-511.601C5256.47,-513.084 5277.36,-508.551 5277.36,-498 5277.36,-488.974 5262.07,-484.352 5242.68,-484.133"/>
<polygon fill="black" stroke="black" points="5242.46,-480.638 5232.55,-484.399 5242.64,-487.635 5242.46,-480.638"/>
</g>
<!-- n43 -->
<g id="node9" class="node"><title>n43</title>
<g id="a_node9"><a xlink:href="array_Difference%2Cf%2Cstack+%22lib_Array%22%2C1" xlink:title="array_Difference">
<ellipse fill="GreenYellow" stroke="#008b00" cx="5014" cy="-498" rx="70.1717" ry="18"/>
<text text-anchor="middle" x="5014" y="-493.8" font-family="Times,serif" font-size="14.00">array_Difference</text>
</a>
</g>
</g>
<!-- n42 -->
<g id="node14" class="node"><title>n42</title>
<g id="a_node14"><a xlink:href="kwote%2Cf%2Cstack+%22Rescue+Livecode+World%22%2C1" xlink:title="kwote">
<ellipse fill="GreenYellow" stroke="#008b00" cx="7264" cy="-270" rx="31.9393" ry="18"/>
<text text-anchor="middle" x="7264" y="-265.8" font-family="Times,serif" font-size="14.00">kwote</text>
</a>
</g>
</g>
<!-- n15&#45;&gt;n42 -->
<g id="edge40" class="edge"><title>n15&#45;&gt;n42</title>
<path fill="none" stroke="black" d="M6976.09,-408.151C6999.9,-399.442 7028.02,-386.808 7050,-370 7069.85,-354.821 7062.82,-337.517 7085,-326 7111.67,-312.149 7192.79,-330.767 7220,-318 7230.85,-312.91 7240.32,-303.843 7247.68,-295.021"/>
<polygon fill="black" stroke="black" points="7250.45,-297.158 7253.81,-287.11 7244.92,-292.868 7250.45,-297.158"/>
</g>
<!-- n41 -->
<g id="node24" class="node"><title>n41</title>
<g id="a_node24"><a xlink:href="html_ConstructColouredText%2Cf%2Cstack+%22lib_HTML%22%2C1" xlink:title="html_ConstructColouredText">
<ellipse fill="GreenYellow" stroke="#008b00" cx="6927" cy="-352" rx="113.767" ry="18"/>
<text text-anchor="middle" x="6927" y="-347.8" font-family="Times,serif" font-size="14.00">html_ConstructColouredText</text>
</a>
</g>
</g>
<!-- n15&#45;&gt;n41 -->
<g id="edge39" class="edge"><title>n15&#45;&gt;n41</title>
<path fill="none" stroke="black" d="M6927,-405.697C6927,-397.983 6927,-388.712 6927,-380.112"/>
<polygon fill="black" stroke="black" points="6930.5,-380.104 6927,-370.104 6923.5,-380.104 6930.5,-380.104"/>
</g>
<!-- n51 -->
<g id="node11" class="node"><title>n51</title>
<g id="a_node11"><a xlink:href="array_Reverse%2Cf%2Cstack+%22lib_Array%22%2C1" xlink:title="array_Reverse">
<ellipse fill="GreenYellow" stroke="#008b00" cx="427" cy="-424" rx="61.3458" ry="18"/>
<text text-anchor="middle" x="427" y="-419.8" font-family="Times,serif" font-size="14.00">array_Reverse</text>
</a>
</g>
</g>
<!-- n35 -->
<g id="node45" class="node"><title>n35</title>
<g id="a_node45"><a xlink:href="array_AddToIndex%2Cc%2Cstack+%22lib_Array%22%2C1" xlink:title="array_AddToIndex">
<ellipse fill="LightBlue" stroke="Blue" cx="381" cy="-352" rx="77.0245" ry="18"/>
<text text-anchor="middle" x="381" y="-347.8" font-family="Times,serif" font-size="14.00">array_AddToIndex</text>
</a>
</g>
</g>
<!-- n51&#45;&gt;n35 -->
<g id="edge25" class="edge"><title>n51&#45;&gt;n35</title>
<path fill="none" stroke="black" d="M415.865,-406.055C410.465,-397.837 403.863,-387.791 397.862,-378.66"/>
<polygon fill="black" stroke="black" points="400.769,-376.71 392.352,-370.275 394.919,-380.555 400.769,-376.71"/>
</g>
<!-- n52 -->
<g id="node59" class="node"><title>n52</title>
<g id="a_node59"><a xlink:href="array_StripDeeperLevels%2Cc%2Cstack+%22lib_Array%22%2C1" xlink:title="array_StripDeeperLevels">
<ellipse fill="LightBlue" stroke="Blue" cx="575" cy="-352" rx="98.9811" ry="18"/>
<text text-anchor="middle" x="575" y="-347.8" font-family="Times,serif" font-size="14.00">array_StripDeeperLevels</text>
</a>
</g>
</g>
<!-- n51&#45;&gt;n52 -->
<g id="edge26" class="edge"><title>n51&#45;&gt;n52</title>
<path fill="none" stroke="black" d="M458.026,-408.326C479.502,-398.168 508.368,-384.515 532.051,-373.314"/>
<polygon fill="black" stroke="black" points="533.635,-376.436 541.178,-368.997 530.642,-370.108 533.635,-376.436"/>
</g>
<!-- n31 -->
<g id="node12" class="node"><title>n31</title>
<g id="a_node12"><a xlink:href="colour_IsRgb%2Cf%2Cstack+%22lib_Colour%22%2C1" xlink:title="colour_IsRgb">
<ellipse fill="GreenYellow" stroke="#008b00" cx="6704" cy="-116" rx="58.4997" ry="18"/>
<text text-anchor="middle" x="6704" y="-111.8" font-family="Times,serif" font-size="14.00">colour_IsRgb</text>
</a>
</g>
</g>
<!-- n25 -->
<g id="node13" class="node"><title>n25</title>
<g id="a_node13"><a xlink:href="array_TranslateIndex%2Cf%2Cstack+%22lib_Array%22%2C1" xlink:title="array_TranslateIndex">
<ellipse fill="GreenYellow" stroke="#008b00" cx="4840" cy="-498" rx="85.3376" ry="18"/>
<text text-anchor="middle" x="4840" y="-493.8" font-family="Times,serif" font-size="14.00">array_TranslateIndex</text>
</a>
</g>
</g>
<!-- n54 -->
<g id="node15" class="node"><title>n54</title>
<g id="a_node15"><a xlink:href="array_MakeTwoWay%2Cf%2Cstack+%22lib_Array%22%2C1" xlink:title="array_MakeTwoWay">
<ellipse fill="GreenYellow" stroke="#008b00" cx="427" cy="-498" rx="84.3168" ry="18"/>
<text text-anchor="middle" x="427" y="-493.8" font-family="Times,serif" font-size="14.00">array_MakeTwoWay</text>
</a>
</g>
</g>
<!-- n54&#45;&gt;n51 -->
<g id="edge5" class="edge"><title>n54&#45;&gt;n51</title>
<path fill="none" stroke="black" d="M427,-479.937C427,-471.807 427,-461.876 427,-452.705"/>
<polygon fill="black" stroke="black" points="430.5,-452.441 427,-442.441 423.5,-452.441 430.5,-452.441"/>
</g>
<!-- n7 -->
<g id="node16" class="node"><title>n7</title>
<g id="a_node16"><a xlink:href="array_FromOutline%2Cf%2Cstack+%22lib_Array%22%2C1" xlink:title="array_FromOutline">
<ellipse fill="GreenYellow" stroke="#008b00" cx="756" cy="-498" rx="78.2607" ry="18"/>
<text text-anchor="middle" x="756" y="-493.8" font-family="Times,serif" font-size="14.00">array_FromOutline</text>
</a>
</g>
</g>
<!-- n8 -->
<g id="node30" class="node"><title>n8</title>
<g id="a_node30"><a xlink:href="outline_ToArray%2Cf%2Cstack+%22lib_Outline%22%2C1" xlink:title="outline_ToArray">
<ellipse fill="GreenYellow" stroke="#008b00" cx="6156" cy="-424" rx="68.8387" ry="18"/>
<text text-anchor="middle" x="6156" y="-419.8" font-family="Times,serif" font-size="14.00">outline_ToArray</text>
</a>
</g>
</g>
<!-- n7&#45;&gt;n8 -->
<g id="edge16" class="edge"><title>n7&#45;&gt;n8</title>
<path fill="none" stroke="black" d="M809.598,-484.86C820.59,-482.841 832.125,-481.061 843,-480 879.162,-476.472 6039.92,-481.469 6075,-472 6093.33,-467.053 6111.79,-456.84 6126.45,-447.195"/>
<polygon fill="black" stroke="black" points="6128.77,-449.849 6135.05,-441.316 6124.82,-444.07 6128.77,-449.849"/>
</g>
<!-- n37 -->
<g id="node17" class="node"><title>n37</title>
<g id="a_node17"><a xlink:href="array_Sample%2Cf%2Cstack+%22lib_Array%22%2C1" xlink:title="array_Sample">
<ellipse fill="GreenYellow" stroke="#008b00" cx="1535" cy="-498" rx="59.4339" ry="18"/>
<text text-anchor="middle" x="1535" y="-493.8" font-family="Times,serif" font-size="14.00">array_Sample</text>
</a>
</g>
</g>
<!-- n38 -->
<g id="node54" class="node"><title>n38</title>
<g id="a_node54"><a xlink:href="line_Delete%2Cc%2Cstack+%22libOPN_ScriptExtras%22%2C1" xlink:title="line_Delete">
<ellipse fill="LightBlue" stroke="Blue" cx="6300" cy="-424" rx="50.7311" ry="18"/>
<text text-anchor="middle" x="6300" y="-419.8" font-family="Times,serif" font-size="14.00">line_Delete</text>
</a>
</g>
</g>
<!-- n37&#45;&gt;n38 -->
<g id="edge33" class="edge"><title>n37&#45;&gt;n38</title>
<path fill="none" stroke="black" d="M1576.41,-484.949C1585.12,-482.894 1594.3,-481.078 1603,-480 1634.94,-476.041 6206.47,-482.164 6237,-472 6251.69,-467.11 6265.73,-457.322 6276.82,-447.939"/>
<polygon fill="black" stroke="black" points="6279.19,-450.515 6284.33,-441.253 6274.54,-445.285 6279.19,-450.515"/>
</g>
<!-- n6 -->
<g id="node18" class="node"><title>n6</title>
<g id="a_node18"><a xlink:href="text_RepeatString%2Cf%2Cstack+%22lib_XML%22%2C1" xlink:title="text_RepeatString">
<ellipse fill="GreenYellow" stroke="#008b00" cx="6509" cy="-352" rx="73.9257" ry="18"/>
<text text-anchor="middle" x="6509" y="-347.8" font-family="Times,serif" font-size="14.00">text_RepeatString</text>
</a>
</g>
</g>
<!-- n9 -->
<g id="node19" class="node"><title>n9</title>
<g id="a_node19"><a xlink:href="array_ConstructReverseDictionary%2Cf%2Cstack+%22lib_Array%22%2C1" xlink:title="array_ConstructReverseDictionary">
<ellipse fill="GreenYellow" stroke="#008b00" cx="4053" cy="-498" rx="133.26" ry="18"/>
<text text-anchor="middle" x="4053" y="-493.8" font-family="Times,serif" font-size="14.00">array_ConstructReverseDictionary</text>
</a>
</g>
</g>
<!-- n32 -->
<g id="node20" class="node"><title>n32</title>
<g id="a_node20"><a xlink:href="colour_TranslateName%2Cf%2Cstack+%22lib_Colour%22%2C1" xlink:title="colour_TranslateName">
<ellipse fill="GreenYellow" stroke="#008b00" cx="6871" cy="-116" rx="90.659" ry="18"/>
<text text-anchor="middle" x="6871" y="-111.8" font-family="Times,serif" font-size="14.00">colour_TranslateName</text>
</a>
</g>
</g>
<!-- n32&#45;&gt;n49 -->
<g id="edge23" class="edge"><title>n32&#45;&gt;n49</title>
<path fill="none" stroke="black" d="M6928.94,-102.02C6945.39,-97.0537 6962.92,-90.4811 6978,-82 6989.11,-75.752 6999.91,-66.8596 7008.83,-58.4881"/>
<polygon fill="black" stroke="black" points="7011.44,-60.835 7016.15,-51.3449 7006.55,-55.8263 7011.44,-60.835"/>
</g>
<!-- n32&#45;&gt;n47 -->
<g id="edge21" class="edge"><title>n32&#45;&gt;n47</title>
<path fill="none" stroke="black" d="M6882.24,-98.0341C6889.53,-87.0356 6899.15,-72.5126 6907.32,-60.1792"/>
<polygon fill="black" stroke="black" points="6910.35,-61.9367 6912.96,-51.6672 6904.52,-58.0706 6910.35,-61.9367"/>
</g>
<!-- n50 -->
<g id="node65" class="node"><title>n50</title>
<g id="a_node65"><a xlink:href="backpixel%2Cs%2CMissing%2C1" xlink:title="backpixel">
<ellipse fill="grey" stroke="white" cx="6817" cy="-34" rx="44.4664" ry="18"/>
<text text-anchor="middle" x="6817" y="-29.8" font-family="Times,serif" font-size="14.00">backpixel</text>
</a>
</g>
</g>
<!-- n32&#45;&gt;n50 -->
<g id="edge24" class="edge"><title>n32&#45;&gt;n50</title>
<path fill="none" stroke="black" d="M6859.55,-98.0341C6852.12,-87.0356 6842.32,-72.5126 6834,-60.1792"/>
<polygon fill="black" stroke="black" points="6836.75,-57.9975 6828.25,-51.6672 6830.94,-61.9138 6836.75,-57.9975"/>
</g>
<!-- n48 -->
<g id="node66" class="node"><title>n48</title>
<g id="a_node66"><a xlink:href="backcolor%2Cs%2CMissing%2C1" xlink:title="backcolor">
<ellipse fill="grey" stroke="white" cx="6710" cy="-34" rx="44.9423" ry="18"/>
<text text-anchor="middle" x="6710" y="-29.8" font-family="Times,serif" font-size="14.00">backcolor</text>
</a>
</g>
</g>
<!-- n32&#45;&gt;n48 -->
<g id="edge22" class="edge"><title>n32&#45;&gt;n48</title>
<path fill="none" stroke="black" d="M6813.38,-102.014C6796.86,-97.0359 6779.2,-90.4583 6764,-82 6752.74,-75.7378 6741.75,-66.8428 6732.65,-58.473"/>
<polygon fill="black" stroke="black" points="6734.83,-55.7148 6725.19,-51.3324 6729.99,-60.7736 6734.83,-55.7148"/>
</g>
<!-- n24 -->
<g id="node21" class="node"><title>n24</title>
<g id="a_node21"><a xlink:href="array_DeleteKeys%2Cf%2Cstack+%22lib_Array%22%2C1" xlink:title="array_DeleteKeys">
<ellipse fill="GreenYellow" stroke="#008b00" cx="3828" cy="-498" rx="73.8826" ry="18"/>
<text text-anchor="middle" x="3828" y="-493.8" font-family="Times,serif" font-size="14.00">array_DeleteKeys</text>
</a>
</g>
</g>
<!-- n61 -->
<g id="node22" class="node"><title>n61</title>
<g id="a_node22"><a xlink:href="library_ArrayFolder%2Cf%2Cstack+%22model_Project%22%2C1" xlink:title="library_ArrayFolder">
<ellipse fill="GreenYellow" stroke="#008b00" cx="7180" cy="-424" rx="81.6268" ry="18"/>
<text text-anchor="middle" x="7180" y="-419.8" font-family="Times,serif" font-size="14.00">library_ArrayFolder</text>
</a>
</g>
</g>
<!-- n26 -->
<g id="node40" class="node"><title>n26</title>
<g id="a_node40"><a xlink:href="library_PluginFolder%2Cf%2Cstack+%22model_Project%22%2C1" xlink:title="library_PluginFolder">
<ellipse fill="GreenYellow" stroke="#008b00" cx="7181" cy="-352" rx="84.0754" ry="18"/>
<text text-anchor="middle" x="7181" y="-347.8" font-family="Times,serif" font-size="14.00">library_PluginFolder</text>
</a>
</g>
</g>
<!-- n61&#45;&gt;n26 -->
<g id="edge41" class="edge"><title>n61&#45;&gt;n26</title>
<path fill="none" stroke="black" d="M7180.25,-405.697C7180.36,-397.983 7180.49,-388.712 7180.61,-380.112"/>
<polygon fill="black" stroke="black" points="7184.11,-380.153 7180.76,-370.104 7177.11,-380.053 7184.11,-380.153"/>
</g>
<!-- n3 -->
<g id="node23" class="node"><title>n3</title>
<g id="a_node23"><a xlink:href="colour_RgbToHex%2Cf%2Cstack+%22lib_Colour%22%2C1" xlink:title="colour_RgbToHex">
<ellipse fill="GreenYellow" stroke="#008b00" cx="6736" cy="-188" rx="75.6053" ry="18"/>
<text text-anchor="middle" x="6736" y="-183.8" font-family="Times,serif" font-size="14.00">colour_RgbToHex</text>
</a>
</g>
</g>
<!-- n41&#45;&gt;n42 -->
<g id="edge37" class="edge"><title>n41&#45;&gt;n42</title>
<path fill="none" stroke="black" d="M6989.54,-336.911C7010.27,-332.743 7033.53,-328.603 7055,-326 7073.22,-323.791 7203.34,-325.708 7220,-318 7230.87,-312.969 7240.35,-303.911 7247.7,-295.081"/>
<polygon fill="black" stroke="black" points="7250.48,-297.208 7253.83,-287.157 7244.95,-292.926 7250.48,-297.208"/>
</g>
<!-- n1 -->
<g id="node44" class="node"><title>n1</title>
<g id="a_node44"><a xlink:href="colour_HexNormalise%2Cc%2Cstack+%22lib_Colour%22%2C1" xlink:title="colour_HexNormalise">
<ellipse fill="LightBlue" stroke="Blue" cx="6912" cy="-270" rx="88.8842" ry="18"/>
<text text-anchor="middle" x="6912" y="-265.8" font-family="Times,serif" font-size="14.00">colour_HexNormalise</text>
</a>
</g>
</g>
<!-- n41&#45;&gt;n1 -->
<g id="edge36" class="edge"><title>n41&#45;&gt;n1</title>
<path fill="none" stroke="black" d="M6923.75,-333.641C6921.81,-323.297 6919.3,-309.941 6917.1,-298.221"/>
<polygon fill="black" stroke="black" points="6920.48,-297.234 6915.2,-288.05 6913.6,-298.524 6920.48,-297.234"/>
</g>
<!-- n55 -->
<g id="node25" class="node"><title>n55</title>
<g id="a_node25"><a xlink:href="array_ExpandSorted%2Cf%2Cstack+%22lib_Array%22%2C1" xlink:title="array_ExpandSorted">
<ellipse fill="GreenYellow" stroke="#008b00" cx="2496" cy="-498" rx="82.5873" ry="18"/>
<text text-anchor="middle" x="2496" y="-493.8" font-family="Times,serif" font-size="14.00">array_ExpandSorted</text>
</a>
</g>
</g>
<!-- n4 -->
<g id="node39" class="node"><title>n4</title>
<g id="a_node39"><a xlink:href="outline_IncreaseIndent%2Cf%2Cstack+%22lib_XML%22%2C1" xlink:title="outline_IncreaseIndent">
<ellipse fill="GreenYellow" stroke="#008b00" cx="6526" cy="-424" rx="91.2721" ry="18"/>
<text text-anchor="middle" x="6526" y="-419.8" font-family="Times,serif" font-size="14.00">outline_IncreaseIndent</text>
</a>
</g>
</g>
<!-- n55&#45;&gt;n4 -->
<g id="edge31" class="edge"><title>n55&#45;&gt;n4</title>
<path fill="none" stroke="black" d="M2552.57,-484.779C2563.92,-482.796 2575.8,-481.049 2587,-480 2640.05,-475.032 6370.95,-483.371 6423,-472 6446.27,-466.917 6470.59,-456.116 6489.75,-446.148"/>
<polygon fill="black" stroke="black" points="6491.54,-449.155 6498.71,-441.351 6488.24,-442.984 6491.54,-449.155"/>
</g>
<!-- n17 -->
<g id="node58" class="node"><title>n17</title>
<g id="a_node58"><a xlink:href="line_Insert%2Cc%2Cstack+%22lib_XML%22%2C1" xlink:title="line_Insert">
<ellipse fill="LightBlue" stroke="Blue" cx="6683" cy="-424" rx="47.8496" ry="18"/>
<text text-anchor="middle" x="6683" y="-419.8" font-family="Times,serif" font-size="14.00">line_Insert</text>
</a>
</g>
</g>
<!-- n55&#45;&gt;n17 -->
<g id="edge30" class="edge"><title>n55&#45;&gt;n17</title>
<path fill="none" stroke="black" d="M2552.57,-484.779C2563.92,-482.795 2575.8,-481.048 2587,-480 2614.93,-477.386 6599.61,-481.506 6626,-472 6639.33,-467.198 6651.77,-457.789 6661.61,-448.642"/>
<polygon fill="black" stroke="black" points="6664.23,-450.967 6668.9,-441.456 6659.32,-445.979 6664.23,-450.967"/>
</g>
<!-- n58 -->
<g id="node26" class="node"><title>n58</title>
<g id="a_node26"><a xlink:href="array_ConstructSimpleKeys%2Cf%2Cstack+%22lib_Array%22%2C1" xlink:title="array_ConstructSimpleKeys">
<ellipse fill="GreenYellow" stroke="#008b00" cx="3447" cy="-498" rx="110.126" ry="18"/>
<text text-anchor="middle" x="3447" y="-493.8" font-family="Times,serif" font-size="14.00">array_ConstructSimpleKeys</text>
</a>
</g>
</g>
<!-- n5 -->
<g id="node27" class="node"><title>n5</title>
<g id="a_node27"><a xlink:href="outline_DecreaseIndent%2Cf%2Cstack+%22lib_XML%22%2C1" xlink:title="outline_DecreaseIndent">
<ellipse fill="GreenYellow" stroke="#008b00" cx="6695" cy="-352" rx="94.1618" ry="18"/>
<text text-anchor="middle" x="6695" y="-347.8" font-family="Times,serif" font-size="14.00">outline_DecreaseIndent</text>
</a>
</g>
</g>
<!-- n46 -->
<g id="node28" class="node"><title>n46</title>
<g id="a_node28"><a xlink:href="array_ToOutline%2Cf%2Cstack+%22lib_Array%22%2C1" xlink:title="array_ToOutline">
<ellipse fill="GreenYellow" stroke="#008b00" cx="1838" cy="-498" rx="68.3456" ry="18"/>
<text text-anchor="middle" x="1838" y="-493.8" font-family="Times,serif" font-size="14.00">array_ToOutline</text>
</a>
</g>
</g>
<!-- n46&#45;&gt;n46 -->
<g id="edge19" class="edge"><title>n46&#45;&gt;n46</title>
<path fill="none" stroke="black" d="M1883.35,-511.536C1905.17,-513.207 1924.42,-508.695 1924.42,-498 1924.42,-489.059 1910.97,-484.44 1893.81,-484.141"/>
<polygon fill="black" stroke="black" points="1893.24,-480.656 1883.35,-484.464 1893.46,-487.653 1893.24,-480.656"/>
</g>
<!-- n46&#45;&gt;n4 -->
<g id="edge20" class="edge"><title>n46&#45;&gt;n4</title>
<path fill="none" stroke="black" d="M1889.6,-486.169C1903.91,-483.628 1919.5,-481.287 1934,-480 1996.1,-474.488 6362.09,-485.298 6423,-472 6446.27,-466.92 6470.59,-456.119 6489.75,-446.151"/>
<polygon fill="black" stroke="black" points="6491.55,-449.158 6498.71,-441.354 6488.24,-442.987 6491.55,-449.158"/>
</g>
<!-- n20 -->
<g id="node29" class="node"><title>n20</title>
<g id="a_node29"><a xlink:href="array_FindContents%2Cf%2Cstack+%22lib_Array%22%2C1" xlink:title="array_FindContents">
<ellipse fill="GreenYellow" stroke="#008b00" cx="3045" cy="-498" rx="80.2076" ry="18"/>
<text text-anchor="middle" x="3045" y="-493.8" font-family="Times,serif" font-size="14.00">array_FindContents</text>
</a>
</g>
</g>
<!-- n60 -->
<g id="node31" class="node"><title>n60</title>
<g id="a_node31"><a xlink:href="array_GetSortByNumber%2Cf%2Cstack+%22lib_Array%22%2C1" xlink:title="array_GetSortByNumber">
<ellipse fill="GreenYellow" stroke="#008b00" cx="2847" cy="-498" rx="99.5002" ry="18"/>
<text text-anchor="middle" x="2847" y="-493.8" font-family="Times,serif" font-size="14.00">array_GetSortByNumber</text>
</a>
</g>
</g>
<!-- n65 -->
<g id="node32" class="node"><title>n65</title>
<g id="a_node32"><a xlink:href="folder_ShortFiles%2Cf%2Cstack+%22libOPN_FedWiki%22%2C1" xlink:title="folder_ShortFiles">
<ellipse fill="GreenYellow" stroke="#008b00" cx="7361" cy="-424" rx="72.0135" ry="18"/>
<text text-anchor="middle" x="7361" y="-419.8" font-family="Times,serif" font-size="14.00">folder_ShortFiles</text>
</a>
</g>
</g>
<!-- n2 -->
<g id="node33" class="node"><title>n2</title>
<g id="a_node33"><a xlink:href="colour_NameToRgb%2Cf%2Cstack+%22lib_Colour%22%2C1" xlink:title="colour_NameToRgb">
<ellipse fill="GreenYellow" stroke="#008b00" cx="6912" cy="-188" rx="82.3695" ry="18"/>
<text text-anchor="middle" x="6912" y="-183.8" font-family="Times,serif" font-size="14.00">colour_NameToRgb</text>
</a>
</g>
</g>
<!-- n2&#45;&gt;n31 -->
<g id="edge3" class="edge"><title>n2&#45;&gt;n31</title>
<path fill="none" stroke="black" d="M6869.15,-172.581C6834.91,-161.057 6786.95,-144.917 6751.53,-132.997"/>
<polygon fill="black" stroke="black" points="6752.49,-129.627 6741.9,-129.754 6750.26,-136.261 6752.49,-129.627"/>
</g>
<!-- n2&#45;&gt;n32 -->
<g id="edge4" class="edge"><title>n2&#45;&gt;n32</title>
<path fill="none" stroke="black" d="M6902.08,-170.055C6897.31,-161.922 6891.5,-151.998 6886.19,-142.943"/>
<polygon fill="black" stroke="black" points="6889.19,-141.135 6881.12,-134.275 6883.15,-144.673 6889.19,-141.135"/>
</g>
<!-- n30 -->
<g id="node46" class="node"><title>n30</title>
<g id="a_node46"><a xlink:href="colour_ConvertEnglishName%2Cc%2Cstack+%22lib_Colour%22%2C1" xlink:title="colour_ConvertEnglishName">
<ellipse fill="LightBlue" stroke="Blue" cx="7094" cy="-116" rx="114" ry="18"/>
<text text-anchor="middle" x="7094" y="-111.8" font-family="Times,serif" font-size="14.00">colour_ConvertEnglishName</text>
</a>
</g>
</g>
<!-- n2&#45;&gt;n30 -->
<g id="edge2" class="edge"><title>n2&#45;&gt;n30</title>
<path fill="none" stroke="black" d="M6951.04,-171.983C6977.98,-161.625 7014.04,-147.754 7043.21,-136.536"/>
<polygon fill="black" stroke="black" points="7044.73,-139.699 7052.81,-132.843 7042.22,-133.166 7044.73,-139.699"/>
</g>
<!-- n40 -->
<g id="node34" class="node"><title>n40</title>
<g id="a_node34"><a xlink:href="array_AllNodes%2Cf%2Cstack+%22lib_Array%22%2C1" xlink:title="array_AllNodes">
<ellipse fill="GreenYellow" stroke="#008b00" cx="2663" cy="-498" rx="66.6752" ry="18"/>
<text text-anchor="middle" x="2663" y="-493.8" font-family="Times,serif" font-size="14.00">array_AllNodes</text>
</a>
</g>
</g>
<!-- n59 -->
<g id="node35" class="node"><title>n59</title>
<g id="a_node35"><a xlink:href="array_FromFolder%2Cf%2Cstack+%22lib_Array%22%2C1" xlink:title="array_FromFolder">
<ellipse fill="GreenYellow" stroke="#008b00" cx="4478" cy="-498" rx="74.8862" ry="18"/>
<text text-anchor="middle" x="4478" y="-493.8" font-family="Times,serif" font-size="14.00">array_FromFolder</text>
</a>
</g>
</g>
<!-- n59&#45;&gt;n59 -->
<g id="edge9" class="edge"><title>n59&#45;&gt;n59</title>
<path fill="none" stroke="black" d="M4527.25,-511.569C4550.51,-513.146 4570.94,-508.623 4570.94,-498 4570.94,-488.954 4556.13,-484.331 4537.36,-484.132"/>
<polygon fill="black" stroke="black" points="4537.14,-480.637 4527.25,-484.431 4537.35,-487.634 4537.14,-480.637"/>
</g>
<!-- n13 -->
<g id="node64" class="node"><title>n13</title>
<g id="a_node64"><a xlink:href="folder_Format%2Cc%2Cstack+%22Rescue+Livecode+World%22%2C1" xlink:title="folder_Format">
<ellipse fill="LightBlue" stroke="Blue" cx="7375" cy="-270" rx="61.3804" ry="18"/>
<text text-anchor="middle" x="7375" y="-265.8" font-family="Times,serif" font-size="14.00">folder_Format</text>
</a>
</g>
</g>
<!-- n59&#45;&gt;n13 -->
<g id="edge10" class="edge"><title>n59&#45;&gt;n13</title>
<path fill="none" stroke="black" d="M4533.91,-486.003C4548.83,-483.53 4564.97,-481.265 4580,-480 4589.91,-479.166 7437.98,-479.044 7445,-472 7494.17,-422.695 7433.02,-337.07 7397.33,-295.308"/>
<polygon fill="black" stroke="black" points="7399.78,-292.796 7390.57,-287.564 7394.51,-297.399 7399.78,-292.796"/>
</g>
<!-- n39 -->
<g id="node36" class="node"><title>n39</title>
<g id="a_node36"><a xlink:href="array_SortElements%2Cf%2Cstack+%22lib_Array%22%2C1" xlink:title="array_SortElements">
<ellipse fill="GreenYellow" stroke="#008b00" cx="2315" cy="-498" rx="80.1817" ry="18"/>
<text text-anchor="middle" x="2315" y="-493.8" font-family="Times,serif" font-size="14.00">array_SortElements</text>
</a>
</g>
</g>
<!-- n45 -->
<g id="node37" class="node"><title>n45</title>
<g id="a_node37"><a xlink:href="array_Elements%2Cf%2Cstack+%22lib_Array%22%2C1" xlink:title="array_Elements">
<ellipse fill="GreenYellow" stroke="#008b00" cx="2151" cy="-498" rx="65.6976" ry="18"/>
<text text-anchor="middle" x="2151" y="-493.8" font-family="Times,serif" font-size="14.00">array_Elements</text>
</a>
</g>
</g>
<!-- n23 -->
<g id="node38" class="node"><title>n23</title>
<g id="a_node38"><a xlink:href="array_Subtract%2Cf%2Cstack+%22lib_Array%22%2C1" xlink:title="array_Subtract">
<ellipse fill="GreenYellow" stroke="#008b00" cx="2005" cy="-498" rx="62.3234" ry="18"/>
<text text-anchor="middle" x="2005" y="-493.8" font-family="Times,serif" font-size="14.00">array_Subtract</text>
</a>
</g>
</g>
<!-- n4&#45;&gt;n6 -->
<g id="edge35" class="edge"><title>n4&#45;&gt;n6</title>
<path fill="none" stroke="black" d="M6521.8,-405.697C6519.9,-397.898 6517.62,-388.509 6515.52,-379.829"/>
<polygon fill="black" stroke="black" points="6518.92,-378.996 6513.15,-370.104 6512.11,-380.648 6518.92,-378.996"/>
</g>
<!-- n4&#45;&gt;n5 -->
<g id="edge34" class="edge"><title>n4&#45;&gt;n5</title>
<path fill="none" stroke="black" d="M6563.51,-407.465C6588.36,-397.169 6621.17,-383.579 6647.8,-372.549"/>
<polygon fill="black" stroke="black" points="6649.41,-375.673 6657.31,-368.613 6646.73,-369.206 6649.41,-375.673"/>
</g>
<!-- n12 -->
<g id="node61" class="node"><title>n12</title>
<g id="a_node61"><a xlink:href="folder_CreateNested%2Cc%2Cstack+%22Rescue+Livecode+World%22%2C1" xlink:title="folder_CreateNested">
<ellipse fill="LightBlue" stroke="Blue" cx="7537" cy="-270" rx="83.0546" ry="18"/>
<text text-anchor="middle" x="7537" y="-265.8" font-family="Times,serif" font-size="14.00">folder_CreateNested</text>
</a>
</g>
</g>
<!-- n26&#45;&gt;n12 -->
<g id="edge28" class="edge"><title>n26&#45;&gt;n12</title>
<path fill="none" stroke="black" d="M7263.42,-348.054C7316.28,-344.381 7385.84,-336.192 7445,-318 7464.82,-311.906 7485.5,-301.733 7502.22,-292.407"/>
<polygon fill="black" stroke="black" points="7504.13,-295.347 7511.07,-287.344 7500.65,-289.27 7504.13,-295.347"/>
</g>
<!-- n26&#45;&gt;n13 -->
<g id="edge29" class="edge"><title>n26&#45;&gt;n13</title>
<path fill="none" stroke="black" d="M7241.05,-339.265C7261.82,-334.106 7284.91,-327.107 7305,-318 7319.48,-311.433 7334.28,-301.976 7346.51,-293.265"/>
<polygon fill="black" stroke="black" points="7348.93,-295.835 7354.93,-287.105 7344.79,-290.187 7348.93,-295.835"/>
</g>
<!-- n64 -->
<g id="node41" class="node"><title>n64</title>
<g id="a_node41"><a xlink:href="array_ShortFileNames%2Cf%2Cstack+%22lib_Array%22%2C1" xlink:title="array_ShortFileNames">
<ellipse fill="GreenYellow" stroke="#008b00" cx="4295" cy="-498" rx="90.3377" ry="18"/>
<text text-anchor="middle" x="4295" y="-493.8" font-family="Times,serif" font-size="14.00">array_ShortFileNames</text>
</a>
</g>
</g>
<!-- n64&#45;&gt;n61 -->
<g id="edge15" class="edge"><title>n64&#45;&gt;n61</title>
<path fill="none" stroke="black" d="M4356.58,-484.789C4368.93,-482.804 4381.84,-481.055 4394,-480 4467.59,-473.616 6980.32,-485.131 7053,-472 7082.51,-466.668 7114.15,-454.98 7138.46,-444.593"/>
<polygon fill="black" stroke="black" points="7139.97,-447.753 7147.74,-440.544 7137.17,-441.338 7139.97,-447.753"/>
</g>
<!-- n64&#45;&gt;n65 -->
<g id="edge14" class="edge"><title>n64&#45;&gt;n65</title>
<path fill="none" stroke="black" d="M4356.58,-484.787C4368.93,-482.802 4381.84,-481.054 4394,-480 4433.89,-476.544 7238.27,-482.157 7277,-472 7296.05,-467.004 7315.37,-456.645 7330.66,-446.921"/>
<polygon fill="black" stroke="black" points="7332.75,-449.739 7339.17,-441.314 7328.9,-443.893 7332.75,-449.739"/>
</g>
<!-- n44 -->
<g id="node42" class="node"><title>n44</title>
<g id="a_node42"><a xlink:href="array_FilterKeys%2Cf%2Cstack+%22lib_Array%22%2C1" xlink:title="array_FilterKeys">
<ellipse fill="GreenYellow" stroke="#008b00" cx="1682" cy="-498" rx="70.0495" ry="18"/>
<text text-anchor="middle" x="1682" y="-493.8" font-family="Times,serif" font-size="14.00">array_FilterKeys</text>
</a>
</g>
</g>
<!-- n56 -->
<g id="node43" class="node"><title>n56</title>
<g id="a_node43"><a xlink:href="array_DeleteFromIndex%2Cc%2Cstack+%22lib_Array%22%2C1" xlink:title="array_DeleteFromIndex">
<ellipse fill="LightBlue" stroke="Blue" cx="947" cy="-498" rx="95.1309" ry="18"/>
<text text-anchor="middle" x="947" y="-493.8" font-family="Times,serif" font-size="14.00">array_DeleteFromIndex</text>
</a>
</g>
</g>
<!-- n56&#45;&gt;n38 -->
<g id="edge6" class="edge"><title>n56&#45;&gt;n38</title>
<path fill="none" stroke="black" d="M1011.71,-484.775C1024.68,-482.791 1038.24,-481.046 1051,-480 1086.89,-477.058 6202.83,-483.371 6237,-472 6251.69,-467.111 6265.73,-457.324 6276.82,-447.94"/>
<polygon fill="black" stroke="black" points="6279.19,-450.516 6284.33,-441.254 6274.54,-445.286 6279.19,-450.516"/>
</g>
<!-- n1&#45;&gt;n3 -->
<g id="edge18" class="edge"><title>n1&#45;&gt;n3</title>
<path fill="none" stroke="black" d="M6867.47,-254.427C6852.5,-249.114 6835.84,-242.743 6821,-236 6804.22,-228.375 6786.27,-218.692 6771.21,-210.099"/>
<polygon fill="black" stroke="black" points="6772.65,-206.891 6762.24,-204.918 6769.15,-212.951 6772.65,-206.891"/>
</g>
<!-- n1&#45;&gt;n2 -->
<g id="edge17" class="edge"><title>n1&#45;&gt;n2</title>
<path fill="none" stroke="black" d="M6912,-251.641C6912,-241.297 6912,-227.941 6912,-216.221"/>
<polygon fill="black" stroke="black" points="6915.5,-216.05 6912,-206.05 6908.5,-216.05 6915.5,-216.05"/>
</g>
<!-- n36 -->
<g id="node48" class="node"><title>n36</title>
<g id="a_node48"><a xlink:href="line_AddToIndex%2Cc%2Cstack+%22lib_Text%22%2C1" xlink:title="line_AddToIndex">
<ellipse fill="LightBlue" stroke="Blue" cx="381" cy="-270" rx="72.222" ry="18"/>
<text text-anchor="middle" x="381" y="-265.8" font-family="Times,serif" font-size="14.00">line_AddToIndex</text>
</a>
</g>
</g>
<!-- n35&#45;&gt;n36 -->
<g id="edge38" class="edge"><title>n35&#45;&gt;n36</title>
<path fill="none" stroke="black" d="M381,-333.641C381,-323.297 381,-309.941 381,-298.221"/>
<polygon fill="black" stroke="black" points="384.5,-298.05 381,-288.05 377.5,-298.05 384.5,-298.05"/>
</g>
<!-- n57 -->
<g id="node47" class="node"><title>n57</title>
<g id="a_node47"><a xlink:href="array_Add%2Cc%2Cstack+%22lib_Array%22%2C1" xlink:title="array_Add">
<ellipse fill="LightBlue" stroke="Blue" cx="1410" cy="-498" rx="47.841" ry="18"/>
<text text-anchor="middle" x="1410" y="-493.8" font-family="Times,serif" font-size="14.00">array_Add</text>
</a>
</g>
</g>
<!-- n19 -->
<g id="node62" class="node"><title>n19</title>
<g id="a_node62"><a xlink:href="line_Add%2Cc%2Cstack+%22lib_Common%22%2C1" xlink:title="line_Add">
<ellipse fill="LightBlue" stroke="Blue" cx="307" cy="-188" rx="43.0387" ry="18"/>
<text text-anchor="middle" x="307" y="-183.8" font-family="Times,serif" font-size="14.00">line_Add</text>
</a>
</g>
</g>
<!-- n36&#45;&gt;n19 -->
<g id="edge8" class="edge"><title>n36&#45;&gt;n19</title>
<path fill="none" stroke="black" d="M365.307,-252.034C354.696,-240.563 340.539,-225.259 328.833,-212.603"/>
<polygon fill="black" stroke="black" points="331.274,-210.087 321.914,-205.123 326.135,-214.841 331.274,-210.087"/>
</g>
<!-- n28 -->
<g id="node49" class="node"><title>n28</title>
<g id="a_node49"><a xlink:href="array_FlatUnion%2Cc%2Cstack+%22lib_Array%22%2C1" xlink:title="array_FlatUnion">
<ellipse fill="LightBlue" stroke="Blue" cx="1276" cy="-498" rx="68.6133" ry="18"/>
<text text-anchor="middle" x="1276" y="-493.8" font-family="Times,serif" font-size="14.00">array_FlatUnion</text>
</a>
</g>
</g>
<!-- n66 -->
<g id="node50" class="node"><title>n66</title>
<g id="a_node50"><a xlink:href="array_AddNew%2Cc%2Cstack+%22lib_Array%22%2C1" xlink:title="array_AddNew">
<ellipse fill="LightBlue" stroke="Blue" cx="1125" cy="-498" rx="64.7372" ry="18"/>
<text text-anchor="middle" x="1125" y="-493.8" font-family="Times,serif" font-size="14.00">array_AddNew</text>
</a>
</g>
</g>
<!-- n11 -->
<g id="node51" class="node"><title>n11</title>
<g id="a_node51"><a xlink:href="array_ToFolder%2Cc%2Cstack+%22lib_Array%22%2C1" xlink:title="array_ToFolder">
<ellipse fill="LightBlue" stroke="Blue" cx="4654" cy="-498" rx="64.9711" ry="18"/>
<text text-anchor="middle" x="4654" y="-493.8" font-family="Times,serif" font-size="14.00">array_ToFolder</text>
</a>
</g>
</g>
<!-- n11&#45;&gt;n11 -->
<g id="edge42" class="edge"><title>n11&#45;&gt;n11</title>
<path fill="none" stroke="black" d="M4697.12,-511.502C4718.24,-513.268 4736.99,-508.768 4736.99,-498 4736.99,-488.999 4723.89,-484.377 4707.25,-484.135"/>
<polygon fill="black" stroke="black" points="4706.99,-480.642 4697.12,-484.498 4707.24,-487.638 4706.99,-480.642"/>
</g>
<!-- n11&#45;&gt;n12 -->
<g id="edge43" class="edge"><title>n11&#45;&gt;n12</title>
<path fill="none" stroke="black" d="M4703.43,-486.179C4717.15,-483.638 4732.09,-481.295 4746,-480 4755.54,-479.112 7498.73,-478.249 7506,-472 7555.83,-429.14 7549.58,-342.332 7542.46,-298.153"/>
<polygon fill="black" stroke="black" points="7545.89,-297.392 7540.72,-288.143 7538.99,-298.596 7545.89,-297.392"/>
</g>
<!-- n11&#45;&gt;n13 -->
<g id="edge44" class="edge"><title>n11&#45;&gt;n13</title>
<path fill="none" stroke="black" d="M4703.43,-486.179C4717.15,-483.638 4732.09,-481.295 4746,-480 4755.43,-479.122 7468.31,-478.71 7475,-472 7520.82,-426.049 7514.53,-377.456 7475,-326 7466.59,-315.057 7457.57,-323.702 7445,-318 7430.52,-311.43 7415.72,-301.972 7403.49,-293.261"/>
<polygon fill="black" stroke="black" points="7405.21,-290.183 7395.07,-287.102 7401.07,-295.832 7405.21,-290.183"/>
</g>
<!-- n16 -->
<g id="node52" class="node"><title>n16</title>
<g id="a_node52"><a xlink:href="array_InsertIntoIndex%2Cc%2Cstack+%22lib_Array%22%2C1" xlink:title="array_InsertIntoIndex">
<ellipse fill="LightBlue" stroke="Blue" cx="3231" cy="-498" rx="87.4134" ry="18"/>
<text text-anchor="middle" x="3231" y="-493.8" font-family="Times,serif" font-size="14.00">array_InsertIntoIndex</text>
</a>
</g>
</g>
<!-- n16&#45;&gt;n17 -->
<g id="edge12" class="edge"><title>n16&#45;&gt;n17</title>
<path fill="none" stroke="black" d="M3290.81,-484.868C3303.06,-482.849 3315.91,-481.066 3328,-480 3350.81,-477.988 6604.45,-479.767 6626,-472 6639.33,-467.195 6651.77,-457.785 6661.6,-448.639"/>
<polygon fill="black" stroke="black" points="6664.23,-450.964 6668.9,-441.454 6659.32,-445.977 6664.23,-450.964"/>
</g>
<!-- n21 -->
<g id="node53" class="node"><title>n21</title>
<g id="a_node53"><a xlink:href="text_AddTrailing%2Cc%2Cstack+%22Rescue+Livecode+World%22%2C1" xlink:title="text_AddTrailing">
<ellipse fill="LightBlue" stroke="Blue" cx="7456" cy="-188" rx="71.3991" ry="18"/>
<text text-anchor="middle" x="7456" y="-183.8" font-family="Times,serif" font-size="14.00">text_AddTrailing</text>
</a>
</g>
</g>
<!-- n18 -->
<g id="node55" class="node"><title>n18</title>
<g id="a_node55"><a xlink:href="line_Replace%2Cc%2Cstack+%22lib_Text%22%2C1" xlink:title="line_Replace">
<ellipse fill="LightBlue" stroke="Blue" cx="234" cy="-270" rx="56.0355" ry="18"/>
<text text-anchor="middle" x="234" y="-265.8" font-family="Times,serif" font-size="14.00">line_Replace</text>
</a>
</g>
</g>
<!-- n18&#45;&gt;n19 -->
<g id="edge7" class="edge"><title>n18&#45;&gt;n19</title>
<path fill="none" stroke="black" d="M249.126,-252.424C259.639,-240.902 273.806,-225.377 285.491,-212.571"/>
<polygon fill="black" stroke="black" points="288.237,-214.755 292.392,-205.009 283.066,-210.037 288.237,-214.755"/>
</g>
<!-- n27 -->
<g id="node56" class="node"><title>n27</title>
<g id="a_node56"><a xlink:href="array_Compare%2Cc%2Cstack+%22lib_Array%22%2C1" xlink:title="array_Compare">
<ellipse fill="LightBlue" stroke="Blue" cx="595" cy="-498" rx="65.2131" ry="18"/>
<text text-anchor="middle" x="595" y="-493.8" font-family="Times,serif" font-size="14.00">array_Compare</text>
</a>
</g>
</g>
<!-- n33 -->
<g id="node57" class="node"><title>n33</title>
<g id="a_node57"><a xlink:href="array_Save%2Cc%2Cstack+%22lib_Array%22%2C1" xlink:title="array_Save">
<ellipse fill="LightBlue" stroke="Blue" cx="6013" cy="-498" rx="49.7619" ry="18"/>
<text text-anchor="middle" x="6013" y="-493.8" font-family="Times,serif" font-size="14.00">array_Save</text>
</a>
</g>
</g>
<!-- n33&#45;&gt;n12 -->
<g id="edge1" class="edge"><title>n33&#45;&gt;n12</title>
<path fill="none" stroke="black" d="M6063.21,-497.142C6325.2,-497.764 7524.31,-499.126 7551,-472 7596.75,-425.502 7568.42,-340.095 7549.66,-297.135"/>
<polygon fill="black" stroke="black" points="7552.8,-295.578 7545.49,-287.906 7546.42,-298.46 7552.8,-295.578"/>
</g>
<!-- n63 -->
<g id="node60" class="node"><title>n63</title>
<g id="a_node60"><a xlink:href="array_ReplaceElement%2Cc%2Cstack+%22lib_Array%22%2C1" xlink:title="array_ReplaceElement">
<ellipse fill="LightBlue" stroke="Blue" cx="234" cy="-498" rx="90.7703" ry="18"/>
<text text-anchor="middle" x="234" y="-493.8" font-family="Times,serif" font-size="14.00">array_ReplaceElement</text>
</a>
</g>
</g>
<!-- n63&#45;&gt;n18 -->
<g id="edge32" class="edge"><title>n63&#45;&gt;n18</title>
<path fill="none" stroke="black" d="M234,-479.641C234,-440.518 234,-345.209 234,-298.172"/>
<polygon fill="black" stroke="black" points="237.5,-298.108 234,-288.108 230.5,-298.108 237.5,-298.108"/>
</g>
<!-- n12&#45;&gt;n21 -->
<g id="edge27" class="edge"><title>n12&#45;&gt;n21</title>
<path fill="none" stroke="black" d="M7519.82,-252.034C7508.25,-240.608 7492.83,-225.379 7480.05,-212.753"/>
<polygon fill="black" stroke="black" points="7482.45,-210.204 7472.88,-205.667 7477.53,-215.184 7482.45,-210.204"/>
</g>
<!-- n34 -->
<g id="node63" class="node"><title>n34</title>
<g id="a_node63"><a xlink:href="array_Union%2Cc%2Cstack+%22lib_Array%22%2C1" xlink:title="array_Union">
<ellipse fill="LightBlue" stroke="Blue" cx="71" cy="-498" rx="54.599" ry="18"/>
<text text-anchor="middle" x="71" y="-493.8" font-family="Times,serif" font-size="14.00">array_Union</text>
</a>
</g>
</g>
<!-- n13&#45;&gt;n21 -->
<g id="edge45" class="edge"><title>n13&#45;&gt;n21</title>
<path fill="none" stroke="black" d="M7391.78,-252.424C7403.4,-240.947 7419.05,-225.496 7431.98,-212.719"/>
<polygon fill="black" stroke="black" points="7434.58,-215.072 7439.24,-205.555 7429.66,-210.092 7434.58,-215.072"/>
</g>
</g>
</svg>
