<?xml version="1.0" encoding="UTF-8" standalone="no"?>
<!DOCTYPE svg PUBLIC "-//W3C//DTD SVG 1.1//EN"
 "http://www.w3.org/Graphics/SVG/1.1/DTD/svg11.dtd">
<!-- Generated by graphviz version 2.38.0 (20140413.2041)
 -->
<!-- Title: dot_FromArray Pages: 1 -->
<svg width="410pt" height="170pt"
 viewBox="0.00 0.00 410.00 170.00" xmlns="http://www.w3.org/2000/svg" xmlns:xlink="http://www.w3.org/1999/xlink">
<g id="graph0" class="graph" transform="scale(1 1) rotate(0) translate(4 166)">
<title>dot_FromArray</title>
<polygon fill="white" stroke="none" points="-4,4 -4,-166 406,-166 406,4 -4,4"/>
<g id="clust3" class="cluster"><title>cluster1</title>
<polygon fill="#999999" stroke="#999999" points="8,-8 8,-154 394,-154 394,-8 8,-8"/>
<text text-anchor="middle" x="201" y="-138.8" font-family="Times,serif" font-size="14.00">stack &quot;lib_Cloud&quot;</text>
</g>
<!-- n1 -->
<g id="node1" class="node"><title>n1</title>
<g id="a_node1"><a xlink:href="cloud_ConstructURL%2Cf%2Cstack+%22lib_Cloud%22%2C1" xlink:title="cloud_ConstructURL">
<ellipse fill="GreenYellow" stroke="#008b00" cx="102" cy="-34" rx="86.0051" ry="18"/>
<text text-anchor="middle" x="102" y="-29.8" font-family="Times,serif" font-size="14.00">cloud_ConstructURL</text>
</a>
</g>
</g>
<!-- n3 -->
<g id="node2" class="node"><title>n3</title>
<g id="a_node2"><a xlink:href="cloud_RestGet%2Cf%2Cstack+%22lib_Cloud%22%2C1" xlink:title="cloud_RestGet">
<ellipse fill="GreenYellow" stroke="#008b00" cx="199" cy="-106" rx="62.8339" ry="18"/>
<text text-anchor="middle" x="199" y="-101.8" font-family="Times,serif" font-size="14.00">cloud_RestGet</text>
</a>
</g>
</g>
<!-- n3&#45;&gt;n1 -->
<g id="edge1" class="edge"><title>n3&#45;&gt;n1</title>
<path fill="none" stroke="black" d="M176.989,-89.1159C164.121,-79.8294 147.663,-67.9529 133.446,-57.6932"/>
<polygon fill="black" stroke="black" points="135.093,-54.5653 124.936,-51.5516 130.997,-60.2417 135.093,-54.5653"/>
</g>
<!-- n2 -->
<g id="node3" class="node"><title>n2</title>
<g id="a_node3"><a xlink:href="cloud_SetRestHeaders%2Cc%2Cstack+%22lib_Cloud%22%2C1" xlink:title="cloud_SetRestHeaders">
<ellipse fill="LightBlue" stroke="Blue" cx="296" cy="-34" rx="90.3377" ry="18"/>
<text text-anchor="middle" x="296" y="-29.8" font-family="Times,serif" font-size="14.00">cloud_SetRestHeaders</text>
</a>
</g>
</g>
<!-- n3&#45;&gt;n2 -->
<g id="edge2" class="edge"><title>n3&#45;&gt;n2</title>
<path fill="none" stroke="black" d="M221.011,-89.1159C233.879,-79.8294 250.337,-67.9529 264.554,-57.6932"/>
<polygon fill="black" stroke="black" points="267.003,-60.2417 273.064,-51.5516 262.907,-54.5653 267.003,-60.2417"/>
</g>
</g>
</svg>
