<?xml version="1.0" encoding="UTF-8" standalone="no"?>
<!DOCTYPE svg PUBLIC "-//W3C//DTD SVG 1.1//EN"
 "http://www.w3.org/Graphics/SVG/1.1/DTD/svg11.dtd">
<!-- Generated by graphviz version 2.38.0 (20140413.2041)
 -->
<!-- Title: dot_FromArray Pages: 1 -->
<svg width="594pt" height="180pt"
 viewBox="0.00 0.00 594.00 180.00" xmlns="http://www.w3.org/2000/svg" xmlns:xlink="http://www.w3.org/1999/xlink">
<g id="graph0" class="graph" transform="scale(1 1) rotate(0) translate(4 176)">
<title>dot_FromArray</title>
<polygon fill="white" stroke="none" points="-4,4 -4,-176 590,-176 590,4 -4,4"/>
<g id="clust3" class="cluster"><title>cluster1</title>
<polygon fill="orange" stroke="red" points="8,-8 8,-82 578,-82 578,-8 8,-8"/>
<text text-anchor="middle" x="293" y="-66.8" font-family="Times,serif" font-size="14.00">Missing</text>
</g>
<g id="clust4" class="cluster"><title>cluster2</title>
<polygon fill="#999999" stroke="#999999" points="135,-90 135,-164 567,-164 567,-90 135,-90"/>
<text text-anchor="middle" x="351" y="-148.8" font-family="Times,serif" font-size="14.00">stack &quot;lib_Galleria&quot;</text>
</g>
<!-- n6 -->
<g id="node1" class="node"><title>n6</title>
<g id="a_node1"><a xlink:href="galleria_GetRecordFolder%2Cf%2Cstack+%22lib_Galleria%22%2C1" xlink:title="galleria_GetRecordFolder">
<ellipse fill="GreenYellow" stroke="#008b00" cx="457" cy="-116" rx="102.373" ry="18"/>
<text text-anchor="middle" x="457" y="-111.8" font-family="Times,serif" font-size="14.00">galleria_GetRecordFolder</text>
</a>
</g>
</g>
<!-- n1 -->
<g id="node2" class="node"><title>n1</title>
<g id="a_node2"><a xlink:href="galleria_GetRecordFiles%2Cf%2Cstack+%22lib_Galleria%22%2C1" xlink:title="galleria_GetRecordFiles">
<ellipse fill="GreenYellow" stroke="#008b00" cx="240" cy="-116" rx="96.5931" ry="18"/>
<text text-anchor="middle" x="240" y="-111.8" font-family="Times,serif" font-size="14.00">galleria_GetRecordFiles</text>
</a>
</g>
</g>
<!-- n2 -->
<g id="node3" class="node"><title>n2</title>
<g id="a_node3"><a xlink:href="rigFetchConfigItem%2Cf%2CMissing%2C1" xlink:title="rigFetchConfigItem">
<ellipse fill="GreenYellow" stroke="#008b00" cx="490" cy="-34" rx="79.7316" ry="18"/>
<text text-anchor="middle" x="490" y="-29.8" font-family="Times,serif" font-size="14.00">rigFetchConfigItem</text>
</a>
</g>
</g>
<!-- n1&#45;&gt;n2 -->
<g id="edge1" class="edge"><title>n1&#45;&gt;n2</title>
<path fill="none" stroke="black" d="M294.821,-101.109C311.219,-97.2151 329.283,-93.1809 346,-90 370.266,-85.3827 377.515,-89.6566 401,-82 420.026,-75.7972 439.84,-65.7381 455.93,-56.5144"/>
<polygon fill="black" stroke="black" points="458.094,-59.3022 464.939,-51.2155 454.545,-53.2685 458.094,-59.3022"/>
</g>
<!-- n5 -->
<g id="node4" class="node"><title>n5</title>
<g id="a_node4"><a xlink:href="rigTrim%2Cf%2CMissing%2C1" xlink:title="rigTrim">
<ellipse fill="GreenYellow" stroke="#008b00" cx="355" cy="-34" rx="37.114" ry="18"/>
<text text-anchor="middle" x="355" y="-29.8" font-family="Times,serif" font-size="14.00">rigTrim</text>
</a>
</g>
</g>
<!-- n1&#45;&gt;n5 -->
<g id="edge4" class="edge"><title>n1&#45;&gt;n5</title>
<path fill="none" stroke="black" d="M278.585,-99.4622C288.879,-94.5505 299.713,-88.6457 309,-82 318.192,-75.422 327.154,-66.9028 334.689,-58.9275"/>
<polygon fill="black" stroke="black" points="337.558,-60.9754 341.704,-51.2255 332.383,-56.2617 337.558,-60.9754"/>
</g>
<!-- n3 -->
<g id="node5" class="node"><title>n3</title>
<g id="a_node5"><a xlink:href="rigGetFileNames%2Cf%2CMissing%2C1" xlink:title="rigGetFileNames">
<ellipse fill="GreenYellow" stroke="#008b00" cx="229" cy="-34" rx="71.0272" ry="18"/>
<text text-anchor="middle" x="229" y="-29.8" font-family="Times,serif" font-size="14.00">rigGetFileNames</text>
</a>
</g>
</g>
<!-- n1&#45;&gt;n3 -->
<g id="edge2" class="edge"><title>n1&#45;&gt;n3</title>
<path fill="none" stroke="black" d="M237.613,-97.6412C236.191,-87.2971 234.354,-73.941 232.743,-62.2206"/>
<polygon fill="black" stroke="black" points="236.174,-61.4801 231.344,-52.0501 229.239,-62.4337 236.174,-61.4801"/>
</g>
<!-- n4 -->
<g id="node6" class="node"><title>n4</title>
<g id="a_node6"><a xlink:href="rigLoadHelper%2Cc%2CMissing%2C1" xlink:title="rigLoadHelper">
<ellipse fill="LightBlue" stroke="Blue" cx="78" cy="-34" rx="62.3234" ry="18"/>
<text text-anchor="middle" x="78" y="-29.8" font-family="Times,serif" font-size="14.00">rigLoadHelper</text>
</a>
</g>
</g>
<!-- n1&#45;&gt;n4 -->
<g id="edge3" class="edge"><title>n1&#45;&gt;n4</title>
<path fill="none" stroke="black" d="M192.814,-100.281C178.447,-95.1682 162.81,-88.9512 149,-82 134.868,-74.887 120.144,-65.507 107.791,-56.9985"/>
<polygon fill="black" stroke="black" points="109.453,-53.8883 99.2588,-51.002 105.428,-59.6155 109.453,-53.8883"/>
</g>
</g>
</svg>
