<?xml version="1.0" encoding="UTF-8" standalone="no"?>
<!DOCTYPE svg PUBLIC "-//W3C//DTD SVG 1.1//EN"
 "http://www.w3.org/Graphics/SVG/1.1/DTD/svg11.dtd">
<!-- Generated by graphviz version 2.38.0 (20140413.2041)
 -->
<!-- Title: dot_FromArray Pages: 1 -->
<svg width="2250pt" height="214pt"
 viewBox="0.00 0.00 2250.00 214.37" xmlns="http://www.w3.org/2000/svg" xmlns:xlink="http://www.w3.org/1999/xlink">
<g id="graph0" class="graph" transform="scale(0.878563 0.878563) rotate(0) translate(4 240)">
<title>dot_FromArray</title>
<polygon fill="white" stroke="none" points="-4,4 -4,-240 2557,-240 2557,4 -4,4"/>
<g id="clust4" class="cluster"><title>cluster1</title>
<polygon fill="orange" stroke="red" points="2475,-80 2475,-154 2545,-154 2545,-80 2475,-80"/>
<text text-anchor="middle" x="2510" y="-138.8" font-family="Times,serif" font-size="14.00">Missing</text>
</g>
<g id="clust5" class="cluster"><title>cluster2</title>
<polygon fill="#999999" stroke="#999999" points="2334,-80 2334,-154 2467,-154 2467,-80 2334,-80"/>
<text text-anchor="middle" x="2400.5" y="-138.8" font-family="Times,serif" font-size="14.00">stack &quot;lib_Common&quot;</text>
</g>
<g id="clust6" class="cluster"><title>cluster3</title>
<polygon fill="#999999" stroke="#999999" points="8,-8 8,-228 2326,-228 2326,-8 8,-8"/>
<text text-anchor="middle" x="1167" y="-212.8" font-family="Times,serif" font-size="14.00">stack &quot;lib_Encoding&quot;</text>
</g>
<!-- n12 -->
<g id="node1" class="node"><title>n12</title>
<g id="a_node1"><a xlink:href="unicodeEscapes%2Cpf%2Cstack+%22lib_Encoding%22%2C1" xlink:title="unicodeEscapes">
<ellipse fill="none" stroke="black" cx="1983" cy="-106" rx="66.6666" ry="18"/>
<text text-anchor="middle" x="1983" y="-101.8" font-family="Times,serif" font-size="14.00">unicodeEscapes</text>
</a>
</g>
</g>
<!-- n3 -->
<g id="node2" class="node"><title>n3</title>
<g id="a_node2"><a xlink:href="utf8encode%2Cpf%2Cstack+%22lib_Encoding%22%2C1" xlink:title="utf8encode">
<ellipse fill="none" stroke="black" cx="1317" cy="-34" rx="49.286" ry="18"/>
<text text-anchor="middle" x="1317" y="-29.8" font-family="Times,serif" font-size="14.00">utf8encode</text>
</a>
</g>
</g>
<!-- n2 -->
<g id="node3" class="node"><title>n2</title>
<g id="a_node3"><a xlink:href="swapEndianness%2Cpf%2Cstack+%22lib_Encoding%22%2C1" xlink:title="swapEndianness">
<ellipse fill="none" stroke="black" cx="2235" cy="-34" rx="68.6219" ry="18"/>
<text text-anchor="middle" x="2235" y="-29.8" font-family="Times,serif" font-size="14.00">swapEndianness</text>
</a>
</g>
</g>
<!-- n13 -->
<g id="node4" class="node"><title>n13</title>
<g id="a_node4"><a xlink:href="json.encodeValue%2Cpf%2Cstack+%22lib_Encoding%22%2C1" xlink:title="json.encodeValue">
<ellipse fill="none" stroke="black" cx="2246" cy="-180" rx="72.472" ry="18"/>
<text text-anchor="middle" x="2246" y="-175.8" font-family="Times,serif" font-size="14.00">json.encodeValue</text>
</a>
</g>
</g>
<!-- n14 -->
<g id="node19" class="node"><title>n14</title>
<g id="a_node19"><a xlink:href="kwote%2Cf%2Cstack+%22lib_Common%22%2C1" xlink:title="kwote">
<ellipse fill="GreenYellow" stroke="#008b00" cx="2374" cy="-106" rx="31.9393" ry="18"/>
<text text-anchor="middle" x="2374" y="-101.8" font-family="Times,serif" font-size="14.00">kwote</text>
</a>
</g>
</g>
<!-- n13&#45;&gt;n14 -->
<g id="edge3" class="edge"><title>n13&#45;&gt;n14</title>
<path fill="none" stroke="black" d="M2299.36,-167.75C2309.96,-164.26 2320.68,-159.762 2330,-154 2339.8,-147.941 2348.84,-139.143 2356.14,-130.794"/>
<polygon fill="black" stroke="black" points="2358.89,-132.961 2362.58,-123.03 2353.5,-128.492 2358.89,-132.961"/>
</g>
<!-- n15 -->
<g id="node22" class="node"><title>n15</title>
<g id="a_node22"><a xlink:href="%A5%A5%A5%2Cf%2CMissing%2C1" xlink:title="еее">
<ellipse fill="GreenYellow" stroke="#008b00" cx="2510" cy="-106" rx="27" ry="18"/>
<text text-anchor="middle" x="2510" y="-101.8" font-family="Times,serif" font-size="14.00">еее</text>
</a>
</g>
</g>
<!-- n13&#45;&gt;n15 -->
<g id="edge4" class="edge"><title>n13&#45;&gt;n15</title>
<path fill="none" stroke="black" d="M2317.27,-176.844C2372.99,-174.104 2445.18,-167.917 2471,-154 2480.66,-148.793 2488.88,-140.114 2495.25,-131.621"/>
<polygon fill="black" stroke="black" points="2498.18,-133.542 2500.99,-123.326 2492.42,-129.56 2498.18,-133.542"/>
</g>
<!-- n1 -->
<g id="node5" class="node"><title>n1</title>
<g id="a_node5"><a xlink:href="json.toUtf8%2Cpf%2Cstack+%22lib_Encoding%22%2C1" xlink:title="json.toUtf8">
<ellipse fill="none" stroke="black" cx="2235" cy="-106" rx="50.2975" ry="18"/>
<text text-anchor="middle" x="2235" y="-101.8" font-family="Times,serif" font-size="14.00">json.toUtf8</text>
</a>
</g>
</g>
<!-- n1&#45;&gt;n3 -->
<g id="edge6" class="edge"><title>n1&#45;&gt;n3</title>
<path fill="none" stroke="black" d="M2206.97,-90.9882C2197.1,-86.6906 2185.78,-82.4522 2175,-80 2022.65,-45.3558 1545.09,-37.2776 1376.59,-35.4858"/>
<polygon fill="black" stroke="black" points="1376.45,-31.9843 1366.42,-35.3813 1376.38,-38.9839 1376.45,-31.9843"/>
</g>
<!-- n1&#45;&gt;n2 -->
<g id="edge5" class="edge"><title>n1&#45;&gt;n2</title>
<path fill="none" stroke="black" d="M2235,-87.6966C2235,-79.9827 2235,-70.7125 2235,-62.1124"/>
<polygon fill="black" stroke="black" points="2238.5,-62.1043 2235,-52.1043 2231.5,-62.1044 2238.5,-62.1043"/>
</g>
<!-- n19 -->
<g id="node6" class="node"><title>n19</title>
<g id="a_node6"><a xlink:href="json.encodeString%2Cpf%2Cstack+%22lib_Encoding%22%2C1" xlink:title="json.encodeString">
<ellipse fill="none" stroke="black" cx="535" cy="-106" rx="73.9428" ry="18"/>
<text text-anchor="middle" x="535" y="-101.8" font-family="Times,serif" font-size="14.00">json.encodeString</text>
</a>
</g>
</g>
<!-- n19&#45;&gt;n3 -->
<g id="edge8" class="edge"><title>n19&#45;&gt;n3</title>
<path fill="none" stroke="black" d="M603.029,-98.9104C754.563,-85.346 1117.63,-52.8461 1259.15,-40.1788"/>
<polygon fill="black" stroke="black" points="1259.7,-43.6434 1269.35,-39.2657 1259.07,-36.6713 1259.7,-43.6434"/>
</g>
<!-- n20 -->
<g id="node7" class="node"><title>n20</title>
<g id="a_node7"><a xlink:href="json.decode%2Cpf%2Cstack+%22lib_Encoding%22%2C1" xlink:title="json.decode">
<ellipse fill="none" stroke="black" cx="2104" cy="-180" rx="52.2009" ry="18"/>
<text text-anchor="middle" x="2104" y="-175.8" font-family="Times,serif" font-size="14.00">json.decode</text>
</a>
</g>
</g>
<!-- n20&#45;&gt;n12 -->
<g id="edge9" class="edge"><title>n20&#45;&gt;n12</title>
<path fill="none" stroke="black" d="M2077.23,-164.399C2071.2,-161.036 2064.86,-157.437 2059,-154 2044.97,-145.773 2029.69,-136.404 2016.54,-128.208"/>
<polygon fill="black" stroke="black" points="2018.14,-125.084 2007.81,-122.749 2014.43,-131.019 2018.14,-125.084"/>
</g>
<!-- n21 -->
<g id="node8" class="node"><title>n21</title>
<g id="a_node8"><a xlink:href="utf8decode%2Cpf%2Cstack+%22lib_Encoding%22%2C1" xlink:title="utf8decode">
<ellipse fill="none" stroke="black" cx="2117" cy="-106" rx="49.286" ry="18"/>
<text text-anchor="middle" x="2117" y="-101.8" font-family="Times,serif" font-size="14.00">utf8decode</text>
</a>
</g>
</g>
<!-- n20&#45;&gt;n21 -->
<g id="edge10" class="edge"><title>n20&#45;&gt;n21</title>
<path fill="none" stroke="black" d="M2107.08,-161.937C2108.56,-153.719 2110.38,-143.66 2112.05,-134.406"/>
<polygon fill="black" stroke="black" points="2115.52,-134.903 2113.85,-124.441 2108.63,-133.66 2115.52,-134.903"/>
</g>
<!-- n11 -->
<g id="node9" class="node"><title>n11</title>
<g id="a_node9"><a xlink:href="sitemap_EntityEscape%2Cc%2Cstack+%22lib_Encoding%22%2C1" xlink:title="sitemap_EntityEscape">
<ellipse fill="LightBlue" stroke="Blue" cx="1945" cy="-180" rx="88.8842" ry="18"/>
<text text-anchor="middle" x="1945" y="-175.8" font-family="Times,serif" font-size="14.00">sitemap_EntityEscape</text>
</a>
</g>
</g>
<!-- n10 -->
<g id="node12" class="node"><title>n10</title>
<g id="a_node12"><a xlink:href="xml_Escape%2Cc%2Cstack+%22lib_Encoding%22%2C1" xlink:title="xml_Escape">
<ellipse fill="LightBlue" stroke="Blue" cx="1399" cy="-106" rx="53.1539" ry="18"/>
<text text-anchor="middle" x="1399" y="-101.8" font-family="Times,serif" font-size="14.00">xml_Escape</text>
</a>
</g>
</g>
<!-- n11&#45;&gt;n10 -->
<g id="edge2" class="edge"><title>n11&#45;&gt;n10</title>
<path fill="none" stroke="black" d="M1882.13,-167.221C1870.48,-165.287 1858.39,-163.445 1847,-162 1803.21,-156.444 1791.89,-158.725 1748,-154 1645.23,-142.935 1525.98,-125.986 1456.85,-115.75"/>
<polygon fill="black" stroke="black" points="1457.01,-112.236 1446.6,-114.229 1455.98,-119.16 1457.01,-112.236"/>
</g>
<!-- n7 -->
<g id="node13" class="node"><title>n7</title>
<g id="a_node13"><a xlink:href="text_Utf8Encode%2Cc%2Cstack+%22lib_Encoding%22%2C1" xlink:title="text_Utf8Encode">
<ellipse fill="LightBlue" stroke="Blue" cx="1828" cy="-106" rx="70.534" ry="18"/>
<text text-anchor="middle" x="1828" y="-101.8" font-family="Times,serif" font-size="14.00">text_Utf8Encode</text>
</a>
</g>
</g>
<!-- n11&#45;&gt;n7 -->
<g id="edge1" class="edge"><title>n11&#45;&gt;n7</title>
<path fill="none" stroke="black" d="M1918.45,-162.662C1901.92,-152.487 1880.47,-139.288 1862.61,-128.297"/>
<polygon fill="black" stroke="black" points="1863.99,-125.039 1853.64,-122.778 1860.32,-131 1863.99,-125.039"/>
</g>
<!-- n16 -->
<g id="node10" class="node"><title>n16</title>
<g id="a_node10"><a xlink:href="xml_SetTagSafe%2Cc%2Cstack+%22lib_Encoding%22%2C1" xlink:title="xml_SetTagSafe">
<ellipse fill="LightBlue" stroke="Blue" cx="1770" cy="-180" rx="68.3628" ry="18"/>
<text text-anchor="middle" x="1770" y="-175.8" font-family="Times,serif" font-size="14.00">xml_SetTagSafe</text>
</a>
</g>
</g>
<!-- n17 -->
<g id="node11" class="node"><title>n17</title>
<g id="a_node11"><a xlink:href="text_UnixToMac%2Cc%2Cstack+%22lib_Encoding%22%2C1" xlink:title="text_UnixToMac">
<ellipse fill="LightBlue" stroke="Blue" cx="1613" cy="-180" rx="70.2924" ry="18"/>
<text text-anchor="middle" x="1613" y="-175.8" font-family="Times,serif" font-size="14.00">text_UnixToMac</text>
</a>
</g>
</g>
<!-- n6 -->
<g id="node14" class="node"><title>n6</title>
<g id="a_node14"><a xlink:href="text_Utf8Decode%2Cc%2Cstack+%22lib_Encoding%22%2C1" xlink:title="text_Utf8Decode">
<ellipse fill="LightBlue" stroke="Blue" cx="1454" cy="-180" rx="71.0099" ry="18"/>
<text text-anchor="middle" x="1454" y="-175.8" font-family="Times,serif" font-size="14.00">text_Utf8Decode</text>
</a>
</g>
</g>
<!-- n4 -->
<g id="node15" class="node"><title>n4</title>
<g id="a_node15"><a xlink:href="xml_UnEscape%2Cc%2Cstack+%22lib_Encoding%22%2C1" xlink:title="xml_UnEscape">
<ellipse fill="LightBlue" stroke="Blue" cx="1301" cy="-180" rx="64.27" ry="18"/>
<text text-anchor="middle" x="1301" y="-175.8" font-family="Times,serif" font-size="14.00">xml_UnEscape</text>
</a>
</g>
</g>
<!-- n9 -->
<g id="node16" class="node"><title>n9</title>
<g id="a_node16"><a xlink:href="xml_SafeEncodeNodeContents%2Cc%2Cstack+%22lib_Encoding%22%2C1" xlink:title="xml_SafeEncodeNodeContents">
<ellipse fill="LightBlue" stroke="Blue" cx="1098" cy="-180" rx="121.233" ry="18"/>
<text text-anchor="middle" x="1098" y="-175.8" font-family="Times,serif" font-size="14.00">xml_SafeEncodeNodeContents</text>
</a>
</g>
</g>
<!-- n9&#45;&gt;n10 -->
<g id="edge7" class="edge"><title>n9&#45;&gt;n10</title>
<path fill="none" stroke="black" d="M1158.91,-164.43C1214.1,-151.227 1294.57,-131.98 1346.86,-119.473"/>
<polygon fill="black" stroke="black" points="1347.69,-122.872 1356.6,-117.142 1346.06,-116.064 1347.69,-122.872"/>
</g>
<!-- n8 -->
<g id="node17" class="node"><title>n8</title>
<g id="a_node17"><a xlink:href="text_PListEscape%2Cc%2Cstack+%22lib_Encoding%22%2C1" xlink:title="text_PListEscape">
<ellipse fill="LightBlue" stroke="Blue" cx="887" cy="-180" rx="71.5117" ry="18"/>
<text text-anchor="middle" x="887" y="-175.8" font-family="Times,serif" font-size="14.00">text_PListEscape</text>
</a>
</g>
</g>
<!-- n22 -->
<g id="node18" class="node"><title>n22</title>
<g id="a_node18"><a xlink:href="text_MacToUnix%2Cc%2Cstack+%22lib_Encoding%22%2C1" xlink:title="text_MacToUnix">
<ellipse fill="LightBlue" stroke="Blue" cx="727" cy="-180" rx="70.2924" ry="18"/>
<text text-anchor="middle" x="727" y="-175.8" font-family="Times,serif" font-size="14.00">text_MacToUnix</text>
</a>
</g>
</g>
<!-- n5 -->
<g id="node20" class="node"><title>n5</title>
<g id="a_node20"><a xlink:href="text_SwapEOL%2Cf%2Cstack+%22lib_Encoding%22%2C1" xlink:title="text_SwapEOL">
<ellipse fill="GreenYellow" stroke="#008b00" cx="574" cy="-180" rx="64.7632" ry="18"/>
<text text-anchor="middle" x="574" y="-175.8" font-family="Times,serif" font-size="14.00">text_SwapEOL</text>
</a>
</g>
</g>
<!-- n18 -->
<g id="node21" class="node"><title>n18</title>
<g id="a_node21"><a xlink:href="xml_EncodeString%2Cf%2Cstack+%22lib_Encoding%22%2C1" xlink:title="xml_EncodeString">
<ellipse fill="GreenYellow" stroke="#008b00" cx="415" cy="-180" rx="76.3484" ry="18"/>
<text text-anchor="middle" x="415" y="-175.8" font-family="Times,serif" font-size="14.00">xml_EncodeString</text>
</a>
</g>
</g>
<!-- n23 -->
<g id="node23" class="node"><title>n23</title>
<g id="a_node23"><a xlink:href="text_Utf8ToHtml%2Cf%2Cstack+%22lib_Encoding%22%2C1" xlink:title="text_Utf8ToHtml">
<ellipse fill="GreenYellow" stroke="#008b00" cx="249" cy="-180" rx="71.2701" ry="18"/>
<text text-anchor="middle" x="249" y="-175.8" font-family="Times,serif" font-size="14.00">text_Utf8ToHtml</text>
</a>
</g>
</g>
<!-- n24 -->
<g id="node24" class="node"><title>n24</title>
<g id="a_node24"><a xlink:href="json_Utf8Encode%2Cf%2Cstack+%22lib_Encoding%22%2C1" xlink:title="json_Utf8Encode">
<ellipse fill="GreenYellow" stroke="#008b00" cx="88" cy="-180" rx="71.9963" ry="18"/>
<text text-anchor="middle" x="88" y="-175.8" font-family="Times,serif" font-size="14.00">json_Utf8Encode</text>
</a>
</g>
</g>
<!-- n24&#45;&gt;n19 -->
<g id="edge11" class="edge"><title>n24&#45;&gt;n19</title>
<path fill="none" stroke="black" d="M140.2,-167.582C149.762,-165.623 159.666,-163.679 169,-162 270.017,-143.825 387.469,-126.918 461.516,-116.772"/>
<polygon fill="black" stroke="black" points="462.236,-120.207 471.671,-115.386 461.289,-113.271 462.236,-120.207"/>
</g>
</g>
</svg>
