<?xml version="1.0" encoding="UTF-8" standalone="no"?>
<!DOCTYPE svg PUBLIC "-//W3C//DTD SVG 1.1//EN"
 "http://www.w3.org/Graphics/SVG/1.1/DTD/svg11.dtd">
<!-- Generated by graphviz version 2.38.0 (20140413.2041)
 -->
<!-- Title: dot_FromArray Pages: 1 -->
<svg width="2250pt" height="247pt"
 viewBox="0.00 0.00 2250.00 247.43" xmlns="http://www.w3.org/2000/svg" xmlns:xlink="http://www.w3.org/1999/xlink">
<g id="graph0" class="graph" transform="scale(0.526439 0.526439) rotate(0) translate(4 466)">
<title>dot_FromArray</title>
<polygon fill="white" stroke="none" points="-4,4 -4,-466 4270,-466 4270,4 -4,4"/>
<g id="clust3" class="cluster"><title>cluster1</title>
<polygon fill="#999999" stroke="#999999" points="8,-224 8,-454 1836,-454 1836,-224 8,-224"/>
<text text-anchor="middle" x="922" y="-438.8" font-family="Times,serif" font-size="14.00">stack &quot;lib_CCC&quot;</text>
</g>
<g id="clust4" class="cluster"><title>cluster2</title>
<polygon fill="#999999" stroke="#999999" points="1844,-8 1844,-298 4258,-298 4258,-8 1844,-8"/>
<text text-anchor="middle" x="3051" y="-282.8" font-family="Times,serif" font-size="14.00">stack &quot;lib_Fedwiki&quot;</text>
</g>
<g id="clust5" class="cluster"><title>cluster3</title>
<polygon fill="#999999" stroke="#999999" points="2400,-306 2400,-380 2562,-380 2562,-306 2400,-306"/>
<text text-anchor="middle" x="2481" y="-364.8" font-family="Times,serif" font-size="14.00">stack &quot;lib_Text&quot;</text>
</g>
<g id="clust6" class="cluster"><title>cluster4</title>
<polygon fill="#999999" stroke="#999999" points="1844,-306 1844,-380 2170,-380 2170,-306 1844,-306"/>
<text text-anchor="middle" x="2007" y="-364.8" font-family="Times,serif" font-size="14.00">stack &quot;libOPN_JSON&quot;</text>
</g>
<!-- n33 -->
<g id="node1" class="node"><title>n33</title>
<g id="a_node1"><a xlink:href="ccc_CreateVideoPageJson%2Cf%2Cstack+%22lib_CCC%22%2C1" xlink:title="ccc_CreateVideoPageJson">
<ellipse fill="GreenYellow" stroke="#008b00" cx="518" cy="-406" rx="103.264" ry="18"/>
<text text-anchor="middle" x="518" y="-401.8" font-family="Times,serif" font-size="14.00">ccc_CreateVideoPageJson</text>
</a>
</g>
</g>
<!-- n34 -->
<g id="node18" class="node"><title>n34</title>
<g id="a_node18"><a xlink:href="json_FromArray%2Cf%2Cstack+%22libOPN_JSON%22%2C1" xlink:title="json_FromArray">
<ellipse fill="GreenYellow" stroke="#008b00" cx="2075" cy="-332" rx="69.1151" ry="18"/>
<text text-anchor="middle" x="2075" y="-327.8" font-family="Times,serif" font-size="14.00">json_FromArray</text>
</a>
</g>
</g>
<!-- n33&#45;&gt;n34 -->
<g id="edge32" class="edge"><title>n33&#45;&gt;n34</title>
<path fill="none" stroke="black" d="M588.32,-392.737C602.099,-390.785 616.471,-389.061 630,-388 667.857,-385.032 1960.44,-390.278 1997,-380 2014.77,-375.003 2032.56,-364.787 2046.65,-355.152"/>
<polygon fill="black" stroke="black" points="2048.79,-357.925 2054.91,-349.28 2044.73,-352.22 2048.79,-357.925"/>
</g>
<!-- n28 -->
<g id="node2" class="node"><title>n28</title>
<g id="a_node2"><a xlink:href="ccc_ConstructTagHTML%2Cf%2Cstack+%22lib_CCC%22%2C1" xlink:title="ccc_ConstructTagHTML">
<ellipse fill="GreenYellow" stroke="#008b00" cx="738" cy="-406" rx="98.7567" ry="18"/>
<text text-anchor="middle" x="738" y="-401.8" font-family="Times,serif" font-size="14.00">ccc_ConstructTagHTML</text>
</a>
</g>
</g>
<!-- n6 -->
<g id="node24" class="node"><title>n6</title>
<g id="a_node24"><a xlink:href="html_ConstructRefLink%2Cf%2Cstack+%22lib_Fedwiki%22%2C1" xlink:title="html_ConstructRefLink">
<ellipse fill="GreenYellow" stroke="#008b00" cx="1947" cy="-250" rx="94.7069" ry="18"/>
<text text-anchor="middle" x="1947" y="-245.8" font-family="Times,serif" font-size="14.00">html_ConstructRefLink</text>
</a>
</g>
</g>
<!-- n28&#45;&gt;n6 -->
<g id="edge6" class="edge"><title>n28&#45;&gt;n6</title>
<path fill="none" stroke="black" d="M805.507,-392.778C818.882,-390.808 832.852,-389.067 846,-388 855.4,-387.237 2197.35,-386.688 2204,-380 2227.19,-356.676 2226.64,-329.852 2204,-306 2192.2,-293.574 2066.64,-302.073 2050,-298 2027.19,-292.419 2003.24,-281.813 1984.19,-272.087"/>
<polygon fill="black" stroke="black" points="1985.73,-268.945 1975.25,-267.409 1982.48,-275.147 1985.73,-268.945"/>
</g>
<!-- n31 -->
<g id="node3" class="node"><title>n31</title>
<g id="a_node3"><a xlink:href="ccc_FetchData%2Cf%2Cstack+%22lib_CCC%22%2C1" xlink:title="ccc_FetchData">
<ellipse fill="GreenYellow" stroke="#008b00" cx="918" cy="-406" rx="62.7906" ry="18"/>
<text text-anchor="middle" x="918" y="-401.8" font-family="Times,serif" font-size="14.00">ccc_FetchData</text>
</a>
</g>
</g>
<!-- n32 -->
<g id="node17" class="node"><title>n32</title>
<g id="a_node17"><a xlink:href="html_FetchTidy%2Cf%2Cstack+%22lib_Fedwiki%22%2C1" xlink:title="html_FetchTidy">
<ellipse fill="GreenYellow" stroke="#008b00" cx="2126" cy="-250" rx="66.573" ry="18"/>
<text text-anchor="middle" x="2126" y="-245.8" font-family="Times,serif" font-size="14.00">html_FetchTidy</text>
</a>
</g>
</g>
<!-- n31&#45;&gt;n32 -->
<g id="edge31" class="edge"><title>n31&#45;&gt;n32</title>
<path fill="none" stroke="black" d="M961.27,-392.981C970.361,-390.924 979.941,-389.099 989,-388 1006.28,-385.905 2229.73,-392.345 2242,-380 2265.18,-356.67 2262.85,-331.434 2242,-306 2230.51,-291.979 2218.87,-304.651 2202,-298 2185.9,-291.651 2169.4,-281.909 2155.9,-272.938"/>
<polygon fill="black" stroke="black" points="2157.73,-269.951 2147.5,-267.198 2153.79,-275.73 2157.73,-269.951"/>
</g>
<!-- n27 -->
<g id="node4" class="node"><title>n27</title>
<g id="a_node4"><a xlink:href="text_StripAllTags%2Cf%2Cstack+%22lib_Text%22%2C1" xlink:title="text_StripAllTags">
<ellipse fill="GreenYellow" stroke="#008b00" cx="2481" cy="-332" rx="72.7238" ry="18"/>
<text text-anchor="middle" x="2481" y="-327.8" font-family="Times,serif" font-size="14.00">text_StripAllTags</text>
</a>
</g>
</g>
<!-- n23 -->
<g id="node5" class="node"><title>n23</title>
<g id="a_node5"><a xlink:href="fedwiki_ConstructStoryParagraphArray%2Cf%2Cstack+%22lib_Fedwiki%22%2C1" xlink:title="fedwiki_ConstructStoryParagraphArray">
<ellipse fill="GreenYellow" stroke="#008b00" cx="4094" cy="-178" rx="151.636" ry="18"/>
<text text-anchor="middle" x="4094" y="-173.8" font-family="Times,serif" font-size="14.00">fedwiki_ConstructStoryParagraphArray</text>
</a>
</g>
</g>
<!-- n9 -->
<g id="node6" class="node"><title>n9</title>
<g id="a_node6"><a xlink:href="json_ToArray%2Cf%2Cstack+%22libOPN_JSON%22%2C1" xlink:title="json_ToArray">
<ellipse fill="GreenYellow" stroke="#008b00" cx="1911" cy="-332" rx="59.2001" ry="18"/>
<text text-anchor="middle" x="1911" y="-327.8" font-family="Times,serif" font-size="14.00">json_ToArray</text>
</a>
</g>
</g>
<!-- n9&#45;&gt;n9 -->
<g id="edge20" class="edge"><title>n9&#45;&gt;n9</title>
<path fill="none" stroke="black" d="M1950.67,-345.465C1970.45,-347.328 1988.1,-342.84 1988.1,-332 1988.1,-323.108 1976.23,-318.49 1961.04,-318.146"/>
<polygon fill="black" stroke="black" points="1960.53,-314.662 1950.67,-318.535 1960.79,-321.657 1960.53,-314.662"/>
</g>
<!-- n5 -->
<g id="node7" class="node"><title>n5</title>
<g id="a_node7"><a xlink:href="ccc_ConstructDateHtml%2Cf%2Cstack+%22lib_CCC%22%2C1" xlink:title="ccc_ConstructDateHtml">
<ellipse fill="GreenYellow" stroke="#008b00" cx="902" cy="-332" rx="95.6327" ry="18"/>
<text text-anchor="middle" x="902" y="-327.8" font-family="Times,serif" font-size="14.00">ccc_ConstructDateHtml</text>
</a>
</g>
</g>
<!-- n19 -->
<g id="node22" class="node"><title>n19</title>
<g id="a_node22"><a xlink:href="ccc_NumFromYear%2Cf%2Cstack+%22lib_CCC%22%2C1" xlink:title="ccc_NumFromYear">
<ellipse fill="GreenYellow" stroke="#008b00" cx="800" cy="-250" rx="79.411" ry="18"/>
<text text-anchor="middle" x="800" y="-245.8" font-family="Times,serif" font-size="14.00">ccc_NumFromYear</text>
</a>
</g>
</g>
<!-- n5&#45;&gt;n19 -->
<g id="edge14" class="edge"><title>n5&#45;&gt;n19</title>
<path fill="none" stroke="black" d="M880.866,-314.424C865.958,-302.732 845.795,-286.918 829.332,-274.005"/>
<polygon fill="black" stroke="black" points="831.136,-270.972 821.107,-267.555 826.816,-276.48 831.136,-270.972"/>
</g>
<!-- n5&#45;&gt;n6 -->
<g id="edge15" class="edge"><title>n5&#45;&gt;n6</title>
<path fill="none" stroke="black" d="M988.724,-324.369C1069.51,-318.477 1193.33,-310.17 1301,-306 1360.85,-303.682 1781.48,-310.741 1840,-298 1864.13,-292.746 1889.51,-281.863 1909.49,-271.891"/>
<polygon fill="black" stroke="black" points="1911.24,-274.924 1918.55,-267.248 1908.05,-268.694 1911.24,-274.924"/>
</g>
<!-- n21 -->
<g id="node8" class="node"><title>n21</title>
<g id="a_node8"><a xlink:href="fedwiki_ConstructCreateArray%2Cf%2Cstack+%22lib_Fedwiki%22%2C1" xlink:title="fedwiki_ConstructCreateArray">
<ellipse fill="GreenYellow" stroke="#008b00" cx="2937" cy="-178" rx="119.762" ry="18"/>
<text text-anchor="middle" x="2937" y="-173.8" font-family="Times,serif" font-size="14.00">fedwiki_ConstructCreateArray</text>
</a>
</g>
</g>
<!-- n36 -->
<g id="node9" class="node"><title>n36</title>
<g id="a_node9"><a xlink:href="ccc_HashtagFromYear%2Cf%2Cstack+%22lib_CCC%22%2C1" xlink:title="ccc_HashtagFromYear">
<ellipse fill="GreenYellow" stroke="#008b00" cx="698" cy="-332" rx="90.9953" ry="18"/>
<text text-anchor="middle" x="698" y="-327.8" font-family="Times,serif" font-size="14.00">ccc_HashtagFromYear</text>
</a>
</g>
</g>
<!-- n36&#45;&gt;n19 -->
<g id="edge34" class="edge"><title>n36&#45;&gt;n19</title>
<path fill="none" stroke="black" d="M719.134,-314.424C734.042,-302.732 754.205,-286.918 770.668,-274.005"/>
<polygon fill="black" stroke="black" points="773.184,-276.48 778.893,-267.555 768.864,-270.972 773.184,-276.48"/>
</g>
<!-- n14 -->
<g id="node10" class="node"><title>n14</title>
<g id="a_node10"><a xlink:href="ccc_ExtractData%2Cf%2Cstack+%22lib_CCC%22%2C1" xlink:title="ccc_ExtractData">
<ellipse fill="GreenYellow" stroke="#008b00" cx="1067" cy="-406" rx="68.5614" ry="18"/>
<text text-anchor="middle" x="1067" y="-401.8" font-family="Times,serif" font-size="14.00">ccc_ExtractData</text>
</a>
</g>
</g>
<!-- n15 -->
<g id="node35" class="node"><title>n15</title>
<g id="a_node35"><a xlink:href="xml_BlankError%2Cc%2Cstack+%22lib_Fedwiki%22%2C1" xlink:title="xml_BlankError">
<ellipse fill="LightBlue" stroke="Blue" cx="2279" cy="-250" rx="68.1374" ry="18"/>
<text text-anchor="middle" x="2279" y="-245.8" font-family="Times,serif" font-size="14.00">xml_BlankError</text>
</a>
</g>
</g>
<!-- n14&#45;&gt;n15 -->
<g id="edge10" class="edge"><title>n14&#45;&gt;n15</title>
<path fill="none" stroke="black" d="M1114.38,-392.903C1124.12,-390.881 1134.34,-389.088 1144,-388 1159.47,-386.256 2253.45,-390.44 2265,-380 2292.69,-354.977 2290.4,-308.322 2285.34,-278.509"/>
<polygon fill="black" stroke="black" points="2288.72,-277.524 2283.4,-268.359 2281.84,-278.838 2288.72,-277.524"/>
</g>
<!-- n10 -->
<g id="node11" class="node"><title>n10</title>
<g id="a_node11"><a xlink:href="ccc_ConstructVideoHtml%2Cf%2Cstack+%22lib_CCC%22%2C1" xlink:title="ccc_ConstructVideoHtml">
<ellipse fill="GreenYellow" stroke="#008b00" cx="1253" cy="-406" rx="99.9157" ry="18"/>
<text text-anchor="middle" x="1253" y="-401.8" font-family="Times,serif" font-size="14.00">ccc_ConstructVideoHtml</text>
</a>
</g>
</g>
<!-- n11 -->
<g id="node27" class="node"><title>n11</title>
<g id="a_node27"><a xlink:href="html_ConstructVideoTag%2Cf%2Cstack+%22lib_Fedwiki%22%2C1" xlink:title="html_ConstructVideoTag">
<ellipse fill="GreenYellow" stroke="#008b00" cx="2464" cy="-250" rx="99.1982" ry="18"/>
<text text-anchor="middle" x="2464" y="-245.8" font-family="Times,serif" font-size="14.00">html_ConstructVideoTag</text>
</a>
</g>
</g>
<!-- n10&#45;&gt;n11 -->
<g id="edge9" class="edge"><title>n10&#45;&gt;n11</title>
<path fill="none" stroke="black" d="M1321.14,-392.805C1334.64,-390.833 1348.73,-389.084 1362,-388 1375.23,-386.918 2306.7,-386.967 2318,-380 2349.47,-360.6 2329.81,-332.099 2356,-306 2371.17,-290.879 2391.36,-279.087 2410.17,-270.367"/>
<polygon fill="black" stroke="black" points="2411.83,-273.46 2419.55,-266.209 2408.99,-267.06 2411.83,-273.46"/>
</g>
<!-- n7 -->
<g id="node12" class="node"><title>n7</title>
<g id="a_node12"><a xlink:href="fedwiki_ConstructStoryItemArray%2Cf%2Cstack+%22lib_Fedwiki%22%2C1" xlink:title="fedwiki_ConstructStoryItemArray">
<ellipse fill="GreenYellow" stroke="#008b00" cx="3452" cy="-106" rx="131.849" ry="18"/>
<text text-anchor="middle" x="3452" y="-101.8" font-family="Times,serif" font-size="14.00">fedwiki_ConstructStoryItemArray</text>
</a>
</g>
</g>
<!-- n2 -->
<g id="node28" class="node"><title>n2</title>
<g id="a_node28"><a xlink:href="fedwiki_SetID%2Cc%2Cstack+%22lib_Fedwiki%22%2C1" xlink:title="fedwiki_SetID">
<ellipse fill="LightBlue" stroke="Blue" cx="3588" cy="-34" rx="62.3494" ry="18"/>
<text text-anchor="middle" x="3588" y="-29.8" font-family="Times,serif" font-size="14.00">fedwiki_SetID</text>
</a>
</g>
</g>
<!-- n7&#45;&gt;n2 -->
<g id="edge11" class="edge"><title>n7&#45;&gt;n2</title>
<path fill="none" stroke="black" d="M3484.23,-88.411C3503.85,-78.3137 3529.02,-65.3585 3549.66,-54.736"/>
<polygon fill="black" stroke="black" points="3551.49,-57.7267 3558.78,-50.0382 3548.29,-51.5028 3551.49,-57.7267"/>
</g>
<!-- n1 -->
<g id="node13" class="node"><title>n1</title>
<g id="a_node13"><a xlink:href="fedwiki_ConstructFactoryArray%2Cf%2Cstack+%22lib_Fedwiki%22%2C1" xlink:title="fedwiki_ConstructFactoryArray">
<ellipse fill="GreenYellow" stroke="#008b00" cx="3725" cy="-106" rx="123.638" ry="18"/>
<text text-anchor="middle" x="3725" y="-101.8" font-family="Times,serif" font-size="14.00">fedwiki_ConstructFactoryArray</text>
</a>
</g>
</g>
<!-- n1&#45;&gt;n2 -->
<g id="edge12" class="edge"><title>n1&#45;&gt;n2</title>
<path fill="none" stroke="black" d="M3692.88,-88.5881C3673.04,-78.4503 3647.46,-65.3813 3626.53,-54.6877"/>
<polygon fill="black" stroke="black" points="3628.08,-51.5468 3617.58,-50.1135 3624.89,-57.7803 3628.08,-51.5468"/>
</g>
<!-- n3 -->
<g id="node14" class="node"><title>n3</title>
<g id="a_node14"><a xlink:href="ccc_ConstructVideoCaption%2Cf%2Cstack+%22lib_CCC%22%2C1" xlink:title="ccc_ConstructVideoCaption">
<ellipse fill="GreenYellow" stroke="#008b00" cx="126" cy="-406" rx="109.563" ry="18"/>
<text text-anchor="middle" x="126" y="-401.8" font-family="Times,serif" font-size="14.00">ccc_ConstructVideoCaption</text>
</a>
</g>
</g>
<!-- n3&#45;&gt;n5 -->
<g id="edge3" class="edge"><title>n3&#45;&gt;n5</title>
<path fill="none" stroke="black" d="M201.063,-392.797C215.603,-390.853 230.748,-389.117 245,-388 306.263,-383.201 738.023,-393.378 798,-380 821.433,-374.773 845.983,-363.965 865.343,-354.029"/>
<polygon fill="black" stroke="black" points="867.19,-357.012 874.402,-349.25 863.924,-350.82 867.19,-357.012"/>
</g>
<!-- n4 -->
<g id="node23" class="node"><title>n4</title>
<g id="a_node23"><a xlink:href="ccc_ConstructAuthorHTML%2Cf%2Cstack+%22lib_CCC%22%2C1" xlink:title="ccc_ConstructAuthorHTML">
<ellipse fill="GreenYellow" stroke="#008b00" cx="1421" cy="-332" rx="110.601" ry="18"/>
<text text-anchor="middle" x="1421" y="-327.8" font-family="Times,serif" font-size="14.00">ccc_ConstructAuthorHTML</text>
</a>
</g>
</g>
<!-- n3&#45;&gt;n4 -->
<g id="edge2" class="edge"><title>n3&#45;&gt;n4</title>
<path fill="none" stroke="black" d="M200.741,-392.794C215.379,-390.836 230.642,-389.096 245,-388 413.851,-375.109 837.98,-390.454 1007,-380 1119.05,-373.07 1247.39,-357.27 1331.09,-345.901"/>
<polygon fill="black" stroke="black" points="1331.64,-349.358 1341.07,-344.537 1330.69,-342.423 1331.64,-349.358"/>
</g>
<!-- n3&#45;&gt;n6 -->
<g id="edge4" class="edge"><title>n3&#45;&gt;n6</title>
<path fill="none" stroke="black" d="M200.418,-392.763C215.152,-390.795 230.534,-389.058 245,-388 258.36,-387.023 2164.55,-389.492 2174,-380 2197.21,-356.696 2196.49,-329.993 2174,-306 2164.56,-295.928 2063.39,-301.366 2050,-298 2027.23,-292.276 2003.28,-281.661 1984.22,-271.965"/>
<polygon fill="black" stroke="black" points="1985.76,-268.823 1975.27,-267.305 1982.52,-275.03 1985.76,-268.823"/>
</g>
<!-- n29 -->
<g id="node15" class="node"><title>n29</title>
<g id="a_node15"><a xlink:href="ccc_ConstructMultiSourceVideoHtml%2Cf%2Cstack+%22lib_CCC%22%2C1" xlink:title="ccc_ConstructMultiSourceVideoHtml">
<ellipse fill="GreenYellow" stroke="#008b00" cx="1515" cy="-406" rx="144.342" ry="18"/>
<text text-anchor="middle" x="1515" y="-401.8" font-family="Times,serif" font-size="14.00">ccc_ConstructMultiSourceVideoHtml</text>
</a>
</g>
</g>
<!-- n30 -->
<g id="node16" class="node"><title>n30</title>
<g id="a_node16"><a xlink:href="html_ConstructVideoSourceTag%2Cf%2Cstack+%22lib_Fedwiki%22%2C1" xlink:title="html_ConstructVideoSourceTag">
<ellipse fill="GreenYellow" stroke="#008b00" cx="2705" cy="-250" rx="123.812" ry="18"/>
<text text-anchor="middle" x="2705" y="-245.8" font-family="Times,serif" font-size="14.00">html_ConstructVideoSourceTag</text>
</a>
</g>
</g>
<!-- n29&#45;&gt;n30 -->
<g id="edge5" class="edge"><title>n29&#45;&gt;n30</title>
<path fill="none" stroke="black" d="M1613.05,-392.717C1631.6,-390.806 1650.88,-389.103 1669,-388 1688.05,-386.84 2339.66,-389.868 2356,-380 2388,-360.668 2364.33,-325.87 2396,-306 2412.58,-295.596 2552.79,-301.746 2572,-298 2601.73,-292.203 2633.78,-281.035 2658.97,-271.039"/>
<polygon fill="black" stroke="black" points="2660.31,-274.273 2668.27,-267.28 2657.69,-267.784 2660.31,-274.273"/>
</g>
<!-- n34&#45;&gt;n34 -->
<g id="edge33" class="edge"><title>n34&#45;&gt;n34</title>
<path fill="none" stroke="black" d="M2120.69,-345.536C2142.66,-347.207 2162.06,-342.695 2162.06,-332 2162.06,-322.976 2148.25,-318.354 2130.73,-318.133"/>
<polygon fill="black" stroke="black" points="2130.56,-314.637 2120.69,-318.464 2130.79,-321.633 2130.56,-314.637"/>
</g>
<!-- n26 -->
<g id="node19" class="node"><title>n26</title>
<g id="a_node19"><a xlink:href="fedwiki_ConstructSimplePageArray%2Cf%2Cstack+%22lib_Fedwiki%22%2C1" xlink:title="fedwiki_ConstructSimplePageArray">
<ellipse fill="GreenYellow" stroke="#008b00" cx="4111" cy="-250" rx="138.607" ry="18"/>
<text text-anchor="middle" x="4111" y="-245.8" font-family="Times,serif" font-size="14.00">fedwiki_ConstructSimplePageArray</text>
</a>
</g>
</g>
<!-- n24 -->
<g id="node20" class="node"><title>n24</title>
<g id="a_node20"><a xlink:href="ccc_ConvertArray%2Cf%2Cstack+%22lib_CCC%22%2C1" xlink:title="ccc_ConvertArray">
<ellipse fill="GreenYellow" stroke="#008b00" cx="1753" cy="-406" rx="75.3362" ry="18"/>
<text text-anchor="middle" x="1753" y="-401.8" font-family="Times,serif" font-size="14.00">ccc_ConvertArray</text>
</a>
</g>
</g>
<!-- n24&#45;&gt;n27 -->
<g id="edge30" class="edge"><title>n24&#45;&gt;n27</title>
<path fill="none" stroke="black" d="M1828.01,-403.982C1985.56,-401.567 2340.76,-394.571 2394,-380 2413.38,-374.696 2433.22,-364.419 2449.05,-354.825"/>
<polygon fill="black" stroke="black" points="2451.26,-357.572 2457.88,-349.297 2447.55,-351.639 2451.26,-357.572"/>
</g>
<!-- n24&#45;&gt;n26 -->
<g id="edge29" class="edge"><title>n24&#45;&gt;n26</title>
<path fill="none" stroke="black" d="M1828.78,-405.127C2108.54,-405.398 3083.05,-404.518 3393,-380 3648.58,-359.783 3714.14,-355.461 3964,-298 3995.53,-290.748 4030.03,-279.879 4057.67,-270.42"/>
<polygon fill="black" stroke="black" points="4058.84,-273.718 4067.15,-267.141 4056.55,-267.103 4058.84,-273.718"/>
</g>
<!-- n20 -->
<g id="node21" class="node"><title>n20</title>
<g id="a_node21"><a xlink:href="fedwiki_ConstructJournalArray%2Cf%2Cstack+%22lib_Fedwiki%22%2C1" xlink:title="fedwiki_ConstructJournalArray">
<ellipse fill="GreenYellow" stroke="#008b00" cx="2969" cy="-250" rx="122.678" ry="18"/>
<text text-anchor="middle" x="2969" y="-245.8" font-family="Times,serif" font-size="14.00">fedwiki_ConstructJournalArray</text>
</a>
</g>
</g>
<!-- n24&#45;&gt;n20 -->
<g id="edge28" class="edge"><title>n24&#45;&gt;n20</title>
<path fill="none" stroke="black" d="M1828.44,-405.199C2002,-405.248 2425.5,-402.93 2566,-380 2698.7,-358.343 2847.66,-301.712 2921.79,-271.188"/>
<polygon fill="black" stroke="black" points="2923.41,-274.303 2931.31,-267.24 2920.73,-267.836 2923.41,-274.303"/>
</g>
<!-- n25 -->
<g id="node29" class="node"><title>n25</title>
<g id="a_node29"><a xlink:href="fedwiki_AddHtmlToPageArray%2Cc%2Cstack+%22lib_Fedwiki%22%2C1" xlink:title="fedwiki_AddHtmlToPageArray">
<ellipse fill="LightBlue" stroke="Blue" cx="3232" cy="-250" rx="121.943" ry="18"/>
<text text-anchor="middle" x="3232" y="-245.8" font-family="Times,serif" font-size="14.00">fedwiki_AddHtmlToPageArray</text>
</a>
</g>
</g>
<!-- n24&#45;&gt;n25 -->
<g id="edge25" class="edge"><title>n24&#45;&gt;n25</title>
<path fill="none" stroke="black" d="M1828.53,-404.796C2023.56,-403.985 2540.69,-399.959 2711,-380 2886.92,-359.383 2930.57,-346.243 3101,-298 3128.3,-290.273 3158.11,-279.747 3182.39,-270.615"/>
<polygon fill="black" stroke="black" points="3183.64,-273.884 3191.75,-267.062 3181.16,-267.34 3183.64,-273.884"/>
</g>
<!-- n16 -->
<g id="node31" class="node"><title>n16</title>
<g id="a_node31"><a xlink:href="fedwiki_AddMarkdownToPageArray%2Cc%2Cstack+%22lib_Fedwiki%22%2C1" xlink:title="fedwiki_AddMarkdownToPageArray">
<ellipse fill="LightBlue" stroke="Blue" cx="3515" cy="-250" rx="142.698" ry="18"/>
<text text-anchor="middle" x="3515" y="-245.8" font-family="Times,serif" font-size="14.00">fedwiki_AddMarkdownToPageArray</text>
</a>
</g>
</g>
<!-- n24&#45;&gt;n16 -->
<g id="edge26" class="edge"><title>n24&#45;&gt;n16</title>
<path fill="none" stroke="black" d="M1828.66,-404.899C2050.36,-404.36 2696.06,-400.981 2906,-380 3111.33,-359.479 3162.5,-346.793 3363,-298 3394.93,-290.23 3430.01,-279.531 3458.42,-270.303"/>
<polygon fill="black" stroke="black" points="3459.76,-273.547 3468.17,-267.108 3457.58,-266.895 3459.76,-273.547"/>
</g>
<!-- n22 -->
<g id="node33" class="node"><title>n22</title>
<g id="a_node33"><a xlink:href="fedwiki_AddParagraphToPageArray%2Cc%2Cstack+%22lib_Fedwiki%22%2C1" xlink:title="fedwiki_AddParagraphToPageArray">
<ellipse fill="LightBlue" stroke="Blue" cx="3815" cy="-250" rx="139.782" ry="18"/>
<text text-anchor="middle" x="3815" y="-245.8" font-family="Times,serif" font-size="14.00">fedwiki_AddParagraphToPageArray</text>
</a>
</g>
</g>
<!-- n24&#45;&gt;n22 -->
<g id="edge27" class="edge"><title>n24&#45;&gt;n22</title>
<path fill="none" stroke="black" d="M1828.48,-404.965C2078.12,-404.639 2875.67,-401.868 3132,-380 3371.68,-359.552 3432.77,-352.792 3667,-298 3698.58,-290.612 3733.17,-279.787 3760.96,-270.388"/>
<polygon fill="black" stroke="black" points="3762.16,-273.676 3770.49,-267.13 3759.9,-267.053 3762.16,-273.676"/>
</g>
<!-- n20&#45;&gt;n21 -->
<g id="edge22" class="edge"><title>n20&#45;&gt;n21</title>
<path fill="none" stroke="black" d="M2961.09,-231.697C2957.45,-223.728 2953.05,-214.1 2949.01,-205.264"/>
<polygon fill="black" stroke="black" points="2952.16,-203.744 2944.82,-196.104 2945.79,-206.654 2952.16,-203.744"/>
</g>
<!-- n4&#45;&gt;n6 -->
<g id="edge16" class="edge"><title>n4&#45;&gt;n6</title>
<path fill="none" stroke="black" d="M1527.26,-326.678C1631.53,-321.708 1782.94,-312.34 1840,-298 1863.61,-292.065 1888.6,-281.368 1908.48,-271.676"/>
<polygon fill="black" stroke="black" points="1910.13,-274.765 1917.52,-267.17 1907.01,-268.5 1910.13,-274.765"/>
</g>
<!-- n35 -->
<g id="node25" class="node"><title>n35</title>
<g id="a_node25"><a xlink:href="fedwiki_ConstructStoryHtmlArray%2Cf%2Cstack+%22lib_Fedwiki%22%2C1" xlink:title="fedwiki_ConstructStoryHtmlArray">
<ellipse fill="GreenYellow" stroke="#008b00" cx="3209" cy="-178" rx="133.796" ry="18"/>
<text text-anchor="middle" x="3209" y="-173.8" font-family="Times,serif" font-size="14.00">fedwiki_ConstructStoryHtmlArray</text>
</a>
</g>
</g>
<!-- n17 -->
<g id="node26" class="node"><title>n17</title>
<g id="a_node26"><a xlink:href="fedwiki_ConstructStoryMarkdownArray%2Cf%2Cstack+%22lib_Fedwiki%22%2C1" xlink:title="fedwiki_ConstructStoryMarkdownArray">
<ellipse fill="GreenYellow" stroke="#008b00" cx="3515" cy="-178" rx="154.551" ry="18"/>
<text text-anchor="middle" x="3515" y="-173.8" font-family="Times,serif" font-size="14.00">fedwiki_ConstructStoryMarkdownArray</text>
</a>
</g>
</g>
<!-- n17&#45;&gt;n7 -->
<g id="edge13" class="edge"><title>n17&#45;&gt;n7</title>
<path fill="none" stroke="black" d="M3499.75,-160.055C3492.12,-151.583 3482.75,-141.168 3474.33,-131.815"/>
<polygon fill="black" stroke="black" points="3476.84,-129.367 3467.55,-124.275 3471.64,-134.05 3476.84,-129.367"/>
</g>
<!-- n25&#45;&gt;n35 -->
<g id="edge24" class="edge"><title>n25&#45;&gt;n35</title>
<path fill="none" stroke="black" d="M3226.31,-231.697C3223.75,-223.898 3220.67,-214.509 3217.82,-205.829"/>
<polygon fill="black" stroke="black" points="3221.07,-204.512 3214.62,-196.104 3214.42,-206.697 3221.07,-204.512"/>
</g>
<!-- n18 -->
<g id="node30" class="node"><title>n18</title>
<g id="a_node30"><a xlink:href="fedwiki_PageArrayAddToEnd%2Cc%2Cstack+%22lib_Fedwiki%22%2C1" xlink:title="fedwiki_PageArrayAddToEnd">
<ellipse fill="LightBlue" stroke="Blue" cx="3806" cy="-178" rx="118.075" ry="18"/>
<text text-anchor="middle" x="3806" y="-173.8" font-family="Times,serif" font-size="14.00">fedwiki_PageArrayAddToEnd</text>
</a>
</g>
</g>
<!-- n18&#45;&gt;n1 -->
<g id="edge19" class="edge"><title>n18&#45;&gt;n1</title>
<path fill="none" stroke="black" d="M3786.39,-160.055C3776.14,-151.199 3763.44,-140.219 3752.25,-130.549"/>
<polygon fill="black" stroke="black" points="3754.28,-127.68 3744.43,-123.789 3749.7,-132.976 3754.28,-127.68"/>
</g>
<!-- n12 -->
<g id="node32" class="node"><title>n12</title>
<g id="a_node32"><a xlink:href="fedwiki_AddToJournalArray%2Cc%2Cstack+%22lib_Fedwiki%22%2C1" xlink:title="fedwiki_AddToJournalArray">
<ellipse fill="LightBlue" stroke="Blue" cx="4000" cy="-106" rx="112.772" ry="18"/>
<text text-anchor="middle" x="4000" y="-101.8" font-family="Times,serif" font-size="14.00">fedwiki_AddToJournalArray</text>
</a>
</g>
</g>
<!-- n18&#45;&gt;n12 -->
<g id="edge18" class="edge"><title>n18&#45;&gt;n12</title>
<path fill="none" stroke="black" d="M3850.02,-161.116C3878.77,-150.742 3916.48,-137.137 3946.89,-126.163"/>
<polygon fill="black" stroke="black" points="3948.27,-129.387 3956.49,-122.701 3945.89,-122.802 3948.27,-129.387"/>
</g>
<!-- n13 -->
<g id="node36" class="node"><title>n13</title>
<g id="a_node36"><a xlink:href="fedwiki_AddToEndOfIndexArray%2Cc%2Cstack+%22lib_Fedwiki%22%2C1" xlink:title="fedwiki_AddToEndOfIndexArray">
<ellipse fill="LightBlue" stroke="Blue" cx="3934" cy="-34" rx="130.128" ry="18"/>
<text text-anchor="middle" x="3934" y="-29.8" font-family="Times,serif" font-size="14.00">fedwiki_AddToEndOfIndexArray</text>
</a>
</g>
</g>
<!-- n18&#45;&gt;n13 -->
<g id="edge17" class="edge"><title>n18&#45;&gt;n13</title>
<path fill="none" stroke="black" d="M3825.09,-159.946C3835.53,-150.056 3848.28,-137.013 3858,-124 3868.95,-109.335 3866.78,-102.459 3878,-88 3886.08,-77.5904 3896.22,-67.3498 3905.65,-58.6874"/>
<polygon fill="black" stroke="black" points="3908.22,-61.087 3913.34,-51.8131 3903.56,-55.8681 3908.22,-61.087"/>
</g>
<!-- n16&#45;&gt;n17 -->
<g id="edge7" class="edge"><title>n16&#45;&gt;n17</title>
<path fill="none" stroke="black" d="M3515,-231.697C3515,-223.983 3515,-214.712 3515,-206.112"/>
<polygon fill="black" stroke="black" points="3518.5,-206.104 3515,-196.104 3511.5,-206.104 3518.5,-206.104"/>
</g>
<!-- n16&#45;&gt;n18 -->
<g id="edge8" class="edge"><title>n16&#45;&gt;n18</title>
<path fill="none" stroke="black" d="M3578.14,-233.811C3624.49,-222.662 3687.47,-207.513 3735.47,-195.967"/>
<polygon fill="black" stroke="black" points="3736.57,-199.302 3745.47,-193.56 3734.93,-192.496 3736.57,-199.302"/>
</g>
<!-- n12&#45;&gt;n13 -->
<g id="edge1" class="edge"><title>n12&#45;&gt;n13</title>
<path fill="none" stroke="black" d="M3984.02,-88.055C3976.04,-79.5832 3966.22,-69.1679 3957.4,-59.8154"/>
<polygon fill="black" stroke="black" points="3959.69,-57.1502 3950.29,-52.2753 3954.6,-61.9523 3959.69,-57.1502"/>
</g>
<!-- n22&#45;&gt;n23 -->
<g id="edge23" class="edge"><title>n22&#45;&gt;n23</title>
<path fill="none" stroke="black" d="M3875.88,-233.725C3919.05,-222.894 3977.14,-208.321 4022.51,-196.936"/>
<polygon fill="black" stroke="black" points="4023.44,-200.313 4032.28,-194.485 4021.73,-193.523 4023.44,-200.313"/>
</g>
<!-- n8 -->
<g id="node34" class="node"><title>n8</title>
<g id="a_node34"><a xlink:href="ccc_ProcessDrop%2Cc%2Cstack+%22lib_CCC%22%2C1" xlink:title="ccc_ProcessDrop">
<ellipse fill="LightBlue" stroke="Blue" cx="325" cy="-406" rx="71.4945" ry="18"/>
<text text-anchor="middle" x="325" y="-401.8" font-family="Times,serif" font-size="14.00">ccc_ProcessDrop</text>
</a>
</g>
</g>
<!-- n8&#45;&gt;n9 -->
<g id="edge21" class="edge"><title>n8&#45;&gt;n9</title>
<path fill="none" stroke="black" d="M374.439,-392.978C384.805,-390.922 395.713,-389.097 406,-388 445.609,-383.777 1801.89,-391.587 1840,-380 1856.2,-375.074 1872.12,-365.144 1884.77,-355.676"/>
<polygon fill="black" stroke="black" points="1887.25,-358.181 1892.96,-349.262 1882.93,-352.669 1887.25,-358.181"/>
</g>
</g>
</svg>
