<?xml version="1.0" encoding="UTF-8" standalone="no"?>
<!DOCTYPE svg PUBLIC "-//W3C//DTD SVG 1.1//EN"
 "http://www.w3.org/Graphics/SVG/1.1/DTD/svg11.dtd">
<!-- Generated by graphviz version 2.38.0 (20140413.2041)
 -->
<!-- Title: dot_FromArray Pages: 1 -->
<svg width="2250pt" height="917pt"
 viewBox="0.00 0.00 2250.00 916.55" xmlns="http://www.w3.org/2000/svg" xmlns:xlink="http://www.w3.org/1999/xlink">
<g id="graph0" class="graph" transform="scale(0.900345 0.900345) rotate(0) translate(4 1014)">
<title>dot_FromArray</title>
<polygon fill="white" stroke="none" points="-4,4 -4,-1014 2495.04,-1014 2495.04,4 -4,4"/>
<g id="clust4" class="cluster"><title>cluster1</title>
<polygon fill="#999999" stroke="#999999" points="305,-8 305,-298 793,-298 793,-8 305,-8"/>
<text text-anchor="middle" x="549" y="-282.8" font-family="Times,serif" font-size="14.00">stack &quot;lib_Common&quot;</text>
</g>
<g id="clust5" class="cluster"><title>cluster2</title>
<polygon fill="#999999" stroke="#999999" points="1410,-698 1410,-772 1572,-772 1572,-698 1410,-698"/>
<text text-anchor="middle" x="1491" y="-756.8" font-family="Times,serif" font-size="14.00">stack &quot;lib_Fedwiki&quot;</text>
</g>
<g id="clust6" class="cluster"><title>cluster3</title>
<polygon fill="#999999" stroke="#999999" points="801,-224 801,-380 1079,-380 1079,-224 801,-224"/>
<text text-anchor="middle" x="940" y="-364.8" font-family="Times,serif" font-size="14.00">stack &quot;lib_HkeyArray&quot;</text>
</g>
<g id="clust7" class="cluster"><title>cluster4</title>
<polygon fill="#999999" stroke="#999999" points="1407,-780 1407,-854 1575,-854 1575,-780 1407,-780"/>
<text text-anchor="middle" x="1491" y="-838.8" font-family="Times,serif" font-size="14.00">stack &quot;lib_HTML&quot;</text>
</g>
<g id="clust8" class="cluster"><title>cluster5</title>
<polygon fill="#999999" stroke="#999999" points="1585,-470 1585,-544 1729,-544 1729,-470 1585,-470"/>
<text text-anchor="middle" x="1657" y="-528.8" font-family="Times,serif" font-size="14.00">stack &quot;lib_Object&quot;</text>
</g>
<g id="clust9" class="cluster"><title>cluster6</title>
<polygon fill="#999999" stroke="#999999" points="8,-698 8,-1002 1047,-1002 1047,-698 8,-698"/>
<text text-anchor="middle" x="527.5" y="-986.8" font-family="Times,serif" font-size="14.00">stack &quot;lib_RevIgniter&quot;</text>
</g>
<g id="clust10" class="cluster"><title>cluster7</title>
<polygon fill="#999999" stroke="#999999" points="429,-306 429,-462 671,-462 671,-306 429,-306"/>
<text text-anchor="middle" x="550" y="-446.8" font-family="Times,serif" font-size="14.00">stack &quot;lib_Scaffolding&quot;</text>
</g>
<g id="clust11" class="cluster"><title>cluster8</title>
<polygon fill="#999999" stroke="#999999" points="1903,-698 1903,-772 2049,-772 2049,-698 1903,-698"/>
<text text-anchor="middle" x="1976" y="-756.8" font-family="Times,serif" font-size="14.00">stack &quot;lib_Script&quot;</text>
</g>
<g id="clust12" class="cluster"><title>cluster9</title>
<polygon fill="#999999" stroke="#999999" points="1715,-306 1715,-462 1913,-462 1913,-306 1715,-306"/>
<text text-anchor="middle" x="1814" y="-446.8" font-family="Times,serif" font-size="14.00">stack &quot;libOPN_Rev&quot;</text>
</g>
<g id="clust13" class="cluster"><title>cluster10</title>
<polygon fill="#999999" stroke="#999999" points="1583,-780 1583,-928 1797,-928 1797,-780 1583,-780"/>
<text text-anchor="middle" x="1690" y="-912.8" font-family="Times,serif" font-size="14.00">stack &quot;libOPN_ScriptGraphModel&quot;</text>
</g>
<g id="clust14" class="cluster"><title>cluster11</title>
<polygon fill="#999999" stroke="#999999" points="1921,-388 1921,-690 2475,-690 2475,-388 1921,-388"/>
<text text-anchor="middle" x="2198" y="-674.8" font-family="Times,serif" font-size="14.00">stack &quot;model_ObjectMetadata&quot;</text>
</g>
<g id="clust15" class="cluster"><title>cluster12</title>
<polygon fill="#999999" stroke="#999999" points="1087,-152 1087,-544 1504,-544 1504,-152 1087,-152"/>
<text text-anchor="middle" x="1295.5" y="-528.8" font-family="Times,serif" font-size="14.00">stack &quot;model_Project&quot;</text>
</g>
<g id="clust16" class="cluster"><title>cluster13</title>
<polygon fill="#999999" stroke="#999999" points="1613,-698 1613,-772 1795,-772 1795,-698 1613,-698"/>
<text text-anchor="middle" x="1704" y="-756.8" font-family="Times,serif" font-size="14.00">stack &quot;model_ScriptExport&quot;</text>
</g>
<g id="clust17" class="cluster"><title>cluster14</title>
<polygon fill="#999999" stroke="#999999" points="1512,-152 1512,-298 1948,-298 1948,-152 1512,-152"/>
<text text-anchor="middle" x="1730" y="-282.8" font-family="Times,serif" font-size="14.00">stack &quot;Rescue Livecode World&quot;</text>
</g>
<!-- n33 -->
<g id="node1" class="node"><title>n33</title>
<g id="a_node1"><a xlink:href="project_OverlayFolder%2Cg%2Cstack+%22model_Project%22%2C1" xlink:title="project_OverlayFolder">
<ellipse fill="#7f7f7f" stroke="white" cx="1265" cy="-178" rx="90.8049" ry="18"/>
<text text-anchor="middle" x="1265" y="-173.8" font-family="Times,serif" font-size="14.00">project_OverlayFolder</text>
</a>
</g>
</g>
<!-- n2 -->
<g id="node2" class="node"><title>n2</title>
<g id="a_node2"><a xlink:href="object_MetaDataFolder%2Cg%2Cstack+%22model_ObjectMetadata%22%2C1" xlink:title="object_MetaDataFolder">
<ellipse fill="#7f7f7f" stroke="white" cx="2029" cy="-642" rx="94.1791" ry="18"/>
<text text-anchor="middle" x="2029" y="-637.8" font-family="Times,serif" font-size="14.00">object_MetaDataFolder</text>
</a>
</g>
</g>
<!-- n36 -->
<g id="node6" class="node"><title>n36</title>
<g id="a_node6"><a xlink:href="textStack_Folder%2Cg%2Cstack+%22model_ObjectMetadata%22%2C1" xlink:title="textStack_Folder">
<ellipse fill="#7f7f7f" stroke="white" cx="2230" cy="-570" rx="70.5513" ry="18"/>
<text text-anchor="middle" x="2230" y="-565.8" font-family="Times,serif" font-size="14.00">textStack_Folder</text>
</a>
</g>
</g>
<!-- n2&#45;&gt;n36 -->
<g id="edge17" class="edge"><title>n2&#45;&gt;n36</title>
<path fill="none" stroke="black" d="M2072.12,-625.983C2103.93,-614.905 2147.28,-599.809 2180.5,-588.237"/>
<polygon fill="black" stroke="black" points="2181.73,-591.515 2190.03,-584.921 2179.43,-584.905 2181.73,-591.515"/>
</g>
<!-- n26 -->
<g id="node11" class="node"><title>n26</title>
<g id="a_node11"><a xlink:href="stack_Object%2Cg%2Cstack+%22Rescue+Livecode+World%22%2C1" xlink:title="stack_Object">
<ellipse fill="#7f7f7f" stroke="white" cx="1699" cy="-250" rx="56.0441" ry="18"/>
<text text-anchor="middle" x="1699" y="-245.8" font-family="Times,serif" font-size="14.00">stack_Object</text>
</a>
</g>
</g>
<!-- n2&#45;&gt;n26 -->
<g id="edge16" class="edge"><title>n2&#45;&gt;n26</title>
<path fill="none" stroke="black" d="M1947.18,-632.922C1833.12,-620.09 1634.32,-591.521 1581,-544 1564.53,-529.318 1565,-519.066 1565,-497 1565,-497 1565,-497 1565,-413 1565,-379.435 1634.16,-310.483 1673.11,-274.315"/>
<polygon fill="black" stroke="black" points="1675.94,-276.467 1680.93,-267.119 1671.2,-271.317 1675.94,-276.467"/>
</g>
<!-- n9 -->
<g id="node18" class="node"><title>n9</title>
<g id="a_node18"><a xlink:href="mainstack_MetadataFolder%2Cf%2Cstack+%22model_ObjectMetadata%22%2C1" xlink:title="mainstack_MetadataFolder">
<ellipse fill="GreenYellow" stroke="#008b00" cx="2035" cy="-570" rx="106.241" ry="18"/>
<text text-anchor="middle" x="2035" y="-565.8" font-family="Times,serif" font-size="14.00">mainstack_MetadataFolder</text>
</a>
</g>
</g>
<!-- n2&#45;&gt;n9 -->
<g id="edge18" class="edge"><title>n2&#45;&gt;n9</title>
<path fill="none" stroke="black" d="M2030.48,-623.697C2031.14,-615.983 2031.94,-606.712 2032.68,-598.112"/>
<polygon fill="black" stroke="black" points="2036.17,-598.367 2033.53,-588.104 2029.19,-597.769 2036.17,-598.367"/>
</g>
<!-- n27 -->
<g id="node3" class="node"><title>n27</title>
<g id="a_node3"><a xlink:href="project_DependencyStackArray%2Cg%2Cstack+%22model_Project%22%2C1" xlink:title="project_DependencyStackArray">
<ellipse fill="#7f7f7f" stroke="white" cx="1219" cy="-414" rx="123.595" ry="18"/>
<text text-anchor="middle" x="1219" y="-409.8" font-family="Times,serif" font-size="14.00">project_DependencyStackArray</text>
</a>
</g>
</g>
<!-- n30 -->
<g id="node9" class="node"><title>n30</title>
<g id="a_node9"><a xlink:href="project_ProcessedHkeyArray%2Cg%2Cstack+%22model_Project%22%2C1" xlink:title="project_ProcessedHkeyArray">
<ellipse fill="#7f7f7f" stroke="white" cx="1265" cy="-332" rx="114.45" ry="18"/>
<text text-anchor="middle" x="1265" y="-327.8" font-family="Times,serif" font-size="14.00">project_ProcessedHkeyArray</text>
</a>
</g>
</g>
<!-- n27&#45;&gt;n30 -->
<g id="edge42" class="edge"><title>n27&#45;&gt;n30</title>
<path fill="none" stroke="black" d="M1228.76,-396.034C1234.98,-385.215 1243.16,-370.987 1250.17,-358.786"/>
<polygon fill="black" stroke="black" points="1253.31,-360.355 1255.26,-349.941 1247.24,-356.866 1253.31,-360.355"/>
</g>
<!-- n31 -->
<g id="node15" class="node"><title>n31</title>
<g id="a_node15"><a xlink:href="hkeyArray_ConstructObjectArray%2Cf%2Cstack+%22lib_HkeyArray%22%2C1" xlink:title="hkeyArray_ConstructObjectArray">
<ellipse fill="GreenYellow" stroke="#008b00" cx="940" cy="-332" rx="130.854" ry="18"/>
<text text-anchor="middle" x="940" y="-327.8" font-family="Times,serif" font-size="14.00">hkeyArray_ConstructObjectArray</text>
</a>
</g>
</g>
<!-- n27&#45;&gt;n31 -->
<g id="edge43" class="edge"><title>n27&#45;&gt;n31</title>
<path fill="none" stroke="black" d="M1155.07,-398.595C1132.23,-393.156 1106.36,-386.663 1083,-380 1053.68,-371.639 1021.38,-361.136 994.912,-352.181"/>
<polygon fill="black" stroke="black" points="996.034,-348.866 985.439,-348.959 993.779,-355.493 996.034,-348.866"/>
</g>
<!-- n25 -->
<g id="node4" class="node"><title>n25</title>
<g id="a_node4"><a xlink:href="project_DependencyStacks%2Cg%2Cstack+%22model_Project%22%2C1" xlink:title="project_DependencyStacks">
<ellipse fill="#7f7f7f" stroke="white" cx="1201" cy="-496" rx="106.232" ry="18"/>
<text text-anchor="middle" x="1201" y="-491.8" font-family="Times,serif" font-size="14.00">project_DependencyStacks</text>
</a>
</g>
</g>
<!-- n25&#45;&gt;n27 -->
<g id="edge35" class="edge"><title>n25&#45;&gt;n27</title>
<path fill="none" stroke="black" d="M1204.91,-477.641C1207.26,-467.192 1210.3,-453.668 1212.96,-441.862"/>
<polygon fill="black" stroke="black" points="1216.38,-442.575 1215.16,-432.05 1209.55,-441.038 1216.38,-442.575"/>
</g>
<!-- n25&#45;&gt;n26 -->
<g id="edge34" class="edge"><title>n25&#45;&gt;n26</title>
<path fill="none" stroke="black" d="M1263.96,-481.404C1304.91,-472.534 1350.93,-462.505 1352,-462 1453.68,-414.131 1446.68,-347.795 1551,-306 1584.99,-292.382 1598.7,-310.832 1633,-298 1647.74,-292.486 1662.19,-282.818 1673.8,-273.679"/>
<polygon fill="black" stroke="black" points="1676.21,-276.234 1681.72,-267.184 1671.77,-270.823 1676.21,-276.234"/>
</g>
<!-- n21 -->
<g id="node5" class="node"><title>n21</title>
<g id="a_node5"><a xlink:href="script_Markdown%2Cg%2Cstack+%22libOPN_ScriptGraphModel%22%2C1" xlink:title="script_Markdown">
<ellipse fill="#7f7f7f" stroke="white" cx="1664" cy="-880" rx="72.9653" ry="18"/>
<text text-anchor="middle" x="1664" y="-875.8" font-family="Times,serif" font-size="14.00">script_Markdown</text>
</a>
</g>
</g>
<!-- n42 -->
<g id="node7" class="node"><title>n42</title>
<g id="a_node7"><a xlink:href="script_Help%2Cg%2Cstack+%22libOPN_ScriptGraphModel%22%2C1" xlink:title="script_Help">
<ellipse fill="#7f7f7f" stroke="white" cx="1704" cy="-806" rx="51.2329" ry="18"/>
<text text-anchor="middle" x="1704" y="-801.8" font-family="Times,serif" font-size="14.00">script_Help</text>
</a>
</g>
</g>
<!-- n21&#45;&gt;n42 -->
<g id="edge21" class="edge"><title>n21&#45;&gt;n42</title>
<path fill="none" stroke="black" d="M1673.48,-861.937C1678.31,-853.239 1684.29,-842.48 1689.67,-832.795"/>
<polygon fill="black" stroke="black" points="1692.79,-834.382 1694.59,-823.941 1686.67,-830.982 1692.79,-834.382"/>
</g>
<!-- n13 -->
<g id="node37" class="node"><title>n13</title>
<g id="a_node37"><a xlink:href="html_StripAllTags%2Cf%2Cstack+%22lib_HTML%22%2C1" xlink:title="html_StripAllTags">
<ellipse fill="GreenYellow" stroke="#008b00" cx="1491" cy="-806" rx="75.6311" ry="18"/>
<text text-anchor="middle" x="1491" y="-801.8" font-family="Times,serif" font-size="14.00">html_StripAllTags</text>
</a>
</g>
</g>
<!-- n21&#45;&gt;n13 -->
<g id="edge22" class="edge"><title>n21&#45;&gt;n13</title>
<path fill="none" stroke="black" d="M1615.31,-866.538C1603.28,-862.952 1590.53,-858.717 1579,-854 1561.18,-846.709 1542.24,-836.886 1526.51,-828.106"/>
<polygon fill="black" stroke="black" points="1528.08,-824.973 1517.66,-823.083 1524.63,-831.062 1528.08,-824.973"/>
</g>
<!-- n36&#45;&gt;n26 -->
<g id="edge52" class="edge"><title>n36&#45;&gt;n26</title>
<path fill="none" stroke="black" d="M2291.7,-561.23C2350.34,-550.208 2435.4,-523.931 2476,-462 2494.03,-434.494 2497.5,-412.886 2476,-388 2393.92,-292.997 2041.94,-318.424 1917,-306 1883.34,-302.653 1796.94,-309.143 1765,-298 1750.04,-292.779 1735.46,-283.052 1723.83,-273.795"/>
<polygon fill="black" stroke="black" points="1725.84,-270.916 1715.92,-267.209 1721.37,-276.297 1725.84,-270.916"/>
</g>
<!-- n35 -->
<g id="node12" class="node"><title>n35</title>
<g id="a_node12"><a xlink:href="mainstack_File%2Cg%2Cstack+%22lib_Object%22%2C1" xlink:title="mainstack_File">
<ellipse fill="#7f7f7f" stroke="white" cx="1657" cy="-496" rx="64.2787" ry="18"/>
<text text-anchor="middle" x="1657" y="-491.8" font-family="Times,serif" font-size="14.00">mainstack_File</text>
</a>
</g>
</g>
<!-- n36&#45;&gt;n35 -->
<g id="edge53" class="edge"><title>n36&#45;&gt;n35</title>
<path fill="none" stroke="black" d="M2180.74,-556.999C2170.63,-554.97 2160.02,-553.15 2150,-552 2104.18,-546.739 1779.31,-556.78 1735,-544 1717.26,-538.884 1699.48,-528.657 1685.38,-519.046"/>
<polygon fill="black" stroke="black" points="1687.3,-516.114 1677.11,-513.192 1683.25,-521.827 1687.3,-516.114"/>
</g>
<!-- n37 -->
<g id="node34" class="node"><title>n37</title>
<g id="a_node34"><a xlink:href="textStack_FindRoot%2Cf%2Cstack+%22model_ObjectMetadata%22%2C1" xlink:title="textStack_FindRoot">
<ellipse fill="GreenYellow" stroke="#008b00" cx="2144" cy="-496" rx="80.7094" ry="18"/>
<text text-anchor="middle" x="2144" y="-491.8" font-family="Times,serif" font-size="14.00">textStack_FindRoot</text>
</a>
</g>
</g>
<!-- n36&#45;&gt;n37 -->
<g id="edge50" class="edge"><title>n36&#45;&gt;n37</title>
<path fill="none" stroke="black" d="M2210.49,-552.662C2199.02,-543.064 2184.34,-530.777 2171.7,-520.189"/>
<polygon fill="black" stroke="black" points="2173.65,-517.258 2163.74,-513.522 2169.16,-522.626 2173.65,-517.258"/>
</g>
<!-- n15 -->
<g id="node48" class="node"><title>n15</title>
<g id="a_node48"><a xlink:href="folder_CreateNested%2Cc%2Cstack+%22Rescue+Livecode+World%22%2C1" xlink:title="folder_CreateNested">
<ellipse fill="LightBlue" stroke="Blue" cx="1857" cy="-250" rx="83.0546" ry="18"/>
<text text-anchor="middle" x="1857" y="-245.8" font-family="Times,serif" font-size="14.00">folder_CreateNested</text>
</a>
</g>
</g>
<!-- n36&#45;&gt;n15 -->
<g id="edge51" class="edge"><title>n36&#45;&gt;n15</title>
<path fill="none" stroke="black" d="M2179.82,-557.325C2169.97,-555.321 2159.69,-553.428 2150,-552 2107.64,-545.76 2096.28,-550.775 2054,-544 2044.33,-542.45 1717.07,-469.69 1711,-462 1689.53,-434.786 1688.39,-332.279 1711,-306 1718.77,-296.971 1752.65,-301.621 1764,-298 1783.92,-291.643 1804.81,-281.444 1821.74,-272.169"/>
<polygon fill="black" stroke="black" points="1823.69,-275.086 1830.7,-267.142 1820.27,-268.981 1823.69,-275.086"/>
</g>
<!-- n1 -->
<g id="node8" class="node"><title>n1</title>
<g id="a_node8"><a xlink:href="script_HelpFile%2Cg%2Cstack+%22lib_Script%22%2C1" xlink:title="script_HelpFile">
<ellipse fill="#7f7f7f" stroke="white" cx="1976" cy="-724" rx="65.2477" ry="18"/>
<text text-anchor="middle" x="1976" y="-719.8" font-family="Times,serif" font-size="14.00">script_HelpFile</text>
</a>
</g>
</g>
<!-- n42&#45;&gt;n1 -->
<g id="edge46" class="edge"><title>n42&#45;&gt;n1</title>
<path fill="none" stroke="black" d="M1742.11,-793.792C1789.36,-779.895 1870.14,-756.134 1923.31,-740.498"/>
<polygon fill="black" stroke="black" points="1924.62,-743.761 1933.22,-737.581 1922.64,-737.045 1924.62,-743.761"/>
</g>
<!-- n43 -->
<g id="node47" class="node"><title>n43</title>
<g id="a_node47"><a xlink:href="hack_UpdateBinFile%2Cc%2Cstack+%22model_ScriptExport%22%2C1" xlink:title="hack_UpdateBinFile">
<ellipse fill="LightBlue" stroke="Blue" cx="1704" cy="-724" rx="83.0891" ry="18"/>
<text text-anchor="middle" x="1704" y="-719.8" font-family="Times,serif" font-size="14.00">hack_UpdateBinFile</text>
</a>
</g>
</g>
<!-- n42&#45;&gt;n43 -->
<g id="edge45" class="edge"><title>n42&#45;&gt;n43</title>
<path fill="none" stroke="black" d="M1704,-787.641C1704,-777.297 1704,-763.941 1704,-752.221"/>
<polygon fill="black" stroke="black" points="1707.5,-752.05 1704,-742.05 1700.5,-752.05 1707.5,-752.05"/>
</g>
<!-- n1&#45;&gt;n2 -->
<g id="edge14" class="edge"><title>n1&#45;&gt;n2</title>
<path fill="none" stroke="black" d="M1987.24,-706.034C1994.48,-695.109 2004.02,-680.707 2012.15,-668.428"/>
<polygon fill="black" stroke="black" points="2015.17,-670.211 2017.78,-659.941 2009.34,-666.345 2015.17,-670.211"/>
</g>
<!-- n32 -->
<g id="node10" class="node"><title>n32</title>
<g id="a_node10"><a xlink:href="project_ProcessedHkeyArrayFile%2Cg%2Cstack+%22model_Project%22%2C1" xlink:title="project_ProcessedHkeyArrayFile">
<ellipse fill="#7f7f7f" stroke="white" cx="1265" cy="-250" rx="127.965" ry="18"/>
<text text-anchor="middle" x="1265" y="-245.8" font-family="Times,serif" font-size="14.00">project_ProcessedHkeyArrayFile</text>
</a>
</g>
</g>
<!-- n30&#45;&gt;n32 -->
<g id="edge37" class="edge"><title>n30&#45;&gt;n32</title>
<path fill="none" stroke="black" d="M1265,-313.641C1265,-303.297 1265,-289.941 1265,-278.221"/>
<polygon fill="black" stroke="black" points="1268.5,-278.05 1265,-268.05 1261.5,-278.05 1268.5,-278.05"/>
</g>
<!-- n38 -->
<g id="node19" class="node"><title>n38</title>
<g id="a_node19"><a xlink:href="array_Fetch%2Cf%2Cstack+%22Rescue+Livecode+World%22%2C1" xlink:title="array_Fetch">
<ellipse fill="GreenYellow" stroke="#008b00" cx="1572" cy="-250" rx="52.1762" ry="18"/>
<text text-anchor="middle" x="1572" y="-245.8" font-family="Times,serif" font-size="14.00">array_Fetch</text>
</a>
</g>
</g>
<!-- n30&#45;&gt;n38 -->
<g id="edge36" class="edge"><title>n30&#45;&gt;n38</title>
<path fill="none" stroke="black" d="M1343.63,-318.82C1372.35,-314.534 1405.12,-309.834 1435,-306 1467.37,-301.847 1477.59,-309.842 1508,-298 1522.37,-292.406 1536.4,-282.728 1547.64,-273.602"/>
<polygon fill="black" stroke="black" points="1549.93,-276.252 1555.3,-267.122 1545.41,-270.908 1549.93,-276.252"/>
</g>
<!-- n32&#45;&gt;n33 -->
<g id="edge41" class="edge"><title>n32&#45;&gt;n33</title>
<path fill="none" stroke="black" d="M1265,-231.697C1265,-223.983 1265,-214.712 1265,-206.112"/>
<polygon fill="black" stroke="black" points="1268.5,-206.104 1265,-196.104 1261.5,-206.104 1268.5,-206.104"/>
</g>
<!-- n35&#45;&gt;n26 -->
<g id="edge49" class="edge"><title>n35&#45;&gt;n26</title>
<path fill="none" stroke="black" d="M1658.08,-477.87C1660.43,-444.469 1666.95,-368.441 1681,-306 1683.11,-296.599 1686.17,-286.523 1689.17,-277.597"/>
<polygon fill="black" stroke="black" points="1692.49,-278.699 1692.47,-268.104 1685.88,-276.399 1692.49,-278.699"/>
</g>
<!-- n11 -->
<g id="node13" class="node"><title>n11</title>
<g id="a_node13"><a xlink:href="mobile_Name%2Cg%2Cstack+%22lib_Common%22%2C1" xlink:title="mobile_Name">
<ellipse fill="#7f7f7f" stroke="white" cx="621" cy="-250" rx="60.4115" ry="18"/>
<text text-anchor="middle" x="621" y="-245.8" font-family="Times,serif" font-size="14.00">mobile_Name</text>
</a>
</g>
</g>
<!-- n12 -->
<g id="node43" class="node"><title>n12</title>
<g id="a_node43"><a xlink:href="object_SetShortStackName%2Cc%2Cstack+%22lib_Common%22%2C1" xlink:title="object_SetShortStackName">
<ellipse fill="LightBlue" stroke="Blue" cx="629" cy="-178" rx="107.227" ry="18"/>
<text text-anchor="middle" x="629" y="-173.8" font-family="Times,serif" font-size="14.00">object_SetShortStackName</text>
</a>
</g>
</g>
<!-- n11&#45;&gt;n12 -->
<g id="edge12" class="edge"><title>n11&#45;&gt;n12</title>
<path fill="none" stroke="black" d="M622.978,-231.697C623.859,-223.983 624.919,-214.712 625.901,-206.112"/>
<polygon fill="black" stroke="black" points="629.387,-206.437 627.045,-196.104 622.432,-205.642 629.387,-206.437"/>
</g>
<!-- n28 -->
<g id="node14" class="node"><title>n28</title>
<g id="a_node14"><a xlink:href="script_ConstructTemplateUrl%2Cf%2Cstack+%22lib_Scaffolding%22%2C1" xlink:title="script_ConstructTemplateUrl">
<ellipse fill="GreenYellow" stroke="#008b00" cx="550" cy="-332" rx="113.256" ry="18"/>
<text text-anchor="middle" x="550" y="-327.8" font-family="Times,serif" font-size="14.00">script_ConstructTemplateUrl</text>
</a>
</g>
</g>
<!-- n29 -->
<g id="node26" class="node"><title>n29</title>
<g id="a_node26"><a xlink:href="library_ScriptTemplateFolder%2Cf%2Cstack+%22lib_Common%22%2C1" xlink:title="library_ScriptTemplateFolder">
<ellipse fill="GreenYellow" stroke="#008b00" cx="428" cy="-250" rx="115.177" ry="18"/>
<text text-anchor="middle" x="428" y="-245.8" font-family="Times,serif" font-size="14.00">library_ScriptTemplateFolder</text>
</a>
</g>
</g>
<!-- n28&#45;&gt;n29 -->
<g id="edge11" class="edge"><title>n28&#45;&gt;n29</title>
<path fill="none" stroke="black" d="M524.722,-314.424C506.604,-302.544 481.995,-286.407 462.135,-273.383"/>
<polygon fill="black" stroke="black" points="463.948,-270.387 453.666,-267.83 460.109,-276.241 463.948,-270.387"/>
</g>
<!-- n31&#45;&gt;n11 -->
<g id="edge38" class="edge"><title>n31&#45;&gt;n11</title>
<path fill="none" stroke="black" d="M816.073,-326.111C774.941,-321.504 729.572,-313.103 690,-298 674.817,-292.205 659.697,-282.47 647.498,-273.358"/>
<polygon fill="black" stroke="black" points="649.603,-270.562 639.554,-267.206 645.317,-276.096 649.603,-270.562"/>
</g>
<!-- n40 -->
<g id="node21" class="node"><title>n40</title>
<g id="a_node21"><a xlink:href="array_AllNodes%2Cf%2Cstack+%22lib_HkeyArray%22%2C1" xlink:title="array_AllNodes">
<ellipse fill="GreenYellow" stroke="#008b00" cx="940" cy="-250" rx="66.6752" ry="18"/>
<text text-anchor="middle" x="940" y="-245.8" font-family="Times,serif" font-size="14.00">array_AllNodes</text>
</a>
</g>
</g>
<!-- n31&#45;&gt;n40 -->
<g id="edge40" class="edge"><title>n31&#45;&gt;n40</title>
<path fill="none" stroke="black" d="M940,-313.641C940,-303.297 940,-289.941 940,-278.221"/>
<polygon fill="black" stroke="black" points="943.5,-278.05 940,-268.05 936.5,-278.05 943.5,-278.05"/>
</g>
<!-- n39 -->
<g id="node45" class="node"><title>n39</title>
<g id="a_node45"><a xlink:href="line_Add%2Cc%2Cstack+%22lib_Common%22%2C1" xlink:title="line_Add">
<ellipse fill="LightBlue" stroke="Blue" cx="742" cy="-250" rx="43.0387" ry="18"/>
<text text-anchor="middle" x="742" y="-245.8" font-family="Times,serif" font-size="14.00">line_Add</text>
</a>
</g>
</g>
<!-- n31&#45;&gt;n39 -->
<g id="edge39" class="edge"><title>n31&#45;&gt;n39</title>
<path fill="none" stroke="black" d="M854.475,-318.3C834.953,-313.505 814.746,-306.947 797,-298 785.084,-291.992 773.585,-282.875 764.209,-274.265"/>
<polygon fill="black" stroke="black" points="766.512,-271.624 756.871,-267.231 761.668,-276.677 766.512,-271.624"/>
</g>
<!-- n45 -->
<g id="node16" class="node"><title>n45</title>
<g id="a_node16"><a xlink:href="kwote%2Cf%2Cstack+%22lib_RevIgniter%22%2C1" xlink:title="kwote">
<ellipse fill="GreenYellow" stroke="#008b00" cx="571" cy="-724" rx="31.9393" ry="18"/>
<text text-anchor="middle" x="571" y="-719.8" font-family="Times,serif" font-size="14.00">kwote</text>
</a>
</g>
</g>
<!-- n18 -->
<g id="node17" class="node"><title>n18</title>
<g id="a_node17"><a xlink:href="rev_ApplicationFolder%2Cf%2Cstack+%22libOPN_Rev%22%2C1" xlink:title="rev_ApplicationFolder">
<ellipse fill="GreenYellow" stroke="#008b00" cx="1814" cy="-332" rx="90.8222" ry="18"/>
<text text-anchor="middle" x="1814" y="-327.8" font-family="Times,serif" font-size="14.00">rev_ApplicationFolder</text>
</a>
</g>
</g>
<!-- n10 -->
<g id="node41" class="node"><title>n10</title>
<g id="a_node41"><a xlink:href="folder_AddObjectBit%2Cc%2Cstack+%22model_Project%22%2C1" xlink:title="folder_AddObjectBit">
<ellipse fill="LightBlue" stroke="Blue" cx="1411" cy="-496" rx="85.0187" ry="18"/>
<text text-anchor="middle" x="1411" y="-491.8" font-family="Times,serif" font-size="14.00">folder_AddObjectBit</text>
</a>
</g>
</g>
<!-- n9&#45;&gt;n10 -->
<g id="edge23" class="edge"><title>n9&#45;&gt;n10</title>
<path fill="none" stroke="black" d="M1928.35,-569.563C1835.9,-568.522 1698.82,-563.301 1581,-544 1541.15,-537.473 1497.25,-525.2 1464.05,-514.833"/>
<polygon fill="black" stroke="black" points="1464.69,-511.366 1454.1,-511.685 1462.58,-518.039 1464.69,-511.366"/>
</g>
<!-- n5 -->
<g id="node20" class="node"><title>n5</title>
<g id="a_node20"><a xlink:href="rig_ExtractPublicHandlers%2Cf%2Cstack+%22lib_RevIgniter%22%2C1" xlink:title="rig_ExtractPublicHandlers">
<ellipse fill="GreenYellow" stroke="#008b00" cx="120" cy="-806" rx="104.32" ry="18"/>
<text text-anchor="middle" x="120" y="-801.8" font-family="Times,serif" font-size="14.00">rig_ExtractPublicHandlers</text>
</a>
</g>
</g>
<!-- n44 -->
<g id="node22" class="node"><title>n44</title>
<g id="a_node22"><a xlink:href="library_PluginFolder%2Cf%2Cstack+%22lib_Common%22%2C1" xlink:title="library_PluginFolder">
<ellipse fill="GreenYellow" stroke="#008b00" cx="419" cy="-178" rx="84.0754" ry="18"/>
<text text-anchor="middle" x="419" y="-173.8" font-family="Times,serif" font-size="14.00">library_PluginFolder</text>
</a>
</g>
</g>
<!-- n23 -->
<g id="node39" class="node"><title>n23</title>
<g id="a_node39"><a xlink:href="folder_CreateNested%2Cc%2Cstack+%22lib_Common%22%2C1" xlink:title="folder_CreateNested">
<ellipse fill="LightBlue" stroke="Blue" cx="422" cy="-106" rx="83.0546" ry="18"/>
<text text-anchor="middle" x="422" y="-101.8" font-family="Times,serif" font-size="14.00">folder_CreateNested</text>
</a>
</g>
</g>
<!-- n44&#45;&gt;n23 -->
<g id="edge48" class="edge"><title>n44&#45;&gt;n23</title>
<path fill="none" stroke="black" d="M419.742,-159.697C420.072,-151.983 420.469,-142.712 420.838,-134.112"/>
<polygon fill="black" stroke="black" points="424.335,-134.245 421.267,-124.104 417.342,-133.945 424.335,-134.245"/>
</g>
<!-- n24 -->
<g id="node44" class="node"><title>n24</title>
<g id="a_node44"><a xlink:href="folder_Format%2Cc%2Cstack+%22lib_Common%22%2C1" xlink:title="folder_Format">
<ellipse fill="LightBlue" stroke="Blue" cx="398" cy="-34" rx="61.3804" ry="18"/>
<text text-anchor="middle" x="398" y="-29.8" font-family="Times,serif" font-size="14.00">folder_Format</text>
</a>
</g>
</g>
<!-- n44&#45;&gt;n24 -->
<g id="edge47" class="edge"><title>n44&#45;&gt;n24</title>
<path fill="none" stroke="black" d="M376.113,-162.401C358.559,-154.064 340.042,-141.667 330,-124 322.094,-110.09 322.978,-102.377 330,-88 336.449,-74.7967 347.952,-63.9257 359.684,-55.5399"/>
<polygon fill="black" stroke="black" points="361.812,-58.3284 368.199,-49.8752 357.934,-52.5004 361.812,-58.3284"/>
</g>
<!-- n14 -->
<g id="node23" class="node"><title>n14</title>
<g id="a_node23"><a xlink:href="text_StripAllTags%2Cf%2Cstack+%22lib_Fedwiki%22%2C1" xlink:title="text_StripAllTags">
<ellipse fill="GreenYellow" stroke="#008b00" cx="1491" cy="-724" rx="72.7238" ry="18"/>
<text text-anchor="middle" x="1491" y="-719.8" font-family="Times,serif" font-size="14.00">text_StripAllTags</text>
</a>
</g>
</g>
<!-- n7 -->
<g id="node24" class="node"><title>n7</title>
<g id="a_node24"><a xlink:href="script_GetTemplate%2Cf%2Cstack+%22lib_Scaffolding%22%2C1" xlink:title="script_GetTemplate">
<ellipse fill="GreenYellow" stroke="#008b00" cx="567" cy="-414" rx="79.9384" ry="18"/>
<text text-anchor="middle" x="567" y="-409.8" font-family="Times,serif" font-size="14.00">script_GetTemplate</text>
</a>
</g>
</g>
<!-- n7&#45;&gt;n28 -->
<g id="edge20" class="edge"><title>n7&#45;&gt;n28</title>
<path fill="none" stroke="black" d="M563.311,-395.641C561.091,-385.192 558.217,-371.668 555.708,-359.862"/>
<polygon fill="black" stroke="black" points="559.125,-359.104 553.623,-350.05 552.278,-360.559 559.125,-359.104"/>
</g>
<!-- n3 -->
<g id="node25" class="node"><title>n3</title>
<g id="a_node25"><a xlink:href="rig_ConstructControllerFromScript%2Cf%2Cstack+%22lib_RevIgniter%22%2C1" xlink:title="rig_ConstructControllerFromScript">
<ellipse fill="GreenYellow" stroke="#008b00" cx="338" cy="-880" rx="135.258" ry="18"/>
<text text-anchor="middle" x="338" y="-875.8" font-family="Times,serif" font-size="14.00">rig_ConstructControllerFromScript</text>
</a>
</g>
</g>
<!-- n3&#45;&gt;n5 -->
<g id="edge6" class="edge"><title>n3&#45;&gt;n5</title>
<path fill="none" stroke="black" d="M270.44,-864.374C258.219,-861.272 245.659,-857.779 234,-854 210.512,-846.386 185.049,-836.093 164.158,-827.08"/>
<polygon fill="black" stroke="black" points="165.47,-823.834 154.904,-823.043 162.671,-830.25 165.47,-823.834"/>
</g>
<!-- n3&#45;&gt;n7 -->
<g id="edge8" class="edge"><title>n3&#45;&gt;n7</title>
<path fill="none" stroke="black" d="M435.444,-867.463C457.313,-865.275 480.426,-863.274 502,-862 517.142,-861.106 1036.59,-863.997 1048,-854 1091.58,-815.805 1067,-782.952 1067,-725 1067,-725 1067,-725 1067,-569 1067,-482.517 790.332,-439.484 648.603,-423.113"/>
<polygon fill="black" stroke="black" points="648.969,-419.632 638.638,-421.98 648.178,-426.587 648.969,-419.632"/>
</g>
<!-- n8 -->
<g id="node32" class="node"><title>n8</title>
<g id="a_node32"><a xlink:href="rig_ConstructInitScriptLines%2Cf%2Cstack+%22lib_RevIgniter%22%2C1" xlink:title="rig_ConstructInitScriptLines">
<ellipse fill="GreenYellow" stroke="#008b00" cx="571" cy="-806" rx="111.588" ry="18"/>
<text text-anchor="middle" x="571" y="-801.8" font-family="Times,serif" font-size="14.00">rig_ConstructInitScriptLines</text>
</a>
</g>
</g>
<!-- n3&#45;&gt;n8 -->
<g id="edge9" class="edge"><title>n3&#45;&gt;n8</title>
<path fill="none" stroke="black" d="M409.818,-864.658C423.265,-861.497 437.133,-857.911 450,-854 474.981,-846.408 502.133,-836.061 524.375,-827.008"/>
<polygon fill="black" stroke="black" points="525.988,-830.13 533.904,-823.088 523.324,-823.656 525.988,-830.13"/>
</g>
<!-- n6 -->
<g id="node33" class="node"><title>n6</title>
<g id="a_node33"><a xlink:href="rig_ExtractDependencies%2Cf%2Cstack+%22lib_RevIgniter%22%2C1" xlink:title="rig_ExtractDependencies">
<ellipse fill="GreenYellow" stroke="#008b00" cx="342" cy="-806" rx="99.4657" ry="18"/>
<text text-anchor="middle" x="342" y="-801.8" font-family="Times,serif" font-size="14.00">rig_ExtractDependencies</text>
</a>
</g>
</g>
<!-- n3&#45;&gt;n6 -->
<g id="edge7" class="edge"><title>n3&#45;&gt;n6</title>
<path fill="none" stroke="black" d="M338.948,-861.937C339.4,-853.807 339.951,-843.876 340.461,-834.705"/>
<polygon fill="black" stroke="black" points="343.971,-834.619 341.031,-824.441 336.982,-834.231 343.971,-834.619"/>
</g>
<!-- n4 -->
<g id="node46" class="node"><title>n4</title>
<g id="a_node46"><a xlink:href="text_Indent%2Cc%2Cstack+%22lib_RevIgniter%22%2C1" xlink:title="text_Indent">
<ellipse fill="LightBlue" stroke="Blue" cx="751" cy="-806" rx="50.2637" ry="18"/>
<text text-anchor="middle" x="751" y="-801.8" font-family="Times,serif" font-size="14.00">text_Indent</text>
</a>
</g>
</g>
<!-- n3&#45;&gt;n4 -->
<g id="edge5" class="edge"><title>n3&#45;&gt;n4</title>
<path fill="none" stroke="black" d="M432.884,-867.101C450.836,-865.155 469.477,-863.34 487,-862 509.729,-860.262 670.633,-861.941 692,-854 705.695,-848.91 718.658,-839.331 728.927,-830.141"/>
<polygon fill="black" stroke="black" points="731.342,-832.675 736.222,-823.271 726.543,-827.579 731.342,-832.675"/>
</g>
<!-- n29&#45;&gt;n44 -->
<g id="edge19" class="edge"><title>n29&#45;&gt;n44</title>
<path fill="none" stroke="black" d="M425.775,-231.697C424.783,-223.983 423.592,-214.712 422.486,-206.112"/>
<polygon fill="black" stroke="black" points="425.946,-205.576 421.199,-196.104 419.003,-206.469 425.946,-205.576"/>
</g>
<!-- n46 -->
<g id="node27" class="node"><title>n46</title>
<g id="a_node27"><a xlink:href="checkout_ConstructDefaultFolder%2Cf%2Cstack+%22model_ObjectMetadata%22%2C1" xlink:title="checkout_ConstructDefaultFolder">
<ellipse fill="GreenYellow" stroke="#008b00" cx="2059" cy="-414" rx="130.387" ry="18"/>
<text text-anchor="middle" x="2059" y="-409.8" font-family="Times,serif" font-size="14.00">checkout_ConstructDefaultFolder</text>
</a>
</g>
</g>
<!-- n48 -->
<g id="node28" class="node"><title>n48</title>
<g id="a_node28"><a xlink:href="script_HkeysFromAvailable%2Cf%2Cstack+%22lib_RevIgniter%22%2C1" xlink:title="script_HkeysFromAvailable">
<ellipse fill="GreenYellow" stroke="#008b00" cx="929" cy="-806" rx="109.821" ry="18"/>
<text text-anchor="middle" x="929" y="-801.8" font-family="Times,serif" font-size="14.00">script_HkeysFromAvailable</text>
</a>
</g>
</g>
<!-- n22 -->
<g id="node29" class="node"><title>n22</title>
<g id="a_node29"><a xlink:href="rig_GetDependencyShortStackFiles%2Cf%2Cstack+%22lib_RevIgniter%22%2C1" xlink:title="rig_GetDependencyShortStackFiles">
<ellipse fill="GreenYellow" stroke="#008b00" cx="902" cy="-880" rx="137.154" ry="18"/>
<text text-anchor="middle" x="902" y="-875.8" font-family="Times,serif" font-size="14.00">rig_GetDependencyShortStackFiles</text>
</a>
</g>
</g>
<!-- n22&#45;&gt;n25 -->
<g id="edge33" class="edge"><title>n22&#45;&gt;n25</title>
<path fill="none" stroke="black" d="M1019.71,-870.586C1046.29,-866.881 1069.93,-861.577 1081,-854 1135.18,-816.913 1153,-790.659 1153,-725 1153,-725 1153,-725 1153,-641 1153,-598.097 1172.41,-551.524 1186.55,-523.3"/>
<polygon fill="black" stroke="black" points="1189.81,-524.61 1191.29,-514.118 1183.59,-521.399 1189.81,-524.61"/>
</g>
<!-- n20 -->
<g id="node30" class="node"><title>n20</title>
<g id="a_node30"><a xlink:href="rig_ExtractControllerHandlers%2Cf%2Cstack+%22lib_RevIgniter%22%2C1" xlink:title="rig_ExtractControllerHandlers">
<ellipse fill="GreenYellow" stroke="#008b00" cx="629" cy="-880" rx="118.317" ry="18"/>
<text text-anchor="middle" x="629" y="-875.8" font-family="Times,serif" font-size="14.00">rig_ExtractControllerHandlers</text>
</a>
</g>
</g>
<!-- n20&#45;&gt;n48 -->
<g id="edge31" class="edge"><title>n20&#45;&gt;n48</title>
<path fill="none" stroke="black" d="M714.787,-867.605C759.131,-861.637 805.052,-855.299 810,-854 835.546,-847.294 863.034,-836.678 885.148,-827.231"/>
<polygon fill="black" stroke="black" points="886.811,-830.325 894.589,-823.13 884.022,-823.904 886.811,-830.325"/>
</g>
<!-- n19 -->
<g id="node31" class="node"><title>n19</title>
<g id="a_node31"><a xlink:href="rig_ConstructControllerScript%2CF%2Cstack+%22lib_RevIgniter%22%2C1" xlink:title="rig_ConstructControllerScript">
<ellipse fill="GreenYellow" stroke="#008b00" cx="560" cy="-954" rx="116.431" ry="18"/>
<text text-anchor="middle" x="560" y="-949.8" font-family="Times,serif" font-size="14.00">rig_ConstructControllerScript</text>
</a>
</g>
</g>
<!-- n19&#45;&gt;n21 -->
<g id="edge27" class="edge"><title>n19&#45;&gt;n21</title>
<path fill="none" stroke="black" d="M670.225,-948.197C769.766,-943.667 920.248,-936.34 1051,-928 1243.32,-915.733 1469.28,-897.391 1585.76,-887.645"/>
<polygon fill="black" stroke="black" points="1586.33,-891.109 1596.01,-886.786 1585.75,-884.133 1586.33,-891.109"/>
</g>
<!-- n19&#45;&gt;n5 -->
<g id="edge26" class="edge"><title>n19&#45;&gt;n5</title>
<path fill="none" stroke="black" d="M445.812,-950.431C346.503,-947.345 215.24,-940.878 194,-928 159.307,-906.965 138.618,-862.884 128.278,-834.136"/>
<polygon fill="black" stroke="black" points="131.468,-832.646 124.93,-824.309 124.842,-834.903 131.468,-832.646"/>
</g>
<!-- n19&#45;&gt;n3 -->
<g id="edge24" class="edge"><title>n19&#45;&gt;n3</title>
<path fill="none" stroke="black" d="M512.375,-937.554C478.603,-926.601 433.061,-911.83 396.987,-900.131"/>
<polygon fill="black" stroke="black" points="397.674,-896.674 387.082,-896.918 395.514,-903.333 397.674,-896.674"/>
</g>
<!-- n19&#45;&gt;n22 -->
<g id="edge28" class="edge"><title>n19&#45;&gt;n22</title>
<path fill="none" stroke="black" d="M657.566,-944.15C689.184,-940.326 724.275,-935.066 756,-928 787.62,-920.957 822.159,-909.994 849.702,-900.427"/>
<polygon fill="black" stroke="black" points="850.863,-903.729 859.136,-897.11 848.541,-897.125 850.863,-903.729"/>
</g>
<!-- n19&#45;&gt;n20 -->
<g id="edge25" class="edge"><title>n19&#45;&gt;n20</title>
<path fill="none" stroke="black" d="M576.352,-935.937C585.117,-926.791 596.067,-915.365 605.707,-905.306"/>
<polygon fill="black" stroke="black" points="608.373,-907.582 612.765,-897.941 603.319,-902.739 608.373,-907.582"/>
</g>
<!-- n19&#45;&gt;n4 -->
<g id="edge29" class="edge"><title>n19&#45;&gt;n4</title>
<path fill="none" stroke="black" d="M510.954,-937.466C507.484,-934.794 504.411,-931.664 502,-928 485.878,-903.495 481.699,-883.174 502,-862 516.623,-846.748 672.205,-861.392 692,-854 705.687,-848.889 718.65,-839.307 728.92,-830.121"/>
<polygon fill="black" stroke="black" points="731.332,-832.657 736.216,-823.254 726.535,-827.559 731.332,-832.657"/>
</g>
<!-- n8&#45;&gt;n45 -->
<g id="edge30" class="edge"><title>n8&#45;&gt;n45</title>
<path fill="none" stroke="black" d="M571,-787.641C571,-777.297 571,-763.941 571,-752.221"/>
<polygon fill="black" stroke="black" points="574.5,-752.05 571,-742.05 567.5,-752.05 574.5,-752.05"/>
</g>
<!-- n37&#45;&gt;n46 -->
<g id="edge2" class="edge"><title>n37&#45;&gt;n46</title>
<path fill="none" stroke="black" d="M2126.39,-478.424C2114.36,-467.1 2098.21,-451.908 2084.75,-439.231"/>
<polygon fill="black" stroke="black" points="2086.86,-436.412 2077.18,-432.107 2082.06,-441.509 2086.86,-436.412"/>
</g>
<!-- n17 -->
<g id="node36" class="node"><title>n17</title>
<g id="a_node36"><a xlink:href="rev_GetPluginFolder%2Cf%2Cstack+%22libOPN_Rev%22%2C1" xlink:title="rev_GetPluginFolder">
<ellipse fill="GreenYellow" stroke="#008b00" cx="1817" cy="-414" rx="84.5514" ry="18"/>
<text text-anchor="middle" x="1817" y="-409.8" font-family="Times,serif" font-size="14.00">rev_GetPluginFolder</text>
</a>
</g>
</g>
<!-- n37&#45;&gt;n17 -->
<g id="edge1" class="edge"><title>n37&#45;&gt;n17</title>
<path fill="none" stroke="black" d="M2068.16,-489.607C2023.46,-485.046 1966.2,-476.782 1917,-462 1895.47,-455.531 1872.69,-445.134 1854.32,-435.762"/>
<polygon fill="black" stroke="black" points="1855.91,-432.639 1845.42,-431.124 1852.67,-438.848 1855.91,-432.639"/>
</g>
<!-- n47 -->
<g id="node38" class="node"><title>n47</title>
<g id="a_node38"><a xlink:href="checkout_SetFolderAndRepotype%2Cc%2Cstack+%22model_ObjectMetadata%22%2C1" xlink:title="checkout_SetFolderAndRepotype">
<ellipse fill="LightBlue" stroke="Blue" cx="2337" cy="-414" rx="129.92" ry="18"/>
<text text-anchor="middle" x="2337" y="-409.8" font-family="Times,serif" font-size="14.00">checkout_SetFolderAndRepotype</text>
</a>
</g>
</g>
<!-- n37&#45;&gt;n47 -->
<g id="edge3" class="edge"><title>n37&#45;&gt;n47</title>
<path fill="none" stroke="black" d="M2180.76,-479.764C2211.22,-467.138 2254.77,-449.085 2288.16,-435.245"/>
<polygon fill="black" stroke="black" points="2289.83,-438.341 2297.73,-431.279 2287.15,-431.875 2289.83,-438.341"/>
</g>
<!-- n41 -->
<g id="node35" class="node"><title>n41</title>
<g id="a_node35"><a xlink:href="text_OffsetBefore%2Cf%2Cstack+%22lib_Common%22%2C1" xlink:title="text_OffsetBefore">
<ellipse fill="GreenYellow" stroke="#008b00" cx="629" cy="-34" rx="73.5895" ry="18"/>
<text text-anchor="middle" x="629" y="-29.8" font-family="Times,serif" font-size="14.00">text_OffsetBefore</text>
</a>
</g>
</g>
<!-- n17&#45;&gt;n18 -->
<g id="edge13" class="edge"><title>n17&#45;&gt;n18</title>
<path fill="none" stroke="black" d="M1816.35,-395.641C1815.96,-385.297 1815.46,-371.941 1815.02,-360.221"/>
<polygon fill="black" stroke="black" points="1818.51,-359.912 1814.64,-350.05 1811.52,-360.174 1818.51,-359.912"/>
</g>
<!-- n13&#45;&gt;n14 -->
<g id="edge10" class="edge"><title>n13&#45;&gt;n14</title>
<path fill="none" stroke="black" d="M1491,-787.641C1491,-777.297 1491,-763.941 1491,-752.221"/>
<polygon fill="black" stroke="black" points="1494.5,-752.05 1491,-742.05 1487.5,-752.05 1494.5,-752.05"/>
</g>
<!-- n23&#45;&gt;n24 -->
<g id="edge32" class="edge"><title>n23&#45;&gt;n24</title>
<path fill="none" stroke="black" d="M416.067,-87.6966C413.394,-79.8979 410.174,-70.5085 407.199,-61.8292"/>
<polygon fill="black" stroke="black" points="410.418,-60.4286 403.864,-52.1043 403.797,-62.699 410.418,-60.4286"/>
</g>
<!-- n16 -->
<g id="node40" class="node"><title>n16</title>
<g id="a_node40"><a xlink:href="text_AddTrailing%2Cc%2Cstack+%22Rescue+Livecode+World%22%2C1" xlink:title="text_AddTrailing">
<ellipse fill="LightBlue" stroke="Blue" cx="1857" cy="-178" rx="71.3991" ry="18"/>
<text text-anchor="middle" x="1857" y="-173.8" font-family="Times,serif" font-size="14.00">text_AddTrailing</text>
</a>
</g>
</g>
<!-- n34 -->
<g id="node42" class="node"><title>n34</title>
<g id="a_node42"><a xlink:href="object_StackNameOffsets%2Cc%2Cstack+%22lib_Common%22%2C1" xlink:title="object_StackNameOffsets">
<ellipse fill="LightBlue" stroke="Blue" cx="629" cy="-106" rx="102.071" ry="18"/>
<text text-anchor="middle" x="629" y="-101.8" font-family="Times,serif" font-size="14.00">object_StackNameOffsets</text>
</a>
</g>
</g>
<!-- n34&#45;&gt;n41 -->
<g id="edge44" class="edge"><title>n34&#45;&gt;n41</title>
<path fill="none" stroke="black" d="M629,-87.6966C629,-79.9827 629,-70.7125 629,-62.1124"/>
<polygon fill="black" stroke="black" points="632.5,-62.1043 629,-52.1043 625.5,-62.1044 632.5,-62.1043"/>
</g>
<!-- n12&#45;&gt;n34 -->
<g id="edge4" class="edge"><title>n12&#45;&gt;n34</title>
<path fill="none" stroke="black" d="M629,-159.697C629,-151.983 629,-142.712 629,-134.112"/>
<polygon fill="black" stroke="black" points="632.5,-134.104 629,-124.104 625.5,-134.104 632.5,-134.104"/>
</g>
<!-- n15&#45;&gt;n16 -->
<g id="edge15" class="edge"><title>n15&#45;&gt;n16</title>
<path fill="none" stroke="black" d="M1857,-231.697C1857,-223.983 1857,-214.712 1857,-206.112"/>
<polygon fill="black" stroke="black" points="1860.5,-206.104 1857,-196.104 1853.5,-206.104 1860.5,-206.104"/>
</g>
</g>
</svg>
