<?xml version="1.0" encoding="UTF-8" standalone="no"?>
<!DOCTYPE svg PUBLIC "-//W3C//DTD SVG 1.1//EN"
 "http://www.w3.org/Graphics/SVG/1.1/DTD/svg11.dtd">
<!-- Generated by graphviz version 2.38.0 (20140413.2041)
 -->
<!-- Title: dot_FromArray Pages: 1 -->
<svg width="2250pt" height="184pt"
 viewBox="0.00 0.00 2250.00 184.44" xmlns="http://www.w3.org/2000/svg" xmlns:xlink="http://www.w3.org/1999/xlink">
<g id="graph0" class="graph" transform="scale(0.548914 0.548914) rotate(0) translate(4 332)">
<title>dot_FromArray</title>
<polygon fill="white" stroke="none" points="-4,4 -4,-332 4095,-332 4095,4 -4,4"/>
<g id="clust3" class="cluster"><title>cluster1</title>
<polygon fill="orange" stroke="red" points="2886,-8 2886,-82 3553,-82 3553,-8 2886,-8"/>
<text text-anchor="middle" x="3219.5" y="-66.8" font-family="Times,serif" font-size="14.00">Missing</text>
</g>
<g id="clust4" class="cluster"><title>cluster2</title>
<polygon fill="#999999" stroke="#999999" points="3282,-90 3282,-164 3434,-164 3434,-90 3282,-90"/>
<text text-anchor="middle" x="3358" y="-148.8" font-family="Times,serif" font-size="14.00">stack &quot;hap_ArtDesktop&quot;</text>
</g>
<g id="clust5" class="cluster"><title>cluster3</title>
<polygon fill="#999999" stroke="#999999" points="3510,-172 3510,-246 4043,-246 4043,-172 3510,-172"/>
<text text-anchor="middle" x="3776.5" y="-230.8" font-family="Times,serif" font-size="14.00">stack &quot;lib_DirectoryWalker&quot;</text>
</g>
<g id="clust6" class="cluster"><title>cluster4</title>
<polygon fill="#999999" stroke="#999999" points="332,-90 332,-320 3110,-320 3110,-90 332,-90"/>
<text text-anchor="middle" x="1721" y="-304.8" font-family="Times,serif" font-size="14.00">stack &quot;lib_HAP&quot;</text>
</g>
<g id="clust7" class="cluster"><title>cluster5</title>
<polygon fill="#999999" stroke="#999999" points="8,-8 8,-164 324,-164 324,-8 8,-8"/>
<text text-anchor="middle" x="166" y="-148.8" font-family="Times,serif" font-size="14.00">stack &quot;lib_Sitemap&quot;</text>
</g>
<g id="clust8" class="cluster"><title>cluster6</title>
<polygon fill="#999999" stroke="#999999" points="3118,-90 3118,-164 3274,-164 3274,-90 3118,-90"/>
<text text-anchor="middle" x="3196" y="-148.8" font-family="Times,serif" font-size="14.00">stack &quot;lib_Text&quot;</text>
</g>
<g id="clust9" class="cluster"><title>cluster7</title>
<polygon fill="#999999" stroke="#999999" points="3890,-8 3890,-164 4083,-164 4083,-8 3890,-8"/>
<text text-anchor="middle" x="3986.5" y="-148.8" font-family="Times,serif" font-size="14.00">stack &quot;Rescue Livecode World&quot;</text>
</g>
<!-- n28 -->
<g id="node1" class="node"><title>n28</title>
<g id="a_node1"><a xlink:href="hap_ListHtmlFiles%2Cf%2Cstack+%22lib_HAP%22%2C1" xlink:title="hap_ListHtmlFiles">
<ellipse fill="GreenYellow" stroke="#008b00" cx="2152" cy="-272" rx="76.3657" ry="18"/>
<text text-anchor="middle" x="2152" y="-267.8" font-family="Times,serif" font-size="14.00">hap_ListHtmlFiles</text>
</a>
</g>
</g>
<!-- n29 -->
<g id="node13" class="node"><title>n29</title>
<g id="a_node13"><a xlink:href="_FilterFoundFiles%2Cf%2Cstack+%22lib_DirectoryWalker%22%2C1" xlink:title="_FilterFoundFiles">
<ellipse fill="GreenYellow" stroke="#008b00" cx="3820" cy="-198" rx="73.4844" ry="18"/>
<text text-anchor="middle" x="3820" y="-193.8" font-family="Times,serif" font-size="14.00">_FilterFoundFiles</text>
</a>
</g>
</g>
<!-- n28&#45;&gt;n29 -->
<g id="edge4" class="edge"><title>n28&#45;&gt;n29</title>
<path fill="none" stroke="black" d="M2204.98,-258.892C2215.85,-256.871 2227.25,-255.081 2238,-254 2279.43,-249.833 3696.76,-256.716 3737,-246 3755.86,-240.977 3774.95,-230.616 3790.06,-220.897"/>
<polygon fill="black" stroke="black" points="3792.08,-223.754 3798.46,-215.294 3788.2,-217.93 3792.08,-223.754"/>
</g>
<!-- n30 -->
<g id="node14" class="node"><title>n30</title>
<g id="a_node14"><a xlink:href="shell_GetGoodNestedFiles%2Cf%2Cstack+%22lib_DirectoryWalker%22%2C1" xlink:title="shell_GetGoodNestedFiles">
<ellipse fill="GreenYellow" stroke="#008b00" cx="3623" cy="-198" rx="105.315" ry="18"/>
<text text-anchor="middle" x="3623" y="-193.8" font-family="Times,serif" font-size="14.00">shell_GetGoodNestedFiles</text>
</a>
</g>
</g>
<!-- n28&#45;&gt;n30 -->
<g id="edge5" class="edge"><title>n28&#45;&gt;n30</title>
<path fill="none" stroke="black" d="M2204.98,-258.9C2215.85,-256.878 2227.25,-255.087 2238,-254 2307.98,-246.927 3434.95,-259.369 3504,-246 3530.91,-240.791 3559.52,-229.687 3581.94,-219.579"/>
<polygon fill="black" stroke="black" points="3583.54,-222.697 3591.15,-215.328 3580.6,-216.342 3583.54,-222.697"/>
</g>
<!-- n3 -->
<g id="node32" class="node"><title>n3</title>
<g id="a_node32"><a xlink:href="_AddInfoFiles%2Cc%2Cstack+%22lib_DirectoryWalker%22%2C1" xlink:title="_AddInfoFiles">
<ellipse fill="LightBlue" stroke="Blue" cx="3973" cy="-198" rx="61.8822" ry="18"/>
<text text-anchor="middle" x="3973" y="-193.8" font-family="Times,serif" font-size="14.00">_AddInfoFiles</text>
</a>
</g>
</g>
<!-- n28&#45;&gt;n3 -->
<g id="edge3" class="edge"><title>n28&#45;&gt;n3</title>
<path fill="none" stroke="black" d="M2204.98,-258.887C2215.85,-256.867 2227.25,-255.079 2238,-254 2283.99,-249.386 3857.77,-259.429 3902,-246 3918.2,-241.08 3934.12,-231.151 3946.77,-221.681"/>
<polygon fill="black" stroke="black" points="3949.25,-224.187 3954.96,-215.266 3944.93,-218.675 3949.25,-224.187"/>
</g>
<!-- n31 -->
<g id="node2" class="node"><title>n31</title>
<g id="a_node2"><a xlink:href="hap_GetAllImageFormats%2Cf%2Cstack+%22lib_HAP%22%2C1" xlink:title="hap_GetAllImageFormats">
<ellipse fill="GreenYellow" stroke="#008b00" cx="2767" cy="-272" rx="102.399" ry="18"/>
<text text-anchor="middle" x="2767" y="-267.8" font-family="Times,serif" font-size="14.00">hap_GetAllImageFormats</text>
</a>
</g>
</g>
<!-- n25 -->
<g id="node3" class="node"><title>n25</title>
<g id="a_node3"><a xlink:href="url_Construct%2Cf%2Cstack+%22lib_Sitemap%22%2C1" xlink:title="url_Construct">
<ellipse fill="GreenYellow" stroke="#008b00" cx="245" cy="-116" rx="58.9841" ry="18"/>
<text text-anchor="middle" x="245" y="-111.8" font-family="Times,serif" font-size="14.00">url_Construct</text>
</a>
</g>
</g>
<!-- n27 -->
<g id="node30" class="node"><title>n27</title>
<g id="a_node30"><a xlink:href="text_TopAndTail%2Cc%2Cstack+%22lib_Sitemap%22%2C1" xlink:title="text_TopAndTail">
<ellipse fill="LightBlue" stroke="Blue" cx="86" cy="-34" rx="70.0425" ry="18"/>
<text text-anchor="middle" x="86" y="-29.8" font-family="Times,serif" font-size="14.00">text_TopAndTail</text>
</a>
</g>
</g>
<!-- n25&#45;&gt;n27 -->
<g id="edge21" class="edge"><title>n25&#45;&gt;n27</title>
<path fill="none" stroke="black" d="M209.458,-101.628C195.406,-96.0093 179.242,-89.1266 165,-82 149.663,-74.3256 133.282,-64.8125 119.436,-56.3566"/>
<polygon fill="black" stroke="black" points="121.086,-53.2619 110.739,-50.9824 117.406,-59.2167 121.086,-53.2619"/>
</g>
<!-- n26 -->
<g id="node33" class="node"><title>n26</title>
<g id="a_node33"><a xlink:href="text_AddTrailing%2Cc%2Cstack+%22lib_Sitemap%22%2C1" xlink:title="text_AddTrailing">
<ellipse fill="LightBlue" stroke="Blue" cx="245" cy="-34" rx="71.3991" ry="18"/>
<text text-anchor="middle" x="245" y="-29.8" font-family="Times,serif" font-size="14.00">text_AddTrailing</text>
</a>
</g>
</g>
<!-- n25&#45;&gt;n26 -->
<g id="edge20" class="edge"><title>n25&#45;&gt;n26</title>
<path fill="none" stroke="black" d="M245,-97.6412C245,-87.2971 245,-73.941 245,-62.2206"/>
<polygon fill="black" stroke="black" points="248.5,-62.0501 245,-52.0501 241.5,-62.0501 248.5,-62.0501"/>
</g>
<!-- n23 -->
<g id="node4" class="node"><title>n23</title>
<g id="a_node4"><a xlink:href="hap_GetImageDescription%2Cf%2Cstack+%22lib_HAP%22%2C1" xlink:title="hap_GetImageDescription">
<ellipse fill="GreenYellow" stroke="#008b00" cx="2543" cy="-272" rx="103.342" ry="18"/>
<text text-anchor="middle" x="2543" y="-267.8" font-family="Times,serif" font-size="14.00">hap_GetImageDescription</text>
</a>
</g>
</g>
<!-- n18 -->
<g id="node5" class="node"><title>n18</title>
<g id="a_node5"><a xlink:href="hap_GetImageAuthor%2Cf%2Cstack+%22lib_HAP%22%2C1" xlink:title="hap_GetImageAuthor">
<ellipse fill="GreenYellow" stroke="#008b00" cx="2334" cy="-272" rx="87.4307" ry="18"/>
<text text-anchor="middle" x="2334" y="-267.8" font-family="Times,serif" font-size="14.00">hap_GetImageAuthor</text>
</a>
</g>
</g>
<!-- n9 -->
<g id="node6" class="node"><title>n9</title>
<g id="a_node6"><a xlink:href="hap_GetFileNameArray%2Cf%2Cstack+%22lib_HAP%22%2C1" xlink:title="hap_GetFileNameArray">
<ellipse fill="GreenYellow" stroke="#008b00" cx="2968" cy="-116" rx="95.624" ry="18"/>
<text text-anchor="middle" x="2968" y="-111.8" font-family="Times,serif" font-size="14.00">hap_GetFileNameArray</text>
</a>
</g>
</g>
<!-- n10 -->
<g id="node11" class="node"><title>n10</title>
<g id="a_node11"><a xlink:href="rigGetFileNames%2Cf%2CMissing%2C1" xlink:title="rigGetFileNames">
<ellipse fill="GreenYellow" stroke="#008b00" cx="3057" cy="-34" rx="71.0272" ry="18"/>
<text text-anchor="middle" x="3057" y="-29.8" font-family="Times,serif" font-size="14.00">rigGetFileNames</text>
</a>
</g>
</g>
<!-- n9&#45;&gt;n10 -->
<g id="edge12" class="edge"><title>n9&#45;&gt;n10</title>
<path fill="none" stroke="black" d="M2986.87,-98.0341C2999.7,-86.5017 3016.85,-71.0943 3030.97,-58.3992"/>
<polygon fill="black" stroke="black" points="3033.36,-60.9552 3038.46,-51.6672 3028.68,-55.7492 3033.36,-60.9552"/>
</g>
<!-- n12 -->
<g id="node17" class="node"><title>n12</title>
<g id="a_node17"><a xlink:href="rigTrim%2Cf%2CMissing%2C1" xlink:title="rigTrim">
<ellipse fill="GreenYellow" stroke="#008b00" cx="2931" cy="-34" rx="37.114" ry="18"/>
<text text-anchor="middle" x="2931" y="-29.8" font-family="Times,serif" font-size="14.00">rigTrim</text>
</a>
</g>
</g>
<!-- n9&#45;&gt;n12 -->
<g id="edge14" class="edge"><title>n9&#45;&gt;n12</title>
<path fill="none" stroke="black" d="M2960.15,-98.0341C2955.17,-87.2492 2948.61,-73.0753 2942.98,-60.9001"/>
<polygon fill="black" stroke="black" points="2946.08,-59.2742 2938.71,-51.6672 2939.73,-62.2127 2946.08,-59.2742"/>
</g>
<!-- n11 -->
<g id="node34" class="node"><title>n11</title>
<g id="a_node34"><a xlink:href="rigLoadHelper%2Cc%2CMissing%2C1" xlink:title="rigLoadHelper">
<ellipse fill="LightBlue" stroke="Blue" cx="3208" cy="-34" rx="62.3234" ry="18"/>
<text text-anchor="middle" x="3208" y="-29.8" font-family="Times,serif" font-size="14.00">rigLoadHelper</text>
</a>
</g>
</g>
<!-- n9&#45;&gt;n11 -->
<g id="edge13" class="edge"><title>n9&#45;&gt;n11</title>
<path fill="none" stroke="black" d="M3039.22,-103.939C3077.05,-97.5026 3119.3,-89.2526 3137,-82 3152.12,-75.808 3167.41,-66.2047 3179.91,-57.2887"/>
<polygon fill="black" stroke="black" points="3182.11,-60.0211 3188.09,-51.2762 3177.96,-54.3824 3182.11,-60.0211"/>
</g>
<!-- n5 -->
<g id="node7" class="node"><title>n5</title>
<g id="a_node7"><a xlink:href="hap_ConstructMediaURL%2Cf%2Cstack+%22lib_HAP%22%2C1" xlink:title="hap_ConstructMediaURL">
<ellipse fill="GreenYellow" stroke="#008b00" cx="617" cy="-198" rx="101.931" ry="18"/>
<text text-anchor="middle" x="617" y="-193.8" font-family="Times,serif" font-size="14.00">hap_ConstructMediaURL</text>
</a>
</g>
</g>
<!-- n21 -->
<g id="node8" class="node"><title>n21</title>
<g id="a_node8"><a xlink:href="hap_SitemapRestURL%2Cf%2Cstack+%22lib_HAP%22%2C1" xlink:title="hap_SitemapRestURL">
<ellipse fill="GreenYellow" stroke="#008b00" cx="1414" cy="-272" rx="89.8792" ry="18"/>
<text text-anchor="middle" x="1414" y="-267.8" font-family="Times,serif" font-size="14.00">hap_SitemapRestURL</text>
</a>
</g>
</g>
<!-- n22 -->
<g id="node19" class="node"><title>n22</title>
<g id="a_node19"><a xlink:href="hap_ConstructRestURL%2Cf%2Cstack+%22lib_HAP%22%2C1" xlink:title="hap_ConstructRestURL">
<ellipse fill="GreenYellow" stroke="#008b00" cx="1414" cy="-198" rx="95.1914" ry="18"/>
<text text-anchor="middle" x="1414" y="-193.8" font-family="Times,serif" font-size="14.00">hap_ConstructRestURL</text>
</a>
</g>
</g>
<!-- n21&#45;&gt;n22 -->
<g id="edge11" class="edge"><title>n21&#45;&gt;n22</title>
<path fill="none" stroke="black" d="M1414,-253.937C1414,-245.807 1414,-235.876 1414,-226.705"/>
<polygon fill="black" stroke="black" points="1417.5,-226.441 1414,-216.441 1410.5,-226.441 1417.5,-226.441"/>
</g>
<!-- n14 -->
<g id="node9" class="node"><title>n14</title>
<g id="a_node9"><a xlink:href="hap_GetDocumentRoot%2Cf%2Cstack+%22lib_HAP%22%2C1" xlink:title="hap_GetDocumentRoot">
<ellipse fill="GreenYellow" stroke="#008b00" cx="1616" cy="-272" rx="94.2051" ry="18"/>
<text text-anchor="middle" x="1616" y="-267.8" font-family="Times,serif" font-size="14.00">hap_GetDocumentRoot</text>
</a>
</g>
</g>
<!-- n16 -->
<g id="node10" class="node"><title>n16</title>
<g id="a_node10"><a xlink:href="hap_JsonFromArray%2Cf%2Cstack+%22lib_HAP%22%2C1" xlink:title="hap_JsonFromArray">
<ellipse fill="GreenYellow" stroke="#008b00" cx="1811" cy="-272" rx="82.6217" ry="18"/>
<text text-anchor="middle" x="1811" y="-267.8" font-family="Times,serif" font-size="14.00">hap_JsonFromArray</text>
</a>
</g>
</g>
<!-- n17 -->
<g id="node26" class="node"><title>n17</title>
<g id="a_node26"><a xlink:href="jsonFromArray%2Cf%2CMissing%2C1" xlink:title="jsonFromArray">
<ellipse fill="GreenYellow" stroke="#008b00" cx="3353" cy="-34" rx="64.7718" ry="18"/>
<text text-anchor="middle" x="3353" y="-29.8" font-family="Times,serif" font-size="14.00">jsonFromArray</text>
</a>
</g>
</g>
<!-- n16&#45;&gt;n17 -->
<g id="edge6" class="edge"><title>n16&#45;&gt;n17</title>
<path fill="none" stroke="black" d="M1868.2,-258.838C1879.68,-256.849 1891.68,-255.086 1903,-254 2073.07,-237.684 3325.65,-292.715 3438,-164 3459.63,-139.222 3453.72,-118.89 3438,-90 3437.81,-89.6455 3409.83,-71.5745 3386.02,-56.2437"/>
<polygon fill="black" stroke="black" points="3387.81,-53.2282 3377.5,-50.7574 3384.02,-59.1138 3387.81,-53.2282"/>
</g>
<!-- n7 -->
<g id="node12" class="node"><title>n7</title>
<g id="a_node12"><a xlink:href="hap_JsonToArray%2Cf%2Cstack+%22lib_HAP%22%2C1" xlink:title="hap_JsonToArray">
<ellipse fill="GreenYellow" stroke="#008b00" cx="1985" cy="-272" rx="72.7065" ry="18"/>
<text text-anchor="middle" x="1985" y="-267.8" font-family="Times,serif" font-size="14.00">hap_JsonToArray</text>
</a>
</g>
</g>
<!-- n8 -->
<g id="node22" class="node"><title>n8</title>
<g id="a_node22"><a xlink:href="jsonToArray%2Cf%2CMissing%2C1" xlink:title="jsonToArray">
<ellipse fill="GreenYellow" stroke="#008b00" cx="3490" cy="-34" rx="54.8571" ry="18"/>
<text text-anchor="middle" x="3490" y="-29.8" font-family="Times,serif" font-size="14.00">jsonToArray</text>
</a>
</g>
</g>
<!-- n7&#45;&gt;n8 -->
<g id="edge7" class="edge"><title>n7&#45;&gt;n8</title>
<path fill="none" stroke="black" d="M2035.49,-258.894C2045.86,-256.872 2056.73,-255.083 2067,-254 2076.66,-252.981 3458.77,-252.491 3466,-246 3517.56,-199.71 3506.35,-107.671 3496.75,-62.0002"/>
<polygon fill="black" stroke="black" points="3500.1,-60.9527 3494.5,-51.9575 3493.27,-62.4803 3500.1,-60.9527"/>
</g>
<!-- n32 -->
<g id="node15" class="node"><title>n32</title>
<g id="a_node15"><a xlink:href="hap_GetImageRelativePath%2Cf%2Cstack+%22lib_HAP%22%2C1" xlink:title="hap_GetImageRelativePath">
<ellipse fill="GreenYellow" stroke="#008b00" cx="2995" cy="-272" rx="107.201" ry="18"/>
<text text-anchor="middle" x="2995" y="-267.8" font-family="Times,serif" font-size="14.00">hap_GetImageRelativePath</text>
</a>
</g>
</g>
<!-- n2 -->
<g id="node29" class="node"><title>n2</title>
<g id="a_node29"><a xlink:href="text_AddTrailing%2Cc%2Cstack+%22Rescue+Livecode+World%22%2C1" xlink:title="text_AddTrailing">
<ellipse fill="LightBlue" stroke="Blue" cx="3987" cy="-34" rx="71.3991" ry="18"/>
<text text-anchor="middle" x="3987" y="-29.8" font-family="Times,serif" font-size="14.00">text_AddTrailing</text>
</a>
</g>
</g>
<!-- n32&#45;&gt;n2 -->
<g id="edge22" class="edge"><title>n32&#45;&gt;n2</title>
<path fill="none" stroke="black" d="M3102.16,-270.41C3366.7,-268.697 4030.66,-262.737 4047,-246 4053.43,-239.411 4043.2,-90.451 4043,-90 4037.46,-77.6379 4027.77,-66.5823 4018,-57.6829"/>
<polygon fill="black" stroke="black" points="4020.09,-54.8683 4010.22,-51.0243 4015.54,-60.1862 4020.09,-54.8683"/>
</g>
<!-- n34 -->
<g id="node16" class="node"><title>n34</title>
<g id="a_node16"><a xlink:href="hap_GetPathTranslated%2Cf%2Cstack+%22lib_HAP%22%2C1" xlink:title="hap_GetPathTranslated">
<ellipse fill="GreenYellow" stroke="#008b00" cx="1214" cy="-272" rx="92.6059" ry="18"/>
<text text-anchor="middle" x="1214" y="-267.8" font-family="Times,serif" font-size="14.00">hap_GetPathTranslated</text>
</a>
</g>
</g>
<!-- n24 -->
<g id="node18" class="node"><title>n24</title>
<g id="a_node18"><a xlink:href="hap_ListImageFormats%2Cf%2Cstack+%22lib_HAP%22%2C1" xlink:title="hap_ListImageFormats">
<ellipse fill="GreenYellow" stroke="#008b00" cx="1011" cy="-272" rx="92.2757" ry="18"/>
<text text-anchor="middle" x="1011" y="-267.8" font-family="Times,serif" font-size="14.00">hap_ListImageFormats</text>
</a>
</g>
</g>
<!-- n22&#45;&gt;n25 -->
<g id="edge19" class="edge"><title>n22&#45;&gt;n25</title>
<path fill="none" stroke="black" d="M1331.85,-188.923C1268.35,-183.057 1178.19,-175.549 1099,-172 1056.21,-170.082 369.365,-175.129 328,-164 309.018,-158.893 289.794,-148.417 274.634,-138.649"/>
<polygon fill="black" stroke="black" points="276.47,-135.667 266.21,-133.026 272.584,-141.489 276.47,-135.667"/>
</g>
<!-- n33 -->
<g id="node28" class="node"><title>n33</title>
<g id="a_node28"><a xlink:href="text_TopAndTail%2Cc%2Cstack+%22lib_Text%22%2C1" xlink:title="text_TopAndTail">
<ellipse fill="LightBlue" stroke="Blue" cx="3196" cy="-116" rx="70.0425" ry="18"/>
<text text-anchor="middle" x="3196" y="-111.8" font-family="Times,serif" font-size="14.00">text_TopAndTail</text>
</a>
</g>
</g>
<!-- n22&#45;&gt;n33 -->
<g id="edge18" class="edge"><title>n22&#45;&gt;n33</title>
<path fill="none" stroke="black" d="M1506.27,-193.481C1656.16,-187.913 1961.91,-177.173 2221,-172 2245.8,-171.505 3090.06,-170.49 3114,-164 3132.67,-158.94 3151.53,-148.576 3166.45,-138.865"/>
<polygon fill="black" stroke="black" points="3168.41,-141.762 3174.74,-133.268 3164.5,-135.959 3168.41,-141.762"/>
</g>
<!-- n20 -->
<g id="node20" class="node"><title>n20</title>
<g id="a_node20"><a xlink:href="hap_GetImageFolder%2Cf%2Cstack+%22lib_HAP%22%2C1" xlink:title="hap_GetImageFolder">
<ellipse fill="GreenYellow" stroke="#008b00" cx="2315" cy="-198" rx="85.0015" ry="18"/>
<text text-anchor="middle" x="2315" y="-193.8" font-family="Times,serif" font-size="14.00">hap_GetImageFolder</text>
</a>
</g>
</g>
<!-- n13 -->
<g id="node27" class="node"><title>n13</title>
<g id="a_node27"><a xlink:href="folderForArt%2Cf%2Cstack+%22hap_ArtDesktop%22%2C1" xlink:title="folderForArt">
<ellipse fill="GreenYellow" stroke="#008b00" cx="3345" cy="-116" rx="55.0922" ry="18"/>
<text text-anchor="middle" x="3345" y="-111.8" font-family="Times,serif" font-size="14.00">folderForArt</text>
</a>
</g>
</g>
<!-- n20&#45;&gt;n13 -->
<g id="edge17" class="edge"><title>n20&#45;&gt;n13</title>
<path fill="none" stroke="black" d="M2396.76,-192.695C2505.48,-187.119 2703.63,-177.466 2873,-172 2895.49,-171.274 3256.61,-170.988 3278,-164 3293.47,-158.945 3308.52,-149.002 3320.41,-139.558"/>
<polygon fill="black" stroke="black" points="3322.66,-142.246 3328.11,-133.166 3318.18,-136.86 3322.66,-142.246"/>
</g>
<!-- n19 -->
<g id="node21" class="node"><title>n19</title>
<g id="a_node21"><a xlink:href="hap_ListImageFiles%2Cf%2Cstack+%22lib_HAP%22%2C1" xlink:title="hap_ListImageFiles">
<ellipse fill="GreenYellow" stroke="#008b00" cx="821" cy="-272" rx="80.1989" ry="18"/>
<text text-anchor="middle" x="821" y="-267.8" font-family="Times,serif" font-size="14.00">hap_ListImageFiles</text>
</a>
</g>
</g>
<!-- n19&#45;&gt;n20 -->
<g id="edge15" class="edge"><title>n19&#45;&gt;n20</title>
<path fill="none" stroke="black" d="M876.326,-258.875C887.426,-256.884 899.045,-255.11 910,-254 1044.43,-240.383 1382.96,-250.867 1518,-246 1775.19,-236.73 2078.55,-216.184 2225.82,-205.594"/>
<polygon fill="black" stroke="black" points="2226.43,-209.059 2236.15,-204.849 2225.93,-202.077 2226.43,-209.059"/>
</g>
<!-- n15 -->
<g id="node25" class="node"><title>n15</title>
<g id="a_node25"><a xlink:href="hap_ListFiles%2Cf%2Cstack+%22lib_HAP%22%2C1" xlink:title="hap_ListFiles">
<ellipse fill="GreenYellow" stroke="#008b00" cx="1032" cy="-198" rx="58.0083" ry="18"/>
<text text-anchor="middle" x="1032" y="-193.8" font-family="Times,serif" font-size="14.00">hap_ListFiles</text>
</a>
</g>
</g>
<!-- n19&#45;&gt;n15 -->
<g id="edge16" class="edge"><title>n19&#45;&gt;n15</title>
<path fill="none" stroke="black" d="M863.192,-256.603C898.259,-244.637 948.135,-227.617 984.579,-215.182"/>
<polygon fill="black" stroke="black" points="986.144,-218.346 994.478,-211.804 983.883,-211.721 986.144,-218.346"/>
</g>
<!-- n4 -->
<g id="node23" class="node"><title>n4</title>
<g id="a_node23"><a xlink:href="hap_ConstructMediaURLs%2Cf%2Cstack+%22lib_HAP%22%2C1" xlink:title="hap_ConstructMediaURLs">
<ellipse fill="GreenYellow" stroke="#008b00" cx="617" cy="-272" rx="105.315" ry="18"/>
<text text-anchor="middle" x="617" y="-267.8" font-family="Times,serif" font-size="14.00">hap_ConstructMediaURLs</text>
</a>
</g>
</g>
<!-- n4&#45;&gt;n5 -->
<g id="edge10" class="edge"><title>n4&#45;&gt;n5</title>
<path fill="none" stroke="black" d="M617,-253.937C617,-245.807 617,-235.876 617,-226.705"/>
<polygon fill="black" stroke="black" points="620.5,-226.441 617,-216.441 613.5,-226.441 620.5,-226.441"/>
</g>
<!-- n6 -->
<g id="node24" class="node"><title>n6</title>
<g id="a_node24"><a xlink:href="hap_ConstructUrls%2Cf%2Cstack+%22lib_HAP%22%2C1" xlink:title="hap_ConstructUrls">
<ellipse fill="GreenYellow" stroke="#008b00" cx="417" cy="-272" rx="76.833" ry="18"/>
<text text-anchor="middle" x="417" y="-267.8" font-family="Times,serif" font-size="14.00">hap_ConstructUrls</text>
</a>
</g>
</g>
<!-- n15&#45;&gt;n9 -->
<g id="edge9" class="edge"><title>n15&#45;&gt;n9</title>
<path fill="none" stroke="black" d="M1086.01,-191.232C1141.97,-185.469 1232.01,-176.797 1310,-172 1896.14,-135.952 2600.4,-122.436 2862.77,-118.428"/>
<polygon fill="black" stroke="black" points="2863.1,-121.923 2873.05,-118.272 2863,-114.924 2863.1,-121.923"/>
</g>
<!-- n13&#45;&gt;n14 -->
<g id="edge2" class="edge"><title>n13&#45;&gt;n14</title>
<path fill="none" stroke="black" d="M3327.42,-133.201C3314.69,-143.904 3296.53,-157.174 3278,-164 2913.97,-298.081 2796.4,-225.512 2409,-246 2255.87,-254.099 1871.76,-240.587 1719,-254 1709.69,-254.818 1699.95,-255.996 1690.33,-257.357"/>
<polygon fill="black" stroke="black" points="1689.75,-253.904 1680.37,-258.833 1690.77,-260.828 1689.75,-253.904"/>
</g>
<!-- n1 -->
<g id="node31" class="node"><title>n1</title>
<g id="a_node31"><a xlink:href="folder_Format%2Cc%2Cstack+%22Rescue+Livecode+World%22%2C1" xlink:title="folder_Format">
<ellipse fill="LightBlue" stroke="Blue" cx="3973" cy="-116" rx="61.3804" ry="18"/>
<text text-anchor="middle" x="3973" y="-111.8" font-family="Times,serif" font-size="14.00">folder_Format</text>
</a>
</g>
</g>
<!-- n1&#45;&gt;n2 -->
<g id="edge8" class="edge"><title>n1&#45;&gt;n2</title>
<path fill="none" stroke="black" d="M3976.04,-97.6412C3977.85,-87.2971 3980.19,-73.941 3982.24,-62.2206"/>
<polygon fill="black" stroke="black" points="3985.74,-62.5038 3984.02,-52.0501 3978.84,-61.297 3985.74,-62.5038"/>
</g>
<!-- n3&#45;&gt;n1 -->
<g id="edge1" class="edge"><title>n3&#45;&gt;n1</title>
<path fill="none" stroke="black" d="M3973,-179.641C3973,-169.297 3973,-155.941 3973,-144.221"/>
<polygon fill="black" stroke="black" points="3976.5,-144.05 3973,-134.05 3969.5,-144.05 3976.5,-144.05"/>
</g>
</g>
</svg>
