<?xml version="1.0" encoding="UTF-8" standalone="no"?>
<!DOCTYPE svg PUBLIC "-//W3C//DTD SVG 1.1//EN"
 "http://www.w3.org/Graphics/SVG/1.1/DTD/svg11.dtd">
<!-- Generated by graphviz version 2.38.0 (20140413.2041)
 -->
<!-- Title: dot_FromArray Pages: 1 -->
<svg width="1586pt" height="326pt"
 viewBox="0.00 0.00 1586.00 326.00" xmlns="http://www.w3.org/2000/svg" xmlns:xlink="http://www.w3.org/1999/xlink">
<g id="graph0" class="graph" transform="scale(1 1) rotate(0) translate(4 322)">
<title>dot_FromArray</title>
<polygon fill="white" stroke="none" points="-4,4 -4,-322 1582,-322 1582,4 -4,4"/>
<g id="clust3" class="cluster"><title>cluster1</title>
<polygon fill="#999999" stroke="#999999" points="281,-8 281,-154 667,-154 667,-8 281,-8"/>
<text text-anchor="middle" x="474" y="-138.8" font-family="Times,serif" font-size="14.00">stack &quot;lib_Cloud&quot;</text>
</g>
<g id="clust4" class="cluster"><title>cluster2</title>
<polygon fill="#999999" stroke="#999999" points="8,-162 8,-310 1192,-310 1192,-162 8,-162"/>
<text text-anchor="middle" x="600" y="-294.8" font-family="Times,serif" font-size="14.00">stack &quot;lib_Embedly&quot;</text>
</g>
<g id="clust5" class="cluster"><title>cluster3</title>
<polygon fill="#999999" stroke="#999999" points="1360,-162 1360,-236 1570,-236 1570,-162 1360,-162"/>
<text text-anchor="middle" x="1465" y="-220.8" font-family="Times,serif" font-size="14.00">stack &quot;lib_Shell&quot;</text>
</g>
<g id="clust6" class="cluster"><title>cluster4</title>
<polygon fill="#999999" stroke="#999999" points="1397,-80 1397,-154 1533,-154 1533,-80 1397,-80"/>
<text text-anchor="middle" x="1465" y="-138.8" font-family="Times,serif" font-size="14.00">stack &quot;lib_Text&quot;</text>
</g>
<g id="clust7" class="cluster"><title>cluster5</title>
<polygon fill="#999999" stroke="#999999" points="1200,-162 1200,-236 1352,-236 1352,-162 1200,-162"/>
<text text-anchor="middle" x="1276" y="-220.8" font-family="Times,serif" font-size="14.00">stack &quot;libOPN_JSON&quot;</text>
</g>
<!-- n6 -->
<g id="node1" class="node"><title>n6</title>
<g id="a_node1"><a xlink:href="cloud_FetchEvernoteFolderContents%2Cf%2Cstack+%22lib_Embedly%22%2C1" xlink:title="cloud_FetchEvernoteFolderContents">
<ellipse fill="GreenYellow" stroke="#008b00" cx="241" cy="-188" rx="140.052" ry="18"/>
<text text-anchor="middle" x="241" y="-183.8" font-family="Times,serif" font-size="14.00">cloud_FetchEvernoteFolderContents</text>
</a>
</g>
</g>
<!-- n3 -->
<g id="node3" class="node"><title>n3</title>
<g id="a_node3"><a xlink:href="cloud_RestGet%2Cf%2Cstack+%22lib_Cloud%22%2C1" xlink:title="cloud_RestGet">
<ellipse fill="GreenYellow" stroke="#008b00" cx="472" cy="-106" rx="62.8339" ry="18"/>
<text text-anchor="middle" x="472" y="-101.8" font-family="Times,serif" font-size="14.00">cloud_RestGet</text>
</a>
</g>
</g>
<!-- n6&#45;&gt;n3 -->
<g id="edge4" class="edge"><title>n6&#45;&gt;n3</title>
<path fill="none" stroke="black" d="M287.191,-171.003C326.844,-157.271 383.792,-137.548 423.968,-123.634"/>
<polygon fill="black" stroke="black" points="425.241,-126.898 433.545,-120.318 422.95,-120.283 425.241,-126.898"/>
</g>
<!-- n2 -->
<g id="node2" class="node"><title>n2</title>
<g id="a_node2"><a xlink:href="json_ToArray%2Cf%2Cstack+%22libOPN_JSON%22%2C1" xlink:title="json_ToArray">
<ellipse fill="GreenYellow" stroke="#008b00" cx="1267" cy="-188" rx="59.2001" ry="18"/>
<text text-anchor="middle" x="1267" y="-183.8" font-family="Times,serif" font-size="14.00">json_ToArray</text>
</a>
</g>
</g>
<!-- n2&#45;&gt;n2 -->
<g id="edge7" class="edge"><title>n2&#45;&gt;n2</title>
<path fill="none" stroke="black" d="M1306.67,-201.465C1326.45,-203.328 1344.1,-198.84 1344.1,-188 1344.1,-179.108 1332.23,-174.49 1317.04,-174.146"/>
<polygon fill="black" stroke="black" points="1316.53,-170.662 1306.67,-174.535 1316.79,-177.657 1316.53,-170.662"/>
</g>
<!-- n4 -->
<g id="node8" class="node"><title>n4</title>
<g id="a_node8"><a xlink:href="cloud_ConstructURL%2Cf%2Cstack+%22lib_Cloud%22%2C1" xlink:title="cloud_ConstructURL">
<ellipse fill="GreenYellow" stroke="#008b00" cx="375" cy="-34" rx="86.0051" ry="18"/>
<text text-anchor="middle" x="375" y="-29.8" font-family="Times,serif" font-size="14.00">cloud_ConstructURL</text>
</a>
</g>
</g>
<!-- n3&#45;&gt;n4 -->
<g id="edge5" class="edge"><title>n3&#45;&gt;n4</title>
<path fill="none" stroke="black" d="M449.989,-89.1159C437.121,-79.8294 420.663,-67.9529 406.446,-57.6932"/>
<polygon fill="black" stroke="black" points="408.093,-54.5653 397.936,-51.5516 403.997,-60.2417 408.093,-54.5653"/>
</g>
<!-- n5 -->
<g id="node12" class="node"><title>n5</title>
<g id="a_node12"><a xlink:href="cloud_SetRestHeaders%2Cc%2Cstack+%22lib_Cloud%22%2C1" xlink:title="cloud_SetRestHeaders">
<ellipse fill="LightBlue" stroke="Blue" cx="569" cy="-34" rx="90.3377" ry="18"/>
<text text-anchor="middle" x="569" y="-29.8" font-family="Times,serif" font-size="14.00">cloud_SetRestHeaders</text>
</a>
</g>
</g>
<!-- n3&#45;&gt;n5 -->
<g id="edge6" class="edge"><title>n3&#45;&gt;n5</title>
<path fill="none" stroke="black" d="M494.011,-89.1159C506.879,-79.8294 523.337,-67.9529 537.554,-57.6932"/>
<polygon fill="black" stroke="black" points="540.003,-60.2417 546.064,-51.5516 535.907,-54.5653 540.003,-60.2417"/>
</g>
<!-- n12 -->
<g id="node4" class="node"><title>n12</title>
<g id="a_node4"><a xlink:href="cloud_FetchEvernoteFileLink%2Cf%2Cstack+%22lib_Embedly%22%2C1" xlink:title="cloud_FetchEvernoteFileLink">
<ellipse fill="GreenYellow" stroke="#008b00" cx="472" cy="-262" rx="116.405" ry="18"/>
<text text-anchor="middle" x="472" y="-257.8" font-family="Times,serif" font-size="14.00">cloud_FetchEvernoteFileLink</text>
</a>
</g>
</g>
<!-- n12&#45;&gt;n3 -->
<g id="edge8" class="edge"><title>n12&#45;&gt;n3</title>
<path fill="none" stroke="black" d="M472,-243.931C472,-217.451 472,-166.224 472,-134.486"/>
<polygon fill="black" stroke="black" points="475.5,-134.146 472,-124.146 468.5,-134.146 475.5,-134.146"/>
</g>
<!-- n9 -->
<g id="node5" class="node"><title>n9</title>
<g id="a_node5"><a xlink:href="cloud_FetchEvernoteFile%2Cf%2Cstack+%22lib_Embedly%22%2C1" xlink:title="cloud_FetchEvernoteFile">
<ellipse fill="GreenYellow" stroke="#008b00" cx="706" cy="-262" rx="99.5002" ry="18"/>
<text text-anchor="middle" x="706" y="-257.8" font-family="Times,serif" font-size="14.00">cloud_FetchEvernoteFile</text>
</a>
</g>
</g>
<!-- n9&#45;&gt;n3 -->
<g id="edge1" class="edge"><title>n9&#45;&gt;n3</title>
<path fill="none" stroke="black" d="M680.958,-244.519C638.314,-216.455 551.642,-159.414 504.428,-128.341"/>
<polygon fill="black" stroke="black" points="506.091,-125.246 495.813,-122.672 502.242,-131.093 506.091,-125.246"/>
</g>
<!-- n11 -->
<g id="node6" class="node"><title>n11</title>
<g id="a_node6"><a xlink:href="cloud_FetchEvernoteFolderContentsArray%2Cf%2Cstack+%22lib_Embedly%22%2C1" xlink:title="cloud_FetchEvernoteFolderContentsArray">
<ellipse fill="GreenYellow" stroke="#008b00" cx="177" cy="-262" rx="160.798" ry="18"/>
<text text-anchor="middle" x="177" y="-257.8" font-family="Times,serif" font-size="14.00">cloud_FetchEvernoteFolderContentsArray</text>
</a>
</g>
</g>
<!-- n11&#45;&gt;n6 -->
<g id="edge9" class="edge"><title>n11&#45;&gt;n6</title>
<path fill="none" stroke="black" d="M192.167,-243.937C200.217,-234.881 210.254,-223.589 219.131,-213.602"/>
<polygon fill="black" stroke="black" points="221.914,-215.74 225.942,-205.941 216.682,-211.089 221.914,-215.74"/>
</g>
<!-- n11&#45;&gt;n2 -->
<g id="edge10" class="edge"><title>n11&#45;&gt;n2</title>
<path fill="none" stroke="black" d="M285.714,-248.655C306.056,-246.764 327.157,-245.083 347,-244 370.549,-242.714 1173.45,-242.904 1196,-236 1212.19,-231.043 1228.11,-221.11 1240.76,-211.647"/>
<polygon fill="black" stroke="black" points="1243.23,-214.155 1248.96,-205.238 1238.92,-208.641 1243.23,-214.155"/>
</g>
<!-- n10 -->
<g id="node7" class="node"><title>n10</title>
<g id="a_node7"><a xlink:href="text_IsQuoted%2Cf%2Cstack+%22lib_Text%22%2C1" xlink:title="text_IsQuoted">
<ellipse fill="GreenYellow" stroke="#008b00" cx="1465" cy="-106" rx="60.4202" ry="18"/>
<text text-anchor="middle" x="1465" y="-101.8" font-family="Times,serif" font-size="14.00">text_IsQuoted</text>
</a>
</g>
</g>
<!-- n1 -->
<g id="node9" class="node"><title>n1</title>
<g id="a_node9"><a xlink:href="embedly_FetchArray%2Cf%2Cstack+%22lib_Embedly%22%2C1" xlink:title="embedly_FetchArray">
<ellipse fill="GreenYellow" stroke="#008b00" cx="909" cy="-262" rx="85.0015" ry="18"/>
<text text-anchor="middle" x="909" y="-257.8" font-family="Times,serif" font-size="14.00">embedly_FetchArray</text>
</a>
</g>
</g>
<!-- n1&#45;&gt;n2 -->
<g id="edge3" class="edge"><title>n1&#45;&gt;n2</title>
<path fill="none" stroke="black" d="M968.24,-249.01C979.73,-247.047 991.709,-245.249 1003,-244 1045.67,-239.28 1155.16,-249.221 1196,-236 1212,-230.821 1227.8,-220.965 1240.41,-211.611"/>
<polygon fill="black" stroke="black" points="1242.83,-214.164 1248.61,-205.279 1238.55,-208.626 1242.83,-214.164"/>
</g>
<!-- n8 -->
<g id="node10" class="node"><title>n8</title>
<g id="a_node10"><a xlink:href="shell_BashParamEscape%2Cc%2Cstack+%22lib_Shell%22%2C1" xlink:title="shell_BashParamEscape">
<ellipse fill="LightBlue" stroke="Blue" cx="1465" cy="-188" rx="96.6017" ry="18"/>
<text text-anchor="middle" x="1465" y="-183.8" font-family="Times,serif" font-size="14.00">shell_BashParamEscape</text>
</a>
</g>
</g>
<!-- n8&#45;&gt;n10 -->
<g id="edge11" class="edge"><title>n8&#45;&gt;n10</title>
<path fill="none" stroke="black" d="M1465,-169.641C1465,-159.297 1465,-145.941 1465,-134.221"/>
<polygon fill="black" stroke="black" points="1468.5,-134.05 1465,-124.05 1461.5,-134.05 1468.5,-134.05"/>
</g>
<!-- n7 -->
<g id="node11" class="node"><title>n7</title>
<g id="a_node11"><a xlink:href="sox_NormalizeAudio%2Cc%2Cstack+%22lib_Embedly%22%2C1" xlink:title="sox_NormalizeAudio">
<ellipse fill="LightBlue" stroke="Blue" cx="1098" cy="-262" rx="86.4878" ry="18"/>
<text text-anchor="middle" x="1098" y="-257.8" font-family="Times,serif" font-size="14.00">sox_NormalizeAudio</text>
</a>
</g>
</g>
<!-- n7&#45;&gt;n8 -->
<g id="edge2" class="edge"><title>n7&#45;&gt;n8</title>
<path fill="none" stroke="black" d="M1183.39,-259.358C1234.2,-256.75 1299.56,-250.522 1356,-236 1379.78,-229.882 1405.03,-219.28 1425.23,-209.692"/>
<polygon fill="black" stroke="black" points="1426.96,-212.746 1434.43,-205.235 1423.9,-206.447 1426.96,-212.746"/>
</g>
</g>
</svg>
